#N canvas 720 100 674 546 10;
#X declare -lib ofelia;
#X obj 528 21 declare -lib ofelia;
#X obj 84 225 ofOscSender;
#X msg 84 124 setup localhost 12345;
#X msg 105 196 clear;
#X floatatom 100 150 5 0 0 0 - - -;
#X msg 100 170 send /test/number \$1;
#X msg 240 170 send /test/string foo;
#X obj 84 360 ofOscReceiver;
#X msg 84 313 setup 12345;
#X obj 84 402 print;
#X msg 94 334 stop;
#X text 138 149 <- send number to an address "/test/number";
#X text 380 170 <- send string;
#X text 126 402 the received OSC message. (address + value);
#X text 129 334 <- stop listening.;
#X text 227 124 <- setup the sender with host "localhost" and port
"12345".;
#X text 164 313 <- setup the receiver with the port to listen for messages.
;
#X obj 84 381 route received;
#X text 25 23 This example shows sending and receiving OSC messages.
;
#X obj 84 292 loadbang;
#X obj 84 103 loadbang;
#X connect 2 0 1 0;
#X connect 3 0 1 0;
#X connect 4 0 5 0;
#X connect 5 0 1 0;
#X connect 6 0 1 0;
#X connect 7 0 17 0;
#X connect 8 0 7 0;
#X connect 10 0 7 0;
#X connect 17 0 9 0;
#X connect 19 0 8 0;
#X connect 20 0 2 0;
