#N canvas 641 23 611 645 10;
#X declare -lib ofelia;
#X text 205 35 create a window.;
#X obj 41 171 t b b, f 10;
#X text 311 62 load an image for the background.;
#X text 281 88 load an image to apply a texture on a box.;
#X text 173 235 draw the stored background image.;
#X text 182 191 get window dimensions to set width and height of the
image to draw.;
#X text 89 149 the start of a rendering chain.;
#X obj 41 256 t b b;
#X obj 116 492 ofSetDepthTest ON;
#X text 231 493 enable the depth test.;
#X text 254 470 bind the stored image's texture.;
#X text 230 514 draw a box.;
#X obj 116 536 ofSetDepthTest OFF;
#X text 238 536 disable the depth test.;
#X text 120 325 move to the center x \, y position.;
#X text 192 448 rotate around the x \, y and z axis.;
#X obj 116 368 t b b;
#X obj 41 563 ofSetTextMode CENTER MIDDLE;
#X obj 116 514 ofBox 120 120 120;
#X obj 41 149 ofHead;
#X text 215 563 set the align mode for drawing text.;
#X text 241 585 draw a text using the stored font.;
#X text 276 389 get the number of frames rendered.;
#X text 311 113 load a font to draw a text.;
#X obj 41 325 ofTranslate;
#X obj 41 35 ofWindow 640 480 LEFT TOP;
#X obj 98 192 ofExpr \; ofGetWidth \; ofGetHeight \;;
#X obj 143 389 ofExpr \; ofGetFrameNum \; ofGetFrameNum * 0.7 \; ofGetFrameNum
* 0.3 \;;
#X obj 68 277 ofExpr \; ofGetWidth * 0.5 \; ofGetHeight * 0.5 \;;
#X obj 41 235 ofDrawImage @myImage;
#X obj 116 470 ofBindImageTex @myTex;
#X obj 41 585 ofDrawText @myFont Hello Ofelia;
#X obj 41 347 ofSepMatrix 2;
#X text 133 347 separate render chains in matrix.;
#X obj 41 61 ofLoadImage @myImage ../data/background.jpg;
#X obj 41 87 ofLoadImage @myTex ../data/texture.jpg;
#X obj 41 113 ofLoadFont @myFont ../data/Sansation.ttf 50;
#X obj 116 448 ofRotateXYZ;
#X obj 462 29 declare -lib ofelia;
#X connect 1 0 29 0;
#X connect 1 1 26 0;
#X connect 7 0 24 0;
#X connect 7 1 28 0;
#X connect 8 0 18 0;
#X connect 16 0 37 0;
#X connect 16 1 27 0;
#X connect 17 0 31 0;
#X connect 18 0 12 0;
#X connect 19 0 1 0;
#X connect 24 0 32 0;
#X connect 26 0 29 1;
#X connect 26 1 29 2;
#X connect 27 0 37 1;
#X connect 27 1 37 2;
#X connect 27 2 37 3;
#X connect 28 0 24 1;
#X connect 28 1 24 2;
#X connect 29 0 7 0;
#X connect 30 0 8 0;
#X connect 32 0 17 0;
#X connect 32 1 16 0;
#X connect 37 0 30 0;
