#N canvas 641 23 663 697 10;
#X declare -lib ofelia;
#X obj 28 169 ofHead;
#X text 25 23 draws letters to the screen. this requires loading a
font \, setting the font \, and then drawing the letters.;
#X obj 28 97 ofSetTextMode CENTER MIDDLE;
#N canvas 641 280 450 300 for 0;
#X obj 30 136 sel 1;
#X obj 80 87 t b b;
#X obj 30 160 t b b b;
#X obj 80 47 inlet;
#X obj 69 226 outlet;
#X obj 107 110 ofExpr @x = 0 \;;
#X obj 80 136 ofExpr @x < ofGetWidth - @gap \;;
#X obj 49 189 ofExpr @x = @x + @gap \;;
#X connect 0 0 2 0;
#X connect 1 0 6 0;
#X connect 1 1 5 0;
#X connect 2 0 6 0;
#X connect 2 1 7 0;
#X connect 2 2 4 0;
#X connect 3 0 1 0;
#X connect 6 0 0 0;
#X restore 28 277 pd for (@x = 0 \; @x <= ofGetWidth - @gap \; @x +=
@gap);
#X obj 67 364 list fromsymbol;
#X msg 67 342 symbol AEIOU;
#X obj 67 320 loadbang;
#X obj 55 473 sel 1 0;
#X msg 55 495 set 255 204 0;
#X msg 74 517 set 255;
#X obj 28 320 t b b;
#X obj 28 543 ofSetColor;
#X obj 28 565 ofSepMatrix;
#X obj 28 587 ofTranslate;
#X obj 28 613 ofDrawText @font;
#X obj 281 587 ofPrepend text;
#X obj 28 213 t b b, f 31;
#X obj 28 191 ofTranslate 40 60;
#N canvas 641 279 450 300 for 0;
#X obj 30 136 sel 1;
#X obj 80 87 t b b;
#X obj 30 160 t b b b;
#X obj 80 47 inlet;
#X obj 69 226 outlet;
#X obj 107 110 ofExpr @y = 0 \;;
#X obj 80 136 ofExpr @y < ofGetHeight - @gap*2 \;;
#X obj 49 189 ofExpr @y = @y + @gap \;;
#X connect 0 0 2 0;
#X connect 1 0 6 0;
#X connect 1 1 5 0;
#X connect 2 0 6 0;
#X connect 2 1 7 0;
#X connect 2 2 4 0;
#X connect 3 0 1 0;
#X connect 6 0 0 0;
#X restore 28 234 pd for (@y = 0 \; @y <= ofGetHeight - @gap*2 \; @y
+= @gap);
#X obj 28 75 ofWindow 640 400 LEFT TOP 1 0;
#X obj 211 234 ofDefine \; @gap = 46 \; @counter = 35 \; @x \; @y \;
;
#X text 312 636 This example was originally written in Processing.
https://processing.org/examples/letters.html;
#X obj 55 386 ofExpr \; _let = @counter \; $o1 = if (_let == $i1 ||
_let == $i2 || _let == $i3 || _let == $i4 || _let == $i5 \, 1 \, 0)
\; $o2 = @x \; $o3 = @y \; $o4 = _let \; @counter = @counter + 1 \;
, f 90;
#X obj 281 565 list tosymbol;
#X text 315 133 load a font.;
#X obj 28 133 ofLoadFont @font ../data/DejaVuSansMono.ttf 24;
#X obj 512 29 declare -lib ofelia;
#X connect 0 0 17 0;
#X connect 3 0 10 0;
#X connect 4 0 22 0;
#X connect 5 0 4 0;
#X connect 6 0 5 0;
#X connect 7 0 8 0;
#X connect 7 1 9 0;
#X connect 8 0 11 0;
#X connect 9 0 11 0;
#X connect 10 0 11 0;
#X connect 10 1 22 0;
#X connect 11 0 12 0;
#X connect 12 0 13 0;
#X connect 13 0 14 0;
#X connect 15 0 14 0;
#X connect 16 0 18 0;
#X connect 16 1 20 0;
#X connect 17 0 16 0;
#X connect 18 0 3 0;
#X connect 19 0 2 0;
#X connect 22 0 7 0;
#X connect 22 1 13 1;
#X connect 22 2 13 2;
#X connect 22 3 23 0;
#X connect 23 0 15 0;
