#N canvas 641 23 691 725 10;
#X obj 28 157 ofHead;
#X text 285 121 load a font.;
#X obj 28 85 ofWindow 640 400 LEFT TOP 1 102;
#X obj 28 259 t b f;
#X obj 28 307 ofLine2d;
#X obj 60 281 pack f 0;
#X obj 28 356 ofLine2d;
#X obj 139 330 pack f 400;
#X obj 28 378 ofSetColor 0;
#X obj 28 444 ofDrawText @font ichi;
#X obj 28 400 ofSepMatrix;
#X obj 28 510 ofDrawText @font ni;
#X obj 28 576 ofDrawText @font san;
#X obj 28 642 ofDrawText @font shi;
#X obj 28 179 t b b b, f 59;
#X obj 379 223 ofExpr ofGetWidth * 0.25;
#X obj 28 466 ofSetColor 51;
#X obj 28 532 ofSetColor 204;
#X obj 28 598 ofSetColor 255;
#X obj 203 223 ofExpr ofGetWidth * 0.5;
#X obj 203 201 ofSetTextMode CENTER MIDDLE;
#X obj 379 201 ofSetTextMode RIGHT MIDDLE;
#X obj 28 201 ofSetTextMode LEFT MIDDLE;
#X obj 28 223 ofExpr ofGetWidth * 0.75;
#X obj 28 422 ofTrans 0 95;
#X obj 28 488 ofTrans 0 35;
#X obj 28 554 ofTrans 0 35;
#X obj 28 620 ofTrans 0 35;
#X text 25 23 [ofDrawText] is used for writing words to the screen.
the letters can be aligned left \, center \, or right with the [ofSetTextMode]
object.;
#X text 342 665 This example was originally written in Processing.
https://processing.org/examples/words.html;
#X obj 60 330 pack f 220;
#X obj 125 281 pack f 75;
#X obj 28 121 ofLoadFont @font ../data/Sansation.ttf 24;
#X connect 0 0 14 0;
#X connect 3 0 4 0;
#X connect 3 1 5 0;
#X connect 3 1 7 0;
#X connect 3 1 24 1;
#X connect 3 1 30 0;
#X connect 3 1 31 0;
#X connect 4 0 6 0;
#X connect 5 0 4 1;
#X connect 6 0 8 0;
#X connect 7 0 6 2;
#X connect 8 0 10 0;
#X connect 9 0 16 0;
#X connect 10 0 24 0;
#X connect 11 0 17 0;
#X connect 12 0 18 0;
#X connect 14 0 22 0;
#X connect 14 1 20 0;
#X connect 14 2 21 0;
#X connect 15 0 3 0;
#X connect 16 0 25 0;
#X connect 17 0 26 0;
#X connect 18 0 27 0;
#X connect 19 0 3 0;
#X connect 20 0 19 0;
#X connect 21 0 15 0;
#X connect 22 0 23 0;
#X connect 23 0 3 0;
#X connect 24 0 9 0;
#X connect 25 0 11 0;
#X connect 26 0 12 0;
#X connect 27 0 13 0;
#X connect 30 0 6 1;
#X connect 31 0 4 2;
