#N canvas 641 23 683 642 10;
#X declare -lib ofelia;
#X obj 198 247 ofGetDimen;
#X obj 198 269 ofDist2d 0 0;
#X obj 27 203 ofHead;
#X obj 27 269 ofCountUntil;
#X obj 27 357 ofCountUntil;
#X obj 75 472 ofDist2d;
#X obj 27 122 ofMouseListener;
#X obj 70 144 list split 1;
#X obj 27 313 t b f;
#X obj 54 445 pack f f;
#X obj 27 543 ofTranslate;
#X obj 27 565 ofCircle;
#X obj 27 401 t b f;
#X obj 54 516 ofPrepend set;
#X obj 27 291 * 20;
#X obj 27 85 ofWindow 640 400 LEFT TOP 1 0;
#X text 25 23 move the mouse across the window to obscure and reveal
the matrix. measures the distance from the mouse to each square and
sets the size proportionally.;
#X text 331 585 This example was originally written in Processing.
https://processing.org/examples/distance2d.html;
#X obj 27 225 t b b, f 29;
#X obj 120 445 ofRcv @mousepos;
#X obj 104 166 ofSnd @mousepos;
#X obj 27 335 ofExpr ofGetWidth / 20 + 1;
#X obj 27 247 ofExpr ofGetHeight / 20 + 1;
#X obj 75 494 ofExpr $i1 / @maxdist * 33;
#X obj 198 291 ofVal @maxdist;
#X obj 27 423 ofSepMatrix;
#X obj 27 379 * 20;
#X obj 532 29 declare -lib ofelia;
#X connect 0 0 1 0;
#X connect 1 0 24 0;
#X connect 2 0 18 0;
#X connect 3 0 14 0;
#X connect 4 0 26 0;
#X connect 5 0 23 0;
#X connect 6 1 7 0;
#X connect 7 1 20 0;
#X connect 8 0 21 0;
#X connect 8 1 9 1;
#X connect 9 0 5 0;
#X connect 9 0 13 0;
#X connect 10 0 11 0;
#X connect 12 0 25 0;
#X connect 12 1 9 0;
#X connect 13 0 10 0;
#X connect 14 0 8 0;
#X connect 18 0 22 0;
#X connect 18 1 0 0;
#X connect 19 0 5 1;
#X connect 21 0 4 0;
#X connect 22 0 3 0;
#X connect 23 0 11 1;
#X connect 25 0 10 0;
#X connect 26 0 12 0;
