#N canvas 641 23 711 572 10;
#X declare -lib ofelia;
#X obj 27 159 ofHead;
#X text 331 246 count over a range at once.;
#X obj 246 247 ofCountUntil;
#X obj 27 181 ofBeginShape;
#X obj 360 378 ofNoise;
#X obj 360 313 ofExpr \; @xoff \; @yoff \;, f 8;
#X obj 360 356 pack f f;
#X obj 246 443 ofVertex2d;
#X obj 303 421 pack f f, f 10;
#X obj 246 291 t b f b, f 19;
#X obj 27 421 ofVertex2d;
#X obj 27 443 ofVertex2d;
#X obj 27 291 t b b, f 10;
#X obj 84 400 pack f f;
#X obj 174 400 pack f f;
#X obj 27 101 ofDefine \; @xoff \; @yoff \;;
#X obj 27 465 ofEndShape ON;
#X obj 246 465 ofExpr @xoff = @xoff + 0.05 \;;
#X obj 84 313 ofExpr \; @yoff = @yoff + 0.01 \; @xoff = 0 \; $o1 =
ofGetWidth \; $o2 = ofGetHeight \; $o3 = 0 \; $o4 = $o2 \;, f 23;
#X obj 27 203 t b b, f 37;
#X text 358 510 This example was originally written in Processing.
https://processing.org/examples/noisewave.html;
#X obj 246 269 * 10;
#X obj 246 225 ofExpr ofGetWidth / 9;
#X text 25 23 using simplex noise to generate a wave-like pattern.
;
#X obj 360 400 ofMap 0 1 240 270;
#X obj 27 65 ofWindow 640 400 LEFT TOP 1 51;
#X obj 562 29 declare -lib ofelia;
#X connect 0 0 3 0;
#X connect 2 0 21 0;
#X connect 3 0 19 0;
#X connect 4 0 24 0;
#X connect 5 0 6 0;
#X connect 5 1 6 1;
#X connect 6 0 4 0;
#X connect 7 0 17 0;
#X connect 8 0 7 1;
#X connect 9 0 7 0;
#X connect 9 1 8 0;
#X connect 9 2 5 0;
#X connect 10 0 11 0;
#X connect 11 0 16 0;
#X connect 12 0 10 0;
#X connect 12 1 18 0;
#X connect 13 0 10 1;
#X connect 14 0 11 1;
#X connect 18 0 13 0;
#X connect 18 1 13 1;
#X connect 18 2 14 0;
#X connect 18 3 14 1;
#X connect 19 0 12 0;
#X connect 19 1 22 0;
#X connect 21 0 9 0;
#X connect 22 0 2 0;
#X connect 24 0 8 1;
