#N canvas 641 23 683 459 10;
#X text 25 23 render a simple sine wave.;
#X text 331 396 This example was originally written in Processing.
https://processing.org/examples/sinewave.html;
#X obj 27 300 ofHead;
#X obj 27 322 t b b;
#N canvas 641 302 536 349 renderWave 0;
#X obj 51 45 inlet;
#X obj 51 89 ofCountUntil;
#X obj 51 257 ofTranslate;
#X text 135 89 draw the wave with an ellipse at each location.;
#X obj 78 177 ofExpr \; $i1 * @xspacing \;;
#X obj 51 279 ofCircle 8;
#X obj 212 177 ofGetFloat @yvalues;
#X obj 51 111 t b f;
#X obj 212 150 t b f;
#X obj 212 199 ofExpr ofGetHeight / 2 + $i1;
#X obj 51 67 ofVal @yvalSize;
#X obj 51 235 ofSepMatrix;
#X connect 0 0 10 0;
#X connect 1 0 7 0;
#X connect 2 0 5 0;
#X connect 4 0 2 1;
#X connect 6 0 9 0;
#X connect 7 0 11 0;
#X connect 7 1 4 0;
#X connect 7 1 8 0;
#X connect 8 0 6 0;
#X connect 8 1 6 0;
#X connect 9 0 2 2;
#X connect 10 0 1 0;
#X connect 11 0 2 0;
#X restore 27 363 pd renderWave;
#N canvas 640 301 685 328 calcWave 0;
#X obj 43 149 ofCountUntil;
#X obj 43 42 inlet;
#X text 217 213 for every x value \, calculate a y value with sine
function.;
#X obj 70 84 ofExpr \; @theta = @theta + 0.02 \; @x = @theta \;;
#X obj 43 63 t b b;
#X text 220 95 increment theta.;
#X obj 43 263 ofEditFloat @yvalues;
#X obj 43 171 t b f;
#X obj 43 193 ofExpr \; @x = @x + @dx \; $o1 = sin(@x) * @amplitude
\;;
#X obj 43 241 ofPrepend assign;
#X obj 43 127 ofVal @yvalSize;
#X connect 0 0 7 0;
#X connect 1 0 4 0;
#X connect 4 0 10 0;
#X connect 4 1 3 0;
#X connect 7 0 8 0;
#X connect 7 1 6 0;
#X connect 8 0 9 0;
#X connect 9 0 6 0;
#X connect 10 0 0 0;
#X restore 54 342 pd calcWave;
#X obj 27 262 ofLoadFloat @yvalues;
#X msg 27 241 insert 0 0 \$1;
#X obj 27 99 ofWindowLoadBang;
#X obj 27 121 ofDefine \; @xspacing = 16 \; @w = ofGetWidth + 16 \;
@theta = 0 \; @amplitude = 75 \; @period = 500 \; @dx = (pi()*2 / @period)
* @xspacing \; @yvalSize = @w / @xspacing \; @x \; $o1 = @yvalSize
- 1 \;;
#X obj 27 62 ofWindow 640 400 LEFT TOP 1 0;
#X connect 2 0 3 0;
#X connect 3 0 4 0;
#X connect 3 1 5 0;
#X connect 7 0 6 0;
#X connect 8 0 9 0;
#X connect 9 0 7 0;
