#N canvas 695 100 670 724 10;
#X declare -lib ofelia;
#X obj 28 80 loadbang;
#X text 25 23 Mouse horizontal location controls size of dots. Creates
a simple pointillist effect using circles colored according to pixels
in an image.;
#X text 333 620 This example was originally written in Processing.
https://processing.org/examples/pointillism.html;
#X obj 28 122 ofWindow;
#X obj 28 158 ofSetup;
#X obj 28 179 ofSetBackgroundColor 255;
#X obj 28 200 ofSetBackgroundAuto 0;
#X obj 28 263 ofImage \$0-img;
#X obj 28 284 route load;
#X floatatom 28 305 5 0 0 0 - - -;
#X text 67 305 0: fail \, 1: success.;
#X obj 28 433 ofDraw;
#X text 116 329 Set small point size.;
#X msg 79 349 smallPoint \$1;
#X floatatom 79 329 5 0 0 0 - - -;
#X floatatom 259 329 5 0 0 0 - - -;
#X msg 259 349 largePoint \$1;
#X text 296 329 Set large point size.;
#X msg 28 101 setPosition 30 100 \, setSize 640 360 \, create;
#X obj 28 375 ofelia f \$0-vars \; M.smallPoint = 2 \; M.largePoint
= 20 \;;
#X text 150 376 Variables used.;
#X obj 28 454 ofRequire \$0-img;
#X obj 28 475 ofRequire \$0-vars;
#X obj 28 496 ofelia f \; local img \, m = a[1].image \, a[2] \; local
pointillize = ofMap(ofGetMouseX() \, 0 \, ofGetWidth() \, m.smallPoint
\, m.largePoint) \; pointillize = ofClamp(pointillize \, m.smallPoint
\, m.largePoint) \; local x \, y = ofRandom(img:getWidth()) \, ofRandom(img:getHeight())
\; local pix = img:getColor(x \, y) \; ofSetColor(pix \, 128) \; ofDrawCircle(x
\, y \, pointillize) \;;
#X f 87;
#X obj 28 221 ofGetDir;
#X msg 28 242 load \$1/data/moonwalk.jpg;
#X text 196 242 Load an image from the path.;
#X text 135 454 Require the module that has the image.;
#X obj 522 29 declare -lib ofelia;
#X text 143 475 Require the module that has the variables.;
#X connect 0 0 18 0;
#X connect 4 0 5 0;
#X connect 5 0 6 0;
#X connect 6 0 24 0;
#X connect 7 0 8 0;
#X connect 8 0 9 0;
#X connect 9 0 19 0;
#X connect 11 0 21 0;
#X connect 13 0 19 0;
#X connect 14 0 13 0;
#X connect 15 0 16 0;
#X connect 16 0 19 0;
#X connect 18 0 3 0;
#X connect 21 0 22 0;
#X connect 22 0 23 0;
#X connect 24 0 25 0;
#X connect 25 0 7 0;
