#N canvas 720 100 665 512 10;
#X declare -lib ofelia;
#X obj 28 70 loadbang;
#X text 313 421 This example was originally written in Processing.
https://processing.org/examples/loaddisplayimage.html;
#X text 25 23 Images can be loaded and displayed to the screen at their
actual size or any other size.;
#X text 181 310 Displays the image at its actual size at point (0 \,
0).;
#X text 241 361 Displays the image at point (0 \, 180) at half of its
size.;
#X obj 28 112 ofWindow;
#X obj 28 148 ofSetup;
#X floatatom 28 253 5 0 0 0 - - -;
#X text 69 253 0: fail \, 1: success.;
#X obj 28 289 ofDraw;
#X obj 28 211 ofImage \$0-img;
#X text 124 211 Create an ofImage class named "\$0-img".;
#X text 193 190 Load an image from the path. (relative or absolute
path);
#X obj 28 232 route load;
#X floatatom 223 341 5 0 0 0 - - -;
#X floatatom 174 341 5 0 0 0 - - -;
#X floatatom 76 341 5 0 0 0 - - -;
#X floatatom 125 341 5 0 0 0 - - -;
#X text 266 341 <- Try changing the position and size of the image.
;
#X msg 28 91 setPosition 30 100 \, setSize 640 360 \, create;
#X obj 28 310 ofImage \$0-img draw 0 0;
#X obj 28 361 ofImage \$0-img draw 0 180 320 180;
#X obj 28 169 ofGetDir;
#X msg 28 190 load \$1/data/moonwalk.jpg;
#X obj 512 29 declare -lib ofelia;
#X connect 0 0 19 0;
#X connect 6 0 22 0;
#X connect 9 0 20 0;
#X connect 10 0 13 0;
#X connect 13 0 7 0;
#X connect 14 0 21 4;
#X connect 15 0 21 3;
#X connect 16 0 21 1;
#X connect 17 0 21 2;
#X connect 19 0 5 0;
#X connect 20 0 21 0;
#X connect 22 0 23 0;
#X connect 23 0 10 0;
