#N canvas 720 100 665 498 10;
#X declare -path ofelia/libs/of;
#X obj 28 70 loadbang;
#X text 313 400 This example was originally written in Processing.
https://processing.org/examples/loaddisplayimage.html;
#X text 25 23 Images can be loaded and displayed to the screen at their
actual size or any other size.;
#X text 172 289 Displays the image at its actual size at point (0 \,
0).;
#X obj 462 29 declare -path ofelia/libs/of;
#X text 231 340 Displays the image at point (0 \, 180) at half of its
size.;
#X obj 28 112 ofWindow;
#X obj 28 148 ofSetup;
#X floatatom 28 232 5 0 0 0 - - -;
#X msg 28 169 load data/moonwalk.jpg;
#X text 69 232 0: fail \, 1: success.;
#X obj 28 268 ofDraw;
#X obj 28 190 ofImage \$0-img;
#X text 124 190 Create an ofImage class named "\$0-img".;
#X obj 28 289 ofDrawImage \$0-img 0 0;
#X obj 28 340 ofDrawImage \$0-img 0 180 320 180;
#X text 173 168 Load an image from the path. (relative or absolute
path);
#X obj 28 211 route load;
#X floatatom 179 320 5 0 0 0 - - -;
#X floatatom 217 320 5 0 0 0 - - -;
#X floatatom 65 320 5 0 0 0 - - -;
#X floatatom 103 320 5 0 0 0 - - -;
#X text 256 320 <- Try changing the position and size of the image.
;
#X msg 28 91 setPosition 30 100 \, setSize 640 360 \, create;
#X connect 0 0 23 0;
#X connect 7 0 9 0;
#X connect 9 0 12 0;
#X connect 11 0 14 0;
#X connect 12 0 17 0;
#X connect 14 0 15 0;
#X connect 17 0 8 0;
#X connect 18 0 15 4;
#X connect 19 0 15 5;
#X connect 20 0 15 1;
#X connect 21 0 15 2;
#X connect 23 0 6 0;
