#N canvas 720 100 674 601 10;
#X declare -lib ofelia;
#X obj 528 21 declare -lib ofelia;
#X text 25 23 This example shows loading \, editing \, saving a JSON
file.;
#X obj 70 162 ofJson \$0-json;
#X msg 70 121 load \$1/data/data.json;
#X obj 70 100 ofGetDir;
#X obj 70 80 bng 15 250 50 0 empty empty empty 17 7 0 10 -262144 -1
-1;
#X floatatom 70 204 5 0 0 0 - - -;
#X text 153 205 0: fail \, 1: succcess.;
#X obj 70 272 ofJson \$0-json getAsJsonString;
#X obj 70 293 print;
#X obj 70 251 bng 15 250 50 0 empty empty empty 17 7 0 10 -262144 -1
-1;
#X text 93 250 print the current data as string.;
#X text 234 338 get a string from the key.;
#X symbolatom 70 412 17 0 0 0 - - -;
#X obj 70 183 route load save;
#X floatatom 113 204 5 0 0 0 - - -;
#X obj 220 100 ofGetDir;
#X obj 220 80 bng 15 250 50 0 empty empty empty 17 7 0 10 -262144 -1
-1;
#X text 90 79 load a JSON file.;
#X text 440 460 set the float with <key \, float>;
#X obj 340 513 ofJson \$0-json setFloat ? ?;
#X floatatom 70 534 5 0 0 0 - - -;
#X msg 70 461 symbol x-pos;
#X obj 70 513 ofJson \$0-json getFloat ?;
#X msg 86 487 symbol size;
#X text 158 460 get a float from the key.;
#X msg 340 461 list x-pos 200;
#X msg 220 121 save \$1/data/data2.json;
#X msg 356 487 list size 100;
#X obj 70 391 ofJson \$0-json getString ?;
#X msg 70 339 symbol fonts/heading/face;
#X msg 90 365 symbol fonts/body/face;
#X text 240 79 save the file as.;
#X obj 70 59 loadbang;
#X connect 2 0 14 0;
#X connect 3 0 2 0;
#X connect 4 0 3 0;
#X connect 5 0 4 0;
#X connect 8 0 9 0;
#X connect 10 0 8 0;
#X connect 14 0 6 0;
#X connect 14 1 15 0;
#X connect 16 0 27 0;
#X connect 17 0 16 0;
#X connect 22 0 23 0;
#X connect 23 0 21 0;
#X connect 24 0 23 0;
#X connect 26 0 20 0;
#X connect 27 0 2 0;
#X connect 28 0 20 0;
#X connect 29 0 13 0;
#X connect 30 0 29 0;
#X connect 31 0 29 0;
#X connect 33 0 5 0;
