#N canvas 720 100 665 542 10;
#X obj 21 261 bng 15 250 50 0 empty empty empty 17 7 0 10 -262144 -1
-1;
#X text 43 260 Click to draw shapes on this Pd canvas.;
#X text 345 468 This example is based on the Tcl/Tk tutorial. http://zetcode.com/gui/tcltktutorial/drawing/
;
#X obj 21 281 ofelia d \; local canvas = pdCanvas(this) \; local name
= canvas:getName() \; local sys = pdSys() \; \; function ofelia.bang()
\; sys:gui(string.format("%s create oval %d %d %d %d -fill orange"
\, name \, 10 \, 10 \, 80 \, 80)) \; sys:gui(string.format("%s create
oval %d %d %d %d -fill yellow" \, name \, 110 \, 10 \, 210 \, 80))
\; sys:gui(string.format("%s create rect %d %d %d %d -fill red" \,
name \, 230 \, 10 \, 290 \, 60)) \; sys:gui(string.format("%s create
arc %d %d %d %d -fill skyblue" \, name \, 30 \, 200 \, 90 \, 100))
\; sys:gui(string.format("%s create polygon %d %d %d %d %d %d %d %d
%d %d %d %d -fill green -outline black" \, name \, 150 \, 100 \, 200
\, 120 \, 240 \, 180 \, 210 \, 200 \, 150 \, 150 \, 100 \, 200)) \;
end \;;
#X f 91;
#X text 20 212 You can send Tcl/Tk commands to Pd using pdSys() class's
gui function.;
#X connect 0 0 3 0;
