#N canvas 641 23 591 400 10;
#X declare -lib ofelia;
#X obj 23 113 ofMouseListener, f 36;
#X obj 23 76 ofWindow 640 400 LEFT TOP 1 102;
#X obj 23 258 ofHead;
#X msg 129 157 add lineTo \$1 \$2;
#X obj 129 135 route 1;
#X msg 48 184 clear;
#X obj 23 135 route 1 3;
#X msg 23 157 add moveTo \$1 \$2;
#X obj 23 221 ofLoadPolyline2d @lines;
#X obj 23 280 ofDrawPolyline2d @lines;
#X text 21 19 left click and drag the mouse to draw lines. right click
the mouse to clear the stored lines.;
#X obj 442 29 declare -lib ofelia;
#X connect 0 0 6 0;
#X connect 0 1 4 0;
#X connect 2 0 9 0;
#X connect 3 0 8 0;
#X connect 4 0 3 0;
#X connect 5 0 8 0;
#X connect 6 0 7 0;
#X connect 6 1 5 0;
#X connect 7 0 8 0;
