#N canvas 641 23 621 703 10;
#X declare -lib ofelia;
#X obj 23 113 ofMouseListener, f 36;
#X obj 23 76 ofWindow 640 400 LEFT TOP 1 102;
#X obj 23 352 ofHead;
#X msg 129 157 add lineTo \$1 \$2;
#X obj 129 135 route 1;
#X msg 48 184 clear;
#X obj 23 135 route 1 3;
#X msg 23 157 add moveTo \$1 \$2;
#X obj 23 641 ofDrawPolyline2d @lines;
#X obj 23 374 t b b;
#X obj 50 396 ofVal @numCommands;
#X obj 50 418 ofCountUntil;
#X obj 50 608 ofSnd @toLoader;
#X obj 23 270 ofRcv @toLoader;
#X obj 50 489 list split 1;
#X obj 50 586 ofPrepend fill;
#X obj 50 564 pack s f f f;
#X obj 50 440 t b f f;
#X msg 97 184 0;
#X obj 23 293 ofLoadPolyline2d @lines;
#X obj 23 315 ofVal @numCommands;
#X obj 23 233 ofSnd @toLoader;
#X obj 97 206 ofVal @numCommands;
#X obj 84 511 ofExpr \; random(-0.5 \, 0.5) + $i1 \; random(-0.5 \,
0.5) + $i2 \;;
#X obj 50 467 ofGetPolyline2dCommand @lines;
#X text 21 19 left click and drag the mouse to draw line noise. right
click the mouse to clear the stored line noise.;
#X obj 472 29 declare -lib ofelia;
#X connect 0 0 6 0;
#X connect 0 1 4 0;
#X connect 2 0 9 0;
#X connect 3 0 21 0;
#X connect 4 0 3 0;
#X connect 5 0 21 0;
#X connect 6 0 7 0;
#X connect 6 1 5 0;
#X connect 6 1 18 0;
#X connect 7 0 21 0;
#X connect 9 0 8 0;
#X connect 9 1 10 0;
#X connect 10 0 11 0;
#X connect 11 0 17 0;
#X connect 13 0 19 0;
#X connect 14 0 16 0;
#X connect 14 1 23 0;
#X connect 15 0 12 0;
#X connect 16 0 15 0;
#X connect 17 0 24 0;
#X connect 17 1 24 0;
#X connect 17 2 16 3;
#X connect 18 0 22 0;
#X connect 19 0 20 0;
#X connect 23 0 16 1;
#X connect 23 1 16 2;
#X connect 24 0 14 0;
