#N canvas 641 23 731 729 10;
#X obj 23 238 ofHead;
#X obj 23 461 ofTranslate;
#X obj 23 157 ofMouseListener;
#X obj 66 179 list split 1;
#X obj 23 76 ofWindow 640 400 LEFT TOP 1 102;
#X obj 23 260 t b b;
#X obj 50 282 list append 0 0;
#X obj 23 645 ofCircle;
#X obj 77 326 list append 0 0;
#X obj 50 434 ofPrepend set;
#X obj 23 600 ofSetColor 255;
#X obj 23 578 ofCircle;
#X msg 305 201 0;
#X obj 243 201 spigot 1;
#X obj 288 152 ofFocusListener;
#X obj 50 304 t l l;
#X obj 23 120 ofSetCircleRes 100;
#X obj 23 510 ofSetColor;
#X obj 86 555 / 2;
#X obj 86 623 - 1;
#X obj 392 152 ofFullscreenListener;
#X msg 288 179 1;
#X text 235 304 store previous mouse position.;
#X text 316 348 calculate the speed of the mouse.;
#X text 383 664 This example was originally written in Processing.
https://processing.org/examples/pattern.html;
#X obj 100 201 ofSnd @mousepos;
#X obj 243 130 ofRcv @mousepos;
#X obj 243 223 ofSnd @pos;
#X obj 137 260 ofRcv @mousepos;
#X obj 164 304 ofRcv @pos;
#X obj 77 348 ofExpr abs($i1 - $i3) + abs($i2 - $i4);
#X obj 77 370 ofSnd @speed;
#X obj 50 392 ofSnd @pos;
#X obj 50 412 ofRcv @pos;
#X obj 51 483 ofRcv @speed;
#X obj 86 532 ofRcv @speed;
#X text 318 223 this is to prevent drawing an unwanted large circle
when the focus or fullscreen mode gets changed.;
#X obj 23 98 ofSetBgAuto OFF;
#X text 21 19 move the cursor over the window to draw circles which
responds to the speed of the mouse.;
#X text 139 98 disable the auto background clearing function.;
#X connect 0 0 5 0;
#X connect 1 0 17 0;
#X connect 2 1 3 0;
#X connect 3 1 25 0;
#X connect 4 0 37 0;
#X connect 5 0 1 0;
#X connect 5 1 6 0;
#X connect 6 0 15 0;
#X connect 8 0 30 0;
#X connect 9 0 1 0;
#X connect 10 0 7 0;
#X connect 11 0 10 0;
#X connect 12 0 13 1;
#X connect 13 0 12 0;
#X connect 13 0 27 0;
#X connect 14 0 21 0;
#X connect 15 0 32 0;
#X connect 15 1 8 0;
#X connect 17 0 11 0;
#X connect 18 0 11 1;
#X connect 18 0 19 0;
#X connect 19 0 7 1;
#X connect 20 0 21 0;
#X connect 21 0 13 1;
#X connect 26 0 13 0;
#X connect 28 0 6 1;
#X connect 29 0 8 1;
#X connect 30 0 31 0;
#X connect 33 0 9 0;
#X connect 34 0 17 1;
#X connect 34 0 17 2;
#X connect 34 0 17 3;
#X connect 35 0 18 0;
#X connect 37 0 16 0;
