#N canvas 720 100 665 681 10;
#X declare -lib ofelia;
#X obj 28 92 loadbang;
#X obj 28 134 ofWindow;
#X obj 28 170 ofSetup;
#X obj 338 211 ofDraw;
#X msg 28 113 setPosition 30 100 \, setSize 640 360 \, create;
#X obj 512 29 declare -lib ofelia;
#X obj 338 253 ofExpr \; nil \; ofGetWidth() / 2 \; ofGetHeight() /
2 \; ofGetFrameNum() * 0.75 \;;
#X obj 338 318 ofTranslate;
#X obj 338 360 ofMesh \$0-mesh drawFaces;
#X obj 338 232 ofEnableDepthTest;
#X obj 338 381 ofDisableDepthTest;
#X obj 338 339 ofRotateDeg 0 1 1 1;
#X obj 28 212 ofelia f \$0-mesh \; M.mesh = ofMesh.box(120 \, 120 \,
120 \, 1 \, 1 \, 1) \; local colors = ofTable() \; for i=1 \, 24 do
\; colors[i] = ofFloatColor() \; end \; colors[1]:set(0 \, 0 \, 1)
\; colors[2]:set(1 \, 0 \, 1) \; colors[3]:set(0 \, 1 \, 1) \; colors[4]:set(1
\, 1 \, 1) \; colors[5]:set(1 \, 0 \, 1) \; colors[6]:set(1 \, 0 \,
0) \; colors[7]:set(1 \, 1 \, 1) \; colors[8]:set(1 \, 1 \, 0) \; colors[9]:set(0
\, 0 \, 0) \; colors[10]:set(0 \, 0 \, 1) \; colors[11]:set(0 \, 1
\, 0) \; colors[12]:set(0 \, 1 \, 1) \; colors[13]:set(1 \, 0 \, 0)
\; colors[14]:set(0 \, 0 \, 0) \; colors[15]:set(1 \, 1 \, 0) \; colors[16]:set(0
\, 1 \, 0) \; colors[17]:set(0 \, 0 \, 0) \; colors[18]:set(1 \, 0
\, 0) \; colors[19]:set(0 \, 0 \, 1) \; colors[20]:set(1 \, 0 \, 1)
\; colors[21]:set(0 \, 1 \, 1) \; colors[22]:set(1 \, 1 \, 1) \; colors[23]:set(0
\, 1 \, 0) \; colors[24]:set(1 \, 1 \, 0) \; for i=1 \, #colors do
\; M.mesh:addColor(colors[i]) \; end \;;
#X text 25 23 An ofMesh represents a set of vertices in 3D spaces \,
and normals at those points \, colors at those points \, and texture
coordinates at those points. Each of these different properties is
stored in a vector.;
#X obj 338 170 tgl 15 0 empty empty empty 17 7 0 10 -262144 -1 -1 0
1;
#X msg 338 190 setEnabled \$1;
#X text 358 169 enable/disable rendering.;
#X obj 28 191 ofBackground 55;
#X connect 0 0 4 0;
#X connect 2 0 17 0;
#X connect 3 0 9 0;
#X connect 4 0 1 0;
#X connect 6 0 7 0;
#X connect 6 1 7 1;
#X connect 6 2 7 2;
#X connect 6 3 11 1;
#X connect 7 0 11 0;
#X connect 8 0 10 0;
#X connect 9 0 6 0;
#X connect 11 0 8 0;
#X connect 14 0 15 0;
#X connect 15 0 3 0;
#X connect 17 0 12 0;
