#N canvas 397 307 784 239 10;
#X obj 32 107 inlet;
#X obj 32 29 loadbang;
#X obj 32 149 outlet;
#X obj 142 107 inlet;
#X obj 32 128 ofelia d \$0-of;
#X obj 32 71 s \$0-of;
#X obj 142 149 s \$0-of;
#X obj 212 107 inlet;
#X obj 212 149 s \$0-of;
#X obj 282 107 inlet;
#X obj 282 149 s \$0-of;
#X msg 142 128 x1 \$1;
#X msg 212 128 y1 \$1;
#X msg 282 128 z1 \$1;
#X obj 352 107 inlet;
#X obj 352 149 s \$0-of;
#X obj 422 107 inlet;
#X obj 422 149 s \$0-of;
#X obj 492 107 inlet;
#X obj 492 149 s \$0-of;
#X obj 562 107 inlet;
#X obj 562 149 s \$0-of;
#X obj 632 107 inlet;
#X obj 632 149 s \$0-of;
#X obj 702 107 inlet;
#X obj 702 149 s \$0-of;
#X msg 352 128 x2 \$1;
#X msg 422 128 y2 \$1;
#X msg 492 128 z2 \$1;
#X msg 562 128 x3 \$1;
#X msg 632 128 y3 \$1;
#X msg 702 128 z3 \$1;
#X msg 32 50 read -c of.bezierVertex.lua;
#X connect 0 0 4 0;
#X connect 1 0 32 0;
#X connect 3 0 11 0;
#X connect 4 0 2 0;
#X connect 7 0 12 0;
#X connect 9 0 13 0;
#X connect 11 0 6 0;
#X connect 12 0 8 0;
#X connect 13 0 10 0;
#X connect 14 0 26 0;
#X connect 16 0 27 0;
#X connect 18 0 28 0;
#X connect 20 0 29 0;
#X connect 22 0 30 0;
#X connect 24 0 31 0;
#X connect 26 0 15 0;
#X connect 27 0 17 0;
#X connect 28 0 19 0;
#X connect 29 0 21 0;
#X connect 30 0 23 0;
#X connect 31 0 25 0;
#X connect 32 0 5 0;
