#N canvas 397 307 567 239 10;
#X obj 32 107 inlet;
#X obj 32 29 loadbang;
#X obj 32 149 outlet;
#X obj 142 107 inlet;
#X obj 32 128 ofelia d \$0-of;
#X obj 32 71 s \$0-of;
#X obj 142 149 s \$0-of;
#X obj 218 107 inlet;
#X obj 218 149 s \$0-of;
#X obj 306 107 inlet;
#X obj 306 149 s \$0-of;
#X msg 142 128 filename \$1;
#X msg 218 128 bMultipage \$1;
#X obj 376 107 inlet;
#X obj 376 149 s \$0-of;
#X msg 306 128 b3D \$1;
#X msg 376 128 outputsize \$1;
#X msg 32 50 read -c of.beginSaveScreenAsSVG.lua;
#X connect 0 0 4 0;
#X connect 1 0 17 0;
#X connect 3 0 11 0;
#X connect 4 0 2 0;
#X connect 7 0 12 0;
#X connect 9 0 15 0;
#X connect 11 0 6 0;
#X connect 12 0 8 0;
#X connect 13 0 16 0;
#X connect 15 0 10 0;
#X connect 16 0 14 0;
#X connect 17 0 5 0;
