#N canvas 397 307 576 239 10;
#X obj 32 107 inlet;
#X obj 32 29 loadbang;
#X obj 32 149 outlet;
#X obj 142 107 inlet;
#X obj 32 128 ofelia d \$0-of;
#X obj 32 71 s \$0-of;
#X obj 142 149 s \$0-of;
#X msg 32 50 read -c of.dist.lua;
#X msg 142 128 x1 \$1;
#X obj 212 107 inlet;
#X obj 212 149 s \$0-of;
#X msg 212 128 y1 \$1;
#X obj 282 107 inlet;
#X obj 282 149 s \$0-of;
#X msg 282 128 z1 \$1;
#X obj 352 107 inlet;
#X obj 352 149 s \$0-of;
#X obj 422 107 inlet;
#X obj 422 149 s \$0-of;
#X obj 492 107 inlet;
#X obj 492 149 s \$0-of;
#X msg 352 128 x2 \$1;
#X msg 422 128 y2 \$1;
#X msg 492 128 z2 \$1;
#X connect 0 0 4 0;
#X connect 1 0 7 0;
#X connect 3 0 8 0;
#X connect 4 0 2 0;
#X connect 7 0 5 0;
#X connect 8 0 6 0;
#X connect 9 0 11 0;
#X connect 11 0 10 0;
#X connect 12 0 14 0;
#X connect 14 0 13 0;
#X connect 15 0 21 0;
#X connect 17 0 22 0;
#X connect 19 0 23 0;
#X connect 21 0 16 0;
#X connect 22 0 18 0;
#X connect 23 0 20 0;
