#N canvas 397 307 992 239 10;
#X obj 32 107 inlet;
#X obj 32 29 loadbang;
#X obj 32 149 outlet;
#X obj 142 107 inlet;
#X obj 32 128 ofelia d \$0-of;
#X obj 32 71 s \$0-of;
#X obj 142 149 s \$0-of;
#X obj 212 107 inlet;
#X obj 212 149 s \$0-of;
#X obj 282 107 inlet;
#X obj 282 149 s \$0-of;
#X obj 352 107 inlet;
#X obj 352 149 s \$0-of;
#X obj 422 107 inlet;
#X obj 422 149 s \$0-of;
#X obj 492 107 inlet;
#X obj 492 149 s \$0-of;
#X obj 562 107 inlet;
#X obj 562 149 s \$0-of;
#X obj 632 107 inlet;
#X obj 632 149 s \$0-of;
#X obj 702 107 inlet;
#X obj 702 149 s \$0-of;
#X obj 772 107 inlet;
#X obj 772 149 s \$0-of;
#X obj 842 107 inlet;
#X obj 842 149 s \$0-of;
#X obj 912 107 inlet;
#X obj 912 149 s \$0-of;
#X msg 142 128 x0 \$1;
#X msg 212 128 y0 \$1;
#X msg 282 128 z0 \$1;
#X msg 352 128 x1 \$1;
#X msg 422 128 y1 \$1;
#X msg 492 128 z1 \$1;
#X msg 562 128 x2 \$1;
#X msg 632 128 y2 \$1;
#X msg 702 128 z2 \$1;
#X msg 772 128 x3 \$1;
#X msg 842 128 y3 \$1;
#X msg 912 128 z3 \$1;
#X msg 32 50 read -c of.drawBezier.lua;
#X connect 0 0 4 0;
#X connect 1 0 41 0;
#X connect 3 0 29 0;
#X connect 4 0 2 0;
#X connect 7 0 30 0;
#X connect 9 0 31 0;
#X connect 11 0 32 0;
#X connect 13 0 33 0;
#X connect 15 0 34 0;
#X connect 17 0 35 0;
#X connect 19 0 36 0;
#X connect 21 0 37 0;
#X connect 23 0 38 0;
#X connect 25 0 39 0;
#X connect 27 0 40 0;
#X connect 29 0 6 0;
#X connect 30 0 8 0;
#X connect 31 0 10 0;
#X connect 32 0 12 0;
#X connect 33 0 14 0;
#X connect 34 0 16 0;
#X connect 35 0 18 0;
#X connect 36 0 20 0;
#X connect 37 0 22 0;
#X connect 38 0 24 0;
#X connect 39 0 26 0;
#X connect 40 0 28 0;
#X connect 41 0 5 0;
