#N canvas 397 307 614 239 10;
#X obj 32 107 inlet;
#X obj 32 29 loadbang;
#X obj 32 149 outlet;
#X obj 142 107 inlet;
#X obj 32 128 ofelia d \$0-of;
#X obj 32 71 s \$0-of;
#X obj 142 149 s \$0-of;
#X msg 32 50 read -c of.drawGrid.lua;
#X msg 142 128 stepSize \$1;
#X obj 218 107 inlet;
#X obj 218 149 s \$0-of;
#X msg 218 128 numberOfSteps \$1;
#X obj 324 107 inlet;
#X obj 324 149 s \$0-of;
#X msg 324 128 labels \$1;
#X obj 394 107 inlet;
#X obj 394 149 s \$0-of;
#X msg 394 128 x \$1;
#X obj 464 107 inlet;
#X obj 464 149 s \$0-of;
#X msg 464 128 y \$1;
#X obj 534 107 inlet;
#X obj 534 149 s \$0-of;
#X msg 534 128 z \$1;
#X connect 0 0 4 0;
#X connect 1 0 7 0;
#X connect 3 0 8 0;
#X connect 4 0 2 0;
#X connect 7 0 5 0;
#X connect 8 0 6 0;
#X connect 9 0 11 0;
#X connect 11 0 10 0;
#X connect 12 0 14 0;
#X connect 14 0 13 0;
#X connect 15 0 17 0;
#X connect 17 0 16 0;
#X connect 18 0 20 0;
#X connect 20 0 19 0;
#X connect 21 0 23 0;
#X connect 23 0 22 0;
