#N canvas 397 307 532 239 10;
#X obj 32 107 inlet;
#X obj 32 29 loadbang;
#X obj 32 149 outlet;
#X obj 142 107 inlet;
#X obj 32 128 ofelia d \$0-of;
#X obj 32 71 s \$0-of;
#X obj 142 149 s \$0-of;
#X obj 230 107 inlet;
#X obj 230 149 s \$0-of;
#X obj 370 107 inlet;
#X obj 370 149 s \$0-of;
#X msg 370 128 width \$1;
#X obj 440 107 inlet;
#X obj 440 149 s \$0-of;
#X msg 440 128 height \$1;
#X msg 142 128 otherImage \$1;
#X obj 300 107 inlet;
#X obj 300 149 s \$0-of;
#X msg 300 128 y \$1;
#X msg 230 128 x \$1;
#X msg 32 50 read -c of.Image.cropFrom.lua;
#X connect 0 0 4 0;
#X connect 1 0 20 0;
#X connect 3 0 15 0;
#X connect 4 0 2 0;
#X connect 7 0 19 0;
#X connect 9 0 11 0;
#X connect 11 0 10 0;
#X connect 12 0 14 0;
#X connect 14 0 13 0;
#X connect 15 0 6 0;
#X connect 16 0 18 0;
#X connect 18 0 17 0;
#X connect 19 0 8 0;
#X connect 20 0 5 0;
