#N canvas 397 307 618 239 10;
#X obj 32 107 inlet;
#X obj 32 29 loadbang;
#X obj 32 149 outlet;
#X obj 142 107 inlet;
#X obj 32 128 ofelia d \$0-of;
#X obj 32 71 s \$0-of;
#X obj 142 149 s \$0-of;
#X msg 142 128 value \$1;
#X obj 212 107 inlet;
#X obj 212 149 s \$0-of;
#X obj 288 107 inlet;
#X obj 288 149 s \$0-of;
#X msg 32 50 read -c of.map.lua;
#X msg 212 128 inputMin \$1;
#X msg 288 128 inputMax \$1;
#X obj 364 107 inlet;
#X obj 364 149 s \$0-of;
#X msg 364 128 outputMin \$1;
#X obj 446 107 inlet;
#X obj 446 149 s \$0-of;
#X msg 446 128 outputMax \$1;
#X obj 528 107 inlet;
#X obj 528 149 s \$0-of;
#X msg 528 128 clamp \$1;
#X connect 0 0 4 0;
#X connect 1 0 12 0;
#X connect 3 0 7 0;
#X connect 4 0 2 0;
#X connect 7 0 6 0;
#X connect 8 0 13 0;
#X connect 10 0 14 0;
#X connect 12 0 5 0;
#X connect 13 0 9 0;
#X connect 14 0 11 0;
#X connect 15 0 17 0;
#X connect 17 0 16 0;
#X connect 18 0 20 0;
#X connect 20 0 19 0;
#X connect 21 0 23 0;
#X connect 23 0 22 0;
