#N canvas 397 307 485 239 10;
#X obj 32 107 inlet;
#X obj 32 29 loadbang;
#X obj 32 149 outlet;
#X obj 142 107 inlet;
#X obj 32 128 ofelia d \$0-of;
#X obj 32 71 s \$0-of;
#X obj 142 149 s \$0-of;
#X msg 32 50 read -c of.systemLoadDialog.lua;
#X msg 142 128 windowTitle \$1;
#X obj 236 107 inlet;
#X obj 236 149 s \$0-of;
#X msg 236 128 bFolderSelection \$1;
#X obj 360 107 inlet;
#X obj 360 149 s \$0-of;
#X msg 360 128 defaultPath \$1;
#X connect 0 0 4 0;
#X connect 1 0 7 0;
#X connect 3 0 8 0;
#X connect 4 0 2 0;
#X connect 7 0 5 0;
#X connect 8 0 6 0;
#X connect 9 0 11 0;
#X connect 11 0 10 0;
#X connect 12 0 14 0;
#X connect 14 0 13 0;
