#N canvas 397 307 522 239 10;
#X obj 32 107 inlet;
#X obj 32 29 loadbang;
#X obj 32 149 outlet;
#X obj 142 107 inlet;
#X obj 32 128 ofelia d \$0-of;
#X obj 32 71 s \$0-of;
#X obj 142 149 s \$0-of;
#X obj 212 107 inlet;
#X obj 212 149 s \$0-of;
#X obj 282 107 inlet;
#X obj 282 149 s \$0-of;
#X obj 352 107 inlet;
#X obj 352 149 s \$0-of;
#X obj 428 107 inlet;
#X obj 428 149 s \$0-of;
#X msg 32 50 read -c of.setupScreenPerspective.lua;
#X msg 142 128 width \$1;
#X msg 212 128 height \$1;
#X msg 282 128 fov \$1;
#X msg 352 128 nearDist \$1;
#X msg 428 128 farDist \$1;
#X connect 0 0 4 0;
#X connect 1 0 15 0;
#X connect 3 0 16 0;
#X connect 4 0 2 0;
#X connect 7 0 17 0;
#X connect 9 0 18 0;
#X connect 11 0 19 0;
#X connect 13 0 20 0;
#X connect 15 0 5 0;
#X connect 16 0 6 0;
#X connect 17 0 8 0;
#X connect 18 0 10 0;
#X connect 19 0 12 0;
#X connect 20 0 14 0;
