#N canvas 397 307 796 239 10;
#X obj 32 107 inlet;
#X obj 32 29 loadbang;
#X obj 32 149 outlet;
#X obj 142 107 inlet;
#X obj 32 128 ofelia d \$0-of;
#X obj 32 71 s \$0-of;
#X obj 142 149 s \$0-of;
#X msg 142 128 fileName \$1;
#X obj 218 107 inlet;
#X obj 218 149 s \$0-of;
#X msg 32 50 read -c of.TrueTypeFont.load.lua;
#X obj 294 107 inlet;
#X obj 294 149 s \$0-of;
#X msg 294 128 bAntiAliased \$1;
#X obj 394 107 inlet;
#X obj 394 149 s \$0-of;
#X msg 394 128 bFullCharacterSet \$1;
#X obj 524 107 inlet;
#X obj 524 149 s \$0-of;
#X msg 524 128 makeContours \$1;
#X obj 624 107 inlet;
#X obj 624 149 s \$0-of;
#X msg 624 128 simplifyAmt \$1;
#X obj 718 107 inlet;
#X obj 718 149 s \$0-of;
#X msg 718 128 dpi \$1;
#X msg 218 128 fontSize \$1;
#X connect 0 0 4 0;
#X connect 1 0 10 0;
#X connect 3 0 7 0;
#X connect 4 0 2 0;
#X connect 7 0 6 0;
#X connect 8 0 26 0;
#X connect 10 0 5 0;
#X connect 11 0 13 0;
#X connect 13 0 12 0;
#X connect 14 0 16 0;
#X connect 16 0 15 0;
#X connect 17 0 19 0;
#X connect 19 0 18 0;
#X connect 20 0 22 0;
#X connect 22 0 21 0;
#X connect 23 0 25 0;
#X connect 25 0 24 0;
#X connect 26 0 9 0;
