#N canvas 397 307 444 239 10;
#X obj 32 107 inlet;
#X obj 32 29 loadbang;
#X obj 32 212 outlet;
#X obj 32 191 ofelia d \$1;
#X obj 32 128 route set;
#X obj 32 149 list prepend _set;
#X obj 32 170 list trim;
#X msg 32 50 read -c ofFontSettings.lua;
#X connect 0 0 4 0;
#X connect 1 0 7 0;
#X connect 3 0 2 0;
#X connect 4 0 5 0;
#X connect 4 1 3 0;
#X connect 5 0 6 0;
#X connect 6 0 3 0;
#X connect 7 0 3 0;
