#N canvas 321 23 601 542 10;
#X declare -path ofelia/libs/of;
#X declare -lib ofelia;
#X obj 0 0 cnv 15 580 40 empty empty ofResume 3 12 0 18 -204280 -1
0;
#X obj 0 341 cnv 3 580 3 empty empty inlets 8 12 0 13 -228856 -1 0
;
#X obj 0 400 cnv 3 580 3 empty empty outlets 8 12 0 13 -228856 -1 0
;
#X obj 75 349 cnv 17 3 17 empty empty 0 5 9 0 16 -228856 -162280 0
;
#X obj 0 485 cnv 15 580 21 empty empty empty 20 12 0 14 -228856 -66577
0;
#X obj 0 436 cnv 3 580 3 empty empty arguments 8 12 0 13 -228856 -1
0;
#X text 72 459 1) float;
#X floatatom 254 155 5 0 0 0 - - -;
#X obj 191 134 tgl 15 0 empty empty empty 17 7 0 10 -262144 -1 -1 0
1;
#X text 212 133 0: disable / 1: enable the listener. (default: 1);
#X text 290 155 change the listening order. (default: 50);
#X obj 191 246 print;
#X text 95 350 float;
#X text 211 350 - 0: disable / 1: enable the listener. (default: 1)
;
#X obj 75 372 cnv 17 3 17 empty empty 1 5 9 0 16 -228856 -162280 0
;
#X text 95 373 float;
#X text 211 373 - change the listening order. (default: 50);
#X obj 75 408 cnv 17 3 17 empty empty 0 5 9 0 16 -228856 -162280 0
;
#X text 95 409 bang;
#X text 211 459 - the listening order. (default: 50);
#X obj 408 66 declare -path ofelia/libs/of;
#X obj 408 46 declare -lib ofelia;
#X obj 523 5 ofResume;
#X obj 191 175 ofResume 50;
#X text 11 23 listen when the app is resumed on Android;
#X text 21 43 [ofResume] is used to detect when the app is resumed
on an Android device.;
#X text 232 246 outputs bang when the app is resumed on an Android
device.;
#X text 211 409 - outputs bang when the app is resumed.;
#X connect 7 0 23 1;
#X connect 8 0 23 0;
#X connect 23 0 11 0;
