#N canvas 641 23 677 448 10;
#X declare -lib ofelia;
#X obj 27 194 ofHead;
#X obj 512 29 declare -lib ofelia;
#X text 200 107 load .vert and .frag shaders from the path.;
#X obj 27 300 ofApplyShader @shader;
#X obj 27 80 ofWindow 640 400 LEFT TOP 1 55;
#X obj 27 106 ofLoadShader @shader shader;
#X obj 27 132 ofLoadImage @img img.jpg;
#X obj 27 158 ofLoadImage @imgMask img_mask.png;
#X obj 27 215 t b b;
#X obj 54 236 ofExpr \; ofGetWidth \; ofGetHeight \;;
#X obj 27 279 ofRectangle;
#X text 101 280 draw a white rectangle for background.;
#X obj 27 321 ofSetShaderUniformTex imageMask @imgMask 1;
#X text 25 23 please find "Alpha Masking" section from http://openframeworks.cc/ofBook/chapters/shaders.html
to see the original code and learn more about how it works.;
#X text 320 380 This example is based on the openFrameworks example
"05_alphaMasking";
#X obj 27 342 ofDrawImage @img;
#X connect 0 0 8 0;
#X connect 3 0 12 0;
#X connect 8 0 10 0;
#X connect 8 1 9 0;
#X connect 9 0 10 1;
#X connect 9 0 15 1;
#X connect 9 1 10 2;
#X connect 9 1 15 2;
#X connect 10 0 3 0;
#X connect 12 0 15 0;
