#N canvas 720 100 674 456 10;
#X declare -lib ofelia;
#X obj 528 21 declare -lib ofelia;
#X text 25 23 This example shows unzipping a zip file with a password
set.;
#X obj 220 268 ofGetDir;
#X obj 220 311 ofUnZipPass ? ?;
#X obj 220 248 bng 15 250 50 0 empty empty empty 17 7 0 10 -262144
-1 -1;
#X floatatom 220 332 5 0 0 0 - - -;
#X text 258 332 0: fail \, 1: success.;
#X obj 220 128 ofGetDir;
#X obj 220 108 bng 15 250 50 0 empty empty empty 17 7 0 10 -262144
-1 -1;
#X floatatom 220 192 5 0 0 0 - - -;
#X text 258 192 0: fail \, 1: success.;
#X obj 220 171 ofUnZip ?;
#X text 244 108 First \, try to unzip without a password.;
#X msg 220 149 symbol \$1/data/This.zip;
#X msg 220 289 list \$1/data/This.zip ofxZipPass;
#X text 244 248 Now \, try again with a password.;
#X connect 2 0 14 0;
#X connect 3 0 5 0;
#X connect 4 0 2 0;
#X connect 7 0 13 0;
#X connect 8 0 7 0;
#X connect 11 0 9 0;
#X connect 13 0 11 0;
#X connect 14 0 3 0;
