#N canvas 327 206 899 379 10;
#X obj 55 173 inlet;
#X obj 194 152 inlet;
#X obj 55 194 route bang set float, f 49;
#X obj 277 152 inlet;
#X obj 361 152 inlet;
#X obj 444 152 inlet;
#X obj 82 236 ofGetTranslate;
#X obj 55 215 t b b;
#X obj 55 312 outlet;
#X obj 184 173 ofSnd v\$1_\$2;
#X obj 267 173 ofSnd v\$1_\$3;
#X obj 351 173 ofSnd v\$1_\$4;
#X obj 434 173 ofSnd v\$1_\$5;
#X obj 249 312 outlet;
#X obj 528 152 inlet;
#X obj 518 173 ofSnd v\$1_\$6;
#X obj 184 110 ofGetCanvasArgs 1;
#X obj 184 89 ofRcv v\$1_loadargs;
#X obj 184 131 list split 1;
#X obj 267 131 list split 1;
#X obj 351 131 list split 1;
#X obj 434 131 list split 1;
#X obj 518 131 list split 1;
#X text 53 28 this abstraction is used to parse arguments used in a
gui abstraction. requires \$0 and 5 argument names.;
#X obj 82 257 ofDefine \; v\$1_xpos = $i1 \; v\$1_ypos = $i2 \;;
#X connect 0 0 2 0;
#X connect 1 0 9 0;
#X connect 2 0 7 0;
#X connect 2 1 18 0;
#X connect 2 2 13 0;
#X connect 3 0 10 0;
#X connect 4 0 11 0;
#X connect 5 0 12 0;
#X connect 6 0 24 0;
#X connect 7 0 8 0;
#X connect 7 1 6 0;
#X connect 14 0 15 0;
#X connect 16 0 18 0;
#X connect 17 0 16 0;
#X connect 18 0 9 0;
#X connect 18 1 19 0;
#X connect 19 0 10 0;
#X connect 19 1 20 0;
#X connect 20 0 11 0;
#X connect 20 1 21 0;
#X connect 21 0 12 0;
#X connect 21 1 22 0;
#X connect 22 0 15 0;
