#N canvas 327 206 899 379 10;
#X obj 55 173 inlet;
#X obj 194 152 inlet;
#X obj 55 194 route bang set float, f 49;
#X obj 82 236 ofGetTranslate;
#X obj 55 215 t b b;
#X obj 55 312 outlet;
#X obj 184 173 ofSnd v\$1_\$2;
#X obj 249 312 outlet;
#X obj 184 110 ofGetCanvasArgs 1;
#X obj 184 89 ofRcv v\$1_loadargs;
#X obj 184 131 list split 1;
#X text 53 28 this abstraction is used to parse arguments used in a
gui abstraction. requires \$0 and 1 argument name.;
#X obj 82 257 ofDefine \; v\$1_xpos = $i1 \; v\$1_ypos = $i2 \;;
#X connect 0 0 2 0;
#X connect 1 0 6 0;
#X connect 2 0 4 0;
#X connect 2 1 10 0;
#X connect 2 2 7 0;
#X connect 3 0 12 0;
#X connect 4 0 5 0;
#X connect 4 1 3 0;
#X connect 8 0 10 0;
#X connect 9 0 8 0;
#X connect 10 0 6 0;
