#N canvas 522 163 450 300 10;
#X obj 123 181 ofRcv;
#X obj 123 103 loadbang;
#X obj 123 217 outlet;
#X obj 251 181 ofRcv;
#X obj 251 160 makefilename v%s_\$1;
#X obj 123 139 ofGetDollarZero 2;
#X obj 251 139 ofGetCanvasName 2;
#X text 22 19 this abstraction is used to receive message through parent
patch's local variable name. requires 1 argument that is receive name.
;
#X obj 123 160 makefilename v%s_\$1;
#X connect 0 0 2 0;
#X connect 1 0 5 0;
#X connect 1 0 6 0;
#X connect 3 0 2 0;
#X connect 4 0 3 0;
#X connect 5 0 8 0;
#X connect 6 0 4 0;
#X connect 8 0 0 0;
