#N canvas 522 163 450 361 10;
#X obj 164 128 list fromsymbol;
#X obj 164 149 route 64 35, f 13;
#X obj 227 192 list tosymbol;
#X obj 164 170 t b l;
#X obj 201 170 t b l;
#X obj 239 255 list tosymbol;
#X msg 164 276 symbol v\$1_\$2;
#X obj 164 107 symbol;
#X obj 164 86 inlet;
#X obj 164 297 outlet;
#X obj 164 234 ofGetDollarZero 2;
#X obj 201 213 ofGetCanvasName 2;
#X text 22 19 this abstraction is used to convert a symbol into a parent
patch's local variable name. requires no argument.;
#X obj 164 255 pack s s, f 11;
#X connect 0 0 1 0;
#X connect 1 0 3 0;
#X connect 1 1 4 0;
#X connect 1 2 5 0;
#X connect 2 0 13 1;
#X connect 3 0 10 0;
#X connect 3 1 2 0;
#X connect 4 0 11 0;
#X connect 4 1 2 0;
#X connect 5 0 9 0;
#X connect 6 0 9 0;
#X connect 7 0 0 0;
#X connect 8 0 7 0;
#X connect 10 0 13 0;
#X connect 11 0 13 0;
#X connect 13 0 6 0;
