#N canvas 641 23 664 572 10;
#X declare -lib ofelia;
#X obj 41 35 inlet;
#X obj 41 77 ofPushMatrix;
#X obj 41 98 ofPushStyle;
#X obj 41 204 ofSetFillMode OUTLINE;
#X obj 41 325 ofTranslate;
#X obj 41 288 ofSquare 0;
#X obj 41 347 ofCircle 0;
#X obj 41 267 ofSetColor black;
#X obj 41 455 ofPopStyle;
#X obj 68 434 ofCircle 0;
#X obj 68 390 spigot;
#X obj 41 477 ofPopMatrix;
#X obj 241 247 1;
#X obj 241 225 sel 1;
#X obj 271 247 delay 250;
#X obj 271 269 0;
#X obj 41 140 ofSetFillMode FILLED;
#X obj 41 183 ofSquare 0;
#X obj 41 369 t b b;
#X obj 68 412 ofSetFillMode FILLED;
#X obj 125 287 / 2;
#X obj 98 161 ofRcv @size;
#X obj 41 119 ofSetRectMode CORNER;
#X obj 41 499 outlet;
#X obj 125 309 - 1;
#X obj 241 182 ofDefine $o1 = if ($i1 > @xpos && $i1 < @xpos + @size
&& $i2 > @ypos && $i2 < @ypos + @size \, 1 \, 0), f 39;
#X obj 207 119 ofTouchListener;
#X obj 207 161 list split 1;
#X obj 241 295 ofSnd @value;
#X obj 101 369 ofRcv @value;
#X obj 253 499 outlet;
#X obj 253 458 ofRcv @value;
#X obj 253 479 sel 1;
#X obj 502 35 declare -lib ofelia;
#X obj 241 35 inlet;
#X obj 207 140 spigot 1;
#X obj 241 56 bang;
#X obj 241 77 1;
#X obj 61 246 ofPrepend set;
#X obj 61 225 _locRcv pdgui.frontColor;
#X obj 41 56 _argParse1 \$0 size;
#X obj 146 35 inlet;
#X obj 359 35 loadbang;
#X obj 359 56 ofSnd @loadargs;
#X obj 322 225 _locRcv pdgui.flashTime;
#X connect 0 0 40 0;
#X connect 1 0 2 0;
#X connect 2 0 22 0;
#X connect 3 0 7 0;
#X connect 4 0 6 0;
#X connect 5 0 4 0;
#X connect 6 0 18 0;
#X connect 7 0 5 0;
#X connect 8 0 11 0;
#X connect 10 0 19 0;
#X connect 11 0 23 0;
#X connect 12 0 28 0;
#X connect 13 0 12 0;
#X connect 13 0 14 0;
#X connect 14 0 15 0;
#X connect 15 0 28 0;
#X connect 16 0 17 0;
#X connect 17 0 3 0;
#X connect 18 0 8 0;
#X connect 18 1 10 0;
#X connect 19 0 9 0;
#X connect 20 0 4 1;
#X connect 20 0 4 2;
#X connect 20 0 24 0;
#X connect 21 0 17 1;
#X connect 21 0 5 1;
#X connect 21 0 20 0;
#X connect 22 0 16 0;
#X connect 24 0 6 1;
#X connect 24 0 9 1;
#X connect 25 0 13 0;
#X connect 26 0 35 0;
#X connect 27 1 25 0;
#X connect 29 0 10 1;
#X connect 31 0 32 0;
#X connect 32 0 30 0;
#X connect 34 0 36 0;
#X connect 35 0 27 0;
#X connect 36 0 37 0;
#X connect 37 0 13 0;
#X connect 38 0 7 0;
#X connect 39 0 38 0;
#X connect 40 0 1 0;
#X connect 40 1 35 1;
#X connect 41 0 40 1;
#X connect 42 0 43 0;
#X connect 44 0 14 1;
