#N canvas 641 23 747 628 10;
#X declare -lib ofelia;
#X obj 41 79 ofPushMatrix;
#X obj 41 100 ofPushStyle;
#X obj 41 498 ofPopStyle;
#X obj 41 519 ofPopMatrix;
#X obj 41 121 ofSetRectMode CORNER;
#X obj 41 540 outlet;
#X obj 41 142 ofSetFillMode FILLED;
#X obj 267 163 list split 1;
#X obj 267 238 spigot;
#X obj 267 259 t b f;
#X obj 364 275 route -1;
#X obj 462 275 route -1;
#X obj 489 317 -1;
#X obj 462 297 t b b;
#X obj 267 121 ofTouchListener, f 33;
#X obj 301 184 ofDefine \; $o1 = if ($i1 > @xpos && $i1 < @xpos + @width
&& $i2 > @ypos && $i2 < @ypos + @height \, 1 \, 0) \; @td_y = $i2 \;
, f 48;
#X obj 364 553 ofSnd @value;
#X obj 364 448 ofRcv @rawVal;
#X obj 267 280 ofDefine \; @tdVal = @value;
#X obj 41 163 ofDrawPath2d @path;
#X obj 41 247 ofDrawPolyline2d @polyline;
#X obj 41 226 ofSetColor black;
#X obj 203 435 ofRcv @height;
#X obj 62 456 ofPrepend text;
#X obj 61 394 ofPrepend name;
#X obj 41 268 ofSetTextMode LEFT MIDDLE;
#X obj 41 331 ofTranslate;
#X obj 62 289 ofRcv @height;
#X obj 203 456 * 0.5;
#X obj 99 310 * 0.5;
#X obj 62 310 * 0.7;
#X obj 590 37 declare -lib ofelia;
#X obj 267 142 spigot 1;
#X obj 61 352 ofRcv @fontName;
#X obj 41 477 ofDrawTextAsShapes @fontName 0 0;
#X obj 416 58 ofSnd @rawVal;
#X obj 41 37 inlet;
#X obj 416 37 inlet;
#N canvas 674 250 437 382 loaders 0;
#X obj 153 273 ofLoadPath2d @path;
#X msg 153 230 load moveTo 0 0 lineTo 0 \$2 \$1 \$2 \$1 \$4 \$3 0 close
, f 17;
#X obj 126 319 ofLoadPolyline2d @polyline;
#X obj 126 188 pack f f f f f, f 18;
#X obj 126 79 ofExpr \; _w = $i1 \; _h = $i2 \; _o = _h / 4 \; $o1
= _w \; $o2 = _h \; $o3 = _w - _o \; $o4 = _o \; $o5 = _h / 2 \;,
f 18;
#X obj 126 209 t l l;
#X msg 126 298 append moveTo 0 0 lineTo \$5 \$5 0 \$2;
#X obj 126 37 ofRcv @width;
#X obj 204 37 ofRcv @height;
#X obj 204 58 t b f;
#X connect 1 0 0 0;
#X connect 1 0 2 0;
#X connect 3 0 5 0;
#X connect 4 0 3 0;
#X connect 4 1 3 1;
#X connect 4 2 3 2;
#X connect 4 3 3 3;
#X connect 4 4 3 4;
#X connect 5 0 6 0;
#X connect 5 1 1 0;
#X connect 6 0 2 0;
#X connect 7 0 4 0;
#X connect 8 0 9 0;
#X connect 9 0 4 0;
#X connect 9 1 4 1;
#X restore 163 163 pd loaders;
#X obj 61 205 ofPrepend set;
#X obj 61 184 _locRcv pdgui.frontColor;
#X obj 61 373 _makeParentVarName;
#X obj 391 391 ofSnd @rawVal;
#X obj 364 370 t f f;
#X obj 364 412 ofExpr @tdVal = @tdVal - ($i1 - @value);
#X obj 519 553 outlet;
#X obj 519 532 ofRcv @value;
#X obj 395 490 ofRcv @minVal;
#X obj 427 511 ofRcv @maxVal;
#X obj 518 37 loadbang;
#X obj 518 163 ofSnd @loadargs;
#X obj 518 58 t b b;
#X obj 364 338 ofExpr \; $o1 = rint(@td_y - $i2) * $i3 + @tdVal;
#X obj 589 317 ofRcv @step;
#X obj 94 37 inlet;
#X obj 148 37 inlet;
#X obj 201 37 inlet;
#X obj 255 37 inlet;
#X obj 308 37 inlet;
#X obj 362 37 inlet;
#X obj 364 469 ofExpr rint($i1 * 10000) / 10000;
#X obj 545 79 1;
#X obj 545 100 ofSnd @step;
#X obj 41 58 _argParse6 \$0 width height fontName step minVal maxVal
;
#X obj 545 121 ofGetMinFloat;
#X obj 545 142 ofSnd @minVal;
#X obj 635 121 ofGetMaxFloat;
#X obj 635 142 ofSnd @maxVal;
#X obj 364 532 ofClamp 0 1;
#X obj 203 393 _locRcv pdgui.fontScale;
#X obj 203 414 t b f;
#N canvas 675 206 584 511 keyinput 0;
#X obj 258 35 inlet;
#X obj 203 400 ofSymbolToList;
#X obj 170 98 ofKeyListener;
#X obj 170 138 route 1;
#X obj 170 119 spigot;
#X obj 258 56 change;
#X obj 236 279 ofLoadFloat @keycodes;
#X msg 285 255 clear;
#X obj 269 234 ofPrepend add;
#X obj 170 159 ofExpr \; if ($i1 == 13 || $i1 == 45 || $i1 == 46 ||
($i1 >= 48 && $i1 <= 57) || $i1 == 69 || $i1 == 101 || $i1 == 127 \,
$i1 \, -1) \;, f 40;
#X obj 170 213 sel -1 13 127, f 17;
#X msg 236 255 erase;
#X obj 295 342 ofGetFloats @keycodes;
#X obj 295 363 list tosymbol;
#X obj 236 300 sel 0;
#X obj 295 321 bang;
#X obj 295 384 ofSnd @typed;
#X obj 285 445 ofSnd @value;
#X obj 285 424 ofVal @value;
#X obj 285 98 sel 0;
#X obj 203 379 symbol;
#X obj 258 77 t f f;
#X obj 203 421 f;
#X msg 236 321 symbol;
#X connect 0 0 5 0;
#X connect 1 0 22 0;
#X connect 2 0 4 0;
#X connect 3 0 9 0;
#X connect 4 0 3 0;
#X connect 5 0 21 0;
#X connect 6 0 14 0;
#X connect 7 0 6 0;
#X connect 8 0 6 0;
#X connect 9 0 10 0;
#X connect 10 1 20 0;
#X connect 10 1 7 0;
#X connect 10 2 11 0;
#X connect 10 3 8 0;
#X connect 11 0 6 0;
#X connect 12 0 13 0;
#X connect 13 0 16 0;
#X connect 13 0 20 1;
#X connect 14 0 23 0;
#X connect 14 1 15 0;
#X connect 15 0 12 0;
#X connect 18 0 17 0;
#X connect 19 0 18 0;
#X connect 19 0 7 0;
#X connect 20 0 1 0;
#X connect 21 0 4 1;
#X connect 21 1 19 0;
#X connect 22 0 17 0;
#X connect 23 0 20 1;
#X restore 311 239 pd keyinput;
#X obj 62 435 ofRcv @value;
#X obj 62 415 ofRcv @typed;
#X connect 0 0 1 0;
#X connect 1 0 4 0;
#X connect 2 0 3 0;
#X connect 3 0 5 0;
#X connect 4 0 6 0;
#X connect 6 0 19 0;
#X connect 7 0 8 0;
#X connect 7 1 15 0;
#X connect 8 0 9 0;
#X connect 9 0 18 0;
#X connect 9 1 10 1;
#X connect 9 1 11 1;
#X connect 10 0 52 0;
#X connect 11 0 13 0;
#X connect 12 0 10 1;
#X connect 12 0 11 1;
#X connect 13 1 12 0;
#X connect 14 0 32 0;
#X connect 14 1 10 0;
#X connect 14 2 11 0;
#X connect 15 0 8 1;
#X connect 15 0 71 0;
#X connect 17 0 60 0;
#X connect 19 0 21 0;
#X connect 20 0 25 0;
#X connect 21 0 20 0;
#X connect 22 0 28 0;
#X connect 23 0 34 0;
#X connect 24 0 34 0;
#X connect 25 0 26 0;
#X connect 26 0 34 0;
#X connect 27 0 29 0;
#X connect 27 0 30 0;
#X connect 28 0 34 1;
#X connect 29 0 26 2;
#X connect 30 0 26 1;
#X connect 32 0 7 0;
#X connect 33 0 41 0;
#X connect 34 0 2 0;
#X connect 36 0 63 0;
#X connect 37 0 35 0;
#X connect 39 0 21 0;
#X connect 40 0 39 0;
#X connect 41 0 24 0;
#X connect 43 0 44 0;
#X connect 43 1 42 0;
#X connect 46 0 45 0;
#X connect 47 0 68 1;
#X connect 48 0 68 2;
#X connect 49 0 51 0;
#X connect 51 0 50 0;
#X connect 51 1 61 0;
#X connect 51 1 64 0;
#X connect 51 1 66 0;
#X connect 52 0 43 0;
#X connect 53 0 52 2;
#X connect 54 0 63 1;
#X connect 55 0 63 2;
#X connect 56 0 63 3;
#X connect 57 0 63 4;
#X connect 58 0 63 5;
#X connect 59 0 63 6;
#X connect 60 0 68 0;
#X connect 61 0 62 0;
#X connect 63 0 0 0;
#X connect 63 1 32 1;
#X connect 64 0 65 0;
#X connect 66 0 67 0;
#X connect 68 0 16 0;
#X connect 69 0 70 0;
#X connect 70 0 28 0;
#X connect 70 1 28 1;
#X connect 72 0 23 0;
#X connect 73 0 23 0;
