#N canvas 641 23 662 572 10;
#X declare -lib ofelia;
#X obj 41 35 inlet;
#X obj 41 77 ofPushMatrix;
#X obj 41 98 ofPushStyle;
#X obj 41 205 ofSetFillMode OUTLINE;
#X obj 41 289 ofSquare 0;
#X obj 41 268 ofSetColor black;
#X obj 41 450 ofPopStyle;
#X obj 68 353 spigot;
#X obj 41 472 ofPopMatrix;
#X obj 241 226 sel 1;
#X obj 41 311 t b b;
#X obj 41 119 ofSetRectMode CORNER;
#X obj 41 494 outlet;
#X obj 68 380 ofLine2d 0 0 0 0;
#X obj 68 429 ofLine2d 0 0 0 0;
#X msg 124 353 set 0 0 \$1 \$1;
#X msg 124 402 set \$1 0 0 \$1;
#X obj 124 331 ofRcv @size;
#X obj 241 247 ofCount 0 1 1;
#X obj 41 140 ofSetFillMode FILLED;
#X obj 41 183 ofSquare 0;
#X obj 98 161 ofRcv @size;
#X obj 207 120 ofTouchListener;
#X obj 207 162 list split 1;
#X obj 241 183 ofDefine $o1 = if ($i1 > @xpos && $i1 < @xpos + @size
&& $i2 > @ypos && $i2 < @ypos + @size \, 1 \, 0), f 38;
#X obj 241 494 outlet;
#X obj 101 311 ofRcv @value;
#X obj 241 473 ofRcv @value;
#X obj 241 268 ofSnd @value;
#X obj 503 35 declare -lib ofelia;
#X obj 207 141 spigot 1;
#X obj 241 35 inlet;
#X obj 241 56 != 0;
#X obj 61 247 ofPrepend set;
#X obj 61 226 _locRcv pdgui.frontColor;
#X obj 41 56 _argParse1 \$0 size;
#X obj 146 35 inlet;
#X obj 359 35 loadbang;
#X obj 359 56 ofSnd @loadargs;
#X connect 0 0 35 0;
#X connect 1 0 2 0;
#X connect 2 0 11 0;
#X connect 3 0 5 0;
#X connect 4 0 10 0;
#X connect 5 0 4 0;
#X connect 6 0 8 0;
#X connect 7 0 13 0;
#X connect 8 0 12 0;
#X connect 9 0 18 0;
#X connect 10 0 6 0;
#X connect 10 1 7 0;
#X connect 11 0 19 0;
#X connect 13 0 14 0;
#X connect 15 0 13 0;
#X connect 16 0 14 0;
#X connect 17 0 15 0;
#X connect 17 0 16 0;
#X connect 18 0 28 0;
#X connect 19 0 20 0;
#X connect 20 0 3 0;
#X connect 21 0 20 1;
#X connect 21 0 4 1;
#X connect 22 0 30 0;
#X connect 23 1 24 0;
#X connect 24 0 9 0;
#X connect 26 0 7 1;
#X connect 27 0 25 0;
#X connect 30 0 23 0;
#X connect 31 0 32 0;
#X connect 32 0 18 0;
#X connect 33 0 5 0;
#X connect 34 0 33 0;
#X connect 35 0 1 0;
#X connect 35 1 30 1;
#X connect 36 0 35 1;
#X connect 37 0 38 0;
