#N canvas 642 23 633 634 10;
#X declare -lib ofelia;
#X obj 416 547 outlet;
#X obj 416 526 ofRcv @value;
#X obj 416 490 ofSnd @value;
#X obj 416 407 ofRcv @rawVal;
#X obj 416 469 ofClamp 0 0;
#X obj 479 428 ofRcv @numCells;
#X obj 273 119 ofTouchListener;
#X obj 273 161 list split 1;
#X obj 307 225 sel -1;
#X obj 479 448 - 1;
#X obj 340 246 ofSnd @rawVal;
#X obj 307 182 ofDefine $o1 = if ($i1 > @xpos && $i1 < @xpos + @size
&& $i2 > @ypos && $i2 < @ypos + @size * @numCells \, ($i2 - @ypos)
/ @size \, -1), f 45;
#X obj 41 77 ofPushMatrix;
#X obj 41 98 ofPushStyle;
#X obj 41 505 ofPopStyle;
#X obj 41 526 ofPopMatrix;
#X obj 41 119 ofSetRectMode CORNER;
#X obj 41 547 outlet;
#X obj 41 140 ofSetFillMode FILLED;
#X obj 68 479 ofSquare 0;
#X obj 68 354 f;
#X obj 159 161 ofRcv @numCells;
#X obj 68 375 ofCountUntil;
#X obj 41 228 ofRectangle 0 0;
#X obj 84 161 ofRcv @size;
#X obj 128 207 *;
#X obj 110 415 *;
#X obj 68 395 t b f;
#X obj 68 437 ofSepMatrix;
#X obj 68 458 ofTranslate;
#X obj 68 333 ofSetFillMode OUTLINE;
#X obj 125 395 ofRcv @size;
#X obj 313 396 *;
#X obj 203 479 ofSquare 0;
#X obj 233 312 ofRcv @size;
#X obj 233 396 -;
#X obj 260 375 * 0.6;
#X obj 233 417 / 2;
#X obj 203 459 ofTranslate;
#X obj 203 438 ofTranslate;
#X obj 233 354 t f f;
#X obj 328 354 ofRcv @size;
#X obj 313 333 ofRcv @value;
#X obj 41 249 t b b;
#X obj 68 312 ofSepMatrix 2, f 23;
#X obj 68 291 ofSetColor black;
#X obj 472 35 declare -lib ofelia;
#X obj 328 375 t b f;
#X obj 159 182 t b f;
#X obj 273 140 spigot 1;
#X obj 264 56 ofSnd @rawVal;
#X obj 41 35 inlet;
#X obj 264 35 inlet;
#X obj 416 428 i;
#X obj 88 270 ofPrepend set;
#X obj 88 249 _locRcv pdgui.frontColor;
#X obj 41 56 _argParse2 \$0 size numCells;
#X obj 120 35 inlet;
#X obj 200 35 inlet;
#X obj 369 35 loadbang;
#X obj 369 56 ofSnd @loadargs;
#X obj 233 270 _locRcv pdgui.cellScale;
#X obj 233 291 t b f;
#X obj 233 334 f;
#X connect 1 0 0 0;
#X connect 3 0 53 0;
#X connect 4 0 2 0;
#X connect 5 0 9 0;
#X connect 6 0 49 0;
#X connect 7 1 11 0;
#X connect 8 1 10 0;
#X connect 9 0 4 2;
#X connect 11 0 8 0;
#X connect 12 0 13 0;
#X connect 13 0 16 0;
#X connect 14 0 15 0;
#X connect 15 0 17 0;
#X connect 16 0 18 0;
#X connect 18 0 23 0;
#X connect 20 0 22 0;
#X connect 21 0 20 1;
#X connect 21 0 48 0;
#X connect 22 0 27 0;
#X connect 23 0 43 0;
#X connect 24 0 23 1;
#X connect 24 0 25 0;
#X connect 25 0 23 2;
#X connect 26 0 29 2;
#X connect 27 0 28 0;
#X connect 27 1 26 0;
#X connect 28 0 29 0;
#X connect 29 0 19 0;
#X connect 30 0 20 0;
#X connect 31 0 26 1;
#X connect 31 0 19 1;
#X connect 32 0 39 2;
#X connect 34 0 63 0;
#X connect 35 0 37 0;
#X connect 36 0 35 1;
#X connect 36 0 33 1;
#X connect 37 0 38 1;
#X connect 37 0 38 2;
#X connect 38 0 33 0;
#X connect 39 0 38 0;
#X connect 40 0 35 0;
#X connect 40 1 36 0;
#X connect 41 0 47 0;
#X connect 42 0 32 0;
#X connect 43 0 14 0;
#X connect 43 1 45 0;
#X connect 44 0 30 0;
#X connect 44 1 39 0;
#X connect 45 0 44 0;
#X connect 47 0 32 0;
#X connect 47 1 32 1;
#X connect 48 0 25 0;
#X connect 48 1 25 1;
#X connect 49 0 7 0;
#X connect 51 0 56 0;
#X connect 52 0 50 0;
#X connect 53 0 4 0;
#X connect 54 0 45 0;
#X connect 55 0 54 0;
#X connect 56 0 12 0;
#X connect 56 1 49 1;
#X connect 57 0 56 1;
#X connect 58 0 56 2;
#X connect 59 0 60 0;
#X connect 61 0 62 0;
#X connect 62 0 63 0;
#X connect 62 1 36 1;
#X connect 63 0 40 0;
