#N canvas 720 100 665 558 10;
#X declare -lib ofelia;
#X obj 28 72 loadbang;
#X obj 28 114 ofWindow;
#X obj 28 150 ofSetup;
#X obj 28 171 ofBackground 102;
#X obj 28 192 ofSetCircleResolution 50;
#X msg 28 93 setPosition 30 100 \, setSize 640 360 \, create;
#X obj 511 28 declare -lib ofelia;
#X text 325 454 This example was originally written in Processing.
https://processing.org/examples/pattern.html;
#X obj 28 213 ofSetBackgroundAuto 0;
#X obj 28 347 ofDraw;
#X obj 28 368 ofRequire \$0-var;
#X obj 28 389 ofelia f \; a.variableEllipse(ofGetMouseX() \, ofGetMouseY()
\, ofGetPreviousMouseX() \, ofGetPreviousMouseY());
#X f 93;
#X text 25 23 move the cursor over the window to draw circles which
responds to the speed of the mouse.;
#X obj 28 234 ofelia f \$0-var \; function M.variableEllipse(x \, y
\, px \, py) \; local speed = math.abs(x-px) + math.abs(y-py) \; ofSetColor(speed%255)
\; ofDrawEllipse(x \, y \, speed \, speed) \; ofSetColor(255) \; ofDrawEllipse(x
\, y \, speed-2 \, speed-2) \; end \;;
#X connect 0 0 5 0;
#X connect 2 0 3 0;
#X connect 3 0 4 0;
#X connect 4 0 8 0;
#X connect 5 0 1 0;
#X connect 8 0 13 0;
#X connect 9 0 10 0;
#X connect 10 0 11 0;
