#N canvas 321 23 604 519 10;
#X obj 0 0 cnv 15 580 40 empty empty ofAccelListener 3 12 0 18 -204280
-1 0;
#X obj 0 341 cnv 3 580 3 empty empty inlets 8 12 0 13 -228856 -1 0
;
#X obj 0 375 cnv 3 580 3 empty empty outlets 8 12 0 13 -228856 -1 0
;
#X obj 75 383 cnv 17 3 17 empty empty 0 5 9 0 16 -228856 -162280 0
;
#X obj 0 460 cnv 15 580 21 empty empty empty 20 12 0 14 -228856 -66577
0;
#X obj 0 411 cnv 3 580 3 empty empty arguments 8 12 0 13 -228856 -1
0;
#X text 72 434 (none);
#X text 72 349 (none);
#X text 95 383 list <f \, f \, f>;
#X obj 279 203 unpack f f f;
#X floatatom 279 225 5 0 0 0 - - -, f 5;
#X floatatom 313 245 5 0 0 0 - - -, f 5;
#X floatatom 348 265 5 0 0 0 - - -, f 5;
#X msg 53 152 accel \$1;
#X obj 53 128 tgl 15 0 empty empty empty 17 7 0 10 -262144 -1 -1 0
1;
#N canvas 322 125 526 475 more_examples 0;
#X obj 99 88 loadbang;
#X obj 66 213 t b b;
#X text 24 23 this example shows moving the circle using the accelerometer
events.;
#X floatatom 260 178 5 0 0 0 - - -, f 5;
#X floatatom 407 178 5 0 0 0 - - -, f 5;
#X obj 260 88 ofAccelListener;
#X obj 99 116 ofGetLastRenderOrder;
#X obj 66 148 ofHead;
#X obj 66 178 ofClear 63;
#X obj 66 295 ofTranslate;
#X obj 66 347 ofTranslate;
#X obj 66 379 ofSetColor red;
#X obj 66 411 ofCircle 5;
#X obj 260 116 ofExpr \; $i1 * ofGetWidth * 0.5 \; -$i2 * ofGetHeight
* 0.5 \;;
#X obj 93 242 ofExpr \; ofGetWidth * 0.5 \; ofGetHeight * 0.5 \;;
#X connect 0 0 6 0;
#X connect 1 0 9 0;
#X connect 1 1 14 0;
#X connect 3 0 10 1;
#X connect 4 0 10 2;
#X connect 5 0 13 0;
#X connect 6 0 7 1;
#X connect 7 0 8 0;
#X connect 8 0 1 0;
#X connect 9 0 10 0;
#X connect 10 0 11 0;
#X connect 11 0 12 0;
#X connect 13 0 3 0;
#X connect 13 1 4 0;
#X connect 14 0 9 1;
#X connect 14 1 9 2;
#X restore 480 46 pd more_examples;
#X msg 59 203 accelSmoothing 0.8;
#X msg 23 88 destroy \, create;
#X text 132 89 recreate the current window if it is created by other
[window] object so you can change its settings here.;
#X text 11 23 listen to the accelerometer events;
#X obj 481 5 ofAccelListener;
#X text 21 43 [ofAccelListener] is used to detect the accelerometer
events on mobile devices. it will not work on desktop computers.;
#X obj 279 165 ofAccelListener;
#X obj 23 318 ofWindow 320 240 LEFT TOP;
#X text 77 128 enable/disable the accelerometer. (default: disabled)
;
#X text 58 182 set smoothing. (default: 0);
#X text 320 224 x coordinate. (-1 ~ 1);
#X text 354 244 y coordinate. (-1 ~ 1);
#X text 387 264 z coordinate. (-1 ~ 1);
#X text 211 383 - x coordinate \, y coordinate \, z coordinate.;
#X connect 9 0 10 0;
#X connect 9 1 11 0;
#X connect 9 2 12 0;
#X connect 13 0 23 0;
#X connect 14 0 13 0;
#X connect 16 0 23 0;
#X connect 17 0 23 0;
#X connect 22 0 9 0;
