#N canvas 321 23 598 537 10;
#X declare -lib ofelia;
#X obj 0 0 cnv 15 580 40 empty empty ofAngleDifferenceDegrees 3 12
0 18 -204280 -1 0;
#X obj 0 341 cnv 3 580 3 empty empty inlets 8 12 0 13 -228856 -1 0
;
#X obj 0 400 cnv 3 580 3 empty empty outlets 8 12 0 13 -228856 -1 0
;
#X obj 75 349 cnv 17 3 17 empty empty 0 5 9 0 16 -228856 -162280 0
;
#X obj 75 408 cnv 17 3 17 empty empty 0 5 9 0 16 -228856 -162280 0
;
#X obj 0 483 cnv 15 580 21 empty empty empty 20 12 0 14 -228856 -66577
0;
#X obj 0 434 cnv 3 580 3 empty empty arguments 8 12 0 13 -228856 -1
0;
#X floatatom 215 237 5 0 0 0 - - -, f 5;
#X text 95 408 float;
#X floatatom 215 155 5 0 0 0 - - -, f 5;
#X text 95 349 float;
#X floatatom 374 185 5 0 0 0 - - -, f 5;
#X obj 75 372 cnv 17 3 17 empty empty 1 5 9 0 16 -228856 -162280 0
;
#X text 95 372 float;
#N canvas 321 116 800 309 more_examples 0;
#X floatatom 47 220 5 0 0 0 - - -, f 5;
#X floatatom 287 68 5 0 0 0 - - -, f 5;
#X floatatom 287 220 5 0 0 0 - - -, f 5;
#X floatatom 537 220 5 0 0 0 - - -, f 5;
#X text 334 67 target angle.;
#X obj 47 193 ofAngleDifferenceDegrees;
#X obj 537 193 ofAngleDifferenceDegrees 450;
#X obj 287 193 ofAngleDifferenceDegrees 90;
#X connect 1 0 5 0;
#X connect 1 0 6 0;
#X connect 1 0 7 0;
#X connect 5 0 0 0;
#X connect 6 0 3 0;
#X connect 7 0 2 0;
#X restore 480 66 pd more_examples;
#X text 72 457 1) float;
#X obj 427 5 ofAngleDifferenceDegrees;
#X text 254 154 target angle.;
#X text 411 184 current angle.;
#X obj 215 210 ofAngleDifferenceDegrees 90;
#X text 211 408 - the difference between two angles in degrees.;
#X text 211 349 - target angle in degrees.;
#X text 211 372 - current angle in degrees.;
#X text 211 457 - current angle in degrees. (default: 0);
#X text 11 23 calculate the difference between two angles in degrees
;
#X obj 462 46 declare -lib ofelia;
#X connect 9 0 19 0;
#X connect 11 0 19 1;
#X connect 19 0 7 0;
