#N canvas 321 23 596 538 10;
#X obj 0 0 cnv 15 580 40 empty empty ofAppend 3 12 0 18 -204280 -1
0;
#X obj 223 253 print;
#X floatatom 223 111 5 0 0 0 - - -, f 5;
#X obj 0 341 cnv 3 580 3 empty empty inlets 8 12 0 13 -228856 -1 0
;
#X obj 0 400 cnv 3 580 3 empty empty outlets 8 12 0 13 -228856 -1 0
;
#X obj 75 349 cnv 17 3 40 empty empty 0 5 9 0 16 -228856 -162280 0
;
#X text 95 408 anything;
#X obj 75 408 cnv 17 3 17 empty empty 0 5 9 0 16 -228856 -162280 0
;
#X text 95 349 anything;
#X text 72 459 1) symbol;
#X obj 0 485 cnv 15 580 21 empty empty empty 20 12 0 14 -228856 -66577
0;
#X obj 0 436 cnv 3 580 3 empty empty arguments 8 12 0 13 -228856 -1
0;
#X text 211 408 - the combined message.;
#X text 11 23 append a symbol to an incoming message;
#X obj 523 5 ofAppend;
#X msg 265 189 append cats;
#X text 211 369 - updates the symbol to append.;
#X text 95 369 append <s>;
#X msg 241 135 I love;
#X obj 223 226 ofAppend dogs;
#X msg 247 162 1 2 3 4;
#X text 211 349 - a message that will be combined with the symbol.
;
#X text 211 459 - sets the symbol to append. (default: "");
#X text 344 189 change the symbol to append.;
#X connect 2 0 19 0;
#X connect 15 0 19 0;
#X connect 18 0 19 0;
#X connect 19 0 1 0;
#X connect 20 0 19 0;
