#N canvas 321 23 602 686 10;
#X declare -lib ofelia;
#X obj 0 0 cnv 15 580 40 empty empty ofArrow 3 12 0 18 -204280 -1 0
;
#X obj 242 78 loadbang;
#X obj 0 401 cnv 3 580 3 empty empty inlets 8 12 0 13 -228856 -1 0
;
#X obj 0 506 cnv 3 580 3 empty empty outlets 8 12 0 13 -228856 -1 0
;
#X obj 75 409 cnv 17 3 40 empty empty 0 5 9 0 16 -228856 -162280 0
;
#X obj 75 514 cnv 17 3 17 empty empty 0 5 9 0 16 -228856 -162280 0
;
#X obj 0 631 cnv 15 580 21 empty empty empty 20 12 0 14 -228856 -66577
0;
#X obj 0 542 cnv 3 580 3 empty empty arguments 8 12 0 13 -228856 -1
0;
#X obj 75 455 cnv 17 3 17 empty empty 1 5 9 0 16 -228856 -162280 0
;
#X text 95 409 render bang;
#X text 211 409 - the incoming render bang.;
#X text 211 514 - the outgoing render bang.;
#X text 95 514 render bang;
#X obj 75 478 cnv 17 3 17 empty empty 2 5 9 0 16 -228856 -162280 0
;
#X floatatom 239 196 5 0 0 0 - - -, f 5;
#X text 72 605 3) float;
#X text 11 23 draw an arrow;
#X text 277 195 change the size of the head.;
#X msg 239 215 headSize \$1;
#X floatatom 279 249 5 0 0 0 - - -, f 5;
#X floatatom 319 249 5 0 0 0 - - -, f 5;
#X floatatom 360 249 5 0 0 0 - - -, f 5;
#X floatatom 350 299 5 0 0 0 - - -, f 5;
#X floatatom 387 299 5 0 0 0 - - -, f 5;
#X floatatom 425 299 5 0 0 0 - - -, f 5;
#X text 463 298 change end point.;
#X text 398 248 change start point.;
#X text 95 429 headSize <f>;
#X text 211 429 - sets the size of the head.;
#X text 95 455 list <f \, f \, f>;
#X text 95 478 list <f \, f \, f>;
#X text 211 455 - sets the start point.;
#X text 211 478 - sets the end point.;
#X text 72 565 1) list <f \, f \, f>;
#X text 72 585 2) list <f \, f \, f>;
#X obj 529 5 ofArrow;
#X obj 242 99 ofGetLastRenderOrder;
#X obj 209 120 ofHead;
#X obj 209 141 ofClear 63;
#X obj 209 169 ofTranslate 160 120;
#X obj 209 341 ofArrow -50 0 0 50 0 0 5;
#X obj 279 270 ofPack -50 0 0;
#X obj 350 320 ofPack 50 0 0;
#X obj 23 378 ofWindow 320 240 LEFT TOP;
#X text 211 565 - sets the initial start point. (default: -50 \, 0
\, 0);
#X text 211 585 - sets the initial end point. (default: 50 \, 0 \,
0);
#X text 211 605 - sets the initial size of the head. (default: 5);
#X obj 462 46 declare -lib ofelia;
#X connect 1 0 36 0;
#X connect 14 0 18 0;
#X connect 18 0 40 0;
#X connect 19 0 41 0;
#X connect 20 0 41 1;
#X connect 21 0 41 2;
#X connect 22 0 42 0;
#X connect 23 0 42 1;
#X connect 24 0 42 2;
#X connect 36 0 37 1;
#X connect 37 0 38 0;
#X connect 38 0 39 0;
#X connect 39 0 40 0;
#X connect 41 0 40 1;
#X connect 42 0 40 2;
