#N canvas 321 23 598 672 10;
#X declare -lib ofelia;
#X obj 0 0 cnv 15 580 40 empty empty ofArc 3 12 0 18 -204280 -1 0;
#X obj 0 341 cnv 3 580 3 empty empty inlets 8 12 0 13 -228856 -1 0
;
#X obj 0 469 cnv 3 580 3 empty empty outlets 8 12 0 13 -228856 -1 0
;
#X obj 75 349 cnv 17 3 17 empty empty 0 5 9 0 16 -228856 -162280 0
;
#X obj 75 477 cnv 17 3 17 empty empty 0 5 9 0 16 -228856 -162280 0
;
#X obj 0 617 cnv 15 580 21 empty empty empty 20 12 0 14 -228856 -66577
0;
#X obj 0 505 cnv 3 580 3 empty empty arguments 8 12 0 13 -228856 -1
0;
#X text 72 528 1) float;
#X obj 133 76 loadbang;
#X floatatom 124 246 5 0 0 0 - - -, f 5;
#X obj 75 372 cnv 17 3 17 empty empty 1 5 9 0 16 -228856 -162280 0
;
#X text 95 372 float;
#X text 95 349 render bang;
#X text 211 349 - the incoming render bang.;
#X text 211 477 - the outgoing render bang.;
#X text 95 477 render bang;
#X floatatom 165 246 5 0 0 0 - - -, f 5;
#X obj 75 395 cnv 17 3 17 empty empty 2 5 9 0 16 -228856 -162280 0
;
#X text 95 395 float;
#X text 72 549 2) float;
#X floatatom 206 246 5 0 0 0 - - -, f 5;
#X floatatom 247 246 5 0 0 0 - - -, f 5;
#X obj 223 190 tgl 15 0 empty empty empty 17 7 0 10 -262144 -1 -1 0
1;
#X text 211 372 - sets the radiusX.;
#X text 211 395 - sets the radiusY.;
#X obj 75 418 cnv 17 3 17 empty empty 3 5 9 0 16 -228856 -162280 0
;
#X text 95 418 float;
#X obj 75 441 cnv 17 3 17 empty empty 4 5 9 0 16 -228856 -162280 0
;
#X text 95 441 float;
#X text 211 418 - sets the angleBegin.;
#X text 211 441 - sets the angleEnd.;
#X text 11 23 draw an arc;
#X text 72 570 3) float;
#X text 72 591 4) float;
#X obj 541 5 ofArc;
#X obj 133 97 ofGetLastRenderOrder;
#X obj 100 118 ofHead;
#X obj 100 139 ofClear 63;
#X obj 100 167 ofTranslate 160 120;
#X obj 100 209 ofSetFillMode OUTLINE;
#X obj 100 266 ofArc 50 50 0 150;
#X obj 23 318 ofWindow 320 240 LEFT TOP;
#X text 246 189 0: OUTLINE \, 1: FILLED.;
#X text 286 245 change radiusX \, radiusY \, angleBegin \, angleEnd.
;
#X text 211 528 - sets the initial radiusX. (default: 50);
#X text 211 549 - sets the initial radiusY. (default: 50);
#X text 211 570 - sets the initial angleBegin. (default: -180);
#X text 211 591 - sets the initial angleEnd. (default: 0);
#X obj 462 46 declare -lib ofelia;
#X connect 8 0 35 0;
#X connect 9 0 40 1;
#X connect 16 0 40 2;
#X connect 20 0 40 3;
#X connect 21 0 40 4;
#X connect 22 0 39 1;
#X connect 35 0 36 1;
#X connect 36 0 37 0;
#X connect 37 0 38 0;
#X connect 38 0 39 0;
#X connect 39 0 40 0;
