#N canvas 321 23 603 538 10;
#X declare -lib ofelia;
#X obj 0 0 cnv 15 580 40 empty empty ofAxis 3 12 0 18 -204280 -1 0
;
#X obj 0 338 cnv 3 580 3 empty empty inlets 8 12 0 13 -228856 -1 0
;
#X obj 0 397 cnv 3 580 3 empty empty outlets 8 12 0 13 -228856 -1 0
;
#X obj 75 346 cnv 17 3 17 empty empty 0 5 9 0 16 -228856 -162280 0
;
#X obj 75 405 cnv 17 3 17 empty empty 0 5 9 0 16 -228856 -162280 0
;
#X obj 0 482 cnv 15 580 21 empty empty empty 20 12 0 14 -228856 -66577
0;
#X obj 0 433 cnv 3 580 3 empty empty arguments 8 12 0 13 -228856 -1
0;
#X text 72 456 1) float;
#X obj 273 79 loadbang;
#X floatatom 297 255 5 0 0 0 - - -, f 5;
#X obj 75 369 cnv 17 3 17 empty empty 1 5 9 0 16 -228856 -162280 0
;
#X text 95 369 float;
#X text 95 346 render bang;
#X text 211 346 - the incoming render bang.;
#X text 211 405 - the outgoing render bang.;
#X text 95 405 render bang;
#X text 335 254 change size.;
#X floatatom 273 201 5 0 0 0 - - -, f 5;
#X floatatom 310 201 5 0 0 0 - - -, f 5;
#X floatatom 347 201 5 0 0 0 - - -, f 5;
#X text 386 200 rotate axes.;
#X text 211 369 - sets the size.;
#X text 11 23 draw axes;
#X obj 535 5 ofAxis;
#X obj 273 100 ofGetLastRenderOrder;
#X obj 240 121 ofHead;
#X obj 240 142 ofClear 63;
#X obj 240 170 ofTranslate 160 120;
#X obj 240 275 ofAxis 100;
#X obj 23 315 ofWindow 320 240 LEFT TOP;
#X text 211 456 - sets the initial size. (default: 100);
#X obj 240 222 ofRotateXYZ 0 0 0;
#X obj 462 46 declare -lib ofelia;
#X connect 8 0 24 0;
#X connect 9 0 28 1;
#X connect 17 0 31 1;
#X connect 18 0 31 2;
#X connect 19 0 31 3;
#X connect 24 0 25 1;
#X connect 25 0 26 0;
#X connect 26 0 27 0;
#X connect 27 0 31 0;
#X connect 31 0 28 0;
