#N canvas 321 23 604 515 10;
#X obj 0 0 cnv 15 580 40 empty empty ofBackListener 3 12 0 18 -204280
-1 0;
#X obj 0 341 cnv 3 580 3 empty empty inlets 8 12 0 13 -228856 -1 0
;
#X obj 0 375 cnv 3 580 3 empty empty outlets 8 12 0 13 -228856 -1 0
;
#X obj 75 383 cnv 17 3 17 empty empty 0 5 9 0 16 -228856 -162280 0
;
#X obj 0 460 cnv 15 580 21 empty empty empty 20 12 0 14 -228856 -66577
0;
#X obj 0 411 cnv 3 580 3 empty empty arguments 8 12 0 13 -228856 -1
0;
#X text 72 434 (none);
#X text 72 349 (none);
#X text 95 383 bang;
#X text 11 23 listen to the back button press on android devices;
#X text 211 383 - the back button press on android devices.;
#X floatatom 23 183 5 0 0 0 - - -, f 5;
#X obj 68 119 bng 15 250 50 0 empty empty empty 17 7 0 10 -262144 -1
-1;
#X obj 42 119 bng 15 250 50 0 empty empty empty 17 7 0 10 -262144 -1
-1;
#X obj 23 207 sel -1;
#X msg 23 239 destroy;
#X text 63 182 the current view level.;
#X msg 128 271 destroy;
#X text 72 207 if the view level reaches -1 \, exit the app.;
#X msg 43 271 create;
#X text 91 118 change the view level as the user enters a different
view.;
#X text 186 272 or you can simply make the app quit as soon as the
back button is pressed.;
#X obj 487 5 ofBackListener;
#X text 21 43 [ofBackListener] is used to detect the back button press
on android devices. it doesn't work on other OS platforms.;
#X obj 23 90 ofBackListener;
#X obj 23 156 ofStep 0;
#X obj 128 239 ofBackListener;
#X obj 23 318 ofWindow 320 240 LEFT TOP;
#X text 83 156 start from the main view. (level: 0);
#X text 198 308 note: pressing the back button on android device will
do nothing unless [ofBackListener] is used to do something.;
#X connect 11 0 14 0;
#X connect 12 0 25 1;
#X connect 13 0 25 0;
#X connect 14 0 15 0;
#X connect 15 0 27 0;
#X connect 17 0 27 0;
#X connect 19 0 27 0;
#X connect 24 0 25 0;
#X connect 25 0 11 0;
#X connect 26 0 17 0;
