#N canvas 321 23 596 634 10;
#X obj 0 0 cnv 15 580 40 empty empty ofBezierVertex2d 3 12 0 18 -204280
-1 0;
#X obj 0 351 cnv 3 580 3 empty empty inlets 8 12 0 13 -228856 -1 0
;
#X obj 0 456 cnv 3 580 3 empty empty outlets 8 12 0 13 -228856 -1 0
;
#X obj 75 359 cnv 17 3 17 empty empty 0 5 9 0 16 -228856 -162280 0
;
#X obj 75 464 cnv 17 3 17 empty empty 0 5 9 0 16 -228856 -162280 0
;
#X obj 0 581 cnv 15 580 21 empty empty empty 20 12 0 14 -228856 -66577
0;
#X obj 0 492 cnv 3 580 3 empty empty arguments 8 12 0 13 -228856 -1
0;
#X text 95 359 render bang;
#X text 211 359 - the incoming render bang.;
#X obj 75 382 cnv 17 3 17 empty empty 1 5 9 0 16 -228856 -162280 0
;
#X text 95 464 render bang;
#X text 211 464 - the outgoing render bang.;
#X obj 23 328 ofWindow 320 240 LEFT TOP;
#X obj 248 103 loadbang;
#X obj 248 124 ofGetLastRenderOrder;
#X obj 215 145 ofHead;
#X obj 215 167 ofClear 63;
#X obj 215 232 ofBeginShape;
#X obj 215 298 ofEndShape;
#X obj 215 210 ofSetPolyMode NONZERO;
#X text 95 382 list <f \, f>;
#X obj 215 189 ofTranslate 160 120;
#X obj 475 5 ofBezierVertex2d;
#X obj 225 254 ofVertex2d -50 50;
#X obj 225 276 ofBezierVertex2d -50 -50 50 -50 50 50;
#X obj 75 405 cnv 17 3 17 empty empty 2 5 9 0 16 -228856 -162280 0
;
#X text 95 405 list <f \, f>;
#X obj 75 428 cnv 17 3 17 empty empty 3 5 9 0 16 -228856 -162280 0
;
#X text 95 428 list <f \, f>;
#X text 211 382 - sets the point1. (x1 \, y1);
#X text 211 405 - sets the point2. (x2 \, y2);
#X text 211 428 - sets the point3. (x3 \, y3);
#X text 72 515 1) list <f \, f>;
#X text 211 515 - sets the point1. (x1 \, y1) (default: 0 \, 0);
#X text 72 535 2) list <f \, f>;
#X text 211 535 - sets the point2. (x2 \, y2) (default: 0 \, 0);
#X text 72 555 3) list <f \, f>;
#X text 211 555 - sets the point3. (x3 \, y3) (default: 0 \, 0);
#X text 11 23 describe a bezier curve through three points of a shape
;
#X text 21 43 [ofBezierVertex2d] is used to describe a bezier curve
through three points of a shape. to be called between [ofBeginShape]
and [ofEndShape].;
#X connect 13 0 14 0;
#X connect 14 0 15 1;
#X connect 15 0 16 0;
#X connect 16 0 21 0;
#X connect 17 0 23 0;
#X connect 19 0 17 0;
#X connect 21 0 19 0;
#X connect 23 0 24 0;
#X connect 24 0 18 0;
