#N canvas 321 23 599 555 10;
#X obj 0 0 cnv 15 580 40 empty empty ofBeginShape 3 12 0 18 -204280
-1 0;
#X obj 0 381 cnv 3 580 3 empty empty inlets 8 12 0 13 -228856 -1 0
;
#X obj 0 417 cnv 3 580 3 empty empty outlets 8 12 0 13 -228856 -1 0
;
#X obj 75 389 cnv 17 3 17 empty empty 0 5 9 0 16 -228856 -162280 0
;
#X obj 75 425 cnv 17 3 17 empty empty 0 5 9 0 16 -228856 -162280 0
;
#X obj 0 502 cnv 15 580 21 empty empty empty 20 12 0 14 -228856 -66577
0;
#X obj 0 453 cnv 3 580 3 empty empty arguments 8 12 0 13 -228856 -1
0;
#X text 72 476 (none);
#X obj 248 93 loadbang;
#X text 95 389 render bang;
#X text 211 389 - the incoming render bang.;
#X text 211 425 - the outgoing render bang.;
#X text 95 425 render bang;
#X obj 248 114 ofGetLastRenderOrder;
#X obj 215 135 ofHead;
#X obj 215 157 ofClear 63;
#X obj 23 358 ofWindow 320 240 LEFT TOP;
#X obj 499 5 ofBeginShape;
#X text 11 23 start drawing a new shape;
#X obj 215 200 ofBeginShape;
#X obj 215 330 ofEndShape;
#X obj 215 178 ofSetPolyMode NONZERO;
#X text 21 43 [ofBeginShape] needs to be followed by a list of vertex
points and lastly a call to [ofEndShape].;
#X obj 225 222 ofVertex2d 250 145;
#X obj 225 244 ofVertex2d 65 145;
#X obj 225 265 ofVertex2d 215 30;
#X obj 225 286 ofVertex2d 155 210;
#X obj 225 308 ofVertex2d 100 35;
#X connect 8 0 13 0;
#X connect 13 0 14 1;
#X connect 14 0 15 0;
#X connect 15 0 21 0;
#X connect 19 0 23 0;
#X connect 21 0 19 0;
#X connect 23 0 24 0;
#X connect 24 0 25 0;
#X connect 25 0 26 0;
#X connect 26 0 27 0;
#X connect 27 0 20 0;
