#N canvas 321 23 601 739 10;
#X declare -lib ofelia;
#X obj 0 0 cnv 15 580 40 empty empty ofBindImageTex 3 12 0 18 -204280
-1 0;
#X obj 0 521 cnv 3 580 3 empty empty inlets 8 12 0 13 -228856 -1 0
;
#X obj 0 600 cnv 3 580 3 empty empty outlets 8 12 0 13 -228856 -1 0
;
#X obj 75 529 cnv 17 3 60 empty empty 0 5 9 0 16 -228856 -162280 0
;
#X obj 75 608 cnv 17 3 17 empty empty 0 5 9 0 16 -228856 -162280 0
;
#X obj 0 685 cnv 15 580 21 empty empty empty 20 12 0 14 -228856 -66577
0;
#X obj 0 636 cnv 3 580 3 empty empty arguments 8 12 0 13 -228856 -1
0;
#X text 72 659 1) symbol;
#N canvas 321 115 507 253 about_vector 0;
#X text 26 23 in ofelia \, a vector data structure is commonly used
for handling various data types such as float \, symbol and list. vectors
are much like arrays that can dynamically be changed in size.;
#X text 26 163 each "loader" object should have a unique variable name
so its data can be properly accessed by "getter" objects that use the
name.;
#X text 26 93 in general \, objects that use vector are divided into
two types \, "loader" objects that can store an array of data and "getter"
objects that can read the stored data from "loader" objects.;
#X restore 486 66 pd about_vector;
#X obj 23 499 ofWindow 320 240 LEFT TOP;
#X text 95 569 name <s>;
#X text 95 529 render bang;
#X text 241 529 - the incoming render bang.;
#X text 241 608 - the outgoing render bang.;
#X text 95 608 render bang;
#X text 11 23 bind the stored image's texture;
#X obj 487 5 ofBindImageTex;
#X obj 56 180 loadbang;
#X obj 56 201 ofGetLastRenderOrder;
#X obj 23 222 ofHead;
#X obj 23 243 ofClear 63;
#X obj 103 352 tgl 15 0 empty empty empty 17 7 0 10 -262144 -1 -1 0
1;
#X text 123 352 switch the image.;
#X text 198 388 bind the stored image's texture.;
#X obj 23 266 ofTranslate 160 120;
#X obj 23 413 ofSetDepthTest ON;
#X obj 23 460 ofSetDepthTest OFF;
#X obj 23 437 ofBox 80 80 80;
#X obj 23 290 t b b;
#X text 233 119 the number of elements stored in the array.;
#X floatatom 194 119 5 0 0 0 - - -, f 5;
#X obj 23 139 bng 15 250 50 0 empty empty empty 17 7 0 10 -262144 -1
-1;
#X text 41 139 outputs bang when loading is done.;
#X obj 50 314 ofGetFrameNum;
#X text 241 569 - sets the variable name followed by the index.;
#X text 241 659 - sets the variable name followed by the index.;
#X obj 23 388 ofBindImageTex @myImages[1];
#X text 95 549 float;
#X text 241 549 - sets the index of the array element.;
#X obj 23 65 ofLoadImage \; @myImages \; examples/data/background.jpg
\; examples/data/texture.jpg \;;
#X obj 23 352 ofRotateXYZ;
#X obj 462 46 declare -lib ofelia;
#X connect 17 0 18 0;
#X connect 18 0 19 1;
#X connect 19 0 20 0;
#X connect 20 0 24 0;
#X connect 21 0 36 0;
#X connect 24 0 28 0;
#X connect 25 0 27 0;
#X connect 27 0 26 0;
#X connect 28 0 40 0;
#X connect 28 1 33 0;
#X connect 33 0 40 1;
#X connect 33 0 40 2;
#X connect 33 0 40 3;
#X connect 36 0 25 0;
#X connect 39 0 31 0;
#X connect 39 1 30 0;
#X connect 40 0 36 0;
