#N canvas 321 23 601 713 10;
#X declare -lib ofelia;
#X obj 0 0 cnv 15 580 40 empty empty ofBindFboTex 3 12 0 18 -204280
-1 0;
#X obj 0 511 cnv 3 580 3 empty empty inlets 8 12 0 13 -228856 -1 0
;
#X obj 0 570 cnv 3 580 3 empty empty outlets 8 12 0 13 -228856 -1 0
;
#X obj 75 519 cnv 17 3 40 empty empty 0 5 9 0 16 -228856 -162280 0
;
#X obj 75 578 cnv 17 3 17 empty empty 0 5 9 0 16 -228856 -162280 0
;
#X obj 0 655 cnv 15 580 21 empty empty empty 20 12 0 14 -228856 -66577
0;
#X obj 0 606 cnv 3 580 3 empty empty arguments 8 12 0 13 -228856 -1
0;
#X text 72 629 1) symbol;
#X obj 23 489 ofWindow 320 240 LEFT TOP;
#X text 95 539 name <s>;
#X text 95 519 render bang;
#X text 241 519 - the incoming render bang.;
#X text 241 578 - the outgoing render bang.;
#X text 95 578 render bang;
#X text 11 23 bind the stored fbo's texture;
#X obj 499 5 ofBindFboTex;
#X obj 23 110 ofTranslate 40 40;
#X obj 23 154 ofStar 30 12 5;
#X obj 23 132 ofSetColor yellow;
#X obj 23 66 ofHead;
#X obj 56 194 loadbang;
#X obj 56 215 ofGetLastRenderOrder;
#X obj 23 236 ofHead;
#X obj 23 257 ofClear 63;
#X obj 23 407 ofSetDepthTest ON;
#X obj 23 452 ofSetDepthTest OFF;
#X obj 23 278 ofTranslate 160 120;
#X obj 23 430 ofBox 80 80 80;
#X obj 23 300 t b b;
#X text 149 384 bind the stored fbo's texture.;
#X text 241 539 - sets the variable name.;
#X text 241 629 - sets the variable name.;
#X obj 50 324 ofGetFrameNum;
#X obj 23 384 ofBindFboTex @myFbo;
#X obj 23 88 ofCreateFbo @myFbo 80 80 RGB orange;
#X obj 23 360 ofRotateXYZ;
#X obj 462 46 declare -lib ofelia;
#X connect 16 0 18 0;
#X connect 18 0 17 0;
#X connect 19 0 34 0;
#X connect 20 0 21 0;
#X connect 21 0 22 1;
#X connect 22 0 23 0;
#X connect 23 0 26 0;
#X connect 24 0 27 0;
#X connect 26 0 28 0;
#X connect 27 0 25 0;
#X connect 28 0 35 0;
#X connect 28 1 32 0;
#X connect 32 0 35 1;
#X connect 32 0 35 2;
#X connect 32 0 35 3;
#X connect 33 0 24 0;
#X connect 34 0 16 0;
#X connect 35 0 33 0;
