#N canvas 321 23 603 851 10;
#X declare -lib ofelia;
#X obj 0 0 cnv 15 580 40 empty empty ofCamera 3 12 0 18 -204280 -1
0;
#X obj 0 341 cnv 3 580 3 empty empty inlets 8 12 0 13 -228856 -1 0
;
#X obj 0 669 cnv 3 580 3 empty empty outlets 8 12 0 13 -228856 -1 0
;
#X obj 75 349 cnv 17 3 240 empty empty 0 5 9 0 16 -228856 -162280 0
;
#X obj 75 677 cnv 17 3 17 empty empty 0 5 9 0 16 -228856 -162280 0
;
#X obj 0 794 cnv 15 580 21 empty empty empty 20 12 0 14 -228856 -66577
0;
#X obj 0 705 cnv 3 580 3 empty empty arguments 8 12 0 13 -228856 -1
0;
#X obj 23 318 ofWindow 320 240 LEFT TOP;
#X text 95 349 render bang;
#X text 271 348 - the incoming render bang.;
#X text 95 677 render bang;
#X text 271 677 - the outgoing render bang.;
#X obj 203 269 ofGrid;
#X obj 236 107 ofGetLastRenderOrder;
#X obj 203 128 ofHead;
#X obj 203 153 ofClear 63;
#X obj 236 86 loadbang;
#X text 11 23 a basic camera for interacting with objects in 3d space
;
#X text 523 5 or;
#X obj 468 5 ofCamera;
#X obj 541 5 ofCam;
#X floatatom 234 221 5 0 0 0 - - -, f 5;
#X floatatom 274 221 5 0 0 0 - - -, f 5;
#X floatatom 314 221 5 0 0 0 - - -, f 5;
#X text 95 408 quaternion <f \, f \, f \, f>;
#X text 95 428 lookAt <f \, f \, f>;
#X text 95 448 fov <f>;
#X text 95 468 nearClip <f>;
#X text 95 488 farClip <f>;
#X text 95 508 aspectRatio <f>;
#X text 95 548 VFlip <f/s>;
#X text 95 568 debug <f/s>;
#X obj 75 595 cnv 17 3 17 empty empty 1 5 9 0 16 -228856 -162280 0
;
#X text 95 595 float;
#X obj 75 618 cnv 17 3 17 empty empty 2 5 9 0 16 -228856 -162280 0
;
#X text 95 618 float;
#X obj 75 641 cnv 17 3 17 empty empty 3 5 9 0 16 -228856 -162280 0
;
#X text 95 641 float;
#X text 95 388 eulerAngles <f \, f \, f>;
#X text 95 528 lensOffset <f \, f>;
#X text 353 220 set x \, y \, z position of the camera.;
#X text 72 748 2) float;
#X text 72 728 1) float;
#X text 72 768 3) float;
#X text 271 595 - x position of the camera.;
#X text 271 618 - y position of the camera.;
#X text 271 641 - z position of the camera.;
#N canvas 322 87 588 758 ofCamera_parameters 0;
#X obj 38 182 ofPack eulerAngles 0 0 0;
#X floatatom 85 161 5 0 0 0 - - -, f 5;
#X floatatom 132 161 5 0 0 0 - - -, f 5;
#X floatatom 179 161 5 0 0 0 - - -, f 5;
#X text 197 184 set orientation with a eular angles.;
#X obj 38 689 outlet;
#X floatatom 68 111 5 0 0 0 - - -, f 5;
#X floatatom 105 111 5 0 0 0 - - -, f 5;
#X floatatom 142 111 5 0 0 0 - - -, f 5;
#X floatatom 179 111 5 0 0 0 - - -, f 5;
#X floatatom 74 221 5 0 0 0 - - -, f 5;
#X floatatom 111 221 5 0 0 0 - - -, f 5;
#X floatatom 148 221 5 0 0 0 - - -, f 5;
#X floatatom 185 221 5 0 0 0 - - -, f 5;
#X text 203 243 set orientation with a quaternion.;
#X floatatom 75 271 5 0 0 0 - - -, f 5;
#X floatatom 112 271 5 0 0 0 - - -, f 5;
#X floatatom 149 271 5 0 0 0 - - -, f 5;
#X obj 38 292 ofPack lookAt 0 0 0;
#X text 164 292 make camera to look at x \, y \, z position.;
#X floatatom 113 321 5 0 0 0 - - -, f 5;
#X text 127 342 set the field of view in degrees.;
#X floatatom 137 371 5 0 0 0 - - -, f 5;
#X obj 38 392 ofPack nearClip 0;
#X floatatom 131 421 5 0 0 0 - - -, f 5;
#X obj 38 442 ofPack farClip 0;
#X floatatom 155 471 5 0 0 0 - - -, f 5;
#X obj 38 492 ofPack aspectRatio 0;
#X text 171 492 set the aspect ratio.;
#X text 153 392 set the near clip plane.;
#X text 147 442 set the far clip plane.;
#X floatatom 99 521 5 0 0 0 - - -, f 5;
#X obj 38 542 ofPack lensOffset 0 0;
#X floatatom 161 521 5 0 0 0 - - -, f 5;
#X text 177 543 set the lens offset.;
#X obj 119 571 tgl 15 0 empty empty empty 17 7 0 10 -262144 -1 -1 0
1;
#X text 138 593 vertically flip the coordinate system.;
#X obj 119 621 tgl 15 0 empty empty empty 17 7 0 10 -262144 -1 -1 0
1;
#X obj 38 642 ofPack debug 0;
#X text 138 643 enable/disable the debug mode.;
#X msg 38 32 print;
#X text 87 32 print the current settings.;
#X floatatom 69 61 5 0 0 0 - - -, f 5;
#X floatatom 111 61 5 0 0 0 - - -, f 5;
#X floatatom 153 61 5 0 0 0 - - -, f 5;
#X obj 38 82 ofPack set 0 0 0;
#X text 146 83 set x \, y \, z position of the camera.;
#X text 138 660 (when in debug mode \, the camera's view is disabled
and the camera will be visible as a 3d object in a normal view);
#X text 176 132 set orientation with angle and axis.;
#X obj 38 242 ofPack quaternion 0 0 0 1;
#X obj 38 342 ofPack fov 60;
#X obj 38 592 ofPack VFlip 1;
#X text 197 201 (note: watch out for gimbal lock);
#X obj 38 132 ofPack rotate 0 0 0 0;
#X connect 0 0 5 0;
#X connect 1 0 0 1;
#X connect 2 0 0 2;
#X connect 3 0 0 3;
#X connect 6 0 53 1;
#X connect 7 0 53 2;
#X connect 8 0 53 3;
#X connect 9 0 53 4;
#X connect 10 0 49 1;
#X connect 11 0 49 2;
#X connect 12 0 49 3;
#X connect 13 0 49 4;
#X connect 15 0 18 1;
#X connect 16 0 18 2;
#X connect 17 0 18 3;
#X connect 18 0 5 0;
#X connect 20 0 50 1;
#X connect 22 0 23 1;
#X connect 23 0 5 0;
#X connect 24 0 25 1;
#X connect 25 0 5 0;
#X connect 26 0 27 1;
#X connect 27 0 5 0;
#X connect 31 0 32 1;
#X connect 32 0 5 0;
#X connect 33 0 32 2;
#X connect 35 0 51 1;
#X connect 37 0 38 1;
#X connect 38 0 5 0;
#X connect 40 0 5 0;
#X connect 42 0 45 1;
#X connect 43 0 45 2;
#X connect 44 0 45 3;
#X connect 45 0 5 0;
#X connect 49 0 5 0;
#X connect 50 0 5 0;
#X connect 51 0 5 0;
#X connect 53 0 5 0;
#X restore 239 183 pd ofCamera_parameters;
#X text 272 368 - sets orientation with angle and axis.;
#X text 271 388 - sets orientation with a eular angles.;
#X text 271 408 - sets orientation with a quaternion.;
#X text 271 428 - makes camera to look at x \, y \, z position.;
#X text 271 448 - sets the field of view in degrees.;
#X text 271 468 - sets the near clip plane.;
#X text 271 488 - sets the far clip plane.;
#X text 271 508 - sets the aspect ratio.;
#X text 271 528 - sets the lens offset.;
#X text 271 548 - vertically flips the coordinate system.;
#X text 271 568 - enables/disables the debug mode.;
#X text 271 728 - x position of the camera. (default: 0);
#X text 271 748 - y position of the camera. (default: 0);
#X text 271 768 - z position of the camera. (default: 0);
#X text 201 304 note: [ofCamera] currently does not work correctly
if using non-default orientation on mobile device.;
#X text 95 368 rotate <f \, f \, f \, f>;
#X obj 462 46 declare -lib ofelia;
#X obj 203 241 ofCamera 0 0 400;
#X connect 13 0 14 1;
#X connect 14 0 15 0;
#X connect 15 0 65 0;
#X connect 16 0 13 0;
#X connect 21 0 65 1;
#X connect 22 0 65 2;
#X connect 23 0 65 3;
#X connect 47 0 65 0;
#X connect 65 0 12 0;
