#N canvas 321 23 597 539 10;
#X obj 0 0 cnv 15 580 40 empty empty ofCircle 3 12 0 18 -204280 -1
0;
#X obj 0 341 cnv 3 580 3 empty empty inlets 8 12 0 13 -228856 -1 0
;
#X obj 0 400 cnv 3 580 3 empty empty outlets 8 12 0 13 -228856 -1 0
;
#X obj 75 349 cnv 17 3 17 empty empty 0 5 9 0 16 -228856 -162280 0
;
#X obj 75 408 cnv 17 3 17 empty empty 0 5 9 0 16 -228856 -162280 0
;
#X obj 0 485 cnv 15 580 21 empty empty empty 20 12 0 14 -228856 -66577
0;
#X obj 0 436 cnv 3 580 3 empty empty arguments 8 12 0 13 -228856 -1
0;
#X text 72 459 1) float;
#X obj 253 86 loadbang;
#X floatatom 283 248 5 0 0 0 - - -, f 5;
#X floatatom 319 201 5 0 0 0 - - -, f 5;
#X text 356 200 change circle resolution.;
#X obj 75 372 cnv 17 3 17 empty empty 1 5 9 0 16 -228856 -162280 0
;
#X text 95 372 float;
#X text 95 349 render bang;
#X text 211 349 - the incoming render bang.;
#X text 211 372 - sets the radius.;
#X text 211 408 - the outgoing render bang.;
#X text 95 408 render bang;
#X text 320 247 change radius.;
#X text 11 23 draw a circle;
#X obj 523 5 ofCircle;
#X obj 253 107 ofGetLastRenderOrder;
#X obj 220 128 ofHead;
#X obj 220 149 ofClear 63;
#X obj 220 177 ofTranslate 160 120;
#X obj 220 219 ofSetCircleRes 50;
#X obj 220 266 ofCircle 50;
#X obj 23 318 ofWindow 320 240 LEFT TOP;
#X text 211 459 - sets the initial radius. (default: 50);
#X connect 8 0 22 0;
#X connect 9 0 27 1;
#X connect 10 0 26 1;
#X connect 22 0 23 1;
#X connect 23 0 24 0;
#X connect 24 0 25 0;
#X connect 25 0 26 0;
#X connect 26 0 27 0;
