#N canvas 321 23 597 577 10;
#X declare -lib ofelia;
#X obj 0 0 cnv 15 580 40 empty empty ofClearDepth 3 12 0 18 -204280
-1 0;
#X obj 0 401 cnv 3 580 3 empty empty inlets 8 12 0 13 -228856 -1 0
;
#X obj 0 437 cnv 3 580 3 empty empty outlets 8 12 0 13 -228856 -1 0
;
#X obj 75 409 cnv 17 3 17 empty empty 0 5 9 0 16 -228856 -162280 0
;
#X obj 75 445 cnv 17 3 17 empty empty 0 5 9 0 16 -228856 -162280 0
;
#X obj 0 522 cnv 15 580 21 empty empty empty 20 12 0 14 -228856 -66577
0;
#X obj 0 473 cnv 3 580 3 empty empty arguments 8 12 0 13 -228856 -1
0;
#X text 95 409 render bang;
#X text 211 409 - the incoming render bang.;
#X text 95 445 render bang;
#X text 211 445 - the outgoing render bang.;
#X text 11 23 clear the depth bits of current renderer;
#X obj 318 312 spigot;
#X obj 351 293 tgl 15 0 empty empty empty 17 7 0 10 -262144 -1 -1 0
1;
#X text 72 496 (none);
#X obj 161 187 t b b;
#X floatatom 272 197 5 0 0 0 - - -, f 5;
#X text 309 196 <- try changing the z-depth.;
#X text 372 292 clear depth bits.;
#X obj 194 72 loadbang;
#X obj 499 5 ofClearDepth;
#X obj 194 93 ofGetLastRenderOrder;
#X obj 161 114 ofHead;
#X obj 161 136 ofClear 63;
#X obj 161 162 ofSetDepthTest ON;
#X obj 161 226 ofTranslate 50 50 0;
#X obj 161 247 ofSetColor blue;
#X obj 161 268 ofSquare 100;
#X obj 318 226 ofTranslate 85 45 1;
#X obj 318 247 ofSetColor red;
#X obj 318 268 ofSquare 100;
#X obj 318 336 ofClearDepth;
#X obj 23 378 ofWindow 320 240 LEFT TOP;
#X obj 462 46 declare -lib ofelia;
#X connect 12 0 31 0;
#X connect 13 0 12 1;
#X connect 15 0 25 0;
#X connect 15 1 28 0;
#X connect 16 0 25 3;
#X connect 19 0 21 0;
#X connect 21 0 22 1;
#X connect 22 0 23 0;
#X connect 23 0 24 0;
#X connect 24 0 15 0;
#X connect 25 0 26 0;
#X connect 26 0 27 0;
#X connect 28 0 29 0;
#X connect 29 0 30 0;
#X connect 30 0 12 0;
