#N canvas 321 23 599 646 10;
#X obj 0 0 cnv 15 580 40 empty empty ofClear 3 12 0 18 -204280 -1 0
;
#X obj 0 381 cnv 3 580 3 empty empty inlets 8 12 0 13 -228856 -1 0
;
#X obj 0 509 cnv 3 580 3 empty empty outlets 8 12 0 13 -228856 -1 0
;
#X obj 75 389 cnv 17 3 17 empty empty 0 5 9 0 16 -228856 -162280 0
;
#X obj 75 517 cnv 17 3 17 empty empty 0 5 9 0 16 -228856 -162280 0
;
#X obj 0 594 cnv 15 580 21 empty empty empty 20 12 0 14 -228856 -66577
0;
#X obj 0 545 cnv 3 580 3 empty empty arguments 8 12 0 13 -228856 -1
0;
#X text 95 389 render bang;
#X text 191 389 - the incoming render bang.;
#X obj 75 412 cnv 17 3 17 empty empty 1 5 9 0 16 -228856 -162280 0
;
#X text 95 517 render bang;
#X text 191 517 - the outgoing render bang.;
#X text 95 412 float;
#X obj 75 435 cnv 17 3 17 empty empty 2 5 9 0 16 -228856 -162280 0
;
#X text 95 435 float;
#X obj 75 458 cnv 17 3 17 empty empty 3 5 9 0 16 -228856 -162280 0
;
#X text 95 458 float;
#X obj 75 481 cnv 17 3 17 empty empty 4 5 9 0 16 -228856 -162280 0
;
#X text 95 481 float;
#X text 72 568 1) symbol/list;
#X text 210 256 clear the screen entirely and replace it with azure.
;
#X obj 155 278 spigot;
#X obj 188 257 tgl 15 0 empty empty empty 17 7 0 10 -262144 -1 -1 0
1;
#X obj 188 100 loadbang;
#X obj 529 5 ofClear;
#X text 21 43 [ofClear] clears the color and depth bits of current
renderer and replaces it with a new color.;
#X obj 188 121 ofGetLastRenderOrder;
#X obj 155 142 ofHead;
#X obj 155 176 ofTranslate 160 120 1;
#X obj 155 202 ofSetColor red;
#X obj 155 228 ofCircle 50;
#X obj 155 308 ofClear azure;
#X obj 23 358 ofWindow 320 240 LEFT TOP;
#X text 191 412 - sets r.;
#X text 191 435 - sets g.;
#X text 191 481 - sets a.;
#X text 191 458 - sets b.;
#X text 191 568 - colorName(symbol) or RGBA(list). (default: white
\, 255);
#X text 11 23 clear the color and depth bits of current renderer;
#X connect 21 0 31 0;
#X connect 22 0 21 1;
#X connect 23 0 26 0;
#X connect 26 0 27 1;
#X connect 27 0 28 0;
#X connect 28 0 29 0;
#X connect 29 0 30 0;
#X connect 30 0 21 0;
