#N canvas 321 23 598 586 10;
#X obj 0 0 cnv 15 580 40 empty empty ofClamp 3 12 0 18 -204280 -1 0
;
#X obj 0 341 cnv 3 580 3 empty empty inlets 8 12 0 13 -228856 -1 0
;
#X obj 0 425 cnv 3 580 3 empty empty outlets 8 12 0 13 -228856 -1 0
;
#X obj 75 349 cnv 17 3 17 empty empty 0 5 9 0 16 -228856 -162280 0
;
#X obj 75 433 cnv 17 3 17 empty empty 0 5 9 0 16 -228856 -162280 0
;
#X obj 0 530 cnv 15 580 21 empty empty empty 20 12 0 14 -228856 -66577
0;
#X obj 0 461 cnv 3 580 3 empty empty arguments 8 12 0 13 -228856 -1
0;
#X floatatom 245 217 5 0 0 0 - - -, f 5;
#X text 95 433 float;
#X floatatom 245 135 5 0 0 0 - - -, f 5;
#X text 95 349 float;
#X floatatom 285 165 5 0 0 0 - - -, f 5;
#X floatatom 326 165 5 0 0 0 - - -, f 5;
#X obj 75 372 cnv 17 3 17 empty empty 1 5 9 0 16 -228856 -162280 0
;
#X text 95 372 float;
#X obj 75 395 cnv 17 3 17 empty empty 2 5 9 0 16 -228856 -162280 0
;
#X text 95 395 float;
#X text 211 372 - the lower bound of the range.;
#X text 211 395 - the upper bound of the range.;
#X text 72 484 1) float;
#X text 72 504 2) float;
#N canvas 321 117 832 295 more_examples 0;
#X floatatom 58 215 5 0 0 0 - - -, f 5;
#X floatatom 338 53 5 0 0 0 - - -, f 5;
#X floatatom 338 215 5 0 0 0 - - -, f 5;
#X text 407 188 range (0~20);
#X floatatom 568 215 5 0 0 0 - - -, f 5;
#X text 657 187 range (10~30);
#X text 109 188 range (0~1);
#X obj 58 188 ofClamp;
#X obj 338 188 ofClamp 20;
#X obj 568 188 ofClamp 10 30;
#X text 384 52 the value to be clamped.;
#X connect 1 0 7 0;
#X connect 1 0 8 0;
#X connect 1 0 9 0;
#X connect 7 0 0 0;
#X connect 8 0 2 0;
#X connect 9 0 4 0;
#X restore 480 46 pd more_examples;
#X text 211 484 - the lower bound of the range. (default: 0);
#X text 211 504 - the upper bound of the range. (default: 1);
#X obj 529 5 ofClamp;
#X obj 245 190 ofClamp -10 10;
#X text 11 23 clamp a value between min and max;
#X text 284 135 the value to be clamped.;
#X text 366 164 set the min and max range.;
#X text 211 433 - the clamped value.;
#X text 211 349 - the value to be clamped.;
#X connect 9 0 25 0;
#X connect 11 0 25 1;
#X connect 12 0 25 2;
#X connect 25 0 7 0;
