#N canvas 321 23 598 651 10;
#X obj 0 0 cnv 15 580 40 empty empty ofCount 3 12 0 18 -204280 -1 0
;
#X obj 0 341 cnv 3 580 3 empty empty inlets 8 12 0 13 -228856 -1 0
;
#X obj 0 469 cnv 3 580 3 empty empty outlets 8 12 0 13 -228856 -1 0
;
#X obj 75 349 cnv 17 3 40 empty empty 0 5 9 0 16 -228856 -162280 0
;
#X obj 75 477 cnv 17 3 17 empty empty 0 5 9 0 16 -228856 -162280 0
;
#X obj 0 594 cnv 15 580 21 empty empty empty 20 12 0 14 -228856 -66577
0;
#X obj 0 505 cnv 3 580 3 empty empty arguments 8 12 0 13 -228856 -1
0;
#X text 95 349 bang;
#X obj 75 395 cnv 17 3 17 empty empty 1 5 9 0 16 -228856 -162280 0
;
#N canvas 322 114 720 359 more_examples 0;
#X obj 36 144 bng 15 250 50 0 empty empty empty 17 7 0 10 -262144 -1
-1;
#X floatatom 36 195 5 0 0 0 - - -, f 5;
#X obj 36 44 bng 15 250 50 0 empty empty empty 17 7 0 10 -262144 -1
-1;
#X floatatom 36 95 5 0 0 0 - - -, f 5;
#X obj 363 144 bng 15 250 50 0 empty empty empty 17 7 0 10 -262144
-1 -1;
#X floatatom 363 195 5 0 0 0 - - -, f 5;
#X obj 363 44 bng 15 250 50 0 empty empty empty 17 7 0 10 -262144 -1
-1;
#X floatatom 363 95 5 0 0 0 - - -, f 5;
#X obj 36 244 bng 15 250 50 0 empty empty empty 17 7 0 10 -262144 -1
-1;
#X floatatom 36 295 5 0 0 0 - - -, f 5;
#X obj 363 244 bng 15 250 50 0 empty empty empty 17 7 0 10 -262144
-1 -1;
#X floatatom 363 295 5 0 0 0 - - -, f 5;
#X text 383 44 count up from 0 to 4;
#X text 55 143 count up from 7 to 10;
#X text 382 144 count down from 3 to -2;
#X text 57 44 count up from 0 to maxFloat.;
#X obj 36 68 ofCount;
#X obj 36 168 ofCount 7 10;
#X obj 36 268 ofCount 1 5 2;
#X obj 363 68 ofCount 4;
#X obj 363 168 ofCount 3 -2;
#X obj 363 268 ofCount 2 -3 -1;
#X text 55 243 count up the range(1~5) starting from 2;
#X text 383 243 count down the range(2~-3) starting from -1;
#X connect 0 0 17 0;
#X connect 2 0 16 0;
#X connect 4 0 20 0;
#X connect 6 0 19 0;
#X connect 8 0 18 0;
#X connect 10 0 21 0;
#X connect 16 0 3 0;
#X connect 17 0 1 0;
#X connect 18 0 9 0;
#X connect 19 0 7 0;
#X connect 20 0 5 0;
#X connect 21 0 11 0;
#X restore 480 46 pd more_examples;
#X text 95 395 float;
#X text 201 395 - sets the min/max value in a range.;
#X obj 75 418 cnv 17 3 17 empty empty 2 5 9 0 16 -228856 -162280 0
;
#X text 95 418 float;
#X text 201 418 - sets the min/max value in a range.;
#X obj 75 441 cnv 17 3 17 empty empty 3 5 9 0 16 -228856 -162280 0
;
#X text 95 441 float;
#X text 201 441 - sets the current value.;
#X text 95 477 float;
#X text 201 477 - the current value of the counter.;
#X text 72 528 1) float;
#X text 72 548 2) float;
#X text 72 568 3) float;
#X obj 529 5 ofCount;
#X text 21 43 [ofCount] counts up or down by '1' in a given range.
;
#X text 201 528 - the min/max value in a range. (default: 0);
#X text 201 548 - the min/max value in a range. (default: maxFloat)
;
#X text 201 568 - the current value. (default: 0);
#X obj 188 118 bng 15 250 50 0 empty empty empty 17 7 0 10 -262144
-1 -1;
#X floatatom 188 273 5 0 0 0 - - -, f 5;
#X floatatom 213 173 5 0 0 0 - - -, f 5;
#X floatatom 242 197 5 0 0 0 - - -, f 5;
#X floatatom 272 221 5 0 0 0 - - -, f 5;
#X text 251 172 set min/max value in a range.;
#X text 281 196 set min/max value in a range.;
#X obj 188 246 ofCount 0 7 2;
#X msg 203 143 4;
#X text 311 220 set the current value.;
#X text 210 117 output the current value and count up/down.;
#X text 95 369 float;
#X text 201 349 - outputs the current value and counts up/down.;
#X text 234 143 set \, output the current value and count up/down.
;
#X text 201 369 - sets \, outputs the current value and counts up/down.
;
#X text 11 23 count over a range;
#X connect 28 0 35 0;
#X connect 30 0 35 1;
#X connect 31 0 35 2;
#X connect 32 0 35 3;
#X connect 35 0 29 0;
#X connect 36 0 35 0;
