#N canvas 321 23 603 770 10;
#X obj 0 0 cnv 15 580 40 empty empty ofCone 3 12 0 18 -204280 -1 0
;
#X obj 262 75 loadbang;
#X floatatom 287 325 5 0 0 0 - - -, f 5;
#X floatatom 346 325 5 0 0 0 - - -, f 5;
#X obj 0 401 cnv 3 580 3 empty empty inlets 8 12 0 13 -228856 -1 0
;
#X obj 0 546 cnv 3 580 3 empty empty outlets 8 12 0 13 -228856 -1 0
;
#X obj 75 409 cnv 17 3 80 empty empty 0 5 9 0 16 -228856 -162280 0
;
#X obj 75 554 cnv 17 3 17 empty empty 0 5 9 0 16 -228856 -162280 0
;
#X obj 0 711 cnv 15 580 21 empty empty empty 20 12 0 14 -228856 -66577
0;
#X obj 0 582 cnv 3 580 3 empty empty arguments 8 12 0 13 -228856 -1
0;
#X text 72 605 1) float;
#X obj 75 495 cnv 17 3 17 empty empty 1 5 9 0 16 -228856 -162280 0
;
#X text 95 495 float;
#X text 95 409 render bang;
#X text 231 409 - the incoming render bang.;
#X text 231 554 - the outgoing render bang.;
#X text 95 554 render bang;
#X obj 75 518 cnv 17 3 17 empty empty 2 5 9 0 16 -228856 -162280 0
;
#X text 95 518 float;
#X text 72 625 2) float;
#X floatatom 262 194 5 0 0 0 - - -, f 5;
#X floatatom 299 194 5 0 0 0 - - -, f 5;
#X floatatom 336 194 5 0 0 0 - - -, f 5;
#X obj 352 223 tgl 15 0 empty empty empty 17 7 0 10 -262144 -1 -1 0
1;
#X text 231 518 - sets the height.;
#X floatatom 259 274 5 0 0 0 - - -, f 5;
#X text 11 23 draw a cone;
#X text 385 324 change radius \, height.;
#X msg 259 293 radiusSegments \$1;
#X text 374 193 rotate the cone.;
#X text 231 495 - sets the radius.;
#X text 95 429 radiusSegments <f>;
#X text 95 449 heightSegments <f>;
#X text 95 469 capSegments <f>;
#X text 72 645 3) float;
#X text 72 665 4) float;
#X text 72 685 5) float;
#X text 296 273 change the number of radius segments.;
#X obj 535 5 ofCone;
#X obj 262 96 ofGetLastRenderOrder;
#X obj 229 117 ofHead;
#X obj 229 138 ofClear 63;
#X obj 229 166 ofTranslate 160 120;
#X obj 229 245 ofSetFillMode OUTLINE;
#X obj 229 345 ofCone 50 100 50 6 2;
#X obj 23 378 ofWindow 320 240 LEFT TOP;
#X text 373 223 0: OUTLINE \, 1: FILLED.;
#X text 231 429 - sets the number of radius segments. (range: 1~);
#X text 231 449 - sets the number of height segments. (range: 1~);
#X text 231 469 - sets the number of cap segments. (range: 1~);
#X text 231 605 - sets the initial radius. (default: 50);
#X text 231 625 - sets the initial height. (default: 100);
#X text 231 645 - sets the initial number of radius segments. (default:
50);
#X text 231 665 - sets the initial number of height segments. (default:
6);
#X text 231 685 - sets the initial number of cap segments. (default:
2);
#X obj 229 215 ofRotateXYZ 0 0 0;
#X connect 1 0 39 0;
#X connect 2 0 44 1;
#X connect 3 0 44 2;
#X connect 20 0 55 1;
#X connect 21 0 55 2;
#X connect 22 0 55 3;
#X connect 23 0 43 1;
#X connect 25 0 28 0;
#X connect 28 0 44 0;
#X connect 39 0 40 1;
#X connect 40 0 41 0;
#X connect 41 0 42 0;
#X connect 42 0 55 0;
#X connect 43 0 44 0;
#X connect 55 0 43 0;
