#N canvas 321 23 596 640 10;
#X declare -lib ofelia;
#X obj 0 0 cnv 15 580 40 empty empty ofCurveVertex2d 3 12 0 18 -204280
-1 0;
#X obj 0 421 cnv 3 580 3 empty empty inlets 8 12 0 13 -228856 -1 0
;
#X obj 0 480 cnv 3 580 3 empty empty outlets 8 12 0 13 -228856 -1 0
;
#X obj 75 429 cnv 17 3 17 empty empty 0 5 9 0 16 -228856 -162280 0
;
#X obj 75 488 cnv 17 3 17 empty empty 0 5 9 0 16 -228856 -162280 0
;
#X obj 0 584 cnv 15 580 21 empty empty empty 20 12 0 14 -228856 -66577
0;
#X obj 0 516 cnv 3 580 3 empty empty arguments 8 12 0 13 -228856 -1
0;
#X text 95 429 render bang;
#X text 211 429 - the incoming render bang.;
#X obj 75 452 cnv 17 3 17 empty empty 1 5 9 0 16 -228856 -162280 0
;
#X text 95 488 render bang;
#X text 211 488 - the outgoing render bang.;
#X text 72 539 1) float;
#X obj 23 398 ofWindow 320 240 LEFT TOP;
#X obj 248 133 loadbang;
#X obj 248 154 ofGetLastRenderOrder;
#X obj 215 175 ofHead;
#X obj 215 197 ofClear 63;
#X obj 215 262 ofBeginShape;
#X obj 215 370 ofEndShape;
#X obj 215 240 ofSetPolyMode NONZERO;
#X text 211 452 - sets the x \, y coordinate of the point.;
#X text 95 452 list <f \, f>;
#X text 211 539 - sets the x coordinate of the point. (default: 0)
;
#X text 211 559 - sets the y coordinate of the point. (default: 0)
;
#X text 72 559 2) float;
#X obj 481 5 ofCurveVertex2d;
#X obj 225 284 ofCurveVertex2d -200 1000;
#X obj 225 306 ofCurveVertex2d -50 0;
#X obj 225 327 ofCurveVertex2d 50 0;
#X obj 225 348 ofCurveVertex2d 200 -1000;
#X obj 215 219 ofTranslate 160 120;
#X text 11 23 specify a single 2d point of a shape;
#X text 21 43 the difference from [ofVertex2d] is that the line describing
the edge of the shape between two points will be a curve as opposed
to a straight line. the curve is automatically generated using the
catmull from formula. to be called between [ofBeginShape] and [ofEndShape].
;
#X obj 462 46 declare -lib ofelia;
#X connect 14 0 15 0;
#X connect 15 0 16 1;
#X connect 16 0 17 0;
#X connect 17 0 31 0;
#X connect 18 0 27 0;
#X connect 20 0 18 0;
#X connect 27 0 28 0;
#X connect 28 0 29 0;
#X connect 29 0 30 0;
#X connect 30 0 19 0;
#X connect 31 0 20 0;
