#N canvas 321 23 601 851 10;
#X declare -lib ofelia;
#X obj 0 0 cnv 15 580 40 empty empty ofDirectionalLight 3 12 0 18 -204280
-1 0;
#X obj 0 431 cnv 3 580 3 empty empty inlets 8 12 0 13 -228856 -1 0
;
#X obj 0 682 cnv 3 580 3 empty empty outlets 8 12 0 13 -228856 -1 0
;
#X obj 75 439 cnv 17 3 140 empty empty 0 5 9 0 16 -228856 -162280 0
;
#X obj 75 690 cnv 17 3 17 empty empty 0 5 9 0 16 -228856 -162280 0
;
#X obj 0 827 cnv 15 580 21 empty empty empty 20 12 0 14 -228856 -66577
0;
#X obj 0 718 cnv 3 580 3 empty empty arguments 8 12 0 13 -228856 -1
0;
#X obj 23 408 ofWindow 320 240 LEFT TOP;
#X text 95 439 render bang;
#X text 271 438 - the incoming render bang.;
#X text 95 690 render bang;
#X text 271 690 - the outgoing render bang.;
#X text 493 5 or;
#X text 95 498 quaternion <f \, f \, f \, f>;
#X obj 75 585 cnv 17 3 17 empty empty 1 5 9 0 16 -228856 -162280 0
;
#X text 95 585 float;
#X obj 75 608 cnv 17 3 17 empty empty 2 5 9 0 16 -228856 -162280 0
;
#X text 95 608 float;
#X obj 75 631 cnv 17 3 17 empty empty 3 5 9 0 16 -228856 -162280 0
;
#X text 95 631 float;
#X text 95 478 eulerAngles <f \, f \, f>;
#X text 72 761 2) float;
#X text 72 741 1) float;
#X text 72 781 3) float;
#X obj 378 5 ofDirectionalLight;
#X obj 511 5 ofDirLight;
#X obj 56 81 ofGetLastRenderOrder;
#X obj 23 102 ofHead;
#X obj 23 127 ofClear 63;
#X obj 56 60 loadbang;
#X floatatom 64 213 5 0 0 0 - - -, f 5;
#X floatatom 105 213 5 0 0 0 - - -, f 5;
#X floatatom 146 213 5 0 0 0 - - -, f 5;
#X obj 23 322 ofTranslate 160 120;
#X obj 23 149 ofSetDepthTest ON;
#X obj 23 374 ofSetDepthTest OFF;
#X text 135 149 depth test should be enabled to make lighting work
properly.;
#X obj 23 296 ofMaterial;
#X floatatom 188 213 5 0 0 0 - - -, f 5;
#N canvas 321 87 588 450 ofDirectionalLight_parameters 0;
#X obj 38 132 ofPack eulerAngles 0 0 0;
#X floatatom 85 111 5 0 0 0 - - -, f 5;
#X floatatom 132 111 5 0 0 0 - - -, f 5;
#X floatatom 179 111 5 0 0 0 - - -, f 5;
#X text 195 132 set orientation with a eular angles.;
#X obj 38 389 outlet;
#X floatatom 68 61 5 0 0 0 - - -, f 5;
#X floatatom 105 61 5 0 0 0 - - -, f 5;
#X floatatom 142 61 5 0 0 0 - - -, f 5;
#X floatatom 179 61 5 0 0 0 - - -, f 5;
#X floatatom 74 171 5 0 0 0 - - -, f 5;
#X floatatom 111 171 5 0 0 0 - - -, f 5;
#X floatatom 148 171 5 0 0 0 - - -, f 5;
#X floatatom 185 171 5 0 0 0 - - -, f 5;
#X text 200 192 set orientation with a quaternion.;
#X msg 38 32 print;
#X text 87 32 print the current settings.;
#X floatatom 91 221 5 0 255 0 - - -, f 5;
#X floatatom 144 221 5 0 255 0 - - -, f 5;
#X floatatom 197 221 5 0 255 0 - - -, f 5;
#X text 212 242 set the color of highlights on a material.;
#X floatatom 89 271 5 0 255 0 - - -, f 5;
#X floatatom 140 271 5 0 255 0 - - -, f 5;
#X floatatom 191 271 5 0 255 0 - - -, f 5;
#X text 206 292 set the color of material when it is illuminated.;
#X floatatom 77 321 5 0 255 0 - - -, f 5;
#X floatatom 116 321 5 0 255 0 - - -, f 5;
#X floatatom 155 321 5 0 255 0 - - -, f 5;
#X obj 38 342 ofPack ambient 0 0 0;
#X text 170 342 set the color of material when it is not illuminated.
;
#X text 177 82 set orientation with angle and axis.;
#X obj 38 192 ofPack quaternion 0 0 0 1;
#X obj 38 242 ofPack specular 100 100 100;
#X obj 38 292 ofPack diffuse 200 200 200;
#X text 195 149 (note: watch out for gimbal lock);
#X obj 38 82 ofPack rotate 0 0 0 0;
#X connect 0 0 5 0;
#X connect 1 0 0 1;
#X connect 2 0 0 2;
#X connect 3 0 0 3;
#X connect 6 0 35 1;
#X connect 7 0 35 2;
#X connect 8 0 35 3;
#X connect 9 0 35 4;
#X connect 10 0 31 1;
#X connect 11 0 31 2;
#X connect 12 0 31 3;
#X connect 13 0 31 4;
#X connect 15 0 5 0;
#X connect 17 0 32 1;
#X connect 18 0 32 2;
#X connect 19 0 32 3;
#X connect 21 0 33 1;
#X connect 22 0 33 2;
#X connect 23 0 33 3;
#X connect 25 0 28 1;
#X connect 26 0 28 2;
#X connect 27 0 28 3;
#X connect 28 0 5 0;
#X connect 31 0 5 0;
#X connect 32 0 5 0;
#X connect 33 0 5 0;
#X connect 35 0 5 0;
#X restore 58 181 pd ofDirectionalLight_parameters;
#X text 11 23 a light that comes evenly from a given direction;
#X obj 23 232 ofDirectionalLight 120 0 1 0;
#X obj 23 348 ofSphere 50 50;
#X text 95 297 light interacts strongly with material.;
#X text 95 518 specular <f \, f \, f>;
#X text 95 538 diffuse <f \, f \, f>;
#X text 95 558 ambient <f \, f \, f>;
#X text 271 585 - degrees to rotate around the vector.;
#X text 271 608 - x coordinate of a vector.;
#X text 271 631 - y coordinate of a vector.;
#X obj 75 654 cnv 17 3 17 empty empty 4 5 9 0 16 -228856 -162280 0
;
#X text 95 654 float;
#X text 271 654 - z coordinate of a vector.;
#X text 72 801 4) float;
#N canvas 322 88 469 374 ofMaterial_parameters 0;
#X floatatom 89 57 5 0 255 0 - - -, f 5;
#X floatatom 142 57 5 0 255 0 - - -, f 5;
#X floatatom 195 57 5 0 255 0 - - -, f 5;
#X floatatom 87 107 5 0 255 0 - - -, f 5;
#X floatatom 138 107 5 0 255 0 - - -, f 5;
#X floatatom 189 107 5 0 255 0 - - -, f 5;
#X floatatom 75 157 5 0 255 0 - - -, f 5;
#X floatatom 114 157 5 0 255 0 - - -, f 5;
#X floatatom 153 157 5 0 255 0 - - -, f 5;
#X obj 36 178 ofPack ambient 0 0 0;
#X floatatom 83 207 5 0 255 0 - - -, f 5;
#X floatatom 130 207 5 0 255 0 - - -, f 5;
#X floatatom 177 207 5 0 255 0 - - -, f 5;
#X floatatom 153 257 5 0 0 0 - - -, f 5;
#X text 209 78 set the specular color.;
#X text 203 128 set the diffuse color.;
#X text 167 178 set the ambient color.;
#X text 191 228 set the emissive color.;
#X text 167 278 set the shininess.;
#X obj 36 324 outlet;
#X msg 36 32 print;
#X text 85 32 print the current settings.;
#X obj 36 78 ofPack specular 100 100 100;
#X obj 36 128 ofPack diffuse 200 200 200;
#X obj 36 228 ofPack emissive 50 50 50;
#X obj 36 278 ofPack shininess 120;
#X connect 0 0 22 1;
#X connect 1 0 22 2;
#X connect 2 0 22 3;
#X connect 3 0 23 1;
#X connect 4 0 23 2;
#X connect 5 0 23 3;
#X connect 6 0 9 1;
#X connect 7 0 9 2;
#X connect 8 0 9 3;
#X connect 9 0 19 0;
#X connect 10 0 24 1;
#X connect 11 0 24 2;
#X connect 12 0 24 3;
#X connect 13 0 25 1;
#X connect 20 0 19 0;
#X connect 22 0 19 0;
#X connect 23 0 19 0;
#X connect 24 0 19 0;
#X connect 25 0 19 0;
#X restore 58 264 pd ofMaterial_parameters;
#X text 271 458 - sets orientation with angle and axis.;
#X text 271 478 - sets orientation with a eular angles.;
#X text 271 498 - sets orientation with a quaternion.;
#X text 271 518 - sets the color of highlights on a material.;
#X text 271 538 - sets the color of material when it is illuminated.
;
#X text 271 558 - sets the color of material when it is not illuminated.
;
#X text 271 741 - degrees to rotate around the vector. (default: 0)
;
#X text 271 761 - x coordinate of a vector. (default: 0);
#X text 271 781 - y coordinate of a vector. (default: 0);
#X text 271 801 - z coordinate of a vector. (default: 0);
#X text 143 351 a known bug: once you use and destroy [ofSpotlight]
object \, [ofPointLight] and [ofDirectionalLight] may not work properly.
you need to recreate the window in this case.;
#X text 201 394 note: [ofDirectionalLight] currently does not work
correctly if using non-default orientation on mobile device.;
#X text 95 458 rotate <f \, f \, f \, f>;
#X text 226 212 set orientation with angle and axis. (rotate);
#X obj 462 46 declare -lib ofelia;
#X connect 26 0 27 1;
#X connect 27 0 28 0;
#X connect 28 0 34 0;
#X connect 29 0 26 0;
#X connect 30 0 41 1;
#X connect 31 0 41 2;
#X connect 32 0 41 3;
#X connect 33 0 42 0;
#X connect 34 0 41 0;
#X connect 37 0 33 0;
#X connect 38 0 41 4;
#X connect 39 0 41 0;
#X connect 41 0 37 0;
#X connect 42 0 35 0;
#X connect 54 0 37 0;
