#N canvas 321 23 597 582 10;
#X obj 0 0 cnv 15 580 40 empty empty ofDistSquared3d 3 12 0 18 -204280
-1 0;
#X obj 0 341 cnv 3 580 3 empty empty inlets 8 12 0 13 -228856 -1 0
;
#X obj 0 400 cnv 3 580 3 empty empty outlets 8 12 0 13 -228856 -1 0
;
#X obj 75 349 cnv 17 3 17 empty empty 0 5 9 0 16 -228856 -162280 0
;
#X obj 75 408 cnv 17 3 17 empty empty 0 5 9 0 16 -228856 -162280 0
;
#X obj 0 525 cnv 15 580 21 empty empty empty 20 12 0 14 -228856 -66577
0;
#X obj 0 436 cnv 3 580 3 empty empty arguments 8 12 0 13 -228856 -1
0;
#X floatatom 245 242 10 0 0 0 - - -, f 10;
#X text 95 408 float;
#X obj 75 372 cnv 17 3 17 empty empty 1 5 9 0 16 -228856 -162280 0
;
#X text 72 459 1) float;
#X text 72 479 2) float;
#X msg 245 145 0 0 0;
#X msg 380 176 100 100 0;
#X text 72 499 3) float;
#X text 11 23 calculate the squared 3d distance between two points
;
#X text 211 408 - the distance-squared between two points.;
#X text 95 349 list <f \, f \, f>;
#X text 95 372 list <f \, f \, f>;
#X text 289 145 set point2 and output the distance.;
#X text 446 176 set point1.;
#X text 211 349 - sets the point2 (x2 \, y2 \, z2) and ouputs the distance.
;
#X obj 481 5 ofDistSquared3d;
#X text 21 43 [ofDistSquared3d] is similar to [ofDist3d] but doesn't
take the square root of the result \, which is a faster operation if
you need to calculate and compare multiple distances.;
#X obj 245 210 ofDistSquared3d 100 0 0;
#X text 211 372 - sets the point1. (x1 \, y1 \, z1);
#X text 211 459 - sets x1. (default: 0);
#X text 211 479 - sets y1. (default: 0);
#X text 211 499 - sets z1. (default: 0);
#X connect 12 0 24 0;
#X connect 13 0 24 1;
#X connect 24 0 7 0;
