#N canvas 321 23 601 637 10;
#X obj 0 0 cnv 15 580 40 empty empty ofDirectory 3 12 0 18 -204280
-1 0;
#X obj 0 381 cnv 3 580 3 empty empty inlets 8 12 0 13 -228856 -1 0
;
#X obj 0 500 cnv 3 580 3 empty empty outlets 8 12 0 13 -228856 -1 0
;
#X obj 75 389 cnv 17 3 100 empty empty 0 5 9 0 16 -228856 -162280 0
;
#X obj 0 583 cnv 15 580 21 empty empty empty 20 12 0 14 -228856 -66577
0;
#X obj 0 534 cnv 3 580 3 empty empty arguments 8 12 0 13 -228856 -1
0;
#X text 72 557 (none);
#X obj 75 59 bng 15 250 50 0 empty empty empty 17 7 0 10 -262144 -1
-1;
#X symbolatom 75 132 60 0 0 0 - - -, f 60;
#X obj 75 86 ofGetPatchDirectory;
#X text 523 5 or;
#X obj 450 5 ofDirectory;
#X obj 541 5 ofDir;
#X text 11 23 create/remove/rename/copy/move directories;
#X obj 75 326 ofDirectory;
#X obj 75 354 bng 15 250 50 0 empty empty empty 17 7 0 10 -262144 -1
-1;
#X text 96 354 outputs bang when a task is done.;
#X obj 75 152 ofPrepend create;
#X text 98 58 create a directory.;
#X obj 75 189 bng 15 250 50 0 empty empty empty 17 7 0 10 -262144 -1
-1;
#X symbolatom 75 262 60 0 0 0 - - -, f 60;
#X obj 75 216 ofGetPatchDirectory;
#X text 98 188 remove the created directory.;
#X obj 75 282 ofPrepend remove;
#X text 95 389 create <s \, f/s>;
#X text 95 409 remove <s \, f/s>;
#X text 95 429 rename <s \, s \, f/s>;
#X text 231 429 - rename <srcPath \, dstPath \, overwrite(default:ON)>.
;
#X text 95 449 copy <s \, s \, f/s>;
#X text 231 449 - copy <srcPath \, dstPath \, overwrite(default:ON)>.
;
#X text 95 469 move <s \, s \, f/s>;
#X text 231 469 - move <srcPath \, dstPath \, overwrite(default:ON)>.
;
#X obj 75 508 cnv 17 3 17 empty empty 0 5 9 0 16 -228856 -162280 0
;
#X text 95 508 bang;
#X text 231 508 - outputs bang when a task is done.;
#X text 231 389 - create <path \, recursive(default:ON)>.;
#X text 231 409 - remove <path \, recursive(default:ON)>.;
#X obj 75 109 makefilename %s/examples/data/myDirectory;
#X obj 75 239 makefilename %s/examples/data/myDirectory;
#X connect 7 0 9 0;
#X connect 8 0 17 0;
#X connect 9 0 37 0;
#X connect 14 0 15 0;
#X connect 17 0 14 0;
#X connect 19 0 21 0;
#X connect 20 0 23 0;
#X connect 21 0 38 0;
#X connect 23 0 14 0;
#X connect 37 0 8 0;
#X connect 38 0 20 0;
