#N canvas 321 23 598 518 10;
#X declare -lib ofelia;
#X obj 0 0 cnv 15 580 40 empty empty ofDoesDirectoryExist 3 12 0 18
-204280 -1 0;
#X obj 0 341 cnv 3 580 3 empty empty inlets 8 12 0 13 -228856 -1 0
;
#X obj 0 377 cnv 3 580 3 empty empty outlets 8 12 0 13 -228856 -1 0
;
#X obj 75 349 cnv 17 3 17 empty empty 0 5 9 0 16 -228856 -162280 0
;
#X obj 75 385 cnv 17 3 17 empty empty 0 5 9 0 16 -228856 -162280 0
;
#X obj 0 462 cnv 15 580 21 empty empty empty 20 12 0 14 -228856 -66577
0;
#X obj 0 413 cnv 3 580 3 empty empty arguments 8 12 0 13 -228856 -1
0;
#X text 469 5 or;
#X text 72 436 (none);
#X text 11 23 check the existence of a directory;
#X floatatom 195 259 5 0 0 0 - - -, f 5;
#X text 237 259 0: not exists \, 1: exists.;
#X text 216 114 check if the directory exists or not.;
#X obj 195 139 ofGetPatchDirectory;
#X symbolatom 195 162 50 0 0 0 - - -, f 50;
#X obj 195 114 bng 15 250 50 0 empty empty empty 17 7 0 10 -262144
-1 -1;
#X msg 227 194 symbol myDirectory;
#X text 95 349 symbol;
#X text 95 385 float;
#X text 211 385 - 0: not exists \, 1: exists.;
#X text 211 349 - an absolute path of directory to check.;
#X obj 342 5 ofDoesDirectoryExist;
#X obj 487 5 ofDoesDirExist;
#X obj 195 232 ofDoesDirectoryExist;
#X obj 462 46 declare -lib ofelia;
#X connect 13 0 14 0;
#X connect 14 0 23 0;
#X connect 15 0 13 0;
#X connect 16 0 23 0;
#X connect 23 0 10 0;
