#N canvas 321 23 601 543 10;
#X declare -lib ofelia;
#X obj 0 0 cnv 15 580 40 empty empty ofDoesColorNameExist 3 12 0 18
-204280 -1 0;
#X obj 0 341 cnv 3 580 3 empty empty inlets 8 12 0 13 -228856 -1 0
;
#X obj 0 400 cnv 3 580 3 empty empty outlets 8 12 0 13 -228856 -1 0
;
#X obj 75 349 cnv 17 3 40 empty empty 0 5 9 0 16 -228856 -162280 0
;
#X obj 75 408 cnv 17 3 17 empty empty 0 5 9 0 16 -228856 -162280 0
;
#X obj 0 485 cnv 15 580 21 empty empty empty 20 12 0 14 -228856 -66577
0;
#X obj 0 436 cnv 3 580 3 empty empty arguments 8 12 0 13 -228856 -1
0;
#X text 95 408 float;
#X text 72 459 1) symbol;
#N canvas 322 114 507 253 about_vector 0;
#X text 26 23 in ofelia \, a vector data structure is commonly used
for handling various data types such as float \, symbol and list. vectors
are much like arrays that can dynamically be changed in size.;
#X text 26 163 each "loader" object should have a unique variable name
so its data can be properly accessed by "getter" objects that use the
name.;
#X text 26 93 in general \, objects that use vector are divided into
two types \, "loader" objects that can store an array of data and "getter"
objects that can read the stored data from "loader" objects.;
#X restore 486 66 pd about_vector;
#X obj 26 172 bng 15 250 50 0 empty empty empty 17 7 0 10 -262144 -1
-1;
#X floatatom 26 223 5 0 0 0 - - -, f 5;
#X text 95 349 bang;
#X text 95 369 name <s>;
#X text 70 223 0: not exists \, 1: exists.;
#X text 241 408 - 0: not exists \, 1: exists.;
#X text 11 23 check the existence of a color variable name;
#X obj 451 5 ofDoesColorNameExist;
#X obj 26 80 ofLoadColor @myColors;
#X obj 26 196 ofDoesColorNameExist @myColors;
#X text 49 171 check if the color variable name exists or not.;
#X text 241 349 - checks the existence of a color variable name.;
#X text 241 369 - sets the color variable name to check.;
#X text 241 459 - sets the color variable name to check.;
#X obj 462 46 declare -lib ofelia;
#X connect 10 0 19 0;
#X connect 19 0 11 0;
