#N canvas 321 23 601 543 10;
#X obj 0 0 cnv 15 580 40 empty empty ofDoesFboNameExist 3 12 0 18 -204280
-1 0;
#X obj 0 341 cnv 3 580 3 empty empty inlets 8 12 0 13 -228856 -1 0
;
#X obj 0 400 cnv 3 580 3 empty empty outlets 8 12 0 13 -228856 -1 0
;
#X obj 75 349 cnv 17 3 40 empty empty 0 5 9 0 16 -228856 -162280 0
;
#X obj 75 408 cnv 17 3 17 empty empty 0 5 9 0 16 -228856 -162280 0
;
#X obj 0 485 cnv 15 580 21 empty empty empty 20 12 0 14 -228856 -66577
0;
#X obj 0 436 cnv 3 580 3 empty empty arguments 8 12 0 13 -228856 -1
0;
#X text 95 408 float;
#X text 72 459 1) symbol;
#X obj 26 202 bng 15 250 50 0 empty empty empty 17 7 0 10 -262144 -1
-1;
#X floatatom 26 253 5 0 0 0 - - -, f 5;
#X text 95 349 bang;
#X text 95 369 name <s>;
#X text 70 253 0: not exists \, 1: exists.;
#X text 241 408 - 0: not exists \, 1: exists.;
#X obj 463 5 ofDoesFboNameExist;
#X text 11 23 check the existence of a fbo variable name;
#X text 241 349 - checks the existence of a fbo variable name.;
#X text 241 369 - sets the fbo variable name to check.;
#X text 241 459 - sets the fbo variable name to check.;
#X text 49 201 check if the fbo variable name exists or not.;
#X obj 26 226 ofDoesFboNameExist @myFbo;
#X obj 26 90 ofCreateFbo @myFbo;
#X connect 9 0 21 0;
#X connect 21 0 10 0;
