#N canvas 321 23 601 680 10;
#X obj 0 0 cnv 15 580 40 empty empty ofDrawPath3d 3 12 0 18 -204280
-1 0;
#X obj 0 351 cnv 3 580 3 empty empty inlets 8 12 0 13 -228856 -1 0
;
#X obj 0 479 cnv 3 580 3 empty empty outlets 8 12 0 13 -228856 -1 0
;
#X obj 75 359 cnv 17 3 40 empty empty 0 5 9 0 16 -228856 -162280 0
;
#X obj 75 487 cnv 17 3 17 empty empty 0 5 9 0 16 -228856 -162280 0
;
#X obj 0 624 cnv 15 580 21 empty empty empty 20 12 0 14 -228856 -66577
0;
#X obj 0 515 cnv 3 580 3 empty empty arguments 8 12 0 13 -228856 -1
0;
#X text 72 538 1) symbol;
#N canvas 322 113 507 253 about_vector 0;
#X text 26 23 in ofelia \, a vector data structure is commonly used
for handling various data types such as float \, symbol and list. vectors
are much like arrays that can dynamically be changed in size.;
#X text 26 163 each "loader" object should have a unique variable name
so its data can be properly accessed by "getter" objects that use the
name.;
#X text 26 93 in general \, objects that use vector are divided into
two types \, "loader" objects that can store an array of data and "getter"
objects that can read the stored data from "loader" objects.;
#X restore 486 46 pd about_vector;
#X obj 23 329 ofWindow 320 240 LEFT TOP;
#X obj 23 155 ofTranslate 160 120;
#X obj 56 70 loadbang;
#X obj 56 91 ofGetLastRenderOrder;
#X obj 23 112 ofHead;
#X obj 23 133 ofClear 63;
#X floatatom 66 235 5 0 0 0 - - -, f 5;
#X floatatom 109 235 5 0 0 0 - - -, f 5;
#X text 95 359 render bang;
#X text 95 487 render bang;
#X text 211 359 - the incoming render bang.;
#X text 211 487 - the outgoing render bang.;
#X obj 75 405 cnv 17 3 17 empty empty 1 5 9 0 16 -228856 -162280 0
;
#X text 95 405 float;
#X obj 75 428 cnv 17 3 17 empty empty 2 5 9 0 16 -228856 -162280 0
;
#X text 95 428 float;
#X text 72 558 2) float;
#X text 72 578 3) float;
#X obj 23 203 ofSetFillMode FILLED;
#X obj 140 181 tgl 15 0 empty empty empty 17 7 0 10 -262144 -1 -1 0
1;
#X text 165 180 note: it is internally drawn as mesh when filled \,
and drawn as polyline when unfilled.;
#X text 95 379 name <s>;
#X obj 499 5 ofDrawPath3d;
#X floatatom 152 235 5 0 0 0 - - -, f 5;
#X text 192 233 change width \, height \, depth.;
#X obj 75 451 cnv 17 3 17 empty empty 3 5 9 0 16 -228856 -162280 0
;
#X text 95 451 float;
#X text 72 598 4) float;
#X text 19 282 note: if one of the dimensions is set to non-zero value
\, it will use the specified dimensions and be scaled accordingly.
;
#X text 211 379 - sets the variable name.;
#X text 211 405 - sets the width.;
#X text 211 428 - sets the height.;
#X text 211 451 - sets the depth.;
#X text 211 538 - sets the variable name.;
#X text 211 558 - sets the width. (default: 0);
#X text 211 578 - sets the height. (default: 0);
#X text 211 598 - sets the depth. (default: 0);
#X obj 23 259 ofDrawPath3d @myPath3d;
#X text 11 23 draw the stored path3d;
#X obj 243 70 ofLoadPath3d \; @myPath3d \; circle 50 \; moveTo 25 0
0 \; lineTo -13 22 0 \; lineTo -13 -22 0 \; close \;;
#X connect 10 0 27 0;
#X connect 11 0 12 0;
#X connect 12 0 13 1;
#X connect 13 0 14 0;
#X connect 14 0 10 0;
#X connect 15 0 46 1;
#X connect 16 0 46 2;
#X connect 27 0 46 0;
#X connect 28 0 27 1;
#X connect 32 0 46 3;
