#N canvas 321 23 601 727 10;
#X declare -lib ofelia;
#X obj 0 0 cnv 15 580 40 empty empty ofDrawImage 3 12 0 18 -204280
-1 0;
#X obj 0 421 cnv 3 580 3 empty empty inlets 8 12 0 13 -228856 -1 0
;
#X obj 0 546 cnv 3 580 3 empty empty outlets 8 12 0 13 -228856 -1 0
;
#X obj 75 429 cnv 17 3 60 empty empty 0 5 9 0 16 -228856 -162280 0
;
#X obj 75 554 cnv 17 3 17 empty empty 0 5 9 0 16 -228856 -162280 0
;
#X obj 0 671 cnv 15 580 21 empty empty empty 20 12 0 14 -228856 -66577
0;
#X obj 0 582 cnv 3 580 3 empty empty arguments 8 12 0 13 -228856 -1
0;
#X text 72 605 1) symbol;
#X obj 23 399 ofWindow 320 240 LEFT TOP;
#X text 95 429 render bang;
#X text 95 554 render bang;
#X text 241 429 - the incoming render bang.;
#X text 241 554 - the outgoing render bang.;
#X obj 75 495 cnv 17 3 17 empty empty 1 5 9 0 16 -228856 -162280 0
;
#X text 95 495 float;
#X obj 75 518 cnv 17 3 17 empty empty 2 5 9 0 16 -228856 -162280 0
;
#X text 95 518 float;
#X text 72 625 2) float;
#X text 72 645 3) float;
#X text 95 469 name <s>;
#X text 19 355 note: if one of the dimensions is set to non-zero value
\, it will use the specified dimensions and be scaled accordingly.
;
#N canvas 322 114 507 253 about_vector 0;
#X text 26 23 in ofelia \, a vector data structure is commonly used
for handling various data types such as float \, symbol and list. vectors
are much like arrays that can dynamically be changed in size.;
#X text 26 163 each "loader" object should have a unique variable name
so its data can be properly accessed by "getter" objects that use the
name.;
#X text 26 93 in general \, objects that use vector are divided into
two types \, "loader" objects that can store an array of data and "getter"
objects that can read the stored data from "loader" objects.;
#X restore 486 66 pd about_vector;
#X text 11 23 draw the stored image;
#X obj 505 5 ofDrawImage;
#X obj 56 174 loadbang;
#X obj 56 195 ofGetLastRenderOrder;
#X obj 23 216 ofHead;
#X obj 23 237 ofClear 63;
#X obj 43 274 tgl 15 0 empty empty empty 17 7 0 10 -262144 -1 -1 0
1;
#X text 63 274 switch the image.;
#X text 228 334 draw the stored image.;
#X text 233 119 the number of elements stored in the array.;
#X floatatom 194 119 5 0 0 0 - - -, f 5;
#X obj 23 139 bng 15 250 50 0 empty empty empty 17 7 0 10 -262144 -1
-1;
#X text 42 139 outputs bang when loading is done.;
#X floatatom 117 309 5 0 0 0 - - -, f 5;
#X floatatom 212 309 5 0 0 0 - - -, f 5;
#X text 252 308 change width \, height.;
#X text 241 495 - sets the width.;
#X text 241 518 - sets the height.;
#X text 241 625 - sets the width. (default: 0);
#X text 241 645 - sets the height. (default: 0);
#X text 241 470 - sets the variable name followed by the index.;
#X text 241 605 - sets the variable name followed by the index.;
#X obj 23 333 ofDrawImage @myImages[0] 320 240;
#X text 95 449 float;
#X text 241 449 - sets the index of the array element.;
#X obj 23 65 ofLoadImage \; @myImages \; examples/data/background.jpg
\; examples/data/texture.jpg \;;
#X obj 462 46 declare -lib ofelia;
#X connect 24 0 25 0;
#X connect 25 0 26 1;
#X connect 26 0 27 0;
#X connect 27 0 44 0;
#X connect 28 0 44 0;
#X connect 35 0 44 1;
#X connect 36 0 44 2;
#X connect 47 0 33 0;
#X connect 47 1 32 0;
