#N canvas 321 23 601 637 10;
#X declare -lib ofelia;
#X obj 0 0 cnv 15 580 40 empty empty ofDrawPath2d 3 12 0 18 -204280
-1 0;
#X obj 0 351 cnv 3 580 3 empty empty inlets 8 12 0 13 -228856 -1 0
;
#X obj 0 456 cnv 3 580 3 empty empty outlets 8 12 0 13 -228856 -1 0
;
#X obj 75 359 cnv 17 3 40 empty empty 0 5 9 0 16 -228856 -162280 0
;
#X obj 75 464 cnv 17 3 17 empty empty 0 5 9 0 16 -228856 -162280 0
;
#X obj 0 581 cnv 15 580 21 empty empty empty 20 12 0 14 -228856 -66577
0;
#X obj 0 492 cnv 3 580 3 empty empty arguments 8 12 0 13 -228856 -1
0;
#X text 72 515 1) symbol;
#N canvas 321 114 507 253 about_vector 0;
#X text 26 23 in ofelia \, a vector data structure is commonly used
for handling various data types such as float \, symbol and list. vectors
are much like arrays that can dynamically be changed in size.;
#X text 26 163 each "loader" object should have a unique variable name
so its data can be properly accessed by "getter" objects that use the
name.;
#X text 26 93 in general \, objects that use vector are divided into
two types \, "loader" objects that can store an array of data and "getter"
objects that can read the stored data from "loader" objects.;
#X restore 486 66 pd about_vector;
#X obj 499 5 ofDrawPath2d;
#X obj 23 329 ofWindow 320 240 LEFT TOP;
#X obj 23 155 ofTranslate 160 120;
#X obj 56 70 loadbang;
#X obj 56 91 ofGetLastRenderOrder;
#X obj 23 112 ofHead;
#X obj 23 133 ofClear 63;
#X floatatom 87 235 5 0 0 0 - - -, f 5;
#X floatatom 152 235 5 0 0 0 - - -, f 5;
#X text 193 233 change width \, height.;
#X text 95 359 render bang;
#X text 95 464 render bang;
#X text 211 359 - the incoming render bang.;
#X text 211 464 - the outgoing render bang.;
#X obj 75 405 cnv 17 3 17 empty empty 1 5 9 0 16 -228856 -162280 0
;
#X text 95 405 float;
#X obj 75 428 cnv 17 3 17 empty empty 2 5 9 0 16 -228856 -162280 0
;
#X text 95 428 float;
#X text 72 535 2) float;
#X text 72 555 3) float;
#X obj 23 203 ofSetFillMode FILLED;
#X obj 140 181 tgl 15 0 empty empty empty 17 7 0 10 -262144 -1 -1 0
1;
#X text 165 180 note: it is internally drawn as mesh when filled \,
and drawn as polyline when unfilled.;
#X text 95 379 name <s>;
#X text 19 282 note: if one of the dimensions is set to non-zero value
\, it will use the specified dimensions and be scaled accordingly.
;
#X text 211 379 - sets the variable name.;
#X text 211 405 - sets the width.;
#X text 211 428 - sets the height.;
#X text 211 515 - sets the variable name.;
#X text 211 535 - sets the width. (default: 0);
#X text 211 555 - sets the height. (default: 0);
#X obj 23 259 ofDrawPath2d @myPath2d;
#X text 11 23 draw the stored path2d;
#X obj 243 70 ofLoadPath2d \; @myPath2d \; circle 50 \; moveTo 25 0
\; lineTo -13 22 \; lineTo -13 -22 \; close \;;
#X obj 462 46 declare -lib ofelia;
#X connect 11 0 29 0;
#X connect 12 0 13 0;
#X connect 13 0 14 1;
#X connect 14 0 15 0;
#X connect 15 0 11 0;
#X connect 16 0 40 1;
#X connect 17 0 40 2;
#X connect 29 0 40 0;
#X connect 30 0 29 1;
