#N canvas 321 23 601 738 10;
#X obj 0 0 cnv 15 580 40 empty empty ofDrawFbo 3 12 0 18 -204280 -1
0;
#X obj 0 451 cnv 3 580 3 empty empty inlets 8 12 0 13 -228856 -1 0
;
#X obj 0 556 cnv 3 580 3 empty empty outlets 8 12 0 13 -228856 -1 0
;
#X obj 75 459 cnv 17 3 40 empty empty 0 5 9 0 16 -228856 -162280 0
;
#X obj 75 564 cnv 17 3 17 empty empty 0 5 9 0 16 -228856 -162280 0
;
#X obj 0 681 cnv 15 580 21 empty empty empty 20 12 0 14 -228856 -66577
0;
#X obj 0 592 cnv 3 580 3 empty empty arguments 8 12 0 13 -228856 -1
0;
#X text 72 615 1) symbol;
#X obj 23 429 ofWindow 320 240 LEFT TOP;
#X text 95 459 render bang;
#X text 95 564 render bang;
#X text 211 459 - the incoming render bang.;
#X text 211 564 - the outgoing render bang.;
#X obj 75 505 cnv 17 3 17 empty empty 1 5 9 0 16 -228856 -162280 0
;
#X text 95 505 float;
#X obj 75 528 cnv 17 3 17 empty empty 2 5 9 0 16 -228856 -162280 0
;
#X text 95 528 float;
#X text 72 635 2) float;
#X text 72 655 3) float;
#X text 95 479 name <s>;
#X text 19 382 note: if one of the dimensions is set to non-zero value
\, it will use the specified dimensions and be scaled accordingly.
;
#X obj 517 5 ofDrawFbo;
#X text 11 23 draw the stored fbo;
#X obj 23 110 ofTranslate 40 40;
#X obj 23 154 ofStar 30 12 5;
#X obj 23 132 ofSetColor yellow;
#X obj 23 66 ofHead;
#X obj 56 194 loadbang;
#X obj 56 215 ofGetLastRenderOrder;
#X obj 23 236 ofHead;
#X obj 23 257 ofClear 63;
#X obj 23 301 ofTranslate 160 120;
#X obj 23 279 ofSetRectMode CENTER;
#X floatatom 69 333 5 0 0 0 - - -, f 5;
#X floatatom 116 333 5 0 0 0 - - -, f 5;
#X text 157 332 change width \, height.;
#X text 211 479 - sets the variable name.;
#X text 211 505 - sets the width.;
#X text 211 528 - sets the height.;
#X text 211 615 - sets the variable name.;
#X text 211 635 - sets the width. (default: 0);
#X text 211 655 - sets the height. (default: 0);
#X obj 23 357 ofDrawFbo @myFbo;
#X obj 23 88 ofCreateFbo @myFbo 80 80 RGB orange;
#X connect 23 0 25 0;
#X connect 25 0 24 0;
#X connect 26 0 43 0;
#X connect 27 0 28 0;
#X connect 28 0 29 1;
#X connect 29 0 30 0;
#X connect 30 0 32 0;
#X connect 31 0 42 0;
#X connect 32 0 31 0;
#X connect 33 0 42 1;
#X connect 34 0 42 2;
#X connect 43 0 23 0;
