#N canvas 321 23 601 620 10;
#X declare -lib ofelia;
#X obj 0 0 cnv 15 580 40 empty empty ofEasyCam 3 12 0 18 -204280 -1
0;
#X obj 0 401 cnv 3 580 3 empty empty inlets 8 12 0 13 -228856 -1 0
;
#X obj 0 480 cnv 3 580 3 empty empty outlets 8 12 0 13 -228856 -1 0
;
#X obj 75 409 cnv 17 3 60 empty empty 0 5 9 0 16 -228856 -162280 0
;
#X obj 75 488 cnv 17 3 17 empty empty 0 5 9 0 16 -228856 -162280 0
;
#X obj 0 565 cnv 15 580 21 empty empty empty 20 12 0 14 -228856 -66577
0;
#X obj 0 516 cnv 3 580 3 empty empty arguments 8 12 0 13 -228856 -1
0;
#X text 11 23 a simple camera for interacting with objects in 3d space
;
#X obj 517 5 ofEasyCam;
#X obj 23 378 ofWindow 320 240 LEFT TOP;
#X text 95 409 render bang;
#X text 211 408 - the incoming render bang.;
#X text 95 488 render bang;
#X text 211 488 - the outgoing render bang.;
#X text 95 428 VFlip <f/s>;
#X text 95 448 debug <f/s>;
#X text 72 539 (none);
#X obj 243 334 ofGrid;
#X obj 276 194 ofGetLastRenderOrder;
#X obj 243 215 ofHead;
#X obj 243 243 ofClear 63;
#X obj 276 173 loadbang;
#X text 21 43 [ofEasyCam] gives you a very simple interactive camera
to view your scene.;
#X text 21 83 it has a few default controls built into it:;
#X obj 243 306 ofEasyCam;
#N canvas 323 123 579 260 ofEasyCam_parameters 0;
#X obj 38 179 outlet;
#X obj 119 61 tgl 15 0 empty empty empty 17 7 0 10 -262144 -1 -1 0
1;
#X text 138 83 vertically flip the coordinate system.;
#X obj 119 111 tgl 15 0 empty empty empty 17 7 0 10 -262144 -1 -1 0
1;
#X obj 38 132 ofPack debug 0;
#X text 138 133 enable/disable the debug mode.;
#X msg 38 32 print;
#X text 87 32 print the current settings.;
#X text 138 150 (when in debug mode \, the camera's view is disabled
and the camera will be visible as a 3d object in a normal view);
#X obj 38 82 ofPack VFlip 1;
#X connect 1 0 9 1;
#X connect 3 0 4 1;
#X connect 4 0 0 0;
#X connect 6 0 0 0;
#X connect 9 0 0 0;
#X restore 270 275 pd ofEasyCam_parameters;
#X text 31 103 - left click drag = orbit the target.;
#X text 31 120 - right click drag = dolly in and out.;
#X text 31 137 - double click = reset camera position.;
#X text 211 428 - vertically flips the coordinate system.;
#X text 211 448 - enables/disables the debug mode.;
#X text 201 364 note: [ofEasyCam] currently does not work correctly
if using non-default orientation on mobile device.;
#X obj 462 46 declare -lib ofelia;
#X connect 18 0 19 1;
#X connect 19 0 20 0;
#X connect 20 0 24 0;
#X connect 21 0 18 0;
#X connect 24 0 17 0;
#X connect 25 0 24 0;
