#N canvas 321 23 601 620 10;
#X declare -lib ofelia;
#X obj 0 0 cnv 15 580 40 empty empty ofEditFont 3 12 0 18 -204280 -1
0;
#X obj 0 341 cnv 3 580 3 empty empty inlets 8 12 0 13 -228856 -1 0
;
#X obj 0 480 cnv 3 580 3 empty empty outlets 8 12 0 13 -228856 -1 0
;
#X obj 75 349 cnv 17 3 120 empty empty 0 5 9 0 16 -228856 -162280 0
;
#X obj 75 488 cnv 17 3 17 empty empty 0 5 9 0 16 -228856 -162280 0
;
#X obj 0 565 cnv 15 580 21 empty empty empty 20 12 0 14 -228856 -66577
0;
#X obj 0 516 cnv 3 580 3 empty empty arguments 8 12 0 13 -228856 -1
0;
#X text 95 369 name <s>;
#X text 72 539 1) symbol;
#N canvas 321 121 507 253 about_vector 0;
#X text 26 23 in ofelia \, a vector data structure is commonly used
for handling various data types such as float \, symbol and list. vectors
are much like arrays that can dynamically be changed in size.;
#X text 26 163 each "loader" object should have a unique variable name
so its data can be properly accessed by "getter" objects that use the
name.;
#X text 26 93 in general \, objects that use vector are divided into
two types \, "loader" objects that can store an array of data and "getter"
objects that can read the stored data from "loader" objects.;
#X restore 486 66 pd about_vector;
#X text 275 139 the number of elements stored in the array.;
#X obj 23 319 ofWindow 320 240 LEFT TOP;
#X floatatom 236 139 5 0 0 0 - - -, f 5;
#X obj 23 159 bng 15 250 50 0 empty empty empty 17 7 0 10 -262144 -1
-1;
#X text 41 159 outputs bang when loading is done.;
#X obj 511 5 ofEditFont;
#N canvas 321 121 604 441 ofEditFont_parameters 0;
#X obj 66 273 tgl 15 0 empty empty empty 17 7 0 10 -262144 -1 -1 0
1;
#X obj 46 79 ofPack letterSpacing 1;
#X floatatom 175 55 5 0 0 0 - - -, f 5;
#X text 213 54 change the letter spacing.;
#X floatatom 157 115 5 0 0 0 - - -, f 5;
#X obj 46 139 ofPack lineHeight 0;
#X floatatom 151 175 5 0 0 0 - - -, f 5;
#X obj 46 199 ofPack spaceSize 0;
#X text 189 174 change the space size.;
#X text 86 273 switch the font to edit.;
#X text 161 236 clone the specified font.;
#X text 195 114 change the line height. (for line broken texts);
#X msg 46 236 clone @myFonts[1];
#X obj 46 334 outlet;
#X connect 0 0 13 0;
#X connect 1 0 13 0;
#X connect 2 0 1 1;
#X connect 4 0 5 1;
#X connect 5 0 13 0;
#X connect 6 0 7 1;
#X connect 7 0 13 0;
#X connect 12 0 13 0;
#X restore 23 208 pd ofEditFont_parameters;
#X text 11 23 edit the stored font;
#X text 21 43 [ofEditFont] allows you to edit the properties of the
loaded font.;
#X text 95 389 letterSpacing <f>;
#X text 95 409 lineHeight <f>;
#X text 95 429 spaceSize <f>;
#X text 95 449 clone <s>;
#X text 95 488 bang;
#X obj 23 255 bng 15 250 50 0 empty empty empty 17 7 0 10 -262144 -1
-1;
#X text 41 255 outputs bang when editing is done.;
#X text 241 488 - outputs bang when editing is done.;
#X text 241 389 - sets the letter spacing of the font.;
#X text 241 409 - sets the line height of the font.;
#X text 241 429 - sets the space size of the font.;
#X text 241 449 - clones the specified font.;
#X text 241 369 - sets the variable name followed by the index.;
#X text 241 539 - sets the variable name followed by the index.;
#N canvas 321 121 601 275 related_drawer_objects 0;
#X obj 63 24 loadbang;
#X obj 63 45 ofGetLastRenderOrder;
#X obj 30 66 ofHead;
#X obj 30 87 ofClear 63;
#X text 245 221 draw the text using the stored font.;
#X obj 60 158 tgl 15 0 empty empty empty 17 7 0 10 -262144 -1 -1 0
1;
#X text 80 158 switch the font.;
#X obj 30 109 ofSetTextMode CENTER MIDDLE;
#X text 202 109 set the text align mode.;
#X obj 30 131 ofTranslate 160 120;
#X text 357 158 change the text.;
#X msg 230 158 text Draw the text!;
#X obj 30 221 ofDrawText @myFonts[0] Hello World;
#X connect 0 0 1 0;
#X connect 1 0 2 1;
#X connect 2 0 3 0;
#X connect 3 0 7 0;
#X connect 5 0 12 0;
#X connect 7 0 9 0;
#X connect 9 0 12 0;
#X connect 11 0 12 0;
#X restore 23 298 pd related_drawer_objects;
#X obj 23 230 ofEditFont @myFonts[0];
#X text 95 349 float;
#X text 241 349 - sets the index of the array element.;
#X obj 23 85 ofLoadFont \; @myFonts \; examples/data/Sansation.ttf
30 \; examples/data/DejaVuSansMono.ttf 24 \;;
#X obj 462 46 declare -lib ofelia;
#X connect 16 0 34 0;
#X connect 34 0 24 0;
#X connect 37 0 13 0;
#X connect 37 1 12 0;
