#N canvas 321 23 598 516 10;
#X declare -lib ofelia;
#X obj 0 0 cnv 15 580 40 empty empty ofelia 3 12 0 18 -204280 -1 0
;
#X obj 0 341 cnv 3 580 3 empty empty inlets 8 12 0 13 -228856 -1 0
;
#X obj 0 374 cnv 3 580 3 empty empty outlets 8 12 0 13 -228856 -1 0
;
#X obj 0 461 cnv 15 580 21 empty empty empty 20 12 0 14 -228856 -66577
0;
#X obj 0 412 cnv 3 580 3 empty empty arguments 8 12 0 13 -228856 -1
0;
#X obj 535 5 ofelia;
#N canvas 321 131 649 693 common_traits 0;
#X text 41 40 there are some common traits that are applied to all
objects in ofelia.;
#X text 41 130 2) camal case: each consecutive word in an object's
name starts with an upper-case letter. (e.g. "ofGetScreenWidth");
#X text 41 90 1) object naming: object names start with "of". (e.g.
"ofDrawImage");
#X obj 47 254 ofRectangle 90 70;
#X msg 47 211 set 100 80;
#X text 41 170 3) set: sending a "set" message followed by arguments
to an object updates values of the creation arguments.;
#X msg 47 351 print;
#X obj 157 394 ofGetWidth;
#X msg 157 351 print;
#X text 41 290 4) print: sending a "print" message to an object prints
the stored property values to the pd console. (it only works for objects
that store any value);
#X obj 47 394 ofMaterial;
#X obj 47 488 ofLoadMesh2d \$0-myMesh2d vertex -50 50 vertex 0 -50
vertex 50 50 color 255 0 0 255 color 0 255 0 255 color 0 0 255 255
;
#X text 41 430 5) semicolon: if you use a semicolon as a first creation
argument \, all semicolon arguments will be removed internally. it
is used to make the object more readable.;
#X text 171 576 this one is more readable than the first one although
they are internally identical.;
#X text 205 351 "print" doesn't work for objects that store no value.
;
#X obj 47 538 ofLoadMesh2d \; @myMesh2d \; vertex -50 50 \; vertex
0 -50 \; vertex 50 50 \; color 255 0 0 255 \; color 0 255 0 255 \;
color 0 0 255 255 \;;
#X connect 4 0 3 0;
#X connect 6 0 10 0;
#X connect 8 0 7 0;
#X restore 480 46 pd common_traits;
#X text 72 349 (none);
#X text 72 388 (none);
#X text 72 435 (none);
#X text 11 23 initialize the ofelia external library;
#X text 31 106 - go to Pd -> Preferences -> Startup and then click
New to add ofelia as Pd libraries to load on startup.;
#X obj 45 173 declare -lib ofelia;
#X text 31 146 - declare the ofelia library as the following.;
#X text 21 43 in order to use any object in ofelia \, you need to first
initialize the library. there are three ways to initialize the ofelia
external library.;
#X obj 45 233 ofelia;
#X text 31 206 - create an ofelia object. (not recommended);
#X text 31 276 once the library is correctly initialized \, you should
see a message on a pd console which shows the version \, compile date
and copyright info of the ofelia library.;
