#N canvas 483 230 444 210 10;
#X text 37 30 NAME: ofelia, f 47;
#X text 37 51 DESCRIPTION: Pd external library written with openFrameworks
for creating cross-platform multimedia applications.;
#X text 37 87 VERSION: 1.0.4, f 47;
#X text 37 104 RELEASE_DATE: 17 Feb 2018, f 47;
#X text 37 121 LICENSE: GPL v3, f 47;
#X text 37 138 AUTHOR: Zack Lee, f 47;
#X text 37 156 WEBSITE: https://github.com/cuinjune/ofxOfelia, f 47
;
