#N canvas 321 23 599 591 10;
#X obj 0 0 cnv 15 580 40 empty empty ofEndShape 3 12 0 18 -204280 -1
0;
#X obj 0 381 cnv 3 580 3 empty empty inlets 8 12 0 13 -228856 -1 0
;
#X obj 0 440 cnv 3 580 3 empty empty outlets 8 12 0 13 -228856 -1 0
;
#X obj 75 389 cnv 17 3 17 empty empty 0 5 9 0 16 -228856 -162280 0
;
#X obj 75 448 cnv 17 3 17 empty empty 0 5 9 0 16 -228856 -162280 0
;
#X obj 0 537 cnv 15 580 21 empty empty empty 20 12 0 14 -228856 -66577
0;
#X obj 0 476 cnv 3 580 3 empty empty arguments 8 12 0 13 -228856 -1
0;
#X text 95 389 render bang;
#X text 211 389 - the incoming render bang.;
#X obj 75 412 cnv 17 3 17 empty empty 1 5 9 0 16 -228856 -162280 0
;
#X text 95 448 render bang;
#X text 211 448 - the outgoing render bang.;
#X obj 23 358 ofWindow 320 240 LEFT TOP;
#X text 95 412 float/symbol;
#X text 72 499 1) float/symbol;
#X obj 511 5 ofEndShape;
#X obj 248 93 loadbang;
#X obj 248 114 ofGetLastRenderOrder;
#X obj 215 135 ofHead;
#X obj 215 157 ofClear 63;
#X obj 215 200 ofBeginShape;
#X obj 215 179 ofSetFillMode OUTLINE;
#X obj 296 309 tgl 15 0 empty empty empty 17 7 0 10 -262144 -1 -1 0
1;
#X obj 215 330 ofEndShape OFF;
#X text 316 308 automatically close the shape.;
#X text 211 412 - sets if you want to automatically close the shape.
;
#X text 211 499 - sets if you want to automatically close the shape.
(default: OFF);
#X text 11 23 finish drawing the shape and draw it to the screen;
#X obj 215 222 ofVertex2d 110 70;
#X obj 215 244 ofVertex2d 210 70;
#X obj 215 265 ofVertex2d 210 170;
#X obj 215 285 ofVertex2d 110 170;
#X text 21 43 [ofEndShape] must be called after [ofBeginShape] and
a list of vertex points otherwise you will not see your shape.;
#X connect 16 0 17 0;
#X connect 17 0 18 1;
#X connect 18 0 19 0;
#X connect 19 0 21 0;
#X connect 20 0 28 0;
#X connect 21 0 20 0;
#X connect 22 0 23 1;
#X connect 28 0 29 0;
#X connect 29 0 30 0;
#X connect 30 0 31 0;
#X connect 31 0 23 0;
