#N canvas 321 23 599 516 10;
#X obj 0 0 cnv 15 580 40 empty empty ofError 3 12 0 18 -204280 -1 0
;
#X obj 0 341 cnv 3 580 3 empty empty inlets 8 12 0 13 -228856 -1 0
;
#X obj 0 377 cnv 3 580 3 empty empty outlets 8 12 0 13 -228856 -1 0
;
#X obj 75 349 cnv 17 3 17 empty empty 0 5 9 0 16 -228856 -162280 0
;
#X obj 0 462 cnv 15 580 21 empty empty empty 20 12 0 14 -228856 -66577
0;
#X obj 0 413 cnv 3 580 3 empty empty arguments 8 12 0 13 -228856 -1
0;
#X text 11 23 print an error to the pd console;
#X obj 529 5 ofError;
#X msg 216 113 wrong argument type;
#X msg 226 152 invalid number of arguments;
#X floatatom 247 209 5 0 0 0 - - -, f 5;
#X msg 247 235 no method for '\$1';
#X msg 294 206 symbol MODE;
#X text 95 349 anything;
#X text 211 349 - a message to print as an error to the pd console.
;
#X obj 216 277 ofError myObject;
#X text 95 388 (none);
#X text 211 436 - sets the preceding error message. (default: error)
;
#X text 72 436 1) list;
#X connect 8 0 15 0;
#X connect 9 0 15 0;
#X connect 10 0 11 0;
#X connect 11 0 15 0;
#X connect 12 0 11 0;
