#N canvas 321 23 604 520 10;
#X declare -lib ofelia;
#X obj 0 0 cnv 15 580 40 empty empty ofFocusListener 3 12 0 18 -204280
-1 0;
#X obj 0 341 cnv 3 580 3 empty empty inlets 8 12 0 13 -228856 -1 0
;
#X obj 0 375 cnv 3 580 3 empty empty outlets 8 12 0 13 -228856 -1 0
;
#X obj 75 383 cnv 17 3 17 empty empty 0 5 9 0 16 -228856 -162280 0
;
#X obj 0 460 cnv 15 580 21 empty empty empty 20 12 0 14 -228856 -66577
0;
#X obj 0 411 cnv 3 580 3 empty empty arguments 8 12 0 13 -228856 -1
0;
#X text 72 434 (none);
#X text 72 349 (none);
#X floatatom 236 202 5 0 0 0 - - -, f 5;
#X text 95 383 float;
#X text 11 23 listen to the focus state of the current window;
#X text 211 383 - the focus state of the current window.;
#X text 21 43 on mobile devices \, [ofFocusListener] updates the state
when the app goes into the background(0) or foreground(1).;
#X obj 481 5 ofFocusListener;
#X obj 236 170 ofFocusListener;
#X obj 23 318 ofWindow 320 240 LEFT TOP;
#X text 278 201 0: not focused \, 1: focused.;
#X obj 462 46 declare -lib ofelia;
#X connect 14 0 8 0;
