#N canvas 321 23 597 556 10;
#X declare -lib ofelia;
#X obj 0 0 cnv 15 580 40 empty empty ofGetRotate 3 12 0 18 -204280
-1 0;
#X obj 0 381 cnv 3 580 3 empty empty inlets 8 12 0 13 -228856 -1 0
;
#X obj 0 417 cnv 3 580 3 empty empty outlets 8 12 0 13 -228856 -1 0
;
#X obj 75 389 cnv 17 3 17 empty empty 0 5 9 0 16 -228856 -162280 0
;
#X obj 75 425 cnv 17 3 17 empty empty 0 5 9 0 16 -228856 -162280 0
;
#X obj 0 501 cnv 15 580 21 empty empty empty 20 12 0 14 -228856 -66577
0;
#X obj 0 453 cnv 3 580 3 empty empty arguments 8 12 0 13 -228856 -1
0;
#X text 95 389 render bang;
#X text 211 389 - the incoming render bang.;
#X obj 23 358 ofWindow 320 240 LEFT TOP;
#X obj 462 46 declare -lib ofelia;
#X text 505 5 or;
#X text 72 476 (none);
#X text 11 23 get the current rotate information;
#X obj 432 5 ofGetRotate;
#X obj 523 5 ofGetRot;
#X obj 248 92 loadbang;
#X floatatom 239 224 5 0 0 0 - - -, f 5;
#X floatatom 279 224 5 0 0 0 - - -, f 5;
#X floatatom 319 224 5 0 0 0 - - -, f 5;
#X floatatom 359 224 5 0 0 0 - - -, f 5;
#X obj 248 113 ofGetLastRenderOrder;
#X obj 215 134 ofHead;
#X obj 215 155 ofClear 63;
#X obj 215 176 ofTranslate 160 120;
#X obj 215 198 ofSetRectMode CENTER;
#X obj 215 266 ofSquare 100;
#X obj 215 245 ofRotate 45 0 0 1;
#X obj 215 287 ofGetRotate;
#X obj 215 308 unpack f f f f;
#X floatatom 215 329 5 0 0 0 - - -, f 5;
#X floatatom 252 329 5 0 0 0 - - -, f 5;
#X floatatom 289 329 5 0 0 0 - - -, f 5;
#X floatatom 326 329 5 0 0 0 - - -, f 5;
#X text 21 43 [ofGetRotate] allows one to get the current rotate information
in the middle of a rendering chain.;
#X text 211 425 - the current rotate degrees \, x \, y \, z axis.;
#X text 95 425 list <f \, f \, f \, f>;
#X text 211 349 note: [ofGetRotate] currently does not work correctly
if using non-default orientation on mobile device.;
#X text 397 223 set degrees \, x y z axis.;
#X connect 16 0 21 0;
#X connect 17 0 27 1;
#X connect 18 0 27 2;
#X connect 19 0 27 3;
#X connect 20 0 27 4;
#X connect 21 0 22 1;
#X connect 22 0 23 0;
#X connect 23 0 24 0;
#X connect 24 0 25 0;
#X connect 25 0 27 0;
#X connect 26 0 28 0;
#X connect 27 0 26 0;
#X connect 28 0 29 0;
#X connect 29 0 30 0;
#X connect 29 1 31 0;
#X connect 29 2 32 0;
#X connect 29 3 33 0;
