#N canvas 321 23 598 565 10;
#X declare -lib ofelia;
#X obj 0 0 cnv 15 580 40 empty empty ofGetDollarZero 3 12 0 18 -204280
-1 0;
#X obj 0 341 cnv 3 580 3 empty empty inlets 8 12 0 13 -228856 -1 0
;
#X obj 0 420 cnv 3 580 3 empty empty outlets 8 12 0 13 -228856 -1 0
;
#X obj 75 349 cnv 17 3 60 empty empty 0 5 9 0 16 -228856 -162280 0
;
#X obj 75 428 cnv 17 3 17 empty empty 0 5 9 0 16 -228856 -162280 0
;
#X obj 0 505 cnv 15 580 21 empty empty empty 20 12 0 14 -228856 -66577
0;
#X obj 0 456 cnv 3 580 3 empty empty arguments 8 12 0 13 -228856 -1
0;
#X obj 105 129 bng 15 250 50 0 empty empty empty 17 7 0 10 -262144
-1 -1;
#X text 95 349 bang;
#X floatatom 135 159 5 0 0 0 - - -, f 5;
#X text 95 369 float;
#X text 72 479 1) float;
#X text 11 23 get the \$0 value of the patch;
#X text 127 129 get the \$0 value of the patch.;
#X floatatom 105 286 5 0 0 0 - - -, f 5;
#X text 211 428 - the \$0 value of the patch in a specified level.
;
#X text 95 428 float;
#X text 95 389 level <f>;
#X obj 143 200 bng 15 250 50 0 empty empty empty 17 7 0 10 -262144
-1 -1;
#X text 169 199 get the \$0 value of the root patch.;
#X obj 481 5 ofGetDollarZero;
#X obj 143 222 ofGetMaxFloat;
#X obj 105 264 ofGetDollarZero;
#X text 211 349 - gets the \$0 value of the patch.;
#X text 211 369 - gets the \$0 value of the patch in 'n'th level.;
#X text 211 389 - sets 'n'th level.;
#X text 211 479 - the 'n'th level. (default: 0);
#X text 177 159 get the \$0 value of the patch in 'n'th level. (if
there is any higher level);
#X text 21 43 [ofGetDollarZero] is used to get the \$0 value of the
current or the parent patch. for example \, if you use [ofGetDollarZero]
in an abstraction \, you can get the \$0 value of the parent patch.
;
#X obj 462 46 declare -lib ofelia;
#X connect 7 0 22 0;
#X connect 9 0 22 0;
#X connect 18 0 21 0;
#X connect 21 0 22 0;
#X connect 22 0 14 0;
