#N canvas 321 23 598 518 10;
#X obj 0 0 cnv 15 580 40 empty empty ofGetTemporaryDirectory 3 12 0
18 -204280 -1 0;
#X obj 0 341 cnv 3 580 3 empty empty inlets 8 12 0 13 -228856 -1 0
;
#X obj 0 377 cnv 3 580 3 empty empty outlets 8 12 0 13 -228856 -1 0
;
#X obj 75 349 cnv 17 3 17 empty empty 0 5 9 0 16 -228856 -162280 0
;
#X obj 75 385 cnv 17 3 17 empty empty 0 5 9 0 16 -228856 -162280 0
;
#X obj 0 462 cnv 15 580 21 empty empty empty 20 12 0 14 -228856 -66577
0;
#X obj 0 413 cnv 3 580 3 empty empty arguments 8 12 0 13 -228856 -1
0;
#X obj 175 159 bng 15 250 50 0 empty empty empty 17 7 0 10 -262144
-1 -1;
#X text 95 349 bang;
#X text 451 5 or;
#X symbolatom 175 211 50 0 0 0 - - -, f 50;
#X text 95 385 symbol;
#X text 72 436 (none);
#X obj 306 5 ofGetTemporaryDirectory;
#X obj 469 5 ofGetTemporaryDir;
#X text 11 23 get the temporary directory on ios devices;
#X text 197 159 get the temporary directory.;
#X obj 175 184 ofGetTemporaryDirectory;
#X text 211 349 - gets the temporary directory.;
#X text 211 385 - the temporary directory.;
#X connect 7 0 17 0;
#X connect 17 0 10 0;
