#N canvas 321 23 601 581 10;
#X declare -lib ofelia;
#X obj 0 0 cnv 15 580 40 empty empty ofGetMesh2dColor 3 12 0 18 -204280
-1 0;
#X obj 0 361 cnv 3 580 3 empty empty inlets 8 12 0 13 -228856 -1 0
;
#X obj 0 440 cnv 3 580 3 empty empty outlets 8 12 0 13 -228856 -1 0
;
#X obj 75 369 cnv 17 3 60 empty empty 0 5 9 0 16 -228856 -162280 0
;
#X obj 75 448 cnv 17 3 17 empty empty 0 5 9 0 16 -228856 -162280 0
;
#X obj 0 525 cnv 15 580 21 empty empty empty 20 12 0 14 -228856 -66577
0;
#X obj 0 476 cnv 3 580 3 empty empty arguments 8 12 0 13 -228856 -1
0;
#X text 72 499 1) symbol;
#N canvas 322 115 507 253 about_vector 0;
#X text 26 23 in ofelia \, a vector data structure is commonly used
for handling various data types such as float \, symbol and list. vectors
are much like arrays that can dynamically be changed in size.;
#X text 26 163 each "loader" object should have a unique variable name
so its data can be properly accessed by "getter" objects that use the
name.;
#X text 26 93 in general \, objects that use vector are divided into
two types \, "loader" objects that can store an array of data and "getter"
objects that can read the stored data from "loader" objects.;
#X restore 486 66 pd about_vector;
#X text 95 369 bang;
#X text 95 409 name <s>;
#X obj 23 231 bng 15 250 50 0 empty empty empty 17 7 0 10 -262144 -1
-1;
#X obj 475 5 ofGetMesh2dColor;
#X obj 23 339 ofWindow 320 240 LEFT TOP;
#X text 241 409 - sets the variable name followed by the index.;
#X text 241 499 - sets the variable name followed by the index.;
#X obj 23 89 ofLoadMesh2d \; @myMesh2d \; vertex -50 50 \; vertex 0
-50 \; vertex 50 50 \; color 255 0 0 255 \; color 0 255 0 255 \; color
0 0 255 255 \;;
#X obj 23 255 ofGetMesh2dColor @myMesh2d[1];
#X text 95 389 float;
#X text 241 389 - sets the index of the array element.;
#X obj 23 277 unpack f f f f;
#X floatatom 23 299 5 0 0 0 - - -, f 5;
#X floatatom 63 299 5 0 0 0 - - -, f 5;
#X floatatom 103 299 5 0 0 0 - - -, f 5;
#X floatatom 143 299 5 0 0 0 - - -, f 5;
#X text 11 23 get the mesh2d color at the given index;
#X text 46 231 get the mesh2d color at the index "1". (starting from
"0");
#X text 241 369 - gets the mesh2d color at the given index.;
#X text 241 448 - the mesh2d color at the given index.;
#X text 95 448 list <f \, f \, f \, f>;
#X obj 462 46 declare -lib ofelia;
#X connect 11 0 17 0;
#X connect 17 0 20 0;
#X connect 20 0 21 0;
#X connect 20 1 22 0;
#X connect 20 2 23 0;
#X connect 20 3 24 0;
