#N canvas 321 23 598 556 10;
#X declare -lib ofelia;
#X obj 0 0 cnv 15 580 40 empty empty ofGetCanvasArgs 3 12 0 18 -204280
-1 0;
#X obj 0 381 cnv 3 580 3 empty empty inlets 8 12 0 13 -228856 -1 0
;
#X obj 0 417 cnv 3 580 3 empty empty outlets 8 12 0 13 -228856 -1 0
;
#X obj 75 389 cnv 17 3 17 empty empty 0 5 9 0 16 -228856 -162280 0
;
#X obj 75 425 cnv 17 3 17 empty empty 0 5 9 0 16 -228856 -162280 0
;
#X obj 0 502 cnv 15 580 21 empty empty empty 20 12 0 14 -228856 -66577
0;
#X obj 0 453 cnv 3 580 3 empty empty arguments 8 12 0 13 -228856 -1
0;
#X obj 175 121 bng 15 250 50 0 empty empty empty 17 7 0 10 -262144
-1 -1;
#X text 95 389 bang;
#X text 72 476 1) float;
#X text 197 121 get the arguments of the patch.;
#X obj 175 168 print;
#X text 95 425 list;
#X obj 481 5 ofGetCanvasArgs;
#X obj 175 146 ofGetCanvasArgs;
#X text 211 476 - the 'n'th level. (default: 0);
#X obj 462 46 declare -lib ofelia;
#X obj 175 204 bng 15 250 50 0 empty empty empty 17 7 0 10 -262144
-1 -1;
#X obj 175 251 print;
#X obj 175 229 ofGetCanvasArgs 1;
#X text 197 204 get the arguments of the parent patch. (if it exists)
;
#X text 219 169 it will output bang if no argument is found in the
patch.;
#X text 11 23 get the arguments of the canvas;
#X text 21 43 [ofGetCanvasArgs] is used to get the arguments of the
current or the parent canvas. for example \, if you use [ofGetCanvasArgs]
in an abstraction \, you can get the abstraction's arguments as a list.
;
#X text 211 389 - gets the arguments of the canvas.;
#X text 211 425 - the arguments of the canvas in a specified level.
;
#N canvas 322 142 450 300 myCanvas 0;
#X obj 172 112 inlet;
#X obj 172 133 ofGetCanvasArgs;
#X obj 172 154 outlet;
#X connect 0 0 1 0;
#X connect 1 0 2 0;
#X restore 175 312 pd myCanvas 1 2 3;
#X obj 175 287 bng 15 250 50 0 empty empty empty 17 7 0 10 -262144
-1 -1;
#X obj 175 334 print;
#X text 198 286 get the arguments of the subpatch. (including the name)
;
#X connect 7 0 14 0;
#X connect 14 0 11 0;
#X connect 17 0 19 0;
#X connect 19 0 18 0;
#X connect 26 0 28 0;
#X connect 27 0 26 0;
