#N canvas 321 23 601 564 10;
#X obj 0 0 cnv 15 580 40 empty empty ofGetImageColorAt 3 12 0 18 -204280
-1 0;
#X obj 0 341 cnv 3 580 3 empty empty inlets 8 12 0 13 -228856 -1 0
;
#X obj 0 420 cnv 3 580 3 empty empty outlets 8 12 0 13 -228856 -1 0
;
#X obj 75 349 cnv 17 3 60 empty empty 0 5 9 0 16 -228856 -162280 0
;
#X obj 75 428 cnv 17 3 17 empty empty 0 5 9 0 16 -228856 -162280 0
;
#X obj 0 505 cnv 15 580 21 empty empty empty 20 12 0 14 -228856 -66577
0;
#X obj 0 456 cnv 3 580 3 empty empty arguments 8 12 0 13 -228856 -1
0;
#X text 72 479 1) symbol;
#X text 95 389 name <s>;
#N canvas 321 113 507 253 about_vector 0;
#X text 26 23 in ofelia \, a vector data structure is commonly used
for handling various data types such as float \, symbol and list. vectors
are much like arrays that can dynamically be changed in size.;
#X text 26 163 each "loader" object should have a unique variable name
so its data can be properly accessed by "getter" objects that use the
name.;
#X text 26 93 in general \, objects that use vector are divided into
two types \, "loader" objects that can store an array of data and "getter"
objects that can read the stored data from "loader" objects.;
#X restore 486 46 pd about_vector;
#X obj 469 5 ofGetImageColorAt;
#X obj 30 248 unpack f f f f;
#X floatatom 30 270 5 0 0 0 - - -, f 5;
#X floatatom 70 270 5 0 0 0 - - -, f 5;
#X floatatom 110 270 5 0 0 0 - - -, f 5;
#X floatatom 150 270 5 0 0 0 - - -, f 5;
#X text 104 190 get the color of a pixel at the specified x \, y index.
;
#X obj 30 190 ofPack 0 0;
#X floatatom 30 169 5 0 0 0 - - -, f 5;
#X floatatom 87 169 5 0 0 0 - - -, f 5;
#X text 11 23 get the color of a pixel at the specified x \, y index
;
#X text 231 428 - the color of a pixel at the specified x \, y index.
;
#X text 95 369 list <f \, f>;
#X text 95 428 list <f \, f \, f \, f>;
#X obj 23 319 ofWindow 320 240 LEFT TOP;
#X text 231 369 - gets the color of a pixel at the specified x \, y
index.;
#X text 231 389 - sets the variable name followed by the index.;
#X text 231 479 - sets the variable name followed by the index.;
#X obj 30 216 ofGetImageColorAt @myImages[0];
#X text 95 349 float;
#X text 231 349 - sets the index of the array element.;
#X obj 26 70 ofLoadImage \; @myImages \; examples/data/background.jpg
\; examples/data/texture.jpg \;;
#X connect 11 0 12 0;
#X connect 11 1 13 0;
#X connect 11 2 14 0;
#X connect 11 3 15 0;
#X connect 17 0 28 0;
#X connect 18 0 17 0;
#X connect 19 0 17 1;
#X connect 28 0 11 0;
