#N canvas 321 23 601 538 10;
#X obj 0 0 cnv 15 580 40 empty empty ofGetPath2dCentroid 3 12 0 18
-204280 -1 0;
#X obj 0 341 cnv 3 580 3 empty empty inlets 8 12 0 13 -228856 -1 0
;
#X obj 0 400 cnv 3 580 3 empty empty outlets 8 12 0 13 -228856 -1 0
;
#X obj 75 349 cnv 17 3 40 empty empty 0 5 9 0 16 -228856 -162280 0
;
#X obj 75 408 cnv 17 3 17 empty empty 0 5 9 0 16 -228856 -162280 0
;
#X obj 0 485 cnv 15 580 21 empty empty empty 20 12 0 14 -228856 -66577
0;
#X obj 0 436 cnv 3 580 3 empty empty arguments 8 12 0 13 -228856 -1
0;
#X text 72 459 1) symbol;
#N canvas 322 114 507 253 about_vector 0;
#X text 26 23 in ofelia \, a vector data structure is commonly used
for handling various data types such as float \, symbol and list. vectors
are much like arrays that can dynamically be changed in size.;
#X text 26 163 each "loader" object should have a unique variable name
so its data can be properly accessed by "getter" objects that use the
name.;
#X text 26 93 in general \, objects that use vector are divided into
two types \, "loader" objects that can store an array of data and "getter"
objects that can read the stored data from "loader" objects.;
#X restore 486 46 pd about_vector;
#X text 95 349 bang;
#X text 95 369 name <s>;
#X obj 23 319 ofWindow 320 240 LEFT TOP;
#X obj 23 212 bng 15 250 50 0 empty empty empty 17 7 0 10 -262144 -1
-1;
#X obj 23 263 unpack f f;
#X floatatom 23 286 5 0 0 0 - - -, f 5;
#X floatatom 80 286 5 0 0 0 - - -, f 5;
#X msg 23 67 load square 100;
#X msg 23 87 load rectangle 80 50;
#X msg 23 107 load eqTriangle 100;
#X text 95 408 list <f \, f>;
#X text 241 369 - sets the variable name.;
#X text 241 459 - sets the variable name.;
#X obj 23 140 ofLoadPath2d \; @myPath2d \; circle 50 \;;
#X obj 457 5 ofGetPath2dCentroid;
#X text 46 212 get the center position of the path2d area.;
#X text 11 23 get the center position of the path2d area;
#X obj 23 236 ofGetPath2dCentroid @myPath2d;
#X text 241 349 - gets the center position of the path2d area.;
#X text 241 408 - the center position of the path2d area.;
#X connect 12 0 26 0;
#X connect 13 0 14 0;
#X connect 13 1 15 0;
#X connect 16 0 22 0;
#X connect 17 0 22 0;
#X connect 18 0 22 0;
#X connect 26 0 13 0;
