#N canvas 321 23 601 538 10;
#X declare -lib ofelia;
#X obj 0 0 cnv 15 580 40 empty empty ofGetPolyline3dArea 3 12 0 18
-204280 -1 0;
#X obj 0 341 cnv 3 580 3 empty empty inlets 8 12 0 13 -228856 -1 0
;
#X obj 0 400 cnv 3 580 3 empty empty outlets 8 12 0 13 -228856 -1 0
;
#X obj 75 349 cnv 17 3 40 empty empty 0 5 9 0 16 -228856 -162280 0
;
#X obj 75 408 cnv 17 3 17 empty empty 0 5 9 0 16 -228856 -162280 0
;
#X obj 0 485 cnv 15 580 21 empty empty empty 20 12 0 14 -228856 -66577
0;
#X obj 0 436 cnv 3 580 3 empty empty arguments 8 12 0 13 -228856 -1
0;
#X text 72 459 1) symbol;
#N canvas 321 114 507 253 about_vector 0;
#X text 26 23 in ofelia \, a vector data structure is commonly used
for handling various data types such as float \, symbol and list. vectors
are much like arrays that can dynamically be changed in size.;
#X text 26 163 each "loader" object should have a unique variable name
so its data can be properly accessed by "getter" objects that use the
name.;
#X text 26 93 in general \, objects that use vector are divided into
two types \, "loader" objects that can store an array of data and "getter"
objects that can read the stored data from "loader" objects.;
#X restore 486 66 pd about_vector;
#X text 95 349 bang;
#X text 95 369 name <s>;
#X obj 23 319 ofWindow 320 240 LEFT TOP;
#X obj 23 212 bng 15 250 50 0 empty empty empty 17 7 0 10 -262144 -1
-1;
#X msg 23 67 load square 100;
#X msg 23 87 load rectangle 80 50;
#X msg 23 107 load eqTriangle 100 moveTo 0 0 50 eqTriangle 100;
#X text 241 369 - sets the variable name.;
#X text 241 459 - sets the variable name.;
#X obj 23 140 ofLoadPolyline3d \; @myPolyline3d \; circle 50 \;;
#X obj 457 5 ofGetPolyline3dArea;
#X text 11 23 get the precise area of the polyline3d;
#X text 46 211 get the precise area of the polyline3d.;
#X text 241 349 - gets the precise area of the polyline3d.;
#X text 241 408 - the precise area of the polyline3d.;
#X text 95 408 float;
#X floatatom 23 263 8 0 0 0 - - -, f 8;
#X obj 23 236 ofGetPolyline3dArea @myPolyline3d;
#X text 88 263 note: it will output negative values if the area is
made in counter-clockwise order.;
#X obj 462 46 declare -lib ofelia;
#X connect 12 0 26 0;
#X connect 13 0 18 0;
#X connect 14 0 18 0;
#X connect 15 0 18 0;
#X connect 26 0 25 0;
