#N canvas 321 23 598 540 10;
#X declare -lib ofelia;
#X obj 0 0 cnv 15 580 40 empty empty ofGetDirectoryFilePaths 3 12 0
18 -204280 -1 0;
#X obj 0 341 cnv 3 580 3 empty empty inlets 8 12 0 13 -228856 -1 0
;
#X obj 0 400 cnv 3 580 3 empty empty outlets 8 12 0 13 -228856 -1 0
;
#X obj 75 349 cnv 17 3 40 empty empty 0 5 9 0 16 -228856 -162280 0
;
#X obj 75 408 cnv 17 3 17 empty empty 0 5 9 0 16 -228856 -162280 0
;
#X obj 0 485 cnv 15 580 21 empty empty empty 20 12 0 14 -228856 -66577
0;
#X obj 0 436 cnv 3 580 3 empty empty arguments 8 12 0 13 -228856 -1
0;
#X text 451 5 or;
#X obj 155 159 ofGetPatchDirectory;
#X symbolatom 155 182 50 0 0 0 - - -, f 50;
#X obj 155 134 bng 15 250 50 0 empty empty empty 17 7 0 10 -262144
-1 -1;
#X text 95 349 symbol;
#X obj 155 239 print;
#X text 95 408 list;
#X text 95 369 allowedExts <l>;
#X text 211 369 - sets the allowed file extensions.;
#X text 354 213 allow "ttf" and "jpg" files.;
#X obj 306 5 ofGetDirectoryFilePaths;
#X obj 469 5 ofGetDirFilePaths;
#X text 11 23 get the list of file paths in a directory;
#X text 176 134 get the list of file paths in a directory.;
#X text 211 349 - an absolute path of directory to get the file paths.
;
#X text 72 459 n) symbol;
#X text 211 459 - sets the allowed file extensions.;
#X obj 155 212 ofGetDirectoryFilePaths ttf jpg;
#X text 211 408 - the list of file paths in a directory.;
#X obj 462 46 declare -lib ofelia;
#X connect 8 0 9 0;
#X connect 9 0 24 0;
#X connect 10 0 8 0;
#X connect 24 0 12 0;
