#N canvas 321 23 601 561 10;
#X obj 0 0 cnv 15 580 40 empty empty ofGetMesh3dVertices 3 12 0 18
-204280 -1 0;
#X obj 0 361 cnv 3 580 3 empty empty inlets 8 12 0 13 -228856 -1 0
;
#X obj 0 420 cnv 3 580 3 empty empty outlets 8 12 0 13 -228856 -1 0
;
#X obj 75 369 cnv 17 3 40 empty empty 0 5 9 0 16 -228856 -162280 0
;
#X obj 75 428 cnv 17 3 17 empty empty 0 5 9 0 16 -228856 -162280 0
;
#X obj 0 505 cnv 15 580 21 empty empty empty 20 12 0 14 -228856 -66577
0;
#X obj 0 456 cnv 3 580 3 empty empty arguments 8 12 0 13 -228856 -1
0;
#X text 72 479 1) symbol;
#N canvas 322 114 507 253 about_vector 0;
#X text 26 23 in ofelia \, a vector data structure is commonly used
for handling various data types such as float \, symbol and list. vectors
are much like arrays that can dynamically be changed in size.;
#X text 26 163 each "loader" object should have a unique variable name
so its data can be properly accessed by "getter" objects that use the
name.;
#X text 26 93 in general \, objects that use vector are divided into
two types \, "loader" objects that can store an array of data and "getter"
objects that can read the stored data from "loader" objects.;
#X restore 486 46 pd about_vector;
#X obj 23 252 bng 15 250 50 0 empty empty empty 17 7 0 10 -262144 -1
-1;
#X text 95 369 bang;
#X text 95 428 list;
#X text 95 389 name <s>;
#X obj 23 303 print;
#X obj 457 5 ofGetMesh3dVertices;
#X obj 23 339 ofWindow 320 240 LEFT TOP;
#X text 241 389 - sets the variable name.;
#X text 241 479 - sets the variable name.;
#X obj 23 276 ofGetMesh3dVertices @myMesh3d;
#X text 11 23 get all mesh3d vertices as a list;
#X text 46 252 get all mesh3d vertices as a list.;
#X text 241 369 - gets all mesh3d vertices as a list.;
#X text 241 428 - all mesh3d vertices as a list.;
#X floatatom 23 135 5 0 0 0 - - -, f 5;
#X floatatom 55 155 5 0 0 0 - - -, f 5;
#X floatatom 87 175 5 0 0 0 - - -, f 5;
#X floatatom 119 195 5 0 0 0 - - -, f 5;
#X floatatom 152 215 5 0 0 0 - - -, f 5;
#X text 61 134 the number of stored vertices.;
#X text 95 154 the number of stored indices.;
#X text 126 174 the number of stored normals.;
#X text 156 194 the number of stored texture coordinates.;
#X text 189 214 the number of stored colors.;
#X msg 23 65 print;
#X text 70 65 print the current settings and stored array elements.
;
#X obj 23 89 ofLoadMesh3d \; @myMesh3d \; box 100 100 100 1 1 1 \;
;
#X connect 9 0 18 0;
#X connect 18 0 13 0;
#X connect 33 0 35 0;
#X connect 35 0 23 0;
#X connect 35 1 24 0;
#X connect 35 2 25 0;
#X connect 35 3 26 0;
#X connect 35 4 27 0;
