#N canvas 321 23 601 692 10;
#X obj 0 0 cnv 15 580 40 empty empty ofGetPath2dTessellation 3 12 0
18 -204280 -1 0;
#X obj 0 491 cnv 3 580 3 empty empty inlets 8 12 0 13 -228856 -1 0
;
#X obj 0 550 cnv 3 580 3 empty empty outlets 8 12 0 13 -228856 -1 0
;
#X obj 75 499 cnv 17 3 40 empty empty 0 5 9 0 16 -228856 -162280 0
;
#X obj 75 558 cnv 17 3 17 empty empty 0 5 9 0 16 -228856 -162280 0
;
#X obj 0 635 cnv 15 580 21 empty empty empty 20 12 0 14 -228856 -66577
0;
#X obj 0 586 cnv 3 580 3 empty empty arguments 8 12 0 13 -228856 -1
0;
#X text 72 609 1) symbol;
#N canvas 321 114 507 253 about_vector 0;
#X text 26 23 in ofelia \, a vector data structure is commonly used
for handling various data types such as float \, symbol and list. vectors
are much like arrays that can dynamically be changed in size.;
#X text 26 163 each "loader" object should have a unique variable name
so its data can be properly accessed by "getter" objects that use the
name.;
#X text 26 93 in general \, objects that use vector are divided into
two types \, "loader" objects that can store an array of data and "getter"
objects that can read the stored data from "loader" objects.;
#X restore 486 46 pd about_vector;
#X obj 26 182 bng 15 250 50 0 empty empty empty 17 7 0 10 -262144 -1
-1;
#X text 95 499 bang;
#X text 95 558 list;
#X text 95 519 name <s>;
#X text 463 5 or;
#X obj 318 5 ofGetPath2dTessellation;
#X obj 481 5 ofGetPath2dTess;
#X obj 26 233 ofPrepend load;
#X floatatom 26 282 5 0 0 0 - - -, f 5;
#X floatatom 67 282 5 0 0 0 - - -, f 5;
#X floatatom 108 282 5 0 0 0 - - -, f 5;
#X floatatom 149 282 5 0 0 0 - - -, f 5;
#X floatatom 191 282 5 0 0 0 - - -, f 5;
#X obj 23 469 ofWindow 320 240 LEFT TOP;
#X obj 23 404 ofTranslate 160 120;
#X obj 56 320 loadbang;
#X obj 56 341 ofGetLastRenderOrder;
#X obj 23 362 ofHead;
#X obj 23 383 ofClear 63;
#X text 241 558 - the tessellation data.;
#X text 241 519 - sets the variable name.;
#X text 241 609 - sets the variable name.;
#X obj 26 206 ofGetPath2dTessellation @myPath2d;
#X obj 26 260 ofLoadMesh2d @myMesh2d;
#X obj 23 425 ofDrawMesh2d @myMesh2d;
#X text 135 233 use the tessellation data to load mesh2d.;
#X text 168 425 draw the stored mesh2d.;
#X obj 26 70 ofLoadPath2d \; @myPath2d \; circle 50 \; moveTo 25 0
\; lineTo -13 22 \; lineTo -13 -22 \; close \;;
#X text 11 23 get the tessellation data to convert path2d to mesh2d
;
#X text 241 499 - gets the tessellation data to convert path2d to mesh2d.
;
#X text 49 182 get the tessellation data.;
#X connect 9 0 31 0;
#X connect 16 0 32 0;
#X connect 23 0 33 0;
#X connect 24 0 25 0;
#X connect 25 0 26 1;
#X connect 26 0 27 0;
#X connect 27 0 23 0;
#X connect 31 0 16 0;
#X connect 32 0 17 0;
#X connect 32 1 18 0;
#X connect 32 2 19 0;
#X connect 32 3 20 0;
#X connect 32 4 21 0;
