#N canvas 321 23 599 497 10;
#X obj 0 0 cnv 15 580 40 empty empty ofGetOrien 3 12 0 18 -204280 -1
0;
#X obj 0 341 cnv 3 580 3 empty empty inlets 8 12 0 13 -228856 -1 0
;
#X obj 0 375 cnv 3 580 3 empty empty outlets 8 12 0 13 -228856 -1 0
;
#X obj 75 349 cnv 17 3 17 empty empty 0 5 9 0 16 -228856 -162280 0
;
#X obj 75 383 cnv 17 3 17 empty empty 0 5 9 0 16 -228856 -162280 0
;
#X obj 0 460 cnv 15 580 21 empty empty empty 20 12 0 14 -228856 -66577
0;
#X obj 0 411 cnv 3 580 3 empty empty arguments 8 12 0 13 -228856 -1
0;
#X obj 255 109 bng 15 250 50 0 empty empty empty 17 7 0 10 -262144
-1 -1;
#X text 95 349 bang;
#X text 72 434 (none);
#X floatatom 255 152 5 0 0 0 - - -, f 5;
#X text 95 383 float;
#N canvas 321 115 526 334 more_examples 0;
#X floatatom 60 241 5 0 0 0 - - -, f 5;
#X obj 180 114 bng 15 250 50 0 empty empty empty 17 7 0 10 -262144
-1 -1;
#X floatatom 180 241 5 0 0 0 - - -, f 5;
#X floatatom 350 241 5 0 0 0 - - -, f 5;
#X text 54 31 you can also get the value using the global variable
name "ofGetOrien".;
#X obj 60 219 ofGetOrien;
#X obj 180 219 ofValue ofGetOrien;
#X obj 350 219 ofExpr ofGetOrien;
#X connect 1 0 5 0;
#X connect 1 0 6 0;
#X connect 1 0 7 0;
#X connect 5 0 0 0;
#X connect 6 0 2 0;
#X connect 7 0 3 0;
#X restore 480 46 pd more_examples;
#X obj 281 262 symbol;
#X symbolatom 281 284 10 0 0 0 - - -, f 10;
#X text 11 23 get the orientation of the current window;
#X text 211 383 - the orientation of the the current window.;
#X obj 255 171 sel 0 1 2 3;
#X msg 199 220 DEFAULT;
#X msg 260 220 RIGHT;
#X msg 309 220 INVERT;
#X msg 364 220 LEFT;
#X obj 511 5 ofGetOrien;
#X obj 255 130 ofGetOrien;
#X obj 23 318 ofWindow 320 240 LEFT TOP;
#X text 211 349 - gets the orientation of the current window.;
#X connect 7 0 23 0;
#X connect 10 0 17 0;
#X connect 13 0 14 0;
#X connect 17 0 18 0;
#X connect 17 1 19 0;
#X connect 17 2 20 0;
#X connect 17 3 21 0;
#X connect 18 0 13 0;
#X connect 19 0 13 0;
#X connect 20 0 13 0;
#X connect 21 0 13 0;
#X connect 23 0 10 0;
