#N canvas 321 23 599 497 10;
#X declare -lib ofelia;
#X obj 0 0 cnv 15 580 40 empty empty ofGetTime 3 12 0 18 -204280 -1
0;
#X obj 0 341 cnv 3 580 3 empty empty inlets 8 12 0 13 -228856 -1 0
;
#X obj 0 375 cnv 3 580 3 empty empty outlets 8 12 0 13 -228856 -1 0
;
#X obj 75 349 cnv 17 3 17 empty empty 0 5 9 0 16 -228856 -162280 0
;
#X obj 75 383 cnv 17 3 17 empty empty 0 5 9 0 16 -228856 -162280 0
;
#X obj 0 460 cnv 15 580 21 empty empty empty 20 12 0 14 -228856 -66577
0;
#X obj 0 411 cnv 3 580 3 empty empty arguments 8 12 0 13 -228856 -1
0;
#X obj 215 119 bng 15 250 50 0 empty empty empty 17 7 0 10 -262144
-1 -1;
#X text 95 349 bang;
#X text 72 434 (none);
#X obj 215 162 unpack f f f;
#X floatatom 148 228 5 0 0 0 - - -, f 5;
#X floatatom 249 228 5 0 0 0 - - -, f 5;
#X floatatom 353 228 5 0 0 0 - - -, f 5;
#X text 95 383 list;
#X text 11 23 get the time in seconds/minutes/hours;
#X text 185 228 seconds;
#X text 287 228 minutes;
#X text 395 228 hours;
#X text 211 383 - the time in seconds/minutes/hours.;
#X obj 517 5 ofGetTime;
#X obj 215 140 ofGetTime;
#X text 211 349 - gets the time in seconds/minutes/hours.;
#X obj 462 46 declare -lib ofelia;
#X connect 7 0 21 0;
#X connect 10 0 11 0;
#X connect 10 1 12 0;
#X connect 10 2 13 0;
#X connect 21 0 10 0;
