#N canvas 321 23 599 515 10;
#X declare -lib ofelia;
#X obj 0 0 cnv 15 580 40 empty empty ofGetElapsedTime 3 12 0 18 -204280
-1 0;
#X obj 0 341 cnv 3 580 3 empty empty inlets 8 12 0 13 -228856 -1 0
;
#X obj 0 375 cnv 3 580 3 empty empty outlets 8 12 0 13 -228856 -1 0
;
#X obj 75 349 cnv 17 3 17 empty empty 0 5 9 0 16 -228856 -162280 0
;
#X obj 75 383 cnv 17 3 17 empty empty 0 5 9 0 16 -228856 -162280 0
;
#X obj 0 460 cnv 15 580 21 empty empty empty 20 12 0 14 -228856 -66577
0;
#X obj 0 411 cnv 3 580 3 empty empty arguments 8 12 0 13 -228856 -1
0;
#X obj 172 133 bng 15 250 50 0 empty empty empty 17 7 0 10 -262144
-1 -1;
#X text 95 349 bang;
#X text 72 434 (none);
#X floatatom 172 196 15 0 0 0 - - -, f 15;
#X text 95 383 float;
#N canvas 321 115 602 354 more_examples 0;
#X floatatom 40 241 15 0 0 0 - - -, f 15;
#X obj 190 114 bng 15 250 50 0 empty empty empty 17 7 0 10 -262144
-1 -1;
#X floatatom 190 241 15 0 0 0 - - -, f 15;
#X floatatom 397 241 15 0 0 0 - - -, f 15;
#X text 54 31 you can also get the value using the global variable
name "ofGetElapsedTime".;
#X obj 40 219 ofGetElapsedTime;
#X obj 190 219 ofValue ofGetElapsedTime;
#X obj 397 219 ofExpr ofGetElapsedTime;
#X connect 1 0 5 0;
#X connect 1 0 6 0;
#X connect 1 0 7 0;
#X connect 5 0 0 0;
#X connect 6 0 2 0;
#X connect 7 0 3 0;
#X restore 480 66 pd more_examples;
#X obj 475 5 ofGetElapsedTime;
#X obj 172 164 ofGetElapsedTime;
#X obj 23 318 ofWindow 320 240 LEFT TOP;
#X text 11 23 get the elapsed time in milliseconds;
#X text 211 349 - gets the elapsed time in milliseconds.;
#X text 211 383 - the elapsed time in milliseconds.;
#X text 170 222 note: [ofGetElapsedTime] updates its value on each
frame.;
#X obj 462 46 declare -lib ofelia;
#X connect 7 0 14 0;
#X connect 14 0 10 0;
