#N canvas 321 23 598 519 10;
#X declare -lib ofelia;
#X obj 0 0 cnv 15 580 40 empty empty ofGetDollarArgs 3 12 0 18 -204280
-1 0;
#X obj 0 341 cnv 3 580 3 empty empty inlets 8 12 0 13 -228856 -1 0
;
#X obj 0 377 cnv 3 580 3 empty empty outlets 8 12 0 13 -228856 -1 0
;
#X obj 75 349 cnv 17 3 17 empty empty 0 5 9 0 16 -228856 -162280 0
;
#X obj 75 385 cnv 17 3 17 empty empty 0 5 9 0 16 -228856 -162280 0
;
#X obj 0 462 cnv 15 580 21 empty empty empty 20 12 0 14 -228856 -66577
0;
#X obj 0 413 cnv 3 580 3 empty empty arguments 8 12 0 13 -228856 -1
0;
#X obj 175 141 bng 15 250 50 0 empty empty empty 17 7 0 10 -262144
-1 -1;
#X text 95 349 bang;
#X text 72 436 1) float;
#X text 197 141 get the arguments of the patch.;
#X obj 175 188 print;
#X text 95 385 list;
#X text 211 385 - the arguments of the patch in a specified level.
;
#X obj 481 5 ofGetDollarArgs;
#X text 21 43 [ofGetDollarArgs] is used to get the arguments of the
current or the parent patch. for example \, if you use [ofGetDollarArgs]
in an abstraction \, you can get the abstraction's arguments as a list.
;
#X obj 175 166 ofGetDollarArgs;
#X text 211 349 - gets the arguments of the patch.;
#X text 211 436 - the 'n'th level. (default: 0);
#X text 11 23 get the arguments of the patch;
#X obj 462 46 declare -lib ofelia;
#X obj 175 231 bng 15 250 50 0 empty empty empty 17 7 0 10 -262144
-1 -1;
#X obj 175 278 print;
#X obj 175 256 ofGetDollarArgs 1;
#X text 197 231 get the arguments of the parent patch. (if it exists)
;
#X text 219 189 it will output bang if no argument is found in the
patch.;
#X connect 7 0 16 0;
#X connect 16 0 11 0;
#X connect 21 0 23 0;
#X connect 23 0 22 0;
