#N canvas 321 23 599 516 10;
#X declare -lib ofelia;
#X obj 0 0 cnv 15 580 40 empty empty ofGetDimen 3 12 0 18 -204280 -1
0;
#X obj 0 341 cnv 3 580 3 empty empty inlets 8 12 0 13 -228856 -1 0
;
#X obj 0 375 cnv 3 580 3 empty empty outlets 8 12 0 13 -228856 -1 0
;
#X obj 75 349 cnv 17 3 17 empty empty 0 5 9 0 16 -228856 -162280 0
;
#X obj 75 383 cnv 17 3 17 empty empty 0 5 9 0 16 -228856 -162280 0
;
#X obj 0 460 cnv 15 580 21 empty empty empty 20 12 0 14 -228856 -66577
0;
#X obj 0 411 cnv 3 580 3 empty empty arguments 8 12 0 13 -228856 -1
0;
#X obj 265 129 bng 15 250 50 0 empty empty empty 17 7 0 10 -262144
-1 -1;
#X text 95 349 bang;
#X text 72 434 (none);
#N canvas 321 115 478 358 more_examples 0;
#X obj 180 114 bng 15 250 50 0 empty empty empty 17 7 0 10 -262144
-1 -1;
#X floatatom 260 267 5 0 0 0 - - -, f 5;
#X obj 60 243 unpack f f;
#X floatatom 60 267 5 0 0 0 - - -, f 5;
#X floatatom 127 267 5 0 0 0 - - -, f 5;
#X floatatom 341 267 5 0 0 0 - - -, f 5;
#X obj 60 219 ofGetDimen;
#X text 34 31 you can also get the value using the global variable
names "ofGetWidth" and "ofGetHeight".;
#X obj 260 219 ofExpr \; ofGetWidth \; ofGetHeight \;;
#X connect 0 0 6 0;
#X connect 0 0 8 0;
#X connect 2 0 3 0;
#X connect 2 1 4 0;
#X connect 6 0 2 0;
#X connect 8 0 1 0;
#X connect 8 1 5 0;
#X restore 480 66 pd more_examples;
#X text 11 23 get the dimensions of the current window;
#X text 95 383 list <f \, f>;
#X text 211 383 - the dimensions of the current window.;
#X obj 265 193 unpack f f;
#X floatatom 265 225 5 0 0 0 - - -, f 5;
#X floatatom 322 225 5 0 0 0 - - -, f 5;
#X obj 511 5 ofGetDimen;
#X obj 265 160 ofGetDimen;
#X obj 23 318 ofWindow 320 240 LEFT TOP;
#X text 211 349 - gets the dimensions of the current window.;
#X obj 462 46 declare -lib ofelia;
#X connect 7 0 18 0;
#X connect 14 0 15 0;
#X connect 14 1 16 0;
#X connect 18 0 14 0;
