#N canvas 321 23 599 516 10;
#X declare -lib ofelia;
#X obj 0 0 cnv 15 580 40 empty empty ofGetWindow 3 12 0 18 -204280
-1 0;
#X obj 0 341 cnv 3 580 3 empty empty inlets 8 12 0 13 -228856 -1 0
;
#X obj 0 375 cnv 3 580 3 empty empty outlets 8 12 0 13 -228856 -1 0
;
#X obj 75 349 cnv 17 3 17 empty empty 0 5 9 0 16 -228856 -162280 0
;
#X obj 75 383 cnv 17 3 17 empty empty 0 5 9 0 16 -228856 -162280 0
;
#X obj 0 460 cnv 15 580 21 empty empty empty 20 12 0 14 -228856 -66577
0;
#X obj 0 411 cnv 3 580 3 empty empty arguments 8 12 0 13 -228856 -1
0;
#X obj 255 158 bng 15 250 50 0 empty empty empty 17 7 0 10 -262144
-1 -1;
#X text 95 349 bang;
#X text 72 434 (none);
#X floatatom 255 221 5 0 0 0 - - -, f 5;
#X text 95 383 float;
#N canvas 322 116 542 348 more_examples 0;
#X floatatom 45 241 5 0 0 0 - - -, f 5;
#X obj 185 114 bng 15 250 50 0 empty empty empty 17 7 0 10 -262144
-1 -1;
#X floatatom 185 241 5 0 0 0 - - -, f 5;
#X floatatom 370 241 5 0 0 0 - - -, f 5;
#X text 54 31 you can also get the value using the global variable
name "ofGetWindow".;
#X obj 45 219 ofGetWindow;
#X obj 185 219 ofValue ofGetWindow;
#X obj 370 219 ofExpr ofGetWindow;
#X connect 1 0 5 0;
#X connect 1 0 6 0;
#X connect 1 0 7 0;
#X connect 5 0 0 0;
#X connect 6 0 2 0;
#X connect 7 0 3 0;
#X restore 480 66 pd more_examples;
#X text 11 23 check if a window exists;
#X obj 505 5 ofGetWindow;
#X obj 255 189 ofGetWindow;
#X obj 23 318 ofWindow 320 240 LEFT TOP;
#X text 299 221 0: not exist \, 1: exist.;
#X text 191 383 - the existence of the window. (0: not exist \, 1:
exist);
#X text 191 349 - checks if a window exists.;
#X obj 462 46 declare -lib ofelia;
#X connect 7 0 15 0;
#X connect 15 0 10 0;
