#N canvas 321 23 601 564 10;
#X obj 0 0 cnv 15 580 40 empty empty ofGetImageTexCoord 3 12 0 18 -204280
-1 0;
#X obj 0 341 cnv 3 580 3 empty empty inlets 8 12 0 13 -228856 -1 0
;
#X obj 0 420 cnv 3 580 3 empty empty outlets 8 12 0 13 -228856 -1 0
;
#X obj 75 349 cnv 17 3 60 empty empty 0 5 9 0 16 -228856 -162280 0
;
#X obj 75 428 cnv 17 3 17 empty empty 0 5 9 0 16 -228856 -162280 0
;
#X obj 0 505 cnv 15 580 21 empty empty empty 20 12 0 14 -228856 -66577
0;
#X obj 0 456 cnv 3 580 3 empty empty arguments 8 12 0 13 -228856 -1
0;
#X text 72 479 1) symbol;
#X text 95 389 name <s>;
#N canvas 322 115 507 253 about_vector 0;
#X text 26 23 in ofelia \, a vector data structure is commonly used
for handling various data types such as float \, symbol and list. vectors
are much like arrays that can dynamically be changed in size.;
#X text 26 163 each "loader" object should have a unique variable name
so its data can be properly accessed by "getter" objects that use the
name.;
#X text 26 93 in general \, objects that use vector are divided into
two types \, "loader" objects that can store an array of data and "getter"
objects that can read the stored data from "loader" objects.;
#X restore 486 46 pd about_vector;
#X obj 23 319 ofWindow 320 240 LEFT TOP;
#X obj 463 5 ofGetImageTexCoord;
#X text 11 23 get the texture coordinate of the image from 2d vertex
;
#X text 84 165 get the texture coordinate of the image from 2d vertex.
;
#X text 211 428 - the texture coordinate of the image.;
#X text 211 369 - gets the texture coordinate of the image from 2d
vertex.;
#X text 211 389 - sets the variable name followed by the index.;
#X text 211 479 - sets the variable name followed by the index.;
#X obj 26 230 ofGetImageTexCoord @myImages[0];
#X text 95 349 float;
#X text 211 349 - sets the index of the array element.;
#X msg 26 166 400 300;
#X msg 46 193 800 600;
#X text 95 369 list <f \, f>;
#X text 95 428 list <f \, f>;
#X obj 26 252 unpack f f;
#X floatatom 26 274 5 0 0 0 - - -, f 5;
#X floatatom 83 274 5 0 0 0 - - -, f 5;
#X obj 26 70 ofLoadImage \; @myImages \; examples/data/background.jpg
\; examples/data/texture.jpg \;;
#X connect 18 0 25 0;
#X connect 21 0 18 0;
#X connect 22 0 18 0;
#X connect 25 0 26 0;
#X connect 25 1 27 0;
