#N canvas 321 23 601 601 10;
#X declare -lib ofelia;
#X obj 0 0 cnv 15 580 40 empty empty ofGetMesh3dNormal 3 12 0 18 -204280
-1 0;
#X obj 0 381 cnv 3 580 3 empty empty inlets 8 12 0 13 -228856 -1 0
;
#X obj 0 460 cnv 3 580 3 empty empty outlets 8 12 0 13 -228856 -1 0
;
#X obj 75 389 cnv 17 3 60 empty empty 0 5 9 0 16 -228856 -162280 0
;
#X obj 75 468 cnv 17 3 17 empty empty 0 5 9 0 16 -228856 -162280 0
;
#X obj 0 545 cnv 15 580 21 empty empty empty 20 12 0 14 -228856 -66577
0;
#X obj 0 496 cnv 3 580 3 empty empty arguments 8 12 0 13 -228856 -1
0;
#X text 72 519 1) symbol;
#N canvas 321 114 507 253 about_vector 0;
#X text 26 23 in ofelia \, a vector data structure is commonly used
for handling various data types such as float \, symbol and list. vectors
are much like arrays that can dynamically be changed in size.;
#X text 26 163 each "loader" object should have a unique variable name
so its data can be properly accessed by "getter" objects that use the
name.;
#X text 26 93 in general \, objects that use vector are divided into
two types \, "loader" objects that can store an array of data and "getter"
objects that can read the stored data from "loader" objects.;
#X restore 486 66 pd about_vector;
#X text 95 389 bang;
#X text 95 429 name <s>;
#X obj 23 251 bng 15 250 50 0 empty empty empty 17 7 0 10 -262144 -1
-1;
#X obj 469 5 ofGetMesh3dNormal;
#X obj 23 359 ofWindow 320 240 LEFT TOP;
#X text 241 429 - sets the variable name followed by the index.;
#X text 241 519 - sets the variable name followed by the index.;
#X obj 23 275 ofGetMesh3dNormal @myMesh3d[1];
#X text 95 409 float;
#X text 241 409 - sets the index of the array element.;
#X obj 23 297 unpack f f f;
#X floatatom 23 319 5 0 0 0 - - -, f 5;
#X floatatom 57 319 5 0 0 0 - - -, f 5;
#X floatatom 92 319 5 0 0 0 - - -, f 5;
#X text 95 468 list <f \, f \, f>;
#X text 11 23 get the mesh3d normal at the given index;
#X text 46 251 get the mesh3d normal at the index "1". (starting from
"0");
#X text 241 389 - gets the mesh3d normal at the given index.;
#X text 241 468 - the mesh3d normal at the given index.;
#X floatatom 23 135 5 0 0 0 - - -, f 5;
#X floatatom 55 155 5 0 0 0 - - -, f 5;
#X floatatom 87 175 5 0 0 0 - - -, f 5;
#X floatatom 119 195 5 0 0 0 - - -, f 5;
#X floatatom 152 215 5 0 0 0 - - -, f 5;
#X text 61 134 the number of stored vertices.;
#X text 95 154 the number of stored indices.;
#X text 126 174 the number of stored normals.;
#X text 156 194 the number of stored texture coordinates.;
#X text 189 214 the number of stored colors.;
#X msg 23 65 print;
#X text 70 65 print the current settings and stored array elements.
;
#X obj 23 89 ofLoadMesh3d \; @myMesh3d \; box 100 100 100 1 1 1 \;
;
#X obj 462 46 declare -lib ofelia;
#X connect 11 0 16 0;
#X connect 16 0 19 0;
#X connect 19 0 20 0;
#X connect 19 1 21 0;
#X connect 19 2 22 0;
#X connect 38 0 40 0;
#X connect 40 0 28 0;
#X connect 40 1 29 0;
#X connect 40 2 30 0;
#X connect 40 3 31 0;
#X connect 40 4 32 0;
