#N canvas 321 23 599 516 10;
#X declare -lib ofelia;
#X obj 0 0 cnv 15 580 40 empty empty ofGetFrameNum 3 12 0 18 -204280
-1 0;
#X obj 0 341 cnv 3 580 3 empty empty inlets 8 12 0 13 -228856 -1 0
;
#X obj 0 377 cnv 3 580 3 empty empty outlets 8 12 0 13 -228856 -1 0
;
#X obj 75 349 cnv 17 3 17 empty empty 0 5 9 0 16 -228856 -162280 0
;
#X obj 75 385 cnv 17 3 17 empty empty 0 5 9 0 16 -228856 -162280 0
;
#X obj 0 462 cnv 15 580 21 empty empty empty 20 12 0 14 -228856 -66577
0;
#X obj 0 413 cnv 3 580 3 empty empty arguments 8 12 0 13 -228856 -1
0;
#X obj 265 149 bng 15 250 50 0 empty empty empty 17 7 0 10 -262144
-1 -1;
#X text 95 349 bang;
#X text 72 436 (none);
#X floatatom 265 212 7 0 0 0 - - -, f 7;
#X text 95 385 float;
#N canvas 321 114 577 354 more_examples 0;
#X floatatom 40 241 7 0 0 0 - - -, f 7;
#X obj 190 114 bng 15 250 50 0 empty empty empty 17 7 0 10 -262144
-1 -1;
#X floatatom 190 241 7 0 0 0 - - -, f 7;
#X floatatom 387 241 7 0 0 0 - - -, f 7;
#X text 54 31 you can also get the value using the global variable
name "ofGetFrameNum".;
#X obj 40 219 ofGetFrameNum;
#X obj 190 219 ofValue ofGetFrameNum;
#X obj 387 219 ofExpr ofGetFrameNum;
#X connect 1 0 5 0;
#X connect 1 0 6 0;
#X connect 1 0 7 0;
#X connect 5 0 0 0;
#X connect 6 0 2 0;
#X connect 7 0 3 0;
#X restore 480 66 pd more_examples;
#X obj 23 318 ofWindow 320 240 LEFT TOP;
#X obj 493 5 ofGetFrameNum;
#X obj 265 180 ofGetFrameNum;
#X text 11 23 get the number of frames rendered;
#X text 171 349 - gets the number of frames rendered.;
#X text 171 385 - the number of frames rendered.;
#X obj 462 46 declare -lib ofelia;
#X connect 7 0 15 0;
#X connect 15 0 10 0;
