#N canvas 321 23 600 818 10;
#X declare -lib ofelia;
#X obj 0 0 cnv 15 580 40 empty empty ofGrid 3 12 0 18 -204280 -1 0
;
#X obj 183 77 loadbang;
#X obj 0 451 cnv 3 580 3 empty empty inlets 8 12 0 13 -228856 -1 0
;
#X obj 0 596 cnv 3 580 3 empty empty outlets 8 12 0 13 -228856 -1 0
;
#X obj 75 459 cnv 17 3 80 empty empty 0 5 9 0 16 -228856 -162280 0
;
#X obj 75 604 cnv 17 3 17 empty empty 0 5 9 0 16 -228856 -162280 0
;
#X obj 0 761 cnv 15 580 21 empty empty empty 20 12 0 14 -228856 -66577
0;
#X obj 0 632 cnv 3 580 3 empty empty arguments 8 12 0 13 -228856 -1
0;
#X obj 75 545 cnv 17 3 17 empty empty 1 5 9 0 16 -228856 -162280 0
;
#X text 95 459 render bang;
#X text 211 459 - the incoming render bang.;
#X text 211 604 - the outgoing render bang.;
#X text 95 604 render bang;
#X obj 75 568 cnv 17 3 17 empty empty 2 5 9 0 16 -228856 -162280 0
;
#X text 11 23 draw grid planes;
#X obj 150 162 t b b;
#X floatatom 211 365 5 0 0 0 - - -, f 5;
#X floatatom 273 365 5 0 0 0 - - -, f 5;
#X text 348 328 set visibility of x \, y \, z grid planes.;
#X floatatom 189 263 5 0 0 0 - - -, f 5;
#X floatatom 228 263 5 0 0 0 - - -, f 5;
#X floatatom 267 263 5 0 0 0 - - -, f 5;
#X msg 165 328 visX \$1;
#X obj 165 309 tgl 15 0 empty empty empty 17 7 0 10 -262144 -1 -1 0
1;
#X obj 228 309 tgl 15 0 empty empty empty 17 7 0 10 -262144 -1 -1 0
1;
#X obj 291 309 tgl 15 0 empty empty empty 17 7 0 10 -262144 -1 -1 0
1;
#X msg 228 328 visY \$1;
#X msg 291 328 visZ \$1;
#X text 95 479 visX <f/s>;
#X text 95 545 float;
#X text 211 545 - sets the step size.;
#X text 95 568 float;
#X text 312 364 change the step size \, the number of steps.;
#X text 72 655 1) float;
#X text 72 675 2) float;
#X text 72 695 3) float/symbol;
#X text 72 715 4) float/symbol;
#X text 72 735 5) float/symbol;
#X text 95 499 visY <f/s>;
#X text 95 519 visZ <f/s>;
#X text 211 568 - sets the number of steps. (range: 0~);
#X obj 535 5 ofGrid;
#X obj 183 98 ofGetLastRenderOrder;
#X obj 150 119 ofHead;
#X obj 150 140 ofClear 63;
#X obj 150 238 ofTranslate;
#X obj 150 283 ofTranslate -50 50 0;
#X obj 150 385 ofGrid 50 16 ON ON ON;
#X obj 23 428 ofWindow 320 240 LEFT TOP;
#X text 211 479 - sets the visibility of x grid plane. (0: OFF \, 1:
ON);
#X text 211 499 - sets the visibility of y grid plane. (0: OFF \, 1:
ON);
#X text 211 519 - sets the visibility of z grid plane. (0: OFF \, 1:
ON);
#X text 211 655 - sets the initial step size. (default: 50);
#X text 211 675 - sets the initial number of steps. (default: 16);
#X text 211 695 - sets the visibility of x grid plane. (default: ON)
;
#X text 211 715 - sets the visibility of y grid plane. (default: ON)
;
#X text 211 735 - sets the visibility of z grid plane. (default: ON)
;
#X obj 177 184 ofExpr \; ofGetWidth / 2 \; ofGetHeight / 2 \;;
#X obj 462 46 declare -lib ofelia;
#X connect 1 0 42 0;
#X connect 15 0 45 0;
#X connect 15 1 57 0;
#X connect 16 0 47 1;
#X connect 17 0 47 2;
#X connect 19 0 46 1;
#X connect 20 0 46 2;
#X connect 21 0 46 3;
#X connect 22 0 47 0;
#X connect 23 0 22 0;
#X connect 24 0 26 0;
#X connect 25 0 27 0;
#X connect 26 0 47 0;
#X connect 27 0 47 0;
#X connect 42 0 43 1;
#X connect 43 0 44 0;
#X connect 44 0 15 0;
#X connect 45 0 46 0;
#X connect 46 0 47 0;
#X connect 57 0 45 1;
#X connect 57 1 45 2;
