#N canvas 321 23 601 696 10;
#X declare -lib ofelia;
#X obj 0 0 cnv 15 580 40 empty empty ofGridPlane 3 12 0 18 -204280
-1 0;
#X obj 213 77 loadbang;
#X obj 0 451 cnv 3 580 3 empty empty inlets 8 12 0 13 -228856 -1 0
;
#X obj 0 533 cnv 3 580 3 empty empty outlets 8 12 0 13 -228856 -1 0
;
#X obj 75 459 cnv 17 3 17 empty empty 0 5 9 0 16 -228856 -162280 0
;
#X obj 75 541 cnv 17 3 17 empty empty 0 5 9 0 16 -228856 -162280 0
;
#X obj 0 638 cnv 15 580 21 empty empty empty 20 12 0 14 -228856 -66577
0;
#X obj 0 569 cnv 3 580 3 empty empty arguments 8 12 0 13 -228856 -1
0;
#X obj 75 482 cnv 17 3 17 empty empty 1 5 9 0 16 -228856 -162280 0
;
#X text 95 459 render bang;
#X text 211 459 - the incoming render bang.;
#X text 211 541 - the outgoing render bang.;
#X text 95 541 render bang;
#X obj 75 505 cnv 17 3 17 empty empty 2 5 9 0 16 -228856 -162280 0
;
#X obj 180 162 t b b;
#X floatatom 229 366 5 0 0 0 - - -, f 5;
#X floatatom 279 366 5 0 0 0 - - -, f 5;
#X floatatom 219 266 5 0 0 0 - - -, f 5;
#X floatatom 258 266 5 0 0 0 - - -, f 5;
#X floatatom 297 266 5 0 0 0 - - -, f 5;
#X text 95 482 float;
#X text 211 482 - sets the step size.;
#X text 95 505 float;
#X text 317 365 change the step size \, the number of steps.;
#X text 72 592 1) float;
#X text 72 612 2) float;
#X text 211 505 - sets the number of steps. (range: 0~);
#X text 11 23 draw a yz grid plane;
#X floatatom 213 316 5 0 0 0 - - -, f 5;
#X floatatom 250 316 5 0 0 0 - - -, f 5;
#X floatatom 287 316 5 0 0 0 - - -, f 5;
#X obj 505 5 ofGridPlane;
#X obj 213 98 ofGetLastRenderOrder;
#X obj 180 119 ofHead;
#X obj 180 140 ofClear 63;
#X obj 180 238 ofTranslate;
#X obj 180 286 ofTranslate -100 0 0;
#X obj 180 386 ofGridPlane 50 16;
#X obj 23 428 ofWindow 320 240 LEFT TOP;
#X text 211 592 - sets the initial step size. (default: 50);
#X text 211 612 - sets the initial number of steps. (default: 16);
#X obj 207 184 ofExpr \; ofGetWidth / 2 \; ofGetHeight / 2 \;;
#X obj 180 336 ofRotateXYZ 0 0 0;
#X obj 462 46 declare -lib ofelia;
#X connect 1 0 32 0;
#X connect 14 0 35 0;
#X connect 14 1 41 0;
#X connect 15 0 37 1;
#X connect 16 0 37 2;
#X connect 17 0 36 1;
#X connect 18 0 36 2;
#X connect 19 0 36 3;
#X connect 28 0 42 1;
#X connect 29 0 42 2;
#X connect 30 0 42 3;
#X connect 32 0 33 1;
#X connect 33 0 34 0;
#X connect 34 0 14 0;
#X connect 35 0 36 0;
#X connect 36 0 42 0;
#X connect 41 0 35 1;
#X connect 41 1 35 2;
#X connect 42 0 37 0;
