#N canvas 321 23 597 589 10;
#X obj 0 0 cnv 15 580 40 empty empty ofHeart 3 12 0 18 -204280 -1 0
;
#X obj 0 341 cnv 3 580 3 empty empty inlets 8 12 0 13 -228856 -1 0
;
#X obj 0 423 cnv 3 580 3 empty empty outlets 8 12 0 13 -228856 -1 0
;
#X obj 75 349 cnv 17 3 17 empty empty 0 5 9 0 16 -228856 -162280 0
;
#X obj 75 431 cnv 17 3 17 empty empty 0 5 9 0 16 -228856 -162280 0
;
#X obj 0 529 cnv 15 580 21 empty empty empty 20 12 0 14 -228856 -66577
0;
#X obj 0 459 cnv 3 580 3 empty empty arguments 8 12 0 13 -228856 -1
0;
#X text 72 482 1) float;
#X obj 242 84 loadbang;
#X floatatom 252 245 5 0 0 0 - - -, f 5;
#X floatatom 302 199 5 0 0 0 - - -, f 5;
#X obj 75 372 cnv 17 3 17 empty empty 1 5 9 0 16 -228856 -162280 0
;
#X text 95 372 float;
#X text 95 349 render bang;
#X text 211 349 - the incoming render bang.;
#X text 211 431 - the outgoing render bang.;
#X text 95 431 render bang;
#X floatatom 296 245 5 0 0 0 - - -, f 5;
#X text 333 244 change width \, height.;
#X obj 75 395 cnv 17 3 17 empty empty 2 5 9 0 16 -228856 -162280 0
;
#X text 95 395 float;
#X text 211 372 - sets the width.;
#X text 211 395 - sets the height.;
#X text 72 503 2) float;
#X text 11 23 draw a heart;
#X text 338 198 change curve resolution.;
#X obj 529 5 ofHeart;
#X obj 242 105 ofGetLastRenderOrder;
#X obj 209 126 ofHead;
#X obj 209 147 ofClear 63;
#X obj 209 175 ofTranslate 160 120;
#X obj 209 217 ofSetCurveRes 50;
#X obj 209 264 ofHeart 100 100;
#X text 319 217 [ofHeart] internally uses bezier curves.;
#X obj 23 318 ofWindow 320 240 LEFT TOP;
#X text 211 482 - sets the initial width. (default: 100);
#X text 211 503 - sets the initial height. (default: 100);
#X connect 8 0 27 0;
#X connect 9 0 32 1;
#X connect 10 0 31 1;
#X connect 17 0 32 2;
#X connect 27 0 28 1;
#X connect 28 0 29 0;
#X connect 29 0 30 0;
#X connect 30 0 31 0;
#X connect 31 0 32 0;
