#N canvas 321 23 597 564 10;
#X declare -lib ofelia;
#X obj 0 0 cnv 15 580 40 empty empty ofHead 3 12 0 18 -204280 -1 0
;
#X obj 0 341 cnv 3 580 3 empty empty inlets 8 12 0 13 -228856 -1 0
;
#X obj 0 400 cnv 3 580 3 empty empty outlets 8 12 0 13 -228856 -1 0
;
#X obj 75 349 cnv 17 3 17 empty empty 0 5 9 0 16 -228856 -162280 0
;
#X obj 75 408 cnv 17 3 17 empty empty 0 5 9 0 16 -228856 -162280 0
;
#X obj 0 505 cnv 15 580 21 empty empty empty 20 12 0 14 -228856 -66577
0;
#X obj 0 436 cnv 3 580 3 empty empty arguments 8 12 0 13 -228856 -1
0;
#X obj 75 372 cnv 17 3 17 empty empty 1 5 9 0 16 -228856 -162280 0
;
#X text 72 459 1) float;
#X text 11 23 the start of a rendering chain;
#X obj 27 109 tgl 15 0 empty empty empty 17 7 0 10 -262144 -1 -1 0
1;
#X floatatom 102 143 5 0 0 0 - - -, f 5;
#X text 95 372 float;
#X text 95 408 render bang;
#X text 211 408 - the outgoing render bang.;
#X text 51 108 enable/disable rendering.;
#X obj 307 109 tgl 15 0 empty empty empty 17 7 0 10 -262144 -1 -1 0
1;
#X floatatom 382 143 5 0 0 0 - - -, f 5;
#X text 330 108 enable/disable rendering.;
#X obj 535 5 ofHead;
#X text 21 43 [ofHead] is the start of a chain of graphics operations
connected by patch cords that should be executed every frame.;
#X obj 27 168 ofHead 50 OFF;
#X obj 307 168 ofHead 50 OFF;
#X obj 27 195 ofTranslate 85 45;
#X obj 307 195 ofTranslate 135 95;
#X obj 27 217 ofSetColor red;
#X obj 307 217 ofSetColor blue;
#X obj 27 239 ofSquare 100;
#X obj 307 239 ofSquare 100;
#X text 25 269 each [ofHead] object use [ofSeparator] internally to
separate render chains in matrix and style.;
#X obj 23 318 ofWindow 320 240 LEFT TOP;
#X text 188 318 [ofWindow] internally sends 'bang' to [ofHead] every
frame.;
#X text 95 349 float/symbol;
#X text 72 479 2) float/symbol;
#X text 211 349 - enables/disables rendering;
#X text 211 372 - sets the rendering order.;
#X text 211 459 - sets the rendering order. (default: 50);
#X text 211 479 - enables/disables rendering. (default: ON);
#X text 141 141 set the rendering order.;
#X text 421 141 set the rendering order.;
#X obj 462 46 declare -lib ofelia;
#X connect 10 0 21 0;
#X connect 11 0 21 1;
#X connect 16 0 22 0;
#X connect 17 0 22 1;
#X connect 21 0 23 0;
#X connect 22 0 24 0;
#X connect 23 0 25 0;
#X connect 24 0 26 0;
#X connect 25 0 27 0;
#X connect 26 0 28 0;
