#N canvas 321 23 599 497 10;
#X obj 0 0 cnv 15 580 40 empty empty ofHsbToRgb 3 12 0 18 -204280 -1
0;
#X obj 0 341 cnv 3 580 3 empty empty inlets 8 12 0 13 -228856 -1 0
;
#X obj 0 375 cnv 3 580 3 empty empty outlets 8 12 0 13 -228856 -1 0
;
#X obj 75 349 cnv 17 3 17 empty empty 0 5 9 0 16 -228856 -162280 0
;
#X obj 75 383 cnv 17 3 17 empty empty 0 5 9 0 16 -228856 -162280 0
;
#X obj 0 460 cnv 15 580 21 empty empty empty 20 12 0 14 -228856 -66577
0;
#X obj 0 411 cnv 3 580 3 empty empty arguments 8 12 0 13 -228856 -1
0;
#X text 72 434 (none);
#X text 317 139 the hsb color value to convert.;
#X text 95 349 list <f \, f \, f>;
#X text 211 349 - the incoming hsb color value to convert.;
#X text 11 23 convert hsb color values to rgb color values;
#X obj 511 5 ofHsbToRgb;
#X obj 231 176 ofHsbToRgb;
#X text 95 383 list <f \, f \, f>;
#X obj 231 213 unpack f f f;
#X floatatom 231 245 5 0 0 0 - - -, f 5;
#X floatatom 271 245 5 0 0 0 - - -, f 5;
#X floatatom 312 245 5 0 0 0 - - -, f 5;
#X text 351 245 the converted rgb color value.;
#X text 211 383 - the converted rgb color value.;
#X msg 231 139 27.5 255 255;
#X connect 13 0 15 0;
#X connect 15 0 16 0;
#X connect 15 1 17 0;
#X connect 15 2 18 0;
#X connect 21 0 13 0;
