#N canvas 321 23 597 628 10;
#X obj 0 0 cnv 15 580 40 empty empty ofIcosphere 3 12 0 18 -204280
-1 0;
#X obj 0 381 cnv 3 580 3 empty empty inlets 8 12 0 13 -228856 -1 0
;
#X obj 0 463 cnv 3 580 3 empty empty outlets 8 12 0 13 -228856 -1 0
;
#X obj 75 389 cnv 17 3 40 empty empty 0 5 9 0 16 -228856 -162280 0
;
#X obj 75 471 cnv 17 3 17 empty empty 0 5 9 0 16 -228856 -162280 0
;
#X obj 0 569 cnv 15 580 21 empty empty empty 20 12 0 14 -228856 -66577
0;
#X obj 0 499 cnv 3 580 3 empty empty arguments 8 12 0 13 -228856 -1
0;
#X text 72 522 1) float;
#X obj 271 72 loadbang;
#X floatatom 331 312 5 0 0 0 - - -, f 5;
#X obj 75 435 cnv 17 3 17 empty empty 1 5 9 0 16 -228856 -162280 0
;
#X text 95 435 float;
#X text 95 389 render bang;
#X text 211 389 - the incoming render bang.;
#X text 211 471 - the outgoing render bang.;
#X text 95 471 render bang;
#X text 72 543 2) float;
#X text 11 23 draw an icosphere;
#X text 369 311 change radius.;
#X msg 268 290 iterations \$1;
#X obj 361 219 tgl 15 0 empty empty empty 17 7 0 10 -262144 -1 -1 0
1;
#X text 211 435 - sets the radius.;
#X text 95 409 iterations <f>;
#X floatatom 268 270 5 0 0 0 - - -, f 5;
#X text 306 269 change the number of iterations.;
#X floatatom 271 185 5 0 0 0 - - -, f 5;
#X floatatom 308 185 5 0 0 0 - - -, f 5;
#X floatatom 345 185 5 0 0 0 - - -, f 5;
#X text 382 184 rotate the icosphere.;
#X obj 505 5 ofIcosphere;
#X obj 271 93 ofGetLastRenderOrder;
#X obj 238 114 ofHead;
#X obj 238 135 ofClear 63;
#X obj 238 163 ofTranslate 160 120;
#X obj 238 241 ofSetFillMode OUTLINE;
#X obj 238 332 ofIcosphere 50 2;
#X obj 23 358 ofWindow 320 240 LEFT TOP;
#X text 382 219 0: OUTLINE \, 1: FILLED.;
#X text 211 409 - sets the number of iterations. (range: 1~5);
#X text 211 522 - sets the initial radius. (default: 50);
#X text 211 543 - sets the initial number of iterations. (default:
2);
#X obj 238 206 ofRotateXYZ 0 0 0;
#X connect 8 0 30 0;
#X connect 9 0 35 1;
#X connect 19 0 35 0;
#X connect 20 0 34 1;
#X connect 23 0 19 0;
#X connect 25 0 41 1;
#X connect 26 0 41 2;
#X connect 27 0 41 3;
#X connect 30 0 31 1;
#X connect 31 0 32 0;
#X connect 32 0 33 0;
#X connect 33 0 41 0;
#X connect 34 0 35 0;
#X connect 41 0 34 0;
