#N canvas 321 23 598 595 10;
#X obj 0 0 cnv 15 580 40 empty empty ofInRange 3 12 0 18 -204280 -1
0;
#X obj 0 341 cnv 3 580 3 empty empty inlets 8 12 0 13 -228856 -1 0
;
#X obj 0 425 cnv 3 580 3 empty empty outlets 8 12 0 13 -228856 -1 0
;
#X obj 75 349 cnv 17 3 17 empty empty 0 5 9 0 16 -228856 -162280 0
;
#X obj 75 433 cnv 17 3 17 empty empty 0 5 9 0 16 -228856 -162280 0
;
#X obj 0 541 cnv 15 580 21 empty empty empty 20 12 0 14 -228856 -66577
0;
#X obj 0 472 cnv 3 580 3 empty empty arguments 8 12 0 13 -228856 -1
0;
#X floatatom 245 227 5 0 0 0 - - -, f 5;
#X text 95 433 float;
#X floatatom 245 145 5 0 0 0 - - -, f 5;
#X text 95 349 float;
#X text 11 23 determine if a number is inside of a given range;
#X floatatom 291 175 5 0 0 0 - - -, f 5;
#X floatatom 338 175 5 0 0 0 - - -, f 5;
#X text 378 174 set the range.;
#X text 288 144 a value to test if it is inside the range.;
#X text 211 349 - a value to test if it is inside the range.;
#X obj 75 372 cnv 17 3 17 empty empty 1 5 9 0 16 -228856 -162280 0
;
#X text 95 372 float;
#X obj 75 395 cnv 17 3 17 empty empty 2 5 9 0 16 -228856 -162280 0
;
#X text 95 395 float;
#X text 211 372 - the lower bound of the range.;
#X text 211 395 - the upper bound of the range.;
#X text 72 495 1) float;
#X text 72 515 2) float;
#N canvas 322 119 832 295 more_examples 0;
#X floatatom 58 215 5 0 0 0 - - -, f 5;
#X floatatom 338 53 5 0 0 0 - - -, f 5;
#X text 384 52 a value to test if it is inside the range.;
#X floatatom 338 215 5 0 0 0 - - -, f 5;
#X text 421 188 range (0~20);
#X floatatom 568 215 5 0 0 0 - - -, f 5;
#X text 670 187 range (10~30);
#X text 122 188 range (0~1);
#X obj 58 188 ofInRange;
#X obj 338 188 ofInRange 20;
#X obj 568 188 ofInRange 10 30;
#X connect 1 0 8 0;
#X connect 1 0 9 0;
#X connect 1 0 10 0;
#X connect 8 0 0 0;
#X connect 9 0 3 0;
#X connect 10 0 5 0;
#X restore 480 46 pd more_examples;
#X obj 517 5 ofInRange;
#X obj 245 200 ofInRange -10 10;
#X text 211 433 - outputs 1 if the value is inside the range otherwise
outputs 0;
#X text 211 495 - the lower bound of the range. (default: 0);
#X text 211 515 - the upper bound of the range. (default: 1);
#X connect 9 0 27 0;
#X connect 12 0 27 1;
#X connect 13 0 27 2;
#X connect 27 0 7 0;
