#N canvas 321 23 601 536 10;
#X declare -lib ofelia;
#X obj 0 0 cnv 15 580 40 empty empty ofIsPointInsidePolyline3d 3 12
0 18 -204280 -1 0;
#X obj 0 341 cnv 3 580 3 empty empty inlets 8 12 0 13 -228856 -1 0
;
#X obj 0 400 cnv 3 580 3 empty empty outlets 8 12 0 13 -228856 -1 0
;
#X obj 75 349 cnv 17 3 40 empty empty 0 5 9 0 16 -228856 -162280 0
;
#X obj 75 408 cnv 17 3 17 empty empty 0 5 9 0 16 -228856 -162280 0
;
#X obj 0 485 cnv 15 580 21 empty empty empty 20 12 0 14 -228856 -66577
0;
#X obj 0 436 cnv 3 580 3 empty empty arguments 8 12 0 13 -228856 -1
0;
#X text 72 459 1) symbol;
#N canvas 322 134 507 253 about_vector 0;
#X text 26 23 in ofelia \, a vector data structure is commonly used
for handling various data types such as float \, symbol and list. vectors
are much like arrays that can dynamically be changed in size.;
#X text 26 163 each "loader" object should have a unique variable name
so its data can be properly accessed by "getter" objects that use the
name.;
#X text 26 93 in general \, objects that use vector are divided into
two types \, "loader" objects that can store an array of data and "getter"
objects that can read the stored data from "loader" objects.;
#X restore 486 66 pd about_vector;
#X floatatom 26 223 5 0 0 0 - - -, f 5;
#X msg 26 168 0 0;
#X msg 66 168 160 120;
#N canvas 322 134 596 525 more_examples 0;
#X obj 59 344 loadbang;
#X obj 59 365 ofGetLastRenderOrder;
#X obj 26 386 ofHead;
#X obj 26 407 ofClear 63;
#X obj 26 428 ofSetColor orange;
#X floatatom 103 171 5 0 0 0 - - -, f 5;
#X obj 26 88 ofMouseListener;
#X obj 69 115 list split 1;
#X obj 103 195 sel 0 1;
#X msg 103 217 orange;
#X msg 122 240 red;
#X obj 103 273 ofPrepend set;
#X text 24 22 this example shows changing the color of the shape created
with polyline depending on whether the mouse cursor is within the shape
or not.;
#X text 144 171 0: not inside \, 1: inside.;
#X obj 103 144 ofIsPointInsidePolyline3d @myPolyline3d;
#X obj 26 449 ofDrawPolyline3d @myPolyline3d;
#X connect 0 0 1 0;
#X connect 1 0 2 1;
#X connect 2 0 3 0;
#X connect 3 0 4 0;
#X connect 4 0 15 0;
#X connect 5 0 8 0;
#X connect 6 1 7 0;
#X connect 7 1 14 0;
#X connect 8 0 9 0;
#X connect 8 1 10 0;
#X connect 9 0 11 0;
#X connect 10 0 11 0;
#X connect 11 0 4 0;
#X connect 14 0 5 0;
#X restore 480 86 pd more_examples;
#X text 95 369 name <s>;
#X text 95 349 list <f \, f>;
#X text 95 408 float;
#X text 241 408 - 0: not inside \, 1: inside.;
#X obj 23 319 ofWindow 320 240 LEFT TOP;
#X text 24 248 note: currently \, it's not possible to check 3d points.
;
#X text 70 223 0: not inside \, 1: inside.;
#X text 241 369 - sets the variable name.;
#X text 241 459 - sets the variable name.;
#X obj 421 5 ofIsPointInsidePolyline3d;
#X obj 26 66 ofLoadPolyline3d \; @myPolyline3d \; moveTo 160 120 0
\; star 50 20 5 \;;
#X obj 26 196 ofIsPointInsidePolyline3d @myPolyline3d;
#X text 11 23 check if a 2d point is within a closed polyline3d;
#X text 241 349 - checks if a 2d point is within a closed polyline3d.
;
#X obj 462 46 declare -lib ofelia;
#X connect 10 0 24 0;
#X connect 11 0 24 0;
#X connect 24 0 9 0;
