#N canvas 321 23 598 587 10;
#X obj 0 0 cnv 15 580 40 empty empty ofLerpRadians 3 12 0 18 -204280
-1 0;
#X obj 0 341 cnv 3 580 3 empty empty inlets 8 12 0 13 -228856 -1 0
;
#X obj 0 425 cnv 3 580 3 empty empty outlets 8 12 0 13 -228856 -1 0
;
#X obj 75 349 cnv 17 3 17 empty empty 0 5 9 0 16 -228856 -162280 0
;
#X obj 75 433 cnv 17 3 17 empty empty 0 5 9 0 16 -228856 -162280 0
;
#X obj 0 528 cnv 15 580 21 empty empty empty 20 12 0 14 -228856 -66577
0;
#X obj 0 459 cnv 3 580 3 empty empty arguments 8 12 0 13 -228856 -1
0;
#X floatatom 235 247 5 0 0 0 - - -, f 5;
#X text 95 433 float;
#X floatatom 235 165 5 0 0 0 - - -, f 5;
#X text 95 349 float;
#X floatatom 284 195 5 0 0 0 - - -, f 5;
#X floatatom 334 195 5 0 0 0 - - -, f 5;
#X text 373 194 set the range.;
#X obj 75 372 cnv 17 3 17 empty empty 1 5 9 0 16 -228856 -162280 0
;
#X text 95 372 float;
#X obj 75 395 cnv 17 3 17 empty empty 2 5 9 0 16 -228856 -162280 0
;
#X text 95 395 float;
#X text 72 502 2) float;
#N canvas 321 116 832 295 more_examples 0;
#X floatatom 81 215 5 0 0 0 - - -, f 5;
#X floatatom 311 73 5 0 0 0 - - -, f 5;
#X floatatom 311 215 5 0 0 0 - - -, f 5;
#X floatatom 561 215 5 0 0 0 - - -, f 5;
#X text 168 188 range (0~1);
#X obj 314 46 hsl 128 15 0 1 0 0 empty empty empty -2 -8 0 10 -262144
-1 -1 0 1;
#X text 454 46 a value between 0 and 1;
#X text 674 187 range (1~5);
#X text 411 188 range (0~3);
#X obj 81 188 ofLerpRadians;
#X obj 311 188 ofLerpRadians 3;
#X obj 561 188 ofLerpRadians 1 5;
#X connect 1 0 9 0;
#X connect 1 0 10 0;
#X connect 1 0 11 0;
#X connect 5 0 1 0;
#X connect 9 0 0 0;
#X connect 10 0 2 0;
#X connect 11 0 3 0;
#X restore 480 46 pd more_examples;
#X text 72 482 1) float;
#X obj 238 137 hsl 128 15 0 1 0 0 empty empty empty -2 -8 0 10 -262144
-1 -1 0 1;
#X text 378 137 a value between 0 and 1;
#X text 171 349 - a normalized value.;
#X text 171 372 - the lower bound of the range in radians.;
#X text 171 395 - the upper bound of the range in radians.;
#X text 171 482 - the lower bound of the range in radians. (default:
0);
#X text 171 502 - the upper bound of the range in radians. (default:
1);
#X text 171 433 - the angle in radians between currentAngle and targetAngle.
;
#X obj 493 5 ofLerpRadians;
#X obj 235 220 ofLerpRadians 0 5;
#X text 278 164 note: [ofLerpRadians] does not clamp the values.;
#X text 11 23 linearly interpolate a value between two angles in radians
;
#X connect 9 0 30 0;
#X connect 11 0 30 1;
#X connect 12 0 30 2;
#X connect 21 0 9 0;
#X connect 30 0 7 0;
