#N canvas 321 23 598 588 10;
#X obj 0 0 cnv 15 580 40 empty empty ofLerp 3 12 0 18 -204280 -1 0
;
#X obj 0 341 cnv 3 580 3 empty empty inlets 8 12 0 13 -228856 -1 0
;
#X obj 0 425 cnv 3 580 3 empty empty outlets 8 12 0 13 -228856 -1 0
;
#X obj 75 349 cnv 17 3 17 empty empty 0 5 9 0 16 -228856 -162280 0
;
#X obj 75 433 cnv 17 3 17 empty empty 0 5 9 0 16 -228856 -162280 0
;
#X obj 0 528 cnv 15 580 21 empty empty empty 20 12 0 14 -228856 -66577
0;
#X obj 0 459 cnv 3 580 3 empty empty arguments 8 12 0 13 -228856 -1
0;
#X floatatom 245 247 5 0 0 0 - - -, f 5;
#X text 95 433 float;
#X floatatom 245 165 5 0 0 0 - - -, f 5;
#X text 95 349 float;
#X floatatom 282 195 5 0 0 0 - - -, f 5;
#X floatatom 320 195 5 0 0 0 - - -, f 5;
#X text 358 194 set the range.;
#X obj 75 372 cnv 17 3 17 empty empty 1 5 9 0 16 -228856 -162280 0
;
#X text 95 372 float;
#X obj 75 395 cnv 17 3 17 empty empty 2 5 9 0 16 -228856 -162280 0
;
#X text 95 395 float;
#X text 211 372 - the lower bound of the range.;
#X text 211 395 - the upper bound of the range.;
#X text 72 502 2) float;
#N canvas 322 117 832 295 more_examples 0;
#X floatatom 54 215 5 0 0 0 - - -, f 5;
#X floatatom 334 73 5 0 0 0 - - -, f 5;
#X floatatom 334 215 5 0 0 0 - - -, f 5;
#X floatatom 564 215 5 0 0 0 - - -, f 5;
#X text 101 188 range (0~1);
#X text 405 188 range (0~100);
#X text 659 187 range (100~300);
#X obj 337 46 hsl 128 15 0 1 0 0 empty empty empty -2 -8 0 10 -262144
-1 -1 0 1;
#X text 477 46 a value between 0 and 1;
#X obj 54 188 ofLerp;
#X obj 334 188 ofLerp 100;
#X obj 564 188 ofLerp 100 300;
#X connect 1 0 9 0;
#X connect 1 0 10 0;
#X connect 1 0 11 0;
#X connect 7 0 1 0;
#X connect 9 0 0 0;
#X connect 10 0 2 0;
#X connect 11 0 3 0;
#X restore 480 46 pd more_examples;
#X text 72 482 1) float;
#X text 11 23 linearly interpolate a value within a range;
#X obj 248 137 hsl 128 15 0 1 0 0 empty empty empty -2 -8 0 10 -262144
-1 -1 0 1;
#X text 388 137 a value between 0 and 1;
#X text 211 349 - a normalized value.;
#X text 211 433 - float between the range.;
#X obj 535 5 ofLerp;
#X obj 245 220 ofLerp -64 64;
#X text 211 482 - the lower bound of the range. (default: 0);
#X text 211 502 - the upper bound of the range. (default: 1);
#X text 282 164 note: [ofLerp] does not clamp the values.;
#X connect 9 0 29 0;
#X connect 11 0 29 1;
#X connect 12 0 29 2;
#X connect 24 0 9 0;
#X connect 29 0 7 0;
