#N canvas 321 23 598 586 10;
#X obj 0 0 cnv 15 580 40 empty empty ofLerpDegrees 3 12 0 18 -204280
-1 0;
#X obj 0 341 cnv 3 580 3 empty empty inlets 8 12 0 13 -228856 -1 0
;
#X obj 0 425 cnv 3 580 3 empty empty outlets 8 12 0 13 -228856 -1 0
;
#X obj 75 349 cnv 17 3 17 empty empty 0 5 9 0 16 -228856 -162280 0
;
#X obj 75 433 cnv 17 3 17 empty empty 0 5 9 0 16 -228856 -162280 0
;
#X obj 0 528 cnv 15 580 21 empty empty empty 20 12 0 14 -228856 -66577
0;
#X obj 0 459 cnv 3 580 3 empty empty arguments 8 12 0 13 -228856 -1
0;
#X floatatom 245 247 5 0 0 0 - - -, f 5;
#X text 95 433 float;
#X floatatom 245 165 5 0 0 0 - - -, f 5;
#X text 95 349 float;
#X floatatom 300 195 5 0 0 0 - - -, f 5;
#X floatatom 356 195 5 0 0 0 - - -, f 5;
#X text 397 194 set the range.;
#X obj 75 372 cnv 17 3 17 empty empty 1 5 9 0 16 -228856 -162280 0
;
#X text 95 372 float;
#X obj 75 395 cnv 17 3 17 empty empty 2 5 9 0 16 -228856 -162280 0
;
#X text 95 395 float;
#X text 72 502 2) float;
#N canvas 321 116 864 309 more_examples 0;
#X floatatom 47 220 5 0 0 0 - - -, f 5;
#X floatatom 287 78 5 0 0 0 - - -, f 5;
#X floatatom 287 220 5 0 0 0 - - -, f 5;
#X floatatom 567 220 5 0 0 0 - - -, f 5;
#X text 135 193 range (0~1);
#X obj 290 51 hsl 128 15 0 1 0 0 empty empty empty -2 -8 0 10 -262144
-1 -1 0 1;
#X text 430 51 a value between 0 and 1;
#X text 400 193 range (0~100);
#X text 699 192 range (60~280);
#X obj 47 193 ofLerpDegrees;
#X obj 287 193 ofLerpDegrees 100;
#X obj 567 193 ofLerpDegrees 60 280;
#X connect 1 0 9 0;
#X connect 1 0 10 0;
#X connect 1 0 11 0;
#X connect 5 0 1 0;
#X connect 9 0 0 0;
#X connect 10 0 2 0;
#X connect 11 0 3 0;
#X restore 480 46 pd more_examples;
#X text 72 482 1) float;
#X obj 248 137 hsl 128 15 0 1 0 0 empty empty empty -2 -8 0 10 -262144
-1 -1 0 1;
#X text 388 137 a value between 0 and 1;
#X text 161 349 - a normalized value.;
#X text 161 433 - the angle in degrees between currentAngle and targetAngle.
;
#X text 161 372 - the lower bound of the range in degrees.;
#X text 161 395 - the upper bound of the range in degrees.;
#X obj 493 5 ofLerpDegrees;
#X obj 245 220 ofLerpDegrees 0 300;
#X text 161 482 - the lower bound of the range in degrees. (default:
0);
#X text 161 502 - the upper bound of the range in degrees. (default:
1);
#X text 288 164 note: [ofLerpDegrees] does not clamp the values.;
#X text 11 23 linearly interpolate a value between two angles in degrees
;
#X connect 9 0 28 0;
#X connect 11 0 28 1;
#X connect 12 0 28 2;
#X connect 21 0 9 0;
#X connect 28 0 7 0;
