#N canvas 321 23 596 538 10;
#X declare -lib ofelia;
#X obj 0 0 cnv 15 580 40 empty empty ofListToSymbol 3 12 0 18 -204280
-1 0;
#X floatatom 203 111 5 0 0 0 - - -, f 5;
#X obj 0 341 cnv 3 580 3 empty empty inlets 8 12 0 13 -228856 -1 0
;
#X obj 0 400 cnv 3 580 3 empty empty outlets 8 12 0 13 -228856 -1 0
;
#X obj 75 349 cnv 17 3 40 empty empty 0 5 9 0 16 -228856 -162280 0
;
#X obj 75 408 cnv 17 3 17 empty empty 0 5 9 0 16 -228856 -162280 0
;
#X text 95 349 anything;
#X text 72 459 1) symbol;
#X obj 0 485 cnv 15 580 21 empty empty empty 20 12 0 14 -228856 -66577
0;
#X obj 0 436 cnv 3 580 3 empty empty arguments 8 12 0 13 -228856 -1
0;
#X msg 227 162 1 2 3 4;
#X text 11 23 convert a list into a symbol;
#X obj 203 226 ofListToSymbol;
#X symbolatom 203 258 40 0 0 0 - - -, f 40;
#X msg 304 201 symbol;
#X text 297 226 set delimiter.;
#X msg 304 175 symbol -;
#X obj 487 5 ofListToSymbol;
#X msg 221 135 make it symbol;
#X text 95 369 delimiter <s>;
#X text 211 369 - sets the delimiter.;
#X text 95 408 symbol;
#X text 211 408 - the converted symbol.;
#X text 211 349 - a message that will be converted to a symbol.;
#X text 352 201 zero-length symbol.;
#X text 211 459 - sets the delimiter. (default: " ");
#X obj 462 46 declare -lib ofelia;
#X connect 1 0 12 0;
#X connect 10 0 12 0;
#X connect 12 0 13 0;
#X connect 14 0 12 1;
#X connect 16 0 12 1;
#X connect 18 0 12 0;
