#N canvas 321 23 596 564 10;
#X obj 0 0 cnv 15 580 40 empty empty ofListInsert 3 12 0 18 -204280
-1 0;
#X obj 0 341 cnv 3 580 3 empty empty inlets 8 12 0 13 -228856 -1 0
;
#X obj 0 423 cnv 3 580 3 empty empty outlets 8 12 0 13 -228856 -1 0
;
#X obj 75 349 cnv 17 3 17 empty empty 0 5 9 0 16 -228856 -162280 0
;
#X obj 75 431 cnv 17 3 17 empty empty 0 5 9 0 16 -228856 -162280 0
;
#X obj 0 508 cnv 15 580 21 empty empty empty 20 12 0 14 -228856 -66577
0;
#X obj 0 459 cnv 3 580 3 empty empty arguments 8 12 0 13 -228856 -1
0;
#X obj 193 285 print;
#X text 95 349 list;
#X obj 75 372 cnv 17 3 17 empty empty 1 5 9 0 16 -228856 -162280 0
;
#X text 95 372 list;
#X text 95 431 list;
#X text 72 482 1) list;
#X obj 500 5 ofListInsert;
#X text 11 23 insert a list into a list;
#X obj 193 253 ofListInsert foo bar;
#X floatatom 310 222 5 0 0 0 - - -, f 5;
#X text 290 140 set the list or element to insert.;
#X floatatom 251 141 5 0 0 0 - - -, f 5;
#X msg 271 192 12 34 56;
#X text 211 349 - the incoming source list.;
#X text 211 372 - sets the list or element to insert.;
#X obj 75 395 cnv 17 3 17 empty empty 2 5 9 0 16 -228856 -162280 0
;
#X text 95 395 float;
#X text 211 431 - outputs the processed list.;
#X text 211 482 - sets the list or element to insert.;
#X msg 261 165 symbol zoo;
#X text 211 395 - sets the insert position. (default: maxFloat);
#X msg 193 106 list 0 1 2 3 4 5 6 7;
#X text 326 106 the incoming source list.;
#X text 349 221 set the insert position.;
#N canvas 322 114 563 447 about_list-processing_objects 0;
#X text 41 35 in ofelia \, list-processing objects whose name starts
with "ofList" (e.g. "ofListFill") accepts the source list from its
first inlet. and objects whose name ends with "List" (e.g. "ofFillList")
can set the source list via creation arguments or by its last inlet.
the former type is more intuitive when you have many different lists
to process \, while the later is more intuitive when you have a single
list to process differently many times.;
#X obj 46 258 print;
#X obj 46 231 ofListFill foo 2 3;
#X obj 46 388 print;
#X msg 134 301 2 3;
#X text 171 302 fill the list with "foo" from index 2 to 3;
#X msg 46 301 symbol foo;
#X text 230 202 fill the list with "foo" from index 2 to 3;
#X msg 195 201 2 3;
#X msg 107 201 symbol foo;
#X msg 46 171 0 1 2 3 4 5;
#X obj 46 361 ofFillList 0 1 2 3 4 5;
#X msg 197 331 0 1 2 3 4 5;
#X text 137 172 the incoming source list.;
#X text 287 331 set the source list.;
#X connect 2 0 1 0;
#X connect 4 0 11 1;
#X connect 6 0 11 0;
#X connect 8 0 2 2;
#X connect 9 0 2 1;
#X connect 10 0 2 0;
#X connect 11 0 3 0;
#X connect 12 0 11 2;
#X restore 384 45 pd about_list-processing_objects;
#X connect 15 0 7 0;
#X connect 16 0 15 2;
#X connect 18 0 15 1;
#X connect 19 0 15 1;
#X connect 26 0 15 1;
#X connect 28 0 15 0;
