#N canvas 321 23 601 828 10;
#X declare -lib ofelia;
#X obj 0 0 cnv 15 580 40 empty empty ofLoadSymbol 3 12 0 18 -204280
-1 0;
#X obj 0 471 cnv 3 580 3 empty empty inlets 8 12 0 13 -228856 -1 0
;
#X obj 0 670 cnv 3 580 3 empty empty outlets 8 12 0 13 -228856 -1 0
;
#X obj 75 479 cnv 17 3 180 empty empty 0 5 9 0 16 -228856 -162280 0
;
#X obj 75 678 cnv 17 3 17 empty empty 0 5 9 0 16 -228856 -162280 0
;
#X obj 0 775 cnv 15 580 21 empty empty empty 20 12 0 14 -228856 -66577
0;
#X obj 0 706 cnv 3 580 3 empty empty arguments 8 12 0 13 -228856 -1
0;
#X text 95 678 float;
#X text 95 479 name <s>;
#X text 95 499 load <l>;
#X text 95 539 append <l>;
#X text 95 559 prepend <l>;
#X text 95 619 erase <f \, f>;
#X text 95 639 clear;
#X text 72 729 1) symbol;
#X text 72 749 2) list;
#N canvas 322 124 507 253 about_vector 0;
#X text 26 23 in ofelia \, a vector data structure is commonly used
for handling various data types such as float \, symbol and list. vectors
are much like arrays that can dynamically be changed in size.;
#X text 26 163 each "loader" object should have a unique variable name
so its data can be properly accessed by "getter" objects that use the
name.;
#X text 26 93 in general \, objects that use vector are divided into
two types \, "loader" objects that can store an array of data and "getter"
objects that can read the stored data from "loader" objects.;
#X restore 486 66 pd about_vector;
#X msg 26 93 print;
#X text 72 333 remove all elements from the array.;
#X msg 26 333 clear;
#X floatatom 26 397 5 0 0 0 - - -, f 5;
#X text 241 678 - the number of elements stored in the array.;
#X text 70 397 the number of elements stored in the array.;
#N canvas 322 122 596 319 related_getter_objects 0;
#X obj 30 122 bng 15 250 50 0 empty empty empty 17 7 0 10 -262144 -1
-1;
#X obj 30 212 bng 15 250 50 0 empty empty empty 17 7 0 10 -262144 -1
-1;
#X text 53 211 get all elements as a list.;
#X obj 30 263 print;
#X obj 30 32 bng 15 250 50 0 empty empty empty 17 7 0 10 -262144 -1
-1;
#X floatatom 30 83 5 0 0 0 - - -, f 5;
#X symbolatom 30 173 18 0 0 0 - - -, f 18;
#X text 74 83 0: not exists \, 1: exists.;
#X text 53 121 get an element at the index "1". (starting from "0")
;
#X text 53 31 check if the symbol variable name exists or not.;
#X obj 30 56 ofDoesSymbolNameExist @mySymbols;
#X obj 30 146 ofGetSymbol @mySymbols[1];
#X obj 30 236 ofGetSymbols @mySymbols;
#X connect 0 0 11 0;
#X connect 1 0 12 0;
#X connect 4 0 10 0;
#X connect 10 0 5 0;
#X connect 11 0 6 0;
#X connect 12 0 3 0;
#X restore 26 448 pd related_getter_objects;
#X text 11 23 store an array of symbols;
#X msg 26 123 load apple orange grape;
#X msg 26 153 add potato;
#X text 101 153 add an element "potato" to the end of the array.;
#X msg 26 243 insert banana 6 7;
#X msg 26 183 append cherry mango;
#X msg 26 213 prepend peach lemon;
#X text 154 183 append "cherry" \, "mango" to the array.;
#X text 154 213 prepend "peach" \, "lemon" to the array.;
#X msg 26 303 erase 5 5;
#X text 95 519 add <s>;
#X text 95 579 insert <s \, f \, f>;
#X text 95 599 fill <s \, f \, f>;
#X msg 26 273 fill melon 7 7;
#X text 75 93 print the name and stored array elements.;
#X text 178 123 (re)initialize an array with "apple" \, "orange" \,
"grape".;
#X text 143 243 insert "banana" to the index range "6~7".;
#X text 126 273 assign "melon" to the index range "7~7".;
#X text 96 303 remove the index range "5~5".;
#X text 241 479 - sets the unique variable name for the array.;
#X text 241 499 - (re)initializes an array with one or more elements.
;
#X text 241 519 - adds a single element to the end of the array.;
#X text 241 539 - appends one or more elements to the array.;
#X text 241 559 - prepends one or more elements to the array.;
#X text 241 579 - inserts an element at the specified position.;
#X text 241 599 - assigns value to all the elements in the range.;
#X text 241 619 - removes a range of elements from the array.;
#X text 241 639 - removes all elements from the array.;
#X text 241 729 - sets the unique variable name for the array.;
#X text 241 749 - initializes an array with one or more elements.;
#X obj 499 5 ofLoadSymbol;
#N canvas 322 122 596 416 related_editor_objects 0;
#X text 198 292 edit the specified array element.;
#X msg 30 34 assign spider;
#X text 122 34 assign "spider" to the array element.;
#X msg 30 64 append man;
#X text 105 64 append "man" to the array element.;
#X msg 30 94 prepend black;
#X text 124 94 prepend "black" to the array element.;
#X msg 30 124 insert -- 5;
#X text 112 124 insert "--" to the array element at index "5".;
#X msg 30 154 replace -- _;
#X text 117 155 replace "--" with "_" from the array element.;
#X msg 30 184 remove _;
#X text 93 184 remove "_" from the array element.;
#X msg 30 214 erase 0 4;
#X text 99 214 remove characters at the index range "0~4" from the
array element.;
#X msg 30 244 clear;
#X text 76 244 clear the contents of the array element.;
#X obj 30 292 ofEditSymbol @mySymbols[1];
#X obj 30 356 print;
#X obj 30 314 bng 15 250 50 0 empty empty empty 17 7 0 10 -262144 -1
-1;
#X text 48 314 outputs bang when editing is done.;
#X obj 30 334 ofGetSymbol @mySymbols[1];
#X connect 1 0 17 0;
#X connect 3 0 17 0;
#X connect 5 0 17 0;
#X connect 7 0 17 0;
#X connect 9 0 17 0;
#X connect 11 0 17 0;
#X connect 13 0 17 0;
#X connect 15 0 17 0;
#X connect 17 0 19 0;
#X connect 19 0 21 0;
#X connect 21 0 18 0;
#X restore 26 428 pd related_editor_objects;
#X text 21 43 [ofLoadSymbol] stores an array of symbols that can be
edited or used by its related "getter" objects.;
#X obj 26 370 ofLoadSymbol @mySymbols dog cat pig cow duck;
#X obj 462 46 declare -lib ofelia;
#X connect 17 0 57 0;
#X connect 19 0 57 0;
#X connect 25 0 57 0;
#X connect 26 0 57 0;
#X connect 28 0 57 0;
#X connect 29 0 57 0;
#X connect 30 0 57 0;
#X connect 33 0 57 0;
#X connect 37 0 57 0;
#X connect 57 0 20 0;
