#N canvas 321 23 598 712 10;
#X declare -lib ofelia;
#X obj 0 0 cnv 15 580 40 empty empty ofMap 3 12 0 18 -204280 -1 0;
#X obj 0 341 cnv 3 580 3 empty empty inlets 8 12 0 13 -228856 -1 0
;
#X obj 0 492 cnv 3 580 3 empty empty outlets 8 12 0 13 -228856 -1 0
;
#X obj 75 349 cnv 17 3 40 empty empty 0 5 9 0 16 -228856 -162280 0
;
#X obj 75 500 cnv 17 3 17 empty empty 0 5 9 0 16 -228856 -162280 0
;
#X obj 0 657 cnv 15 580 21 empty empty empty 20 12 0 14 -228856 -66577
0;
#X obj 0 528 cnv 3 580 3 empty empty arguments 8 12 0 13 -228856 -1
0;
#X floatatom 145 267 5 0 0 0 - - -, f 5;
#X text 95 500 float;
#X floatatom 145 155 5 0 0 0 - - -, f 5;
#X text 95 349 float;
#X floatatom 168 185 5 0 0 0 - - -, f 5;
#X floatatom 209 185 5 0 0 0 - - -, f 5;
#X obj 75 395 cnv 17 3 17 empty empty 1 5 9 0 16 -228856 -162280 0
;
#X text 95 395 float;
#X obj 75 418 cnv 17 3 17 empty empty 2 5 9 0 16 -228856 -162280 0
;
#X text 95 418 float;
#X text 72 551 1) float;
#X text 72 571 2) float;
#N canvas 321 116 874 313 more_examples 0;
#X floatatom 48 235 5 0 0 0 - - -, f 5;
#X floatatom 278 73 5 0 0 0 - - -, f 5;
#X floatatom 278 235 5 0 0 0 - - -, f 5;
#X floatatom 553 235 5 0 0 0 - - -, f 5;
#X obj 281 47 hsl 128 15 0 127 0 0 empty empty empty -2 -8 0 10 -262144
-1 -1 0 1;
#X text 421 46 a value to be mapped.;
#X text 90 208 input range (0~1);
#X text 90 228 output range (0~1);
#X text 357 208 input range (0~127);
#X text 357 228 output range (0~1);
#X text 667 227 output range (10~30);
#X text 667 207 input range (0~127);
#X obj 48 208 ofMap;
#X obj 278 208 ofMap 0 127;
#X obj 553 208 ofMap 0 127 10 30;
#X connect 1 0 12 0;
#X connect 1 0 13 0;
#X connect 1 0 14 0;
#X connect 4 0 1 0;
#X connect 12 0 0 0;
#X connect 13 0 2 0;
#X connect 14 0 3 0;
#X restore 480 66 pd more_examples;
#X obj 148 127 hsl 128 15 0 127 0 0 empty empty empty -2 -8 0 10 -262144
-1 -1 0 1;
#X text 288 126 a value to be mapped.;
#X text 211 395 - the lower bound of the input range.;
#X text 211 418 - the upper bound of the input range.;
#X obj 75 441 cnv 17 3 17 empty empty 3 5 9 0 16 -228856 -162280 0
;
#X text 95 441 float;
#X obj 75 464 cnv 17 3 17 empty empty 4 5 9 0 16 -228856 -162280 0
;
#X text 95 464 float;
#X text 211 349 - a value to be mapped.;
#X text 211 441 - the lower bound of the output range.;
#X text 211 464 - the upper bound of the output range.;
#X text 211 500 - the mapped value;
#X text 72 591 3) float;
#X text 72 611 4) float;
#X obj 541 5 ofMap;
#X obj 145 240 ofMap 0 127 -1 1;
#X floatatom 222 215 5 0 0 0 - - -, f 5;
#X floatatom 266 215 5 0 0 0 - - -, f 5;
#X text 248 184 set the input range.;
#X text 304 214 set the output range.;
#X text 211 551 - the lower bound of the input range. (default: 0)
;
#X text 211 571 - the upper bound of the input range. (default: 1)
;
#X text 211 591 - the lower bound of the output range. (default: 0)
;
#X text 211 611 - the upper bound of the output range. (default: 1)
;
#X text 11 23 map the value to a new value;
#X obj 462 46 declare -lib ofelia;
#X text 72 631 5) float/symbol;
#X text 211 631 - enable/disable clamping. (default: OFF);
#X text 95 369 clamp <f/s>;
#X text 211 369 - enable/disable clamping.;
#X text 256 240 optional 5th argument can be used to enable/disable
clamping.;
#X connect 9 0 35 0;
#X connect 11 0 35 1;
#X connect 12 0 35 2;
#X connect 20 0 9 0;
#X connect 35 0 7 0;
#X connect 36 0 35 3;
#X connect 37 0 35 4;
