#N canvas 321 23 599 694 10;
#X declare -lib ofelia;
#X obj 0 0 cnv 15 580 40 empty empty ofMaterial 3 12 0 18 -204280 -1
0;
#X obj 0 412 cnv 3 580 3 empty empty inlets 8 12 0 13 -228856 -1 0
;
#X obj 0 551 cnv 3 580 3 empty empty outlets 8 12 0 13 -228856 -1 0
;
#X obj 75 420 cnv 17 3 120 empty empty 0 5 9 0 16 -228856 -162280 0
;
#X obj 75 559 cnv 17 3 17 empty empty 0 5 9 0 16 -228856 -162280 0
;
#X obj 0 636 cnv 15 580 21 empty empty empty 20 12 0 14 -228856 -66577
0;
#X obj 0 587 cnv 3 580 3 empty empty arguments 8 12 0 13 -228856 -1
0;
#X obj 23 389 ofWindow 320 240 LEFT TOP;
#X text 95 420 render bang;
#X text 241 419 - the incoming render bang.;
#X text 95 559 render bang;
#X text 241 559 - the outgoing render bang.;
#X obj 511 5 ofMaterial;
#X text 11 23 set the material of the object;
#X obj 56 81 ofGetLastRenderOrder;
#X obj 23 102 ofHead;
#X obj 23 127 ofClear 63;
#X obj 56 60 loadbang;
#X obj 23 303 ofTranslate 160 120;
#X obj 23 149 ofSetDepthTest ON;
#X obj 23 355 ofSetDepthTest OFF;
#X text 137 149 depth test should be enabled to make lighting work
properly.;
#X obj 23 277 ofMaterial;
#N canvas 321 86 588 450 ofDirectionalLight_parameters 0;
#X obj 38 132 ofPack eulerAngles 0 0 0;
#X floatatom 85 111 5 0 0 0 - - -, f 5;
#X floatatom 132 111 5 0 0 0 - - -, f 5;
#X floatatom 179 111 5 0 0 0 - - -, f 5;
#X text 194 133 set orientation with a eular angles.;
#X text 194 150 (note: prepare for gimbal lock);
#X obj 38 389 outlet;
#X floatatom 68 61 5 0 0 0 - - -, f 5;
#X floatatom 105 61 5 0 0 0 - - -, f 5;
#X floatatom 142 61 5 0 0 0 - - -, f 5;
#X floatatom 180 61 5 0 0 0 - - -, f 5;
#X floatatom 74 171 5 0 0 0 - - -, f 5;
#X floatatom 111 171 5 0 0 0 - - -, f 5;
#X floatatom 148 171 5 0 0 0 - - -, f 5;
#X floatatom 185 171 5 0 0 0 - - -, f 5;
#X obj 38 192 ofPack quaternion 0 0 0 0;
#X text 199 192 set orientation with a quaternion.;
#X msg 38 32 print;
#X text 87 32 print the current settings.;
#X floatatom 79 221 5 0 255 0 - - -, f 5;
#X floatatom 120 221 5 0 255 0 - - -, f 5;
#X floatatom 161 221 5 0 255 0 - - -, f 5;
#X obj 38 242 ofPack specular 0 0 0;
#X text 176 242 set the color of highlights on a material.;
#X floatatom 77 271 5 0 255 0 - - -, f 5;
#X floatatom 116 271 5 0 255 0 - - -, f 5;
#X floatatom 155 271 5 0 255 0 - - -, f 5;
#X obj 38 292 ofPack diffuse 0 0 0;
#X text 170 292 set the color of material when it is illuminated.;
#X floatatom 77 321 5 0 255 0 - - -, f 5;
#X floatatom 116 321 5 0 255 0 - - -, f 5;
#X floatatom 155 321 5 0 255 0 - - -, f 5;
#X obj 38 342 ofPack ambient 0 0 0;
#X text 169 342 set the color of material when it is not illuminated.
;
#X text 175 82 set orientation with angle and axis.;
#X obj 38 82 ofPack rotate 0 0 0 0;
#X connect 0 0 6 0;
#X connect 1 0 0 1;
#X connect 2 0 0 2;
#X connect 3 0 0 3;
#X connect 7 0 35 1;
#X connect 8 0 35 2;
#X connect 9 0 35 3;
#X connect 10 0 35 4;
#X connect 11 0 15 1;
#X connect 12 0 15 2;
#X connect 13 0 15 3;
#X connect 14 0 15 4;
#X connect 15 0 6 0;
#X connect 17 0 6 0;
#X connect 19 0 22 1;
#X connect 20 0 22 2;
#X connect 21 0 22 3;
#X connect 22 0 6 0;
#X connect 24 0 27 1;
#X connect 25 0 27 2;
#X connect 26 0 27 3;
#X connect 27 0 6 0;
#X connect 29 0 32 1;
#X connect 30 0 32 2;
#X connect 31 0 32 3;
#X connect 32 0 6 0;
#X connect 35 0 6 0;
#X restore 58 181 pd ofDirectionalLight_parameters;
#X obj 23 329 ofSphere 50 50;
#X obj 23 213 ofDirectionalLight 180 0 1 0;
#X text 95 278 light interacts strongly with material.;
#X text 95 519 shininess <f>;
#X text 95 439 specular <f \, f \, f>;
#X text 95 459 diffuse <f \, f \, f>;
#X text 95 479 ambient <f \, f \, f>;
#X text 95 499 emissive <f \, f \, f>;
#X text 72 610 (none);
#N canvas 321 87 469 374 ofMaterial_parameters 0;
#X floatatom 89 57 5 0 255 0 - - -, f 5;
#X floatatom 142 57 5 0 255 0 - - -, f 5;
#X floatatom 195 57 5 0 255 0 - - -, f 5;
#X floatatom 87 107 5 0 255 0 - - -, f 5;
#X floatatom 138 107 5 0 255 0 - - -, f 5;
#X floatatom 189 107 5 0 255 0 - - -, f 5;
#X floatatom 75 157 5 0 255 0 - - -, f 5;
#X floatatom 114 157 5 0 255 0 - - -, f 5;
#X floatatom 153 157 5 0 255 0 - - -, f 5;
#X obj 36 178 ofPack ambient 0 0 0;
#X floatatom 83 207 5 0 255 0 - - -, f 5;
#X floatatom 130 207 5 0 255 0 - - -, f 5;
#X floatatom 177 207 5 0 255 0 - - -, f 5;
#X floatatom 153 257 5 0 0 0 - - -, f 5;
#X text 208 78 set the specular color.;
#X text 204 128 set the diffuse color.;
#X text 167 178 set the ambient color.;
#X text 191 228 set the emissive color.;
#X text 167 278 set the shininess.;
#X obj 36 324 outlet;
#X msg 36 32 print;
#X text 85 32 print the current settings.;
#X obj 36 78 ofPack specular 100 100 100;
#X obj 36 128 ofPack diffuse 200 200 200;
#X obj 36 228 ofPack emissive 50 50 50;
#X obj 36 278 ofPack shininess 120;
#X connect 0 0 22 1;
#X connect 1 0 22 2;
#X connect 2 0 22 3;
#X connect 3 0 23 1;
#X connect 4 0 23 2;
#X connect 5 0 23 3;
#X connect 6 0 9 1;
#X connect 7 0 9 2;
#X connect 8 0 9 3;
#X connect 9 0 19 0;
#X connect 10 0 24 1;
#X connect 11 0 24 2;
#X connect 12 0 24 3;
#X connect 13 0 25 1;
#X connect 20 0 19 0;
#X connect 22 0 19 0;
#X connect 23 0 19 0;
#X connect 24 0 19 0;
#X connect 25 0 19 0;
#X restore 58 244 pd ofMaterial_parameters;
#X text 241 439 - sets the color of highlights on a material.;
#X text 241 459 - sets the color of material when it is illuminated.
;
#X text 241 479 - sets the color of material when it is not illuminated.
;
#X text 241 499 - sets constant \, linear \, quadratic attenuation.
;
#X text 241 519 - enables/disables the debug mode.;
#X obj 462 46 declare -lib ofelia;
#X connect 14 0 15 1;
#X connect 15 0 16 0;
#X connect 16 0 19 0;
#X connect 17 0 14 0;
#X connect 18 0 24 0;
#X connect 19 0 25 0;
#X connect 22 0 18 0;
#X connect 23 0 25 0;
#X connect 24 0 20 0;
#X connect 25 0 22 0;
#X connect 33 0 22 0;
