#N canvas 321 23 601 630 10;
#X obj 0 0 cnv 15 580 40 empty empty ofMoon 3 12 0 18 -204280 -1 0
;
#X obj 262 92 loadbang;
#X floatatom 262 252 5 0 0 0 - - -, f 5;
#X floatatom 328 207 5 0 0 0 - - -, f 5;
#X text 365 206 change circle resolution.;
#X floatatom 304 252 5 0 0 0 - - -, f 5;
#X text 11 23 draw a moon;
#X floatatom 346 252 5 0 0 0 - - -, f 5;
#X text 383 251 change width \, height \, phase.;
#X obj 0 341 cnv 3 580 3 empty empty inlets 8 12 0 13 -228856 -1 0
;
#X obj 0 443 cnv 3 580 3 empty empty outlets 8 12 0 13 -228856 -1 0
;
#X obj 75 349 cnv 17 3 17 empty empty 0 5 9 0 16 -228856 -162280 0
;
#X obj 75 451 cnv 17 3 17 empty empty 0 5 9 0 16 -228856 -162280 0
;
#X obj 0 570 cnv 15 580 21 empty empty empty 20 12 0 14 -228856 -66577
0;
#X obj 0 479 cnv 3 580 3 empty empty arguments 8 12 0 13 -228856 -1
0;
#X text 72 502 1) float;
#X obj 75 372 cnv 17 3 17 empty empty 1 5 9 0 16 -228856 -162280 0
;
#X text 95 372 float;
#X text 95 349 render bang;
#X text 211 349 - the incoming render bang.;
#X text 211 451 - the outgoing render bang.;
#X text 95 451 render bang;
#X obj 75 395 cnv 17 3 17 empty empty 2 5 9 0 16 -228856 -162280 0
;
#X text 95 395 float;
#X text 211 372 - sets the width.;
#X text 211 395 - sets the height.;
#X text 72 523 2) float;
#X obj 75 418 cnv 17 3 17 empty empty 3 5 9 0 16 -228856 -162280 0
;
#X text 95 418 float;
#X text 72 544 3) float;
#X text 211 418 - sets the phase.;
#X obj 535 5 ofMoon;
#X obj 262 113 ofGetLastRenderOrder;
#X obj 229 134 ofHead;
#X obj 229 155 ofClear 63;
#X obj 229 183 ofTranslate 160 120;
#X obj 229 225 ofSetCircleRes 50;
#X obj 229 272 ofMoon 100 100 30;
#X obj 23 318 ofWindow 320 240 LEFT TOP;
#X text 211 502 - sets the initial width. (default: 100);
#X text 211 523 - sets the initial height. (default: 100);
#X text 211 544 - sets the initial phase. (default: 30);
#X connect 1 0 32 0;
#X connect 2 0 37 1;
#X connect 3 0 36 1;
#X connect 5 0 37 2;
#X connect 7 0 37 3;
#X connect 32 0 33 1;
#X connect 33 0 34 0;
#X connect 34 0 35 0;
#X connect 35 0 36 0;
#X connect 36 0 37 0;
