#N canvas 321 23 605 563 10;
#X obj 0 0 cnv 15 580 40 empty empty ofMouseListener 3 12 0 18 -204280
-1 0;
#X obj 0 341 cnv 3 580 3 empty empty inlets 8 12 0 13 -228856 -1 0
;
#X obj 0 375 cnv 3 580 3 empty empty outlets 8 12 0 13 -228856 -1 0
;
#X obj 75 383 cnv 17 3 17 empty empty 0 5 9 0 16 -228856 -162280 0
;
#X obj 0 506 cnv 15 580 21 empty empty empty 20 12 0 14 -228856 -66577
0;
#X obj 0 457 cnv 3 580 3 empty empty arguments 8 12 0 13 -228856 -1
0;
#X text 72 480 (none);
#X text 72 349 (none);
#X text 95 383 list <f \, f \, f>;
#X obj 75 406 cnv 17 3 17 empty empty 1 5 9 0 16 -228856 -162280 0
;
#X text 95 406 list <f \, f \, f>;
#X obj 75 429 cnv 17 3 17 empty empty 2 5 9 0 16 -228856 -162280 0
;
#X text 95 429 list <f \, f \, f>;
#X obj 8 187 unpack f f f;
#X floatatom 8 209 5 0 0 0 - - -, f 5;
#X floatatom 42 229 5 0 0 0 - - -, f 5;
#X floatatom 77 249 5 0 0 0 - - -, f 5;
#X obj 193 187 unpack f f f;
#X floatatom 193 209 5 0 0 0 - - -, f 5;
#X floatatom 227 229 5 0 0 0 - - -, f 5;
#X floatatom 262 249 5 0 0 0 - - -, f 5;
#X obj 384 187 unpack f f f;
#X floatatom 384 209 5 0 0 0 - - -, f 5;
#X floatatom 418 229 5 0 0 0 - - -, f 5;
#X floatatom 453 249 5 0 0 0 - - -, f 5;
#N canvas 322 134 752 551 more_examples 0;
#X obj 106 88 loadbang;
#X obj 459 167 route 1 2 3;
#X obj 73 390 t b b b;
#X floatatom 343 253 5 0 0 0 - - -, f 5;
#X obj 73 250 t b b b;
#X floatatom 286 253 5 0 0 0 - - -, f 5;
#X obj 286 223 unpack f f;
#X obj 559 167 list split 1;
#X obj 459 274 symbol;
#X msg 459 189 red;
#X msg 480 209 green;
#X msg 501 230 blue;
#X msg 546 250 white;
#X symbolatom 459 301 10 0 0 0 - - -, f 10;
#X text 22 18 this example shows drawing 2 lines that follow the mouse
cursor position. the lines' color changes depending on which mouse
button is currently pressed or released.;
#X floatatom 559 189 5 0 0 0 - - -, f 5;
#X obj 106 116 ofGetLastRenderOrder;
#X obj 73 148 ofHead;
#X obj 73 178 ofClear 63;
#X obj 73 223 ofSetColor white;
#X obj 73 360 ofLine2d, f 22;
#X obj 73 482 ofLine2d, f 22;
#X obj 459 95 ofMouseListener;
#X obj 459 326 ofPrepend set;
#X obj 137 331 pack 0 0;
#X obj 202 331 pack 0 0;
#X obj 137 453 pack 0 0;
#X obj 202 453 pack 0 0;
#X obj 247 305 ofGetHeight;
#X obj 202 426 ofGetWidth;
#X obj 459 354 ofSnd @linesColor;
#X obj 593 354 ofSnd @linesCoords;
#X obj 154 178 ofRcv @linesColor;
#X obj 286 178 ofRcv @linesCoords;
#X connect 0 0 16 0;
#X connect 1 0 9 0;
#X connect 1 1 10 0;
#X connect 1 2 11 0;
#X connect 2 0 21 0;
#X connect 2 1 26 0;
#X connect 2 2 29 0;
#X connect 3 0 26 1;
#X connect 3 0 27 1;
#X connect 4 0 20 0;
#X connect 4 1 24 0;
#X connect 4 2 28 0;
#X connect 5 0 24 0;
#X connect 5 0 25 0;
#X connect 6 0 5 0;
#X connect 6 1 3 0;
#X connect 7 0 15 0;
#X connect 7 1 31 0;
#X connect 8 0 13 0;
#X connect 9 0 8 0;
#X connect 10 0 8 0;
#X connect 11 0 8 0;
#X connect 12 0 8 0;
#X connect 13 0 23 0;
#X connect 16 0 17 1;
#X connect 17 0 18 0;
#X connect 18 0 19 0;
#X connect 19 0 4 0;
#X connect 20 0 2 0;
#X connect 22 0 1 0;
#X connect 22 1 7 0;
#X connect 22 2 12 0;
#X connect 23 0 30 0;
#X connect 24 0 20 1;
#X connect 25 0 20 2;
#X connect 26 0 21 1;
#X connect 27 0 21 2;
#X connect 28 0 25 1;
#X connect 29 0 27 0;
#X connect 32 0 19 0;
#X connect 33 0 6 0;
#X restore 480 46 pd more_examples;
#X text 11 23 listen to the mouse events;
#X text 207 301 button id is used to detect which mouse button is pressed.
;
#X text 206 318 (0: none \, 1: left \, 2: middle \, 3: right...);
#X obj 481 5 ofMouseListener;
#X text 21 43 [ofMouseListener] is used to detect the mouse events
while the window is focused. it will listen to the touch events when
used on mobile devices.;
#X obj 150 112 ofMouseListener;
#X obj 23 318 ofWindow 320 240 LEFT TOP;
#X text 89 186 mouse pressed.;
#X text 274 186 moused moved.;
#X text 465 186 mouse released.;
#X text 47 209 button id.;
#X text 232 209 button id.;
#X text 423 209 button id.;
#X text 82 228 x coordinate.;
#X text 267 228 x coordinate.;
#X text 458 228 x coordinate.;
#X text 114 248 y coordinate.;
#X text 299 248 y coordinate.;
#X text 490 248 y coordinate.;
#X text 211 383 - mouse pressed. (button id \, x coordinate \, y coordinate)
;
#X text 211 406 - moused moved. (button id \, x coordinate \, y coordinate)
;
#X text 211 429 - mouse released. (button id \, x coordinate \, y coordinate)
;
#X connect 13 0 14 0;
#X connect 13 1 15 0;
#X connect 13 2 16 0;
#X connect 17 0 18 0;
#X connect 17 1 19 0;
#X connect 17 2 20 0;
#X connect 21 0 22 0;
#X connect 21 1 23 0;
#X connect 21 2 24 0;
#X connect 31 0 13 0;
#X connect 31 1 17 0;
#X connect 31 2 21 0;
