#N canvas 321 23 601 580 10;
#X obj 0 0 cnv 15 580 40 empty empty ofPatch 3 12 0 18 -204280 -1 0
;
#X obj 0 381 cnv 3 580 3 empty empty inlets 8 12 0 13 -228856 -1 0
;
#X obj 0 440 cnv 3 580 3 empty empty outlets 8 12 0 13 -228856 -1 0
;
#X obj 75 389 cnv 17 3 40 empty empty 0 5 9 0 16 -228856 -162280 0
;
#X obj 0 523 cnv 15 580 21 empty empty empty 20 12 0 14 -228856 -66577
0;
#X obj 0 474 cnv 3 580 3 empty empty arguments 8 12 0 13 -228856 -1
0;
#X text 72 497 (none);
#X text 11 23 open/close pd patches;
#X text 221 99 open a patch from the same directory.;
#X text 247 129 close the opened patch.;
#X obj 130 169 bng 15 250 50 0 empty empty empty 17 7 0 10 -262144
-1 -1;
#X symbolatom 130 242 60 0 0 0 - - -, f 60;
#X text 153 168 absolute paths can also be used.;
#X text 283 292 close the opened patch.;
#X text 95 389 open <s>;
#X text 95 448 (none);
#X text 95 409 close <s>;
#X obj 529 5 ofPatch;
#X text 21 43 [ofPatch] is used to open/close pd patches. both absolute
and relative paths can be used to open the patch.;
#X obj 130 262 ofPrepend open;
#X obj 75 336 ofPatch;
#X msg 75 99 open ofGetDate-help.pd;
#X msg 95 129 close ofGetDate-help.pd;
#X obj 130 219 makefilename %s/ofGetTime-help.pd;
#X msg 130 292 close ofGetTime-help.pd;
#X obj 130 196 ofGetPatchDirectory;
#X text 191 409 - close <patch filename> closes the opened pd patch.
;
#X text 191 389 - open <patch absolute/relative path> opens a pd patch.
;
#X connect 10 0 25 0;
#X connect 11 0 19 0;
#X connect 19 0 20 0;
#X connect 21 0 20 0;
#X connect 22 0 20 0;
#X connect 23 0 11 0;
#X connect 24 0 20 0;
#X connect 25 0 23 0;
