#N canvas 321 23 615 727 10;
#X declare -lib ofelia;
#X obj 0 0 cnv 15 580 40 empty empty ofPlane 3 12 0 18 -204280 -1 0
;
#X obj 272 78 loadbang;
#X floatatom 294 328 5 0 0 0 - - -, f 5;
#X floatatom 350 328 5 0 0 0 - - -, f 5;
#X obj 0 401 cnv 3 580 3 empty empty inlets 8 12 0 13 -228856 -1 0
;
#X obj 0 526 cnv 3 580 3 empty empty outlets 8 12 0 13 -228856 -1 0
;
#X obj 75 409 cnv 17 3 60 empty empty 0 5 9 0 16 -228856 -162280 0
;
#X obj 75 534 cnv 17 3 17 empty empty 0 5 9 0 16 -228856 -162280 0
;
#X obj 0 671 cnv 15 580 21 empty empty empty 20 12 0 14 -228856 -66577
0;
#X obj 0 562 cnv 3 580 3 empty empty arguments 8 12 0 13 -228856 -1
0;
#X text 72 585 1) float;
#X obj 75 475 cnv 17 3 17 empty empty 1 5 9 0 16 -228856 -162280 0
;
#X text 95 475 float;
#X text 95 409 render bang;
#X text 211 409 - the incoming render bang.;
#X text 211 534 - the outgoing render bang.;
#X text 95 534 render bang;
#X obj 75 498 cnv 17 3 17 empty empty 2 5 9 0 16 -228856 -162280 0
;
#X text 95 498 float;
#X text 72 605 2) float;
#X floatatom 272 197 5 0 0 0 - - -, f 5;
#X floatatom 309 197 5 0 0 0 - - -, f 5;
#X floatatom 346 197 5 0 0 0 - - -, f 5;
#X obj 362 226 tgl 15 0 empty empty empty 17 7 0 10 -262144 -1 -1 0
1;
#X text 211 498 - sets the height.;
#X floatatom 269 277 5 0 0 0 - - -, f 5;
#X text 72 625 3) float;
#X text 72 645 4) float;
#X text 11 23 draw a plane;
#X msg 269 296 columns \$1 \, rows \$1;
#X text 307 276 change the number of segments.;
#X text 95 429 columns <f>;
#X text 95 449 rows <f>;
#X text 383 196 rotate the plane.;
#X text 211 475 - sets the width.;
#X text 386 327 change width \, height.;
#X obj 529 5 ofPlane;
#X obj 272 99 ofGetLastRenderOrder;
#X obj 239 120 ofHead;
#X obj 239 141 ofClear 63;
#X obj 239 169 ofTranslate 160 120;
#X obj 239 248 ofSetFillMode OUTLINE;
#X obj 239 348 ofPlane 100 100 2 2;
#X obj 23 378 ofWindow 320 240 LEFT TOP;
#X text 383 226 0: OUTLINE \, 1: FILLED.;
#X text 211 585 - sets the initial width. (default: 100);
#X text 211 605 - sets the initial height. (default: 100);
#X text 211 625 - sets the initial number of columns. (default: 2)
;
#X text 211 645 - sets the initial number of rows. (default: 2);
#X text 211 429 - sets the number of columns. (range: 1~);
#X text 211 449 - sets the number of rows. (range: 1~);
#X obj 239 218 ofRotateXYZ 0 0 0;
#X obj 462 46 declare -lib ofelia;
#X connect 1 0 37 0;
#X connect 2 0 42 1;
#X connect 3 0 42 2;
#X connect 20 0 51 1;
#X connect 21 0 51 2;
#X connect 22 0 51 3;
#X connect 23 0 41 1;
#X connect 25 0 29 0;
#X connect 29 0 42 0;
#X connect 37 0 38 1;
#X connect 38 0 39 0;
#X connect 39 0 40 0;
#X connect 40 0 51 0;
#X connect 41 0 42 0;
#X connect 51 0 41 0;
