#N canvas 321 23 604 519 10;
#X obj 0 0 cnv 15 580 40 empty empty ofPosListener 3 12 0 18 -204280
-1 0;
#X obj 0 341 cnv 3 580 3 empty empty inlets 8 12 0 13 -228856 -1 0
;
#X obj 0 375 cnv 3 580 3 empty empty outlets 8 12 0 13 -228856 -1 0
;
#X obj 75 383 cnv 17 3 17 empty empty 0 5 9 0 16 -228856 -162280 0
;
#X obj 0 460 cnv 15 580 21 empty empty empty 20 12 0 14 -228856 -66577
0;
#X obj 0 411 cnv 3 580 3 empty empty arguments 8 12 0 13 -228856 -1
0;
#X text 72 434 (none);
#X text 72 349 (none);
#X obj 279 234 unpack f f;
#X floatatom 279 271 7 0 0 0 - - -, f 7;
#X floatatom 336 271 7 0 0 0 - - -, f 7;
#X text 95 383 list <f \, f>;
#X msg 23 88 destroy \, create;
#X text 11 23 listen to the updated position of the current window
;
#X text 211 383 - the updated position of the current window.;
#X msg 43 128 pos 200 150;
#X text 132 128 try changing the position of the window.;
#X msg 63 158 pos CENTER TOP;
#X msg 73 188 pos LEFT TOP;
#X obj 493 5 ofPosListener;
#X text 131 89 recreate the current window if it is created by other
[ofWindow] object so you can change its settings here.;
#X obj 279 197 ofPosListener;
#X obj 23 318 ofWindow 320 240 LEFT TOP;
#X connect 8 0 9 0;
#X connect 8 1 10 0;
#X connect 12 0 22 0;
#X connect 15 0 22 0;
#X connect 17 0 22 0;
#X connect 18 0 22 0;
#X connect 21 0 8 0;
