#N canvas 321 23 604 820 10;
#X obj 0 0 cnv 15 580 40 empty empty ofPointLight 3 12 0 18 -204280
-1 0;
#X obj 0 431 cnv 3 580 3 empty empty inlets 8 12 0 13 -228856 -1 0
;
#X obj 0 639 cnv 3 580 3 empty empty outlets 8 12 0 13 -228856 -1 0
;
#X obj 75 439 cnv 17 3 120 empty empty 0 5 9 0 16 -228856 -162280 0
;
#X obj 75 647 cnv 17 3 17 empty empty 0 5 9 0 16 -228856 -162280 0
;
#X obj 0 764 cnv 15 580 21 empty empty empty 20 12 0 14 -228856 -66577
0;
#X obj 0 675 cnv 3 580 3 empty empty arguments 8 12 0 13 -228856 -1
0;
#X obj 23 408 ofWindow 320 240 LEFT TOP;
#X text 95 439 render bang;
#X text 261 438 - the incoming render bang.;
#X text 95 647 render bang;
#X text 261 647 - the outgoing render bang.;
#X obj 56 81 ofGetLastRenderOrder;
#X obj 23 102 ofHead;
#X obj 23 127 ofClear 63;
#X obj 56 60 loadbang;
#X floatatom 62 213 5 0 0 0 - - -, f 5;
#X floatatom 101 213 5 0 0 0 - - -, f 5;
#X floatatom 140 213 5 0 0 0 - - -, f 5;
#X obj 75 565 cnv 17 3 17 empty empty 1 5 9 0 16 -228856 -162280 0
;
#X text 95 565 float;
#X obj 75 588 cnv 17 3 17 empty empty 2 5 9 0 16 -228856 -162280 0
;
#X text 95 588 float;
#X obj 75 611 cnv 17 3 17 empty empty 3 5 9 0 16 -228856 -162280 0
;
#X text 95 611 float;
#X obj 499 5 ofPointLight;
#X obj 23 322 ofTranslate 160 120;
#X text 177 212 set x \, y \, z position of the light source.;
#X text 95 518 attenuation <f \, f \, f>;
#X text 95 538 debug <f/s>;
#X text 72 718 2) float;
#X text 72 698 1) float;
#X text 72 738 3) float;
#X obj 23 149 ofSetDepthTest ON;
#X obj 23 374 ofSetDepthTest OFF;
#X obj 23 232 ofPointLight 0 0 100;
#N canvas 321 87 600 426 ofPointLight_parameters 0;
#X obj 38 379 outlet;
#X floatatom 91 111 5 0 255 0 - - -, f 5;
#X floatatom 144 111 5 0 255 0 - - -, f 5;
#X floatatom 197 111 5 0 255 0 - - -, f 5;
#X obj 119 311 tgl 15 0 empty empty empty 17 7 0 10 -262144 -1 -1 0
1;
#X obj 38 332 ofPack debug 0;
#X text 135 333 enable/disable the debug mode.;
#X msg 38 32 print;
#X text 82 32 print the current settings.;
#X floatatom 69 61 5 0 0 0 - - -, f 5;
#X floatatom 111 61 5 0 0 0 - - -, f 5;
#X floatatom 153 61 5 0 0 0 - - -, f 5;
#X obj 38 82 ofPack set 0 0 0;
#X text 146 82 set x \, y \, z position of the light source.;
#X text 212 132 set the color of highlights on a material.;
#X floatatom 89 161 5 0 255 0 - - -, f 5;
#X floatatom 140 161 5 0 255 0 - - -, f 5;
#X floatatom 191 161 5 0 255 0 - - -, f 5;
#X text 207 182 set the color of material when it is illuminated.;
#X floatatom 77 211 5 0 255 0 - - -, f 5;
#X floatatom 123 211 5 0 255 0 - - -, f 5;
#X floatatom 169 211 5 0 255 0 - - -, f 5;
#X obj 38 232 ofPack ambient 0 0 0;
#X text 170 232 set the color of material when it is not illuminated.
;
#X floatatom 85 261 5 0 0 0 - - -, f 5;
#X floatatom 132 261 5 0 0 0 - - -, f 5;
#X floatatom 179 261 5 0 0 0 - - -, f 5;
#X text 196 283 set constant \, linear \, quadratic attenuation.;
#X text 196 300 (set the way the light fades out with distance);
#X text 135 350 (when in debug mode \, the light source will be visible
as a 3d object);
#X obj 38 132 ofPack specular 100 100 100;
#X obj 38 182 ofPack diffuse 200 200 200;
#X obj 38 282 ofPack attenuation 1 0 0;
#X connect 1 0 30 1;
#X connect 2 0 30 2;
#X connect 3 0 30 3;
#X connect 4 0 5 1;
#X connect 5 0 0 0;
#X connect 7 0 0 0;
#X connect 9 0 12 1;
#X connect 10 0 12 2;
#X connect 11 0 12 3;
#X connect 12 0 0 0;
#X connect 15 0 31 1;
#X connect 16 0 31 2;
#X connect 17 0 31 3;
#X connect 19 0 22 1;
#X connect 20 0 22 2;
#X connect 21 0 22 3;
#X connect 22 0 0 0;
#X connect 24 0 32 1;
#X connect 25 0 32 2;
#X connect 26 0 32 3;
#X connect 30 0 0 0;
#X connect 31 0 0 0;
#X connect 32 0 0 0;
#X restore 58 181 pd ofPointLight_parameters;
#X text 137 149 depth test should be enabled to make lighting work
properly.;
#X obj 23 296 ofMaterial;
#N canvas 325 87 469 374 ofMaterial_parameters 0;
#X floatatom 89 57 5 0 255 0 - - -, f 5;
#X floatatom 142 57 5 0 255 0 - - -, f 5;
#X floatatom 195 57 5 0 255 0 - - -, f 5;
#X floatatom 87 107 5 0 255 0 - - -, f 5;
#X floatatom 138 107 5 0 255 0 - - -, f 5;
#X floatatom 189 107 5 0 255 0 - - -, f 5;
#X floatatom 75 157 5 0 255 0 - - -, f 5;
#X floatatom 114 157 5 0 255 0 - - -, f 5;
#X floatatom 153 157 5 0 255 0 - - -, f 5;
#X obj 36 178 ofPack ambient 0 0 0;
#X floatatom 83 207 5 0 255 0 - - -, f 5;
#X floatatom 130 207 5 0 255 0 - - -, f 5;
#X floatatom 177 207 5 0 255 0 - - -, f 5;
#X floatatom 153 257 5 0 0 0 - - -, f 5;
#X text 208 78 set the specular color.;
#X text 203 128 set the diffuse color.;
#X text 167 178 set the ambient color.;
#X text 189 228 set the emissive color.;
#X text 167 278 set the shininess.;
#X obj 36 324 outlet;
#X msg 36 32 print;
#X text 85 32 print the current settings.;
#X obj 36 78 ofPack specular 100 100 100;
#X obj 36 128 ofPack diffuse 200 200 200;
#X obj 36 228 ofPack emissive 50 50 50;
#X obj 36 278 ofPack shininess 120;
#X connect 0 0 22 1;
#X connect 1 0 22 2;
#X connect 2 0 22 3;
#X connect 3 0 23 1;
#X connect 4 0 23 2;
#X connect 5 0 23 3;
#X connect 6 0 9 1;
#X connect 7 0 9 2;
#X connect 8 0 9 3;
#X connect 9 0 19 0;
#X connect 10 0 24 1;
#X connect 11 0 24 2;
#X connect 12 0 24 3;
#X connect 13 0 25 1;
#X connect 20 0 19 0;
#X connect 22 0 19 0;
#X connect 23 0 19 0;
#X connect 24 0 19 0;
#X connect 25 0 19 0;
#X restore 58 264 pd ofMaterial_parameters;
#X obj 23 348 ofSphere 50 50;
#X text 95 296 light interacts strongly with material.;
#X text 95 458 specular <f \, f \, f>;
#X text 95 478 diffuse <f \, f \, f>;
#X text 95 498 ambient <f \, f \, f>;
#X text 261 565 - x position of the light source.;
#X text 261 588 - y position of the light source.;
#X text 261 611 - z position of the light source.;
#X text 261 458 - sets the color of highlights on a material.;
#X text 261 478 - sets the color of material when it is illuminated.
;
#X text 261 518 - sets constant \, linear \, quadratic attenuation.
;
#X text 261 498 - sets the color of material when it is not illuminated.
;
#X text 261 538 - enables/disables the debug mode.;
#X text 261 698 - x position of the light source. (default: 0);
#X text 261 718 - y position of the light source. (default: 0);
#X text 261 738 - z position of the light source. (default: 0);
#X text 11 23 a light that spreads outward evenly in all directions
;
#X text 143 351 a known bug: once you use and destroy [ofSpotlight]
object \, [ofPointLight] and [ofDirectionalLight] may not work properly.
you need to recreate the window in this case.;
#X text 201 394 note: [ofPointLight] currently does not work correctly
if using non-default orientation on mobile device.;
#X connect 12 0 13 1;
#X connect 13 0 14 0;
#X connect 14 0 33 0;
#X connect 15 0 12 0;
#X connect 16 0 35 1;
#X connect 17 0 35 2;
#X connect 18 0 35 3;
#X connect 26 0 40 0;
#X connect 33 0 35 0;
#X connect 35 0 38 0;
#X connect 36 0 35 0;
#X connect 38 0 26 0;
#X connect 39 0 38 0;
#X connect 40 0 34 0;
