#N canvas 321 23 600 599 10;
#X obj 0 0 cnv 15 580 40 empty empty ofPopStyle 3 12 0 18 -204280 -1
0;
#X obj 0 421 cnv 3 580 3 empty empty inlets 8 12 0 13 -228856 -1 0
;
#X obj 0 457 cnv 3 580 3 empty empty outlets 8 12 0 13 -228856 -1 0
;
#X obj 75 429 cnv 17 3 17 empty empty 0 5 9 0 16 -228856 -162280 0
;
#X obj 75 465 cnv 17 3 17 empty empty 0 5 9 0 16 -228856 -162280 0
;
#X obj 0 542 cnv 15 580 21 empty empty empty 20 12 0 14 -228856 -66577
0;
#X obj 0 493 cnv 3 580 3 empty empty arguments 8 12 0 13 -228856 -1
0;
#X text 72 516 (none);
#X obj 168 130 loadbang;
#X text 95 429 render bang;
#X text 211 429 - the incoming render bang.;
#X text 211 465 - the outgoing render bang.;
#X text 95 465 render bang;
#X text 11 23 pop the current style;
#X obj 511 5 ofPopStyle;
#X obj 168 151 ofGetLastRenderOrder;
#X obj 135 172 ofHead;
#X obj 135 194 ofClear 63;
#X obj 135 216 ofSetColor red;
#X obj 145 238 ofPushStyle;
#X obj 145 260 ofSetColor yellow;
#X obj 145 282 ofSetFillMode OUTLINE;
#X obj 145 304 ofSquare 100;
#X obj 145 326 ofPopStyle;
#X obj 135 348 ofSquare 50;
#X obj 23 398 ofWindow 320 240 LEFT TOP;
#X text 21 43 [ofPushStyle] saves the current style settings (ofSetColor
\, ofSetBgColor \, ofSetRectMode \, ofSetTextMode \, ofSetFillMode
\, ofSetPolyMode \, ofSetBlendMode \, ofSetLineWidth \, ofSetLineSmoothing
\, ofSetCircleRes \, ofSetCurveRes) and [ofPopStyle] restores the prior
style settings.;
#X text 214 349 this square doesn't get affected by the above [ofSetColor]
and [ofSetFillMode] between [ofPushStyle] and [ofPopStyle].;
#X connect 8 0 15 0;
#X connect 15 0 16 1;
#X connect 16 0 17 0;
#X connect 17 0 18 0;
#X connect 18 0 19 0;
#X connect 19 0 20 0;
#X connect 20 0 21 0;
#X connect 21 0 22 0;
#X connect 22 0 23 0;
#X connect 23 0 24 0;
