#N canvas 321 23 602 675 10;
#X obj 0 0 cnv 15 580 40 empty empty ofQuad2d 3 12 0 18 -204280 -1
0;
#X obj 0 341 cnv 3 580 3 empty empty inlets 8 12 0 13 -228856 -1 0
;
#X obj 0 469 cnv 3 580 3 empty empty outlets 8 12 0 13 -228856 -1 0
;
#X obj 75 349 cnv 17 3 17 empty empty 0 5 9 0 16 -228856 -162280 0
;
#X obj 75 477 cnv 17 3 17 empty empty 0 5 9 0 16 -228856 -162280 0
;
#X obj 0 617 cnv 15 580 21 empty empty empty 20 12 0 14 -228856 -66577
0;
#X obj 0 505 cnv 3 580 3 empty empty arguments 8 12 0 13 -228856 -1
0;
#X obj 133 96 loadbang;
#X obj 75 372 cnv 17 3 17 empty empty 1 5 9 0 16 -228856 -162280 0
;
#X text 95 349 render bang;
#X text 211 349 - the incoming render bang.;
#X text 211 477 - the outgoing render bang.;
#X text 95 477 render bang;
#X obj 75 395 cnv 17 3 17 empty empty 2 5 9 0 16 -228856 -162280 0
;
#X text 95 372 list <f \, f>;
#X text 95 395 list <f \, f>;
#X text 72 528 1) list <f \, f>;
#X text 72 549 2) list <f \, f>;
#X obj 75 418 cnv 17 3 17 empty empty 3 5 9 0 16 -228856 -162280 0
;
#X text 95 418 list <f \, f>;
#X text 72 570 3) list <f \, f>;
#X text 11 23 draw a 2d quadrilateral;
#X msg 189 219 100 50;
#X msg 147 219 50 0;
#X msg 301 219 0 50;
#X msg 245 219 50 100;
#X text 340 219 change point1 \, point2 \, point3 \, point4.;
#X obj 75 441 cnv 17 3 17 empty empty 4 5 9 0 16 -228856 -162280 0
;
#X text 95 441 list <f \, f>;
#X text 72 591 4) list <f \, f>;
#X obj 523 5 ofQuad2d;
#X obj 133 117 ofGetLastRenderOrder;
#X obj 100 138 ofHead;
#X obj 100 159 ofClear 63;
#X obj 100 187 ofTranslate 110 70;
#X obj 100 246 ofQuad2d 0 0 100 0 100 100 0 100;
#X obj 23 318 ofWindow 320 240 LEFT TOP;
#X text 211 372 - sets the point1. (x1 \, y1);
#X text 211 395 - sets the point2. (x2 \, y2);
#X text 211 418 - sets the point3. (x3 \, y3);
#X text 211 441 - sets the point4. (x4 \, y4);
#X text 211 528 - sets the initial point1. (x1 \, y1) (default: 0 \,
0);
#X text 211 549 - sets the initial point2. (x2 \, y2) (default: 100
\, 0);
#X text 211 570 - sets the initial point3. (x3 \, y3) (default: 100
\, 100);
#X text 211 591 - sets the initial point4. (x4 \, y4) (default: 0 \,
100);
#X connect 7 0 31 0;
#X connect 22 0 35 2;
#X connect 23 0 35 1;
#X connect 24 0 35 4;
#X connect 25 0 35 3;
#X connect 31 0 32 1;
#X connect 32 0 33 0;
#X connect 33 0 34 0;
#X connect 34 0 35 0;
