#N canvas 321 23 599 518 10;
#X declare -lib ofelia;
#X obj 0 0 cnv 15 580 40 empty empty ofRadToDeg 3 12 0 18 -204280 -1
0;
#X obj 0 341 cnv 3 580 3 empty empty inlets 8 12 0 13 -228856 -1 0
;
#X obj 0 375 cnv 3 580 3 empty empty outlets 8 12 0 13 -228856 -1 0
;
#X obj 75 349 cnv 17 3 17 empty empty 0 5 9 0 16 -228856 -162280 0
;
#X obj 75 383 cnv 17 3 17 empty empty 0 5 9 0 16 -228856 -162280 0
;
#X obj 0 460 cnv 15 580 21 empty empty empty 20 12 0 14 -228856 -66577
0;
#X obj 0 411 cnv 3 580 3 empty empty arguments 8 12 0 13 -228856 -1
0;
#X text 72 434 (none);
#X floatatom 275 197 10 0 0 0 - - -, f 10;
#X text 95 383 float;
#X floatatom 275 145 5 0 0 0 - - -, f 5;
#X text 95 349 float;
#X text 11 23 convert radians to degrees;
#X text 211 349 - an angle in radians.;
#X text 211 383 - the angle in degrees.;
#X obj 511 5 ofRadToDeg;
#X obj 275 170 ofRadToDeg;
#X obj 462 46 declare -lib ofelia;
#X connect 10 0 16 0;
#X connect 16 0 8 0;
