#N canvas 321 23 596 628 10;
#X obj 0 0 cnv 15 580 40 empty empty ofRectRounded 3 12 0 18 -204280
-1 0;
#X obj 0 341 cnv 3 580 3 empty empty inlets 8 12 0 13 -228856 -1 0
;
#X obj 0 443 cnv 3 580 3 empty empty outlets 8 12 0 13 -228856 -1 0
;
#X obj 75 349 cnv 17 3 17 empty empty 0 5 9 0 16 -228856 -162280 0
;
#X obj 75 451 cnv 17 3 17 empty empty 0 5 9 0 16 -228856 -162280 0
;
#X obj 0 570 cnv 15 580 21 empty empty empty 20 12 0 14 -228856 -66577
0;
#X obj 0 479 cnv 3 580 3 empty empty arguments 8 12 0 13 -228856 -1
0;
#X text 72 502 1) float;
#X obj 223 94 loadbang;
#X floatatom 237 244 5 0 0 0 - - -, f 5;
#X obj 75 372 cnv 17 3 17 empty empty 1 5 9 0 16 -228856 -162280 0
;
#X text 95 372 float;
#X text 95 349 render bang;
#X text 211 349 - the incoming render bang.;
#X text 211 451 - the outgoing render bang.;
#X text 95 451 render bang;
#X floatatom 284 244 5 0 0 0 - - -, f 5;
#X obj 75 395 cnv 17 3 17 empty empty 2 5 9 0 16 -228856 -162280 0
;
#X text 95 395 float;
#X text 211 372 - sets the width.;
#X text 211 395 - sets the height.;
#X text 72 523 2) float;
#X floatatom 331 244 5 0 0 0 - - -, f 5;
#X text 369 243 change width \, height \, radius.;
#X obj 75 418 cnv 17 3 17 empty empty 3 5 9 0 16 -228856 -162280 0
;
#X text 95 418 float;
#X text 211 418 - sets the radius.;
#X text 72 544 3) float;
#X text 11 23 draw a rounded rectangle with a given corner radius;
#X obj 493 5 ofRectRounded;
#X obj 223 115 ofGetLastRenderOrder;
#X obj 190 136 ofHead;
#X obj 190 157 ofClear 63;
#X obj 190 185 ofTranslate 160 120;
#X obj 190 213 ofSetRectMode CENTER;
#X obj 190 264 ofRectRounded 100 100 15;
#X obj 23 318 ofWindow 320 240 LEFT TOP;
#X text 211 502 - sets the initial width. (default: 100);
#X text 211 523 - sets the initial height. (default: 100);
#X text 211 544 - sets the initial radius. (default: 15);
#X connect 8 0 30 0;
#X connect 9 0 35 1;
#X connect 16 0 35 2;
#X connect 22 0 35 3;
#X connect 30 0 31 1;
#X connect 31 0 32 0;
#X connect 32 0 33 0;
#X connect 33 0 34 0;
#X connect 34 0 35 0;
