#N canvas 321 23 597 589 10;
#X obj 0 0 cnv 15 580 40 empty empty ofRegPolygon 3 12 0 18 -204280
-1 0;
#X obj 0 341 cnv 3 580 3 empty empty inlets 8 12 0 13 -228856 -1 0
;
#X obj 0 423 cnv 3 580 3 empty empty outlets 8 12 0 13 -228856 -1 0
;
#X obj 75 349 cnv 17 3 17 empty empty 0 5 9 0 16 -228856 -162280 0
;
#X obj 75 431 cnv 17 3 17 empty empty 0 5 9 0 16 -228856 -162280 0
;
#X obj 0 529 cnv 15 580 21 empty empty empty 20 12 0 14 -228856 -66577
0;
#X obj 0 459 cnv 3 580 3 empty empty arguments 8 12 0 13 -228856 -1
0;
#X text 72 482 1) float;
#X obj 253 107 loadbang;
#X floatatom 269 227 5 0 0 0 - - -, f 5;
#X obj 75 372 cnv 17 3 17 empty empty 1 5 9 0 16 -228856 -162280 0
;
#X text 95 372 float;
#X text 95 349 render bang;
#X text 211 349 - the incoming render bang.;
#X text 211 431 - the outgoing render bang.;
#X text 95 431 render bang;
#X floatatom 319 227 5 0 0 0 - - -, f 5;
#X obj 75 395 cnv 17 3 17 empty empty 2 5 9 0 16 -228856 -162280 0
;
#X text 95 395 float;
#X text 72 503 2) float;
#X text 11 23 draw a regular polygon;
#X text 356 226 change radius \, number of sides.;
#X text 211 372 - sets the radius.;
#X text 211 395 - sets the number of sides.;
#X obj 499 5 ofRegPolygon;
#X obj 253 128 ofGetLastRenderOrder;
#X obj 220 149 ofHead;
#X obj 220 170 ofClear 63;
#X obj 220 198 ofTranslate 160 120;
#X obj 220 247 ofRegPolygon 50 5;
#X obj 23 318 ofWindow 320 240 LEFT TOP;
#X text 211 482 - sets the initial radius. (default: 50);
#X text 211 503 - sets the initial number of sides. (default: 5);
#X connect 8 0 25 0;
#X connect 9 0 29 1;
#X connect 16 0 29 2;
#X connect 25 0 26 1;
#X connect 26 0 27 0;
#X connect 27 0 28 0;
#X connect 28 0 29 0;
