#N canvas 321 23 599 497 10;
#X declare -lib ofelia;
#X obj 0 0 cnv 15 580 40 empty empty ofRgbToHex 3 12 0 18 -204280 -1
0;
#X obj 0 341 cnv 3 580 3 empty empty inlets 8 12 0 13 -228856 -1 0
;
#X obj 0 375 cnv 3 580 3 empty empty outlets 8 12 0 13 -228856 -1 0
;
#X obj 75 349 cnv 17 3 17 empty empty 0 5 9 0 16 -228856 -162280 0
;
#X obj 75 383 cnv 17 3 17 empty empty 0 5 9 0 16 -228856 -162280 0
;
#X obj 0 460 cnv 15 580 21 empty empty empty 20 12 0 14 -228856 -66577
0;
#X obj 0 411 cnv 3 580 3 empty empty arguments 8 12 0 13 -228856 -1
0;
#X text 72 434 (none);
#X symbolatom 231 213 10 0 0 0 - - -, f 10;
#X text 299 213 the converted hex color value.;
#X text 95 349 list <f \, f \, f>;
#X text 95 383 symbol;
#X text 211 383 - the converted hex color value.;
#X text 11 23 convert rgb color values to hex color values;
#X obj 511 5 ofRgbToHex;
#X obj 231 176 ofRgbToHex;
#X text 299 139 the rgb color value to convert.;
#X text 211 349 - the incoming rgb color value to convert.;
#X msg 231 139 255 165 0;
#X obj 462 46 declare -lib ofelia;
#X connect 15 0 8 0;
#X connect 18 0 15 0;
