#N canvas 321 23 601 587 10;
#X obj 0 0 cnv 15 580 40 empty empty ofRotationAxes 3 12 0 18 -204280
-1 0;
#X obj 262 79 loadbang;
#X obj 0 341 cnv 3 580 3 empty empty inlets 8 12 0 13 -228856 -1 0
;
#X obj 0 423 cnv 3 580 3 empty empty outlets 8 12 0 13 -228856 -1 0
;
#X obj 75 349 cnv 17 3 17 empty empty 0 5 9 0 16 -228856 -162280 0
;
#X obj 75 431 cnv 17 3 17 empty empty 0 5 9 0 16 -228856 -162280 0
;
#X obj 0 528 cnv 15 580 21 empty empty empty 20 12 0 14 -228856 -66577
0;
#X obj 0 459 cnv 3 580 3 empty empty arguments 8 12 0 13 -228856 -1
0;
#X obj 75 372 cnv 17 3 17 empty empty 1 5 9 0 16 -228856 -162280 0
;
#X text 95 349 render bang;
#X text 211 349 - the incoming render bang.;
#X text 211 431 - the outgoing render bang.;
#X text 95 431 render bang;
#X obj 75 395 cnv 17 3 17 empty empty 2 5 9 0 16 -228856 -162280 0
;
#X text 499 5 or;
#X text 11 23 draw a set of 3-axis aligned circular bands;
#X floatatom 284 258 5 0 0 0 - - -, f 5;
#X floatatom 340 258 5 0 0 0 - - -, f 5;
#X text 380 257 change radius \, stripWidth.;
#X floatatom 268 206 5 0 0 0 - - -, f 5;
#X floatatom 307 206 5 0 0 0 - - -, f 5;
#X floatatom 346 206 5 0 0 0 - - -, f 5;
#X text 95 372 float;
#X text 95 395 float;
#X text 211 372 - sets the radius.;
#X text 211 395 - sets the strip width.;
#X text 72 482 1) float;
#X text 72 502 2) float;
#X obj 408 5 ofRotationAxes;
#X obj 517 5 ofRotAxes;
#X obj 262 100 ofGetLastRenderOrder;
#X obj 229 121 ofHead;
#X obj 229 142 ofClear 63;
#X obj 229 170 ofTranslate 160 120;
#X obj 229 278 ofRotationAxes 50 2;
#X obj 23 318 ofWindow 320 240 LEFT TOP;
#X text 211 482 - sets the initial radius. (default: 50);
#X text 211 502 - sets the initial strip width. (default: 2);
#X obj 229 226 ofRotateXYZ 50 50 50;
#X connect 1 0 30 0;
#X connect 16 0 34 1;
#X connect 17 0 34 2;
#X connect 19 0 38 1;
#X connect 20 0 38 2;
#X connect 21 0 38 3;
#X connect 30 0 31 1;
#X connect 31 0 32 0;
#X connect 32 0 33 0;
#X connect 33 0 38 0;
#X connect 38 0 34 0;
