#N canvas 321 23 596 684 10;
#X obj 0 0 cnv 15 580 40 empty empty ofRotateXYZ 3 12 0 18 -204280
-1 0;
#X obj 0 401 cnv 3 580 3 empty empty inlets 8 12 0 13 -228856 -1 0
;
#X obj 0 506 cnv 3 580 3 empty empty outlets 8 12 0 13 -228856 -1 0
;
#X obj 75 409 cnv 17 3 17 empty empty 0 5 9 0 16 -228856 -162280 0
;
#X obj 75 514 cnv 17 3 17 empty empty 0 5 9 0 16 -228856 -162280 0
;
#X obj 0 630 cnv 15 580 21 empty empty empty 20 12 0 14 -228856 -66577
0;
#X obj 0 542 cnv 3 580 3 empty empty arguments 8 12 0 13 -228856 -1
0;
#X text 95 409 render bang;
#X text 211 409 - the incoming render bang.;
#X obj 75 432 cnv 17 3 17 empty empty 1 5 9 0 16 -228856 -162280 0
;
#X text 95 514 render bang;
#X text 211 514 - the outgoing render bang.;
#X text 95 432 float;
#X obj 75 455 cnv 17 3 17 empty empty 2 5 9 0 16 -228856 -162280 0
;
#X text 95 455 float;
#X obj 75 478 cnv 17 3 17 empty empty 3 5 9 0 16 -228856 -162280 0
;
#X text 95 478 float;
#X obj 248 102 loadbang;
#X text 505 5 or;
#X floatatom 291 272 5 0 0 0 - - -, f 5;
#X floatatom 331 272 5 0 0 0 - - -, f 5;
#X floatatom 371 272 5 0 0 0 - - -, f 5;
#X text 376 242 set x y z at once.;
#X text 72 565 1) float;
#X text 72 585 2) float;
#X msg 291 242 set 10 30 20;
#X text 211 432 - degrees to rotate around the x-axis.;
#X text 211 455 - degrees to rotate around the y-axis.;
#X text 211 478 - degrees to rotate around the z-axis.;
#X obj 248 123 ofGetLastRenderOrder;
#X obj 215 144 ofHead;
#X obj 215 167 ofClear 63;
#X obj 215 190 ofTranslate 160 120;
#X obj 215 213 ofSetRectMode CENTER;
#X obj 215 344 ofSquare 100;
#X obj 23 378 ofWindow 320 240 LEFT TOP;
#X text 211 565 - degrees to rotate around the x-axis. (default: 0)
;
#X text 211 585 - degrees to rotate around the y-axis. (default: 0)
;
#X text 211 605 - degrees to rotate around the z-axis. (default: 0)
;
#X text 72 605 3) float;
#X obj 430 5 ofRotateXYZ;
#X obj 523 5 ofRotXYZ;
#X obj 215 323 ofRotateXYZ 0 0 45;
#X text 11 23 rotate around the xyz-axis of the coordinate system;
#X text 21 43 [ofRotateXYZ] produces a rotation of angle "degrees"
around x \, y and z axis(in this order) of the coordinate system.;
#X connect 17 0 29 0;
#X connect 19 0 42 1;
#X connect 20 0 42 2;
#X connect 21 0 42 3;
#X connect 25 0 42 0;
#X connect 29 0 30 1;
#X connect 30 0 31 0;
#X connect 31 0 32 0;
#X connect 32 0 33 0;
#X connect 33 0 42 0;
#X connect 42 0 34 0;
