#N canvas 321 23 601 538 10;
#X declare -lib ofelia;
#X obj 0 0 cnv 15 580 40 empty empty ofSaveURL 3 12 0 18 -204280 -1
0;
#X obj 0 341 cnv 3 580 3 empty empty inlets 8 12 0 13 -228856 -1 0
;
#X obj 0 400 cnv 3 580 3 empty empty outlets 8 12 0 13 -228856 -1 0
;
#X obj 75 349 cnv 17 3 40 empty empty 0 5 9 0 16 -228856 -162280 0
;
#X obj 0 483 cnv 15 580 21 empty empty empty 20 12 0 14 -228856 -66577
0;
#X obj 0 434 cnv 3 580 3 empty empty arguments 8 12 0 13 -228856 -1
0;
#X text 72 457 (none);
#X obj 25 79 bng 15 250 50 0 empty empty empty 17 7 0 10 -262144 -1
-1;
#X symbolatom 25 157 50 0 0 0 - - -, f 50;
#X obj 25 106 ofGetPatchDirectory;
#X obj 25 294 bng 15 250 50 0 empty empty empty 17 7 0 10 -262144 -1
-1;
#X obj 75 408 cnv 17 3 17 empty empty 0 5 9 0 16 -228856 -162280 0
;
#X text 95 408 bang;
#X obj 517 5 ofSaveURL;
#X text 11 23 save a file from a url;
#X msg 25 181 save https://dummyimage.com/640x480/a2c8a2/image1.png
\$1/image1.png \, save https://dummyimage.com/160x160/ffe39b/image2.png
\$1/image2.png, f 68;
#X obj 25 266 ofSaveURL;
#X msg 46 230 clear;
#X text 46 78 save files from the specified urls.;
#X text 335 157 a path to save files to.;
#X text 46 294 outputs bang when saving is done.;
#X text 211 408 - outputs bang when saving is done.;
#X text 95 349 save <s \, s>;
#X text 95 369 clear;
#X text 211 349 - save <url \, path> saves a file from a url to a path.
;
#X text 94 230 clear existing requests.;
#X text 211 369 - clears existing requests.;
#X obj 25 129 makefilename %s/examples/data;
#X obj 462 46 declare -lib ofelia;
#X connect 7 0 9 0;
#X connect 8 0 15 0;
#X connect 9 0 27 0;
#X connect 15 0 16 0;
#X connect 16 0 10 0;
#X connect 17 0 16 0;
#X connect 27 0 8 0;
