#N canvas 321 23 601 670 10;
#X obj 0 0 cnv 15 580 40 empty empty ofSaveImage 3 12 0 18 -204280
-1 0;
#X obj 0 451 cnv 3 580 3 empty empty inlets 8 12 0 13 -228856 -1 0
;
#X obj 0 530 cnv 3 580 3 empty empty outlets 8 12 0 13 -228856 -1 0
;
#X obj 75 459 cnv 17 3 60 empty empty 0 5 9 0 16 -228856 -162280 0
;
#X obj 75 538 cnv 17 3 17 empty empty 0 5 9 0 16 -228856 -162280 0
;
#X obj 0 615 cnv 15 580 21 empty empty empty 20 12 0 14 -228856 -66577
0;
#X obj 0 566 cnv 3 580 3 empty empty arguments 8 12 0 13 -228856 -1
0;
#X text 72 589 1) symbol;
#N canvas 322 114 507 253 about_vector 0;
#X text 26 23 in ofelia \, a vector data structure is commonly used
for handling various data types such as float \, symbol and list. vectors
are much like arrays that can dynamically be changed in size.;
#X text 26 163 each "loader" object should have a unique variable name
so its data can be properly accessed by "getter" objects that use the
name.;
#X text 26 93 in general \, objects that use vector are divided into
two types \, "loader" objects that can store an array of data and "getter"
objects that can read the stored data from "loader" objects.;
#X restore 486 46 pd about_vector;
#X obj 23 429 ofWindow 320 240 LEFT TOP;
#X obj 505 5 ofSaveImage;
#X text 11 23 save image to disk;
#X obj 26 403 bng 15 250 50 0 empty empty empty 17 7 0 10 -262144 -1
-1;
#X text 46 403 outputs bang when saving is done.;
#X obj 26 139 bng 15 250 50 0 empty empty empty 17 7 0 10 -262144 -1
-1;
#X symbolatom 26 212 60 0 0 0 - - -, f 60;
#X obj 26 166 ofGetPatchDirectory;
#X obj 26 352 ofPrepend save;
#X text 49 138 save the image.;
#X text 95 479 name <s>;
#X text 95 499 save <s \, f/s>;
#X text 241 499 - save <path \, quality(default:BEST)>;
#X obj 71 244 vradio 15 1 0 5 empty empty empty 0 -8 0 10 -262144 -1
-1 0;
#X text 92 243 0: BEST;
#X obj 26 325 pack s 0;
#X text 92 259 1: HIGH;
#X text 92 274 2: MIDIUM;
#X text 92 289 3: LOW;
#X text 92 304 4: WORST;
#X text 95 538 bang;
#X text 241 538 - outputs bang when saving is done.;
#X text 241 479 - sets the variable name followed by the index.;
#X text 241 589 - sets the variable name followed by the index.;
#X obj 26 376 ofSaveImage @myImages[0];
#X text 95 459 float;
#X text 241 459 - sets the index of the array element.;
#X text 88 325 you can optionally set the quality of the image.;
#X obj 26 189 makefilename %s/examples/data/myImage.jpg;
#X obj 26 60 ofLoadImage \; @myImages \; examples/data/background.jpg
\; examples/data/texture.jpg \;;
#X connect 14 0 16 0;
#X connect 15 0 24 0;
#X connect 16 0 37 0;
#X connect 17 0 33 0;
#X connect 22 0 24 1;
#X connect 24 0 17 0;
#X connect 33 0 12 0;
#X connect 37 0 15 0;
