#N canvas 321 23 607 517 10;
#X obj 0 0 cnv 15 580 40 empty empty ofScaleListener 3 12 0 18 -204280
-1 0;
#X obj 0 341 cnv 3 580 3 empty empty inlets 8 12 0 13 -228856 -1 0
;
#X obj 0 375 cnv 3 580 3 empty empty outlets 8 12 0 13 -228856 -1 0
;
#X obj 75 383 cnv 17 3 17 empty empty 0 5 9 0 16 -228856 -162280 0
;
#X obj 0 460 cnv 15 580 21 empty empty empty 20 12 0 14 -228856 -66577
0;
#X obj 0 411 cnv 3 580 3 empty empty arguments 8 12 0 13 -228856 -1
0;
#X text 72 434 (none);
#X text 72 349 (none);
#X text 11 23 listen to the updated scale of the current window;
#X msg 23 88 destroy \, create;
#X msg 43 128 scale 0.5;
#X msg 53 158 scale 1;
#X text 122 128 try changing the scale of the window. you can also
change it by resizing the window using the mouse.;
#X floatatom 259 240 5 0 0 0 - - -, f 5;
#X text 95 383 float;
#X text 211 383 - the updated scale of the current window.;
#X msg 63 188 scale 2;
#X obj 481 5 ofScaleListener;
#X text 131 89 recreate the current window if it is created by other
[ofWindow] object so you can change its settings here.;
#X obj 259 198 ofScaleListener;
#X obj 23 318 ofWindow 320 240 LEFT TOP;
#X connect 9 0 20 0;
#X connect 10 0 20 0;
#X connect 11 0 20 0;
#X connect 16 0 20 0;
#X connect 19 0 13 0;
