#N canvas 321 23 596 656 10;
#X obj 0 0 cnv 15 580 40 empty empty ofScale 3 12 0 18 -204280 -1 0
;
#X obj 0 371 cnv 3 580 3 empty empty inlets 8 12 0 13 -228856 -1 0
;
#X obj 0 476 cnv 3 580 3 empty empty outlets 8 12 0 13 -228856 -1 0
;
#X obj 75 379 cnv 17 3 17 empty empty 0 5 9 0 16 -228856 -162280 0
;
#X obj 75 484 cnv 17 3 17 empty empty 0 5 9 0 16 -228856 -162280 0
;
#X obj 0 600 cnv 15 580 21 empty empty empty 20 12 0 14 -228856 -66577
0;
#X obj 0 512 cnv 3 580 3 empty empty arguments 8 12 0 13 -228856 -1
0;
#X text 95 379 render bang;
#X text 211 379 - the incoming render bang.;
#X obj 75 402 cnv 17 3 17 empty empty 1 5 9 0 16 -228856 -162280 0
;
#X text 95 484 render bang;
#X text 211 484 - the outgoing render bang.;
#X text 95 402 float;
#X obj 75 425 cnv 17 3 17 empty empty 2 5 9 0 16 -228856 -162280 0
;
#X text 95 425 float;
#X obj 75 448 cnv 17 3 17 empty empty 3 5 9 0 16 -228856 -162280 0
;
#X text 95 448 float;
#X obj 228 104 loadbang;
#X floatatom 271 249 5 0 0 0 - - -, f 5;
#X floatatom 311 249 5 0 0 0 - - -, f 5;
#X floatatom 351 249 5 0 0 0 - - -, f 5;
#X text 375 219 set x y z at once.;
#X text 72 535 1) float;
#X text 72 555 2) float;
#X text 300 300 is identical to;
#X msg 271 219 set 0.7 0.7 1;
#X text 11 23 scale along the coordinate system;
#X text 211 402 - amount to scale along the x-axis.;
#X text 211 425 - amount to scale along the y-axis.;
#X text 211 448 - amount to scale along the z-axis.;
#X obj 529 5 ofScale;
#X text 21 43 [ofScale] produces a nonuniform scaling along the x \,
y and z axis. the three parameters of [ofScale] indicate the desired
scale factor along each of the three axes.;
#X obj 228 125 ofGetLastRenderOrder;
#X obj 195 146 ofHead;
#X obj 195 167 ofClear 63;
#X obj 195 188 ofTranslate 160 120;
#X obj 195 300 ofScale 1.2 1 1;
#X obj 407 300 ofScale 1.2 1;
#X obj 195 321 ofCircle 50;
#X obj 23 348 ofWindow 320 240 LEFT TOP;
#X text 211 535 - amount to scale along the x-axis. (default: 1);
#X text 211 555 - amount to scale along the y-axis. (default: 1);
#X text 211 575 - amount to scale along the z-axis. (default: 1);
#X text 72 575 3) float;
#X connect 17 0 32 0;
#X connect 18 0 36 1;
#X connect 19 0 36 2;
#X connect 20 0 36 3;
#X connect 25 0 36 0;
#X connect 32 0 33 1;
#X connect 33 0 34 0;
#X connect 34 0 35 0;
#X connect 35 0 36 0;
#X connect 36 0 38 0;
