#N canvas 321 23 601 542 10;
#X obj 0 0 cnv 15 580 40 empty empty ofSetCurveRes 3 12 0 18 -204280
-1 0;
#X obj 0 341 cnv 3 580 3 empty empty inlets 8 12 0 13 -228856 -1 0
;
#X obj 0 400 cnv 3 580 3 empty empty outlets 8 12 0 13 -228856 -1 0
;
#X obj 75 349 cnv 17 3 17 empty empty 0 5 9 0 16 -228856 -162280 0
;
#X obj 75 408 cnv 17 3 17 empty empty 0 5 9 0 16 -228856 -162280 0
;
#X obj 0 485 cnv 15 580 21 empty empty empty 20 12 0 14 -228856 -66577
0;
#X obj 0 436 cnv 3 580 3 empty empty arguments 8 12 0 13 -228856 -1
0;
#X text 95 349 render bang;
#X text 211 349 - the incoming render bang.;
#X obj 75 372 cnv 17 3 17 empty empty 1 5 9 0 16 -228856 -162280 0
;
#X text 95 408 render bang;
#X text 211 408 - the outgoing render bang.;
#X text 95 372 float;
#X text 72 459 1) float;
#X obj 493 5 ofSetCurveRes;
#X obj 23 318 ofWindow 320 240 LEFT TOP;
#X text 11 23 set the resolution for curved objects;
#X text 211 372 - sets the curve resolution. (range: 1~);
#X text 211 459 - sets the initial curve resolution. (default: 50)
;
#X obj 258 100 loadbang;
#X floatatom 318 208 5 0 0 0 - - -, f 5;
#X obj 258 121 ofGetLastRenderOrder;
#X obj 225 142 ofHead;
#X obj 225 163 ofClear 63;
#X obj 225 184 ofTranslate 160 120;
#X obj 225 252 ofHeart 100 100;
#X obj 225 231 ofSetCurveRes 10;
#X text 355 207 change curve resolution.;
#X connect 19 0 21 0;
#X connect 20 0 26 1;
#X connect 21 0 22 1;
#X connect 22 0 23 0;
#X connect 23 0 24 0;
#X connect 24 0 26 0;
#X connect 26 0 25 0;
