#N canvas 321 23 600 627 10;
#X obj 0 0 cnv 15 580 40 empty empty ofSetDepthTest 3 12 0 18 -204280
-1 0;
#X obj 0 431 cnv 3 580 3 empty empty inlets 8 12 0 13 -228856 -1 0
;
#X obj 0 490 cnv 3 580 3 empty empty outlets 8 12 0 13 -228856 -1 0
;
#X obj 75 439 cnv 17 3 17 empty empty 0 5 9 0 16 -228856 -162280 0
;
#X obj 75 498 cnv 17 3 17 empty empty 0 5 9 0 16 -228856 -162280 0
;
#X obj 0 575 cnv 15 580 21 empty empty empty 20 12 0 14 -228856 -66577
0;
#X obj 0 526 cnv 3 580 3 empty empty arguments 8 12 0 13 -228856 -1
0;
#X text 95 439 render bang;
#X text 211 439 - the incoming render bang.;
#X obj 75 462 cnv 17 3 17 empty empty 1 5 9 0 16 -228856 -162280 0
;
#X obj 290 193 tgl 15 0 empty empty empty 17 7 0 10 -262144 -1 -1 0
1;
#X text 11 23 enable/disable the depth test;
#X text 95 498 render bang;
#X text 211 498 - the outgoing render bang.;
#X floatatom 296 266 5 0 0 0 - - -, f 5;
#X text 334 265 <- try changing the z-depth.;
#X text 21 43 enabling the depthTest allows rendering to happen according
to z-depth rather than drawing order. it is disabled by default.;
#X obj 185 246 t b b;
#X obj 218 105 loadbang;
#X obj 487 5 ofSetDepthTest;
#X obj 218 126 ofGetLastRenderOrder;
#X obj 185 147 ofHead;
#X obj 185 168 ofClear 63;
#X obj 185 289 ofTranslate 50 50 0;
#X obj 185 310 ofSetColor blue;
#X obj 185 332 ofSquare 100;
#X obj 185 364 ofSetDepthTest OFF;
#X obj 337 310 ofSetColor red;
#X obj 337 332 ofSquare 100;
#X obj 337 289 ofTranslate 85 45 1;
#X obj 23 408 ofWindow 320 240 LEFT TOP;
#X obj 185 214 ofSetDepthTest OFF;
#X text 95 462 float/symbol;
#X text 72 549 1) float/symbol;
#X text 312 192 0: OFF \, 1: ON.;
#X text 303 364 disable the depth test. (if enabled);
#X text 211 462 - enables/disables the depth test.;
#X text 211 549 - enables/disables the depth test. (default: OFF);
#X connect 10 0 31 1;
#X connect 14 0 23 3;
#X connect 17 0 23 0;
#X connect 17 1 29 0;
#X connect 18 0 20 0;
#X connect 20 0 21 1;
#X connect 21 0 22 0;
#X connect 22 0 31 0;
#X connect 23 0 24 0;
#X connect 24 0 25 0;
#X connect 25 0 26 0;
#X connect 27 0 28 0;
#X connect 29 0 27 0;
#X connect 31 0 17 0;
