#N canvas 321 23 598 556 10;
#X declare -lib ofelia;
#X obj 0 0 cnv 15 580 40 empty empty ofSetCanvasArgs 3 12 0 18 -204280
-1 0;
#X obj 0 381 cnv 3 580 3 empty empty inlets 8 12 0 13 -228856 -1 0
;
#X obj 0 417 cnv 3 580 3 empty empty outlets 8 12 0 13 -228856 -1 0
;
#X obj 75 389 cnv 17 3 17 empty empty 0 5 9 0 16 -228856 -162280 0
;
#X obj 0 502 cnv 15 580 21 empty empty empty 20 12 0 14 -228856 -66577
0;
#X obj 0 453 cnv 3 580 3 empty empty arguments 8 12 0 13 -228856 -1
0;
#X text 72 476 1) float;
#X text 211 476 - the 'n'th level. (default: 0);
#X obj 462 46 declare -lib ofelia;
#N canvas 322 142 450 300 myCanvas 0;
#X obj 182 83 inlet;
#X obj 182 106 ofSetCanvasArgs;
#X obj 182 143 bng 15 250 50 0 empty empty empty 17 7 0 10 -262144
-1 -1;
#X obj 182 163 ofGetCanvasArgs;
#X obj 182 184 print;
#X connect 0 0 1 0;
#X connect 2 0 3 0;
#X connect 3 0 4 0;
#X restore 115 286 pd myCanvas 1 2 3;
#X obj 481 5 ofSetCanvasArgs;
#X text 11 23 set the arguments of the canvas;
#X text 21 43 [ofSetCanvasArgs] is used to set the arguments of the
current or the parent canvas. for example \, if you use [ofSetCanvasArgs]
in an abstraction \, you can set/update the abstraction's arguments.
;
#X text 161 123 set the arguments of the patch.;
#X msg 115 123 1 2 3;
#X msg 115 191 1 2 3;
#X text 158 191 set the arguments of the parent patch. (if it exists)
;
#X text 242 260 set the arguments of the subpatch. (including the name)
;
#X obj 115 148 ofSetCanvasArgs;
#X obj 115 216 ofSetCanvasArgs 1;
#X text 95 389 list;
#X text 211 389 - sets the arguments of the canvas.;
#X text 95 428 (none);
#X msg 115 261 list myCanvas 4 5 6;
#X text 114 311 note: the canvas will show updated arguments when you
save and reopen the patch. you need to use [ofGetCanvasArgs] to get
the updated arguments instead of using dollar arguments. (e.g. \$1
\, \$2 \, \$3..);
#X connect 14 0 18 0;
#X connect 15 0 19 0;
#X connect 23 0 9 0;
