#N canvas 321 23 601 579 10;
#X declare -lib ofelia;
#X obj 0 0 cnv 15 580 40 empty empty ofSetShaderUniformTex 3 12 0 18
-204280 -1 0;
#X obj 0 341 cnv 3 580 3 empty empty inlets 8 12 0 13 -228856 -1 0
;
#X obj 0 400 cnv 3 580 3 empty empty outlets 8 12 0 13 -228856 -1 0
;
#X obj 75 349 cnv 17 3 40 empty empty 0 5 9 0 16 -228856 -162280 0
;
#X obj 75 408 cnv 17 3 17 empty empty 0 5 9 0 16 -228856 -162280 0
;
#X obj 0 524 cnv 15 580 21 empty empty empty 20 12 0 14 -228856 -66577
0;
#X obj 0 436 cnv 3 580 3 empty empty arguments 8 12 0 13 -228856 -1
0;
#X obj 23 319 ofWindow 320 240 LEFT TOP;
#X text 95 349 render bang;
#X text 95 408 render bang;
#X text 241 349 - the incoming render bang.;
#X text 241 408 - the outgoing render bang.;
#X obj 462 46 declare -lib ofelia;
#X obj 23 65 ofLoadShader \; @myShader \; examples/data/shader \;;
#X obj 56 124 loadbang;
#X obj 56 145 ofGetLastRenderOrder;
#X obj 23 166 ofHead;
#X obj 23 187 ofClear 63;
#X text 190 208 apply the shader.;
#X obj 23 208 ofApplyShader @myShader[0];
#X text 95 369 float;
#X text 72 459 1) symbol;
#X text 241 459 - sets the uniformName.;
#X obj 23 280 ofRectangle 320 240;
#X floatatom 272 233 5 0 0 0 - - -, f 5;
#X text 11 23 set a texture reference on the shader;
#X obj 445 5 ofSetShaderUniformTex;
#X text 285 254 pass texture to "uniform sampler2D uniformName" in
the shader.;
#X obj 168 65 ofLoadImage \; @myImage \; examples/data/texture.jpg
\;;
#X obj 23 254 ofSetShaderUniformTex uniformName @myImage;
#X text 311 232 set texture location.;
#X text 241 369 - sets the textureLocation.;
#X text 72 479 2) symbol;
#X text 241 479 - sets the imageName. (or fboName);
#X text 72 499 3) float;
#X text 241 499 - sets the textureLocation.;
#X connect 14 0 15 0;
#X connect 15 0 16 1;
#X connect 16 0 17 0;
#X connect 17 0 19 0;
#X connect 19 0 29 0;
#X connect 24 0 29 1;
#X connect 29 0 23 0;
