#N canvas 321 23 598 719 10;
#X declare -lib ofelia;
#X obj 0 0 cnv 15 580 40 empty empty ofSetColor 3 12 0 18 -204280 -1
0;
#X obj 0 451 cnv 3 580 3 empty empty inlets 8 12 0 13 -228856 -1 0
;
#X obj 0 579 cnv 3 580 3 empty empty outlets 8 12 0 13 -228856 -1 0
;
#X obj 75 459 cnv 17 3 17 empty empty 0 5 9 0 16 -228856 -162280 0
;
#X obj 75 587 cnv 17 3 17 empty empty 0 5 9 0 16 -228856 -162280 0
;
#X obj 0 664 cnv 15 580 21 empty empty empty 20 12 0 14 -228856 -66577
0;
#X obj 0 615 cnv 3 580 3 empty empty arguments 8 12 0 13 -228856 -1
0;
#X text 95 459 render bang;
#X text 201 459 - the incoming render bang.;
#X obj 75 482 cnv 17 3 17 empty empty 1 5 9 0 16 -228856 -162280 0
;
#X text 95 587 render bang;
#X text 201 587 - the outgoing render bang.;
#X text 95 482 float;
#X obj 75 505 cnv 17 3 17 empty empty 2 5 9 0 16 -228856 -162280 0
;
#X text 95 505 float;
#X obj 75 528 cnv 17 3 17 empty empty 3 5 9 0 16 -228856 -162280 0
;
#X text 95 528 float;
#X obj 75 551 cnv 17 3 17 empty empty 4 5 9 0 16 -228856 -162280 0
;
#X text 95 551 float;
#X text 72 638 1) symbol/list;
#X obj 135 107 loadbang;
#X floatatom 402 325 5 0 255 0 - - -, f 5;
#X floatatom 442 325 5 0 255 0 - - -, f 5;
#X floatatom 482 325 5 0 255 0 - - -, f 5;
#X floatatom 522 325 5 0 255 0 - - -, f 5;
#X msg 258 175 set 150;
#X text 315 175 set with gray amount.;
#X text 351 195 set with color name.;
#X text 351 235 set with r \, g \, b.;
#X text 373 255 set with r \, g \, b \, a.;
#X msg 258 235 set 255 165 0;
#X msg 258 255 set 255 165 0 150;
#X msg 258 215 set 0x3293ef;
#X msg 258 195 set turquoise;
#X text 351 215 set with hex color code.;
#X obj 511 5 ofSetColor;
#X obj 135 128 ofGetLastRenderOrder;
#X obj 102 149 ofHead;
#X obj 102 175 ofClear 63;
#X obj 102 197 ofTranslate 160 120;
#X obj 102 220 ofSeparator 3;
#X obj 102 349 ofSetColor orange;
#X obj 102 303 ofTranslate 30 25;
#X obj 231 303 ofTranslate -30 25;
#X obj 375 303 ofTranslate 0 -25;
#X obj 231 349 ofSetColor 0 153 37;
#X obj 375 349 ofSetColor 0xff0000;
#X obj 102 385 ofCircle 40;
#X obj 23 428 ofWindow 320 240 LEFT TOP;
#X text 21 43 [ofSetColor] sets the color of drawn objects in the rendering
chain. this affects not only shapes but also the tint of images and
textures.;
#X text 201 482 - sets r.;
#X text 201 505 - sets g.;
#X text 201 528 - sets b.;
#X text 201 551 - sets a.;
#X text 201 638 - colorName(symbol) or RGBA(list). (default: 255 \,
255);
#X text 11 23 set the draw color;
#N canvas 321 135 586 590 color_names 0;
#X msg 69 495 print;
#X text 119 493 you can send print message to find out r \, g \, b
\, a values of the current color.;
#X text 62 80 white \, gray \, black \, red \, green \, blue \, cyan
\, magenta \, yellow \, aliceBlue \, antiqueWhite \, aqua \, aquamarine
\, azure \, beige \, bisque \, blanchedAlmond \, blueViolet \, brown
\, burlyWood \, cadetBlue \, chartreuse \, chocolate \, coral \, cornflowerBlue
\, cornsilk \, crimson \, darkBlue \, darkCyan \, darkGoldenRod \,
darkGray \, darkGrey \, darkGreen \, darkKhaki \, darkMagenta \, darkOliveGreen
\, darkorange \, darkOrchid \, darkRed \, darkSalmon \, darkSeaGreen
\, darkSlateBlue \, darkSlateGray \, darkSlateGrey \, darkTurquoise
\, darkViolet \, deepPink \, deepSkyBlue \, dimGray \, dimGrey \, dodgerBlue
\, fireBrick \, floralWhite \, forestGreen \, fuchsia \, gainsboro
\, ghostWhite \, gold \, goldenRod \, grey \, greenYellow \, honeyDew
\, hotPink \, indianRed \, indigo \, ivory \, khaki \, lavender \,
lavenderBlush \, lawnGreen \, lemonChiffon \, lightBlue \, lightCoral
\, lightCyan \, lightGoldenRodYellow \, lightGray \, lightGrey \, lightGreen
\, lightPink \, lightSalmon \, lightSeaGreen \, lightSkyBlue \, lightSlateGray
\, lightSlateGrey \, lightSteelBlue \, lightYellow \, lime \, limeGreen
\, linen \, maroon \, mediumAquaMarine \, mediumBlue \, mediumOrchid
\, mediumPurple \, mediumSeaGreen \, mediumSlateBlue \, mediumSpringGreen
\, mediumTurquoise \, mediumVioletRed \, midnightBlue \, mintCream
\, mistyRose \, moccasin \, navajoWhite \, navy \, oldLace \, olive
\, oliveDrab \, orange \, orangeRed \, orchid \, paleGoldenRod \, paleGreen
\, paleTurquoise \, paleVioletRed \, papayaWhip \, peachPuff \, peru
\, pink \, plum \, powderBlue \, purple \, rosyBrown \, royalBlue \,
saddleBrown \, salmon \, sandyBrown \, seaGreen \, seaShell \, sienna
\, silver \, skyBlue \, slateBlue \, slateGray \, slateGrey \, snow
\, springGreen \, steelBlue \, blueSteel \, tan \, teal \, thistle
\, tomato \, turquoise \, violet \, wheat \, whiteSmoke \, yellowGreen.
;
#X text 63 28 here is the list of color names that can be used for
[ofSetColor] object.;
#X obj 69 539 ofSetColor orange;
#X connect 0 0 4 0;
#X restore 492 66 pd color_names;
#X obj 462 46 declare -lib ofelia;
#X connect 20 0 36 0;
#X connect 21 0 46 1;
#X connect 22 0 46 2;
#X connect 23 0 46 3;
#X connect 24 0 46 4;
#X connect 25 0 41 0;
#X connect 30 0 41 0;
#X connect 31 0 41 0;
#X connect 32 0 41 0;
#X connect 33 0 41 0;
#X connect 36 0 37 1;
#X connect 37 0 38 0;
#X connect 38 0 39 0;
#X connect 39 0 40 0;
#X connect 40 0 42 0;
#X connect 40 1 43 0;
#X connect 40 2 44 0;
#X connect 41 0 47 0;
#X connect 42 0 41 0;
#X connect 43 0 45 0;
#X connect 44 0 46 0;
#X connect 45 0 47 0;
#X connect 46 0 47 0;
