#N canvas 321 23 599 542 10;
#X obj 0 0 cnv 15 580 40 empty empty ofSetRectMode 3 12 0 18 -204280
-1 0;
#X obj 0 341 cnv 3 580 3 empty empty inlets 8 12 0 13 -228856 -1 0
;
#X obj 0 400 cnv 3 580 3 empty empty outlets 8 12 0 13 -228856 -1 0
;
#X obj 75 349 cnv 17 3 17 empty empty 0 5 9 0 16 -228856 -162280 0
;
#X obj 75 408 cnv 17 3 17 empty empty 0 5 9 0 16 -228856 -162280 0
;
#X obj 0 485 cnv 15 580 21 empty empty empty 20 12 0 14 -228856 -66577
0;
#X obj 0 436 cnv 3 580 3 empty empty arguments 8 12 0 13 -228856 -1
0;
#X text 95 349 render bang;
#X text 211 349 - the incoming render bang.;
#X obj 75 372 cnv 17 3 17 empty empty 1 5 9 0 16 -228856 -162280 0
;
#X text 95 408 render bang;
#X text 211 408 - the outgoing render bang.;
#X obj 261 104 loadbang;
#X text 11 23 set the align mode for drawing rectangular objects;
#X obj 345 212 tgl 15 0 empty empty empty 17 7 0 10 -262144 -1 -1 1
1;
#X text 95 372 float/symbol;
#X text 72 459 1) float/symbol;
#X obj 493 5 ofSetRectMode;
#X obj 261 125 ofGetLastRenderOrder;
#X obj 228 146 ofHead;
#X obj 228 167 ofClear 63;
#X obj 228 188 ofTranslate 160 120;
#X obj 228 232 ofSetRectMode CENTER;
#X obj 228 253 ofSquare 100;
#X obj 23 318 ofWindow 320 240 LEFT TOP;
#X text 368 211 0: CORNER \, 1: CENTER.;
#X text 211 372 - 0: CORNER \, 1: CENTER.;
#X text 211 459 - 0: CORNER \, 1: CENTER. (default: CORNER);
#X connect 12 0 18 0;
#X connect 14 0 22 1;
#X connect 18 0 19 1;
#X connect 19 0 20 0;
#X connect 20 0 21 0;
#X connect 21 0 22 0;
#X connect 22 0 23 0;
