#N canvas 321 23 599 549 10;
#X obj 0 0 cnv 15 580 40 empty empty ofSend 3 12 0 18 -204280 -1 0
;
#X obj 0 341 cnv 3 580 3 empty empty inlets 8 12 0 13 -228856 -1 0
;
#X obj 0 410 cnv 3 580 3 empty empty outlets 8 12 0 13 -228856 -1 0
;
#X obj 75 349 cnv 17 3 17 empty empty 0 5 9 0 16 -228856 -162280 0
;
#X obj 0 495 cnv 15 580 21 empty empty empty 20 12 0 14 -228856 -66577
0;
#X obj 0 446 cnv 3 580 3 empty empty arguments 8 12 0 13 -228856 -1
0;
#X floatatom 155 149 5 0 0 0 - - -, f 5;
#X text 523 5 or;
#X floatatom 155 261 10 0 0 0 - - -, f 10;
#N canvas 321 124 558 681 about_variable 0;
#X obj 47 279 ofSend @foo;
#X floatatom 47 253 5 0 0 0 - - -, f 5;
#X obj 246 253 ofReceive @foo;
#X floatatom 246 282 5 0 0 0 - - -, f 5;
#X floatatom 138 253 5 0 0 0 - - -, f 5;
#X floatatom 358 282 5 0 0 0 - - -, f 5;
#X obj 138 279 send v\$0_foo;
#X obj 358 253 receive v\$0_foo;
#X text 39 192 the first prefix is the "@" symbol which is used to
make the variable name local within the same patch. the prefix "@"
is internally replaced with "v\$0_".;
#X text 39 322 the second prefix is the "#" symbol which is used to
make the variable name local within the same canvas. the prefix "#"
is internally replaced with "v(unique-canvas-name)_".;
#X floatatom 350 471 5 0 0 0 - - -, f 5;
#X floatatom 188 383 5 0 0 0 - - -, f 5;
#X obj 188 470 send;
#X obj 350 448 ofReceive #foo;
#X obj 215 426 ofGetCanvasName;
#X msg 215 448 symbol v\$1_foo;
#X obj 188 402 t f b;
#X obj 350 402 ofValue #foo;
#X obj 350 383 bng 15 250 50 0 empty empty empty 17 7 0 10 -262144
-1 -1;
#X floatatom 350 424 5 0 0 0 - - -, f 5;
#X text 39 132 for these reasons \, in ofelia we provide special prefix
symbols to easily localize variable names. (note: this only applies
to ofelia objects and not the original pd object);
#X text 39 512 you can use these prefixes in all ofelia objects that
use variable names.;
#X obj 47 552 bng 15 250 50 0 empty empty empty 17 7 0 10 -262144 -1
-1;
#X obj 177 552 bng 15 250 50 0 empty empty empty 17 7 0 10 -262144
-1 -1;
#X floatatom 177 609 5 0 0 0 - - -, f 5;
#X obj 320 574 bng 15 250 50 0 empty empty empty 17 7 0 10 -262144
-1 -1;
#X obj 320 616 print;
#X obj 47 574 ofDefine \; @hello = 3 \; #world = 7 \;;
#X obj 177 574 ofExpr \; @hello + #world \;;
#X obj 320 552 ofLoadFloat @myList 1 2 3 4;
#X obj 320 594 ofGetFloats @myList;
#X text 39 32 in pd \, \$0 is commonly used in variable names for localization
purpose. (e.g. \$0-name) however \, using \$0 for variable names can
sometimes be inconvenient to write and hard to read especially when
used in expressions using [expr]. further more \, you cannot use \$0
based variable names in a message box.;
#X floatatom 47 383 5 0 0 0 - - -, f 5;
#X obj 47 402 t f b, f 6;
#X msg 80 448 symbol #foo;
#X obj 47 470 ofSend;
#X connect 1 0 0 0;
#X connect 2 0 3 0;
#X connect 4 0 6 0;
#X connect 7 0 5 0;
#X connect 11 0 16 0;
#X connect 13 0 10 0;
#X connect 14 0 15 0;
#X connect 15 0 12 1;
#X connect 16 0 12 0;
#X connect 16 1 14 0;
#X connect 17 0 19 0;
#X connect 18 0 17 0;
#X connect 22 0 27 0;
#X connect 23 0 28 0;
#X connect 25 0 30 0;
#X connect 28 0 24 0;
#X connect 30 0 26 0;
#X connect 32 0 33 0;
#X connect 33 0 35 0;
#X connect 33 1 34 0;
#X connect 34 0 35 1;
#X restore 474 46 pd about_variable;
#X obj 480 5 ofSend;
#X obj 541 5 ofSnd;
#X text 11 23 send messages without patch cords;
#X text 21 43 [ofSend] works just like [send] object but can be used
with local variable name prefixes.;
#X obj 155 174 ofSend @myVar;
#X obj 155 234 ofReceive @myVar;
#X text 95 349 anything;
#X floatatom 335 139 5 0 0 0 - - -, f 5;
#X obj 335 204 ofSend;
#X msg 368 178 symbol #myVar;
#X obj 335 158 t f b;
#X floatatom 335 261 10 0 0 0 - - -, f 10;
#X obj 335 234 ofReceive #myVar;
#X obj 75 372 cnv 17 3 17 empty empty 1 5 9 0 16 -228856 -162280 0
;
#X text 72 468 1) symbol;
#X text 211 468 - sets the send/receive name.;
#X text 95 372 symbol;
#X text 211 372 - if [ofSend] is created without an argument \, the
right inlet can be used to change the send/receive name.;
#X text 72 418 (none);
#X text 211 349 - the message to send.;
#X connect 6 0 14 0;
#X connect 15 0 8 0;
#X connect 17 0 20 0;
#X connect 19 0 18 1;
#X connect 20 0 18 0;
#X connect 20 1 19 0;
#X connect 22 0 21 0;
