#N canvas 321 23 598 592 10;
#X obj 0 0 cnv 15 580 40 empty empty ofSetLineSmoothing 3 12 0 18 -204280
-1 0;
#X obj 0 391 cnv 3 580 3 empty empty inlets 8 12 0 13 -228856 -1 0
;
#X obj 0 450 cnv 3 580 3 empty empty outlets 8 12 0 13 -228856 -1 0
;
#X obj 75 399 cnv 17 3 17 empty empty 0 5 9 0 16 -228856 -162280 0
;
#X obj 75 458 cnv 17 3 17 empty empty 0 5 9 0 16 -228856 -162280 0
;
#X obj 0 535 cnv 15 580 21 empty empty empty 20 12 0 14 -228856 -66577
0;
#X obj 0 486 cnv 3 580 3 empty empty arguments 8 12 0 13 -228856 -1
0;
#X text 95 399 render bang;
#X text 211 399 - the incoming render bang.;
#X obj 75 422 cnv 17 3 17 empty empty 1 5 9 0 16 -228856 -162280 0
;
#X text 95 458 render bang;
#X text 211 458 - the outgoing render bang.;
#X obj 248 78 loadbang;
#X obj 248 99 ofGetLastRenderOrder;
#X obj 215 120 ofHead;
#X obj 215 141 ofClear 63;
#X obj 215 162 ofTranslate 160 120;
#X obj 215 183 ofSetRectMode CENTER;
#X obj 215 203 ofSetFillMode OUTLINE;
#X obj 215 272 ofSquare 100;
#X obj 215 293 ofLine2d -50 -50 50 50;
#X obj 215 313 ofLine2d 50 -50 -50 50;
#X obj 23 368 ofWindow 320 240 LEFT TOP;
#X obj 215 250 ofSetLineSmoothing OFF;
#X obj 344 230 tgl 15 0 empty empty empty 17 7 0 10 -262144 -1 -1 0
1;
#X text 364 230 0: OFF \, 1: ON.;
#X text 95 422 float/symbol;
#X text 72 509 1) float/symbol;
#X text 211 422 - enables/disables the smoothing for lines.;
#X obj 463 5 ofSetLineSmoothing;
#X text 11 23 enable/disable the smoothing for lines;
#X text 211 509 - enables/disables the smoothing for lines. (default:
OFF);
#X text 213 337 note: see also [ofSetAntiAliasing] object.;
#X connect 12 0 13 0;
#X connect 13 0 14 1;
#X connect 14 0 15 0;
#X connect 15 0 16 0;
#X connect 16 0 17 0;
#X connect 17 0 18 0;
#X connect 18 0 23 0;
#X connect 19 0 20 0;
#X connect 20 0 21 0;
#X connect 23 0 19 0;
#X connect 24 0 23 1;
