#N canvas 321 23 598 560 10;
#X declare -lib ofelia;
#X obj 0 0 cnv 15 580 40 empty empty ofSetLineWidth 3 12 0 18 -204280
-1 0;
#X obj 0 361 cnv 3 580 3 empty empty inlets 8 12 0 13 -228856 -1 0
;
#X obj 0 420 cnv 3 580 3 empty empty outlets 8 12 0 13 -228856 -1 0
;
#X obj 75 369 cnv 17 3 17 empty empty 0 5 9 0 16 -228856 -162280 0
;
#X obj 75 428 cnv 17 3 17 empty empty 0 5 9 0 16 -228856 -162280 0
;
#X obj 0 505 cnv 15 580 21 empty empty empty 20 12 0 14 -228856 -66577
0;
#X obj 0 456 cnv 3 580 3 empty empty arguments 8 12 0 13 -228856 -1
0;
#X text 95 369 render bang;
#X text 211 369 - the incoming render bang.;
#X obj 75 392 cnv 17 3 17 empty empty 1 5 9 0 16 -228856 -162280 0
;
#X text 95 428 render bang;
#X text 211 428 - the outgoing render bang.;
#X obj 248 74 loadbang;
#X text 11 23 set the width of the lined objects;
#X floatatom 308 225 5 0 0 0 - - -, f 5;
#X text 346 224 change line width.;
#X text 95 392 float;
#X text 72 479 1) float;
#X obj 487 5 ofSetLineWidth;
#X obj 248 95 ofGetLastRenderOrder;
#X obj 215 116 ofHead;
#X obj 215 137 ofClear 63;
#X obj 215 158 ofTranslate 160 120;
#X obj 215 179 ofSetRectMode CENTER;
#X obj 215 199 ofSetFillMode OUTLINE;
#X obj 215 265 ofSquare 100;
#X obj 215 286 ofLine2d -50 -50 50 50;
#X obj 215 306 ofLine2d 50 -50 -50 50;
#X obj 23 338 ofWindow 320 240 LEFT TOP;
#X text 211 479 - sets the initial line width. (default: 1);
#X obj 215 245 ofSetLineWidth 1;
#X text 211 392 - sets the line width. (range: 0<);
#X obj 462 46 declare -lib ofelia;
#X connect 12 0 19 0;
#X connect 14 0 30 1;
#X connect 19 0 20 1;
#X connect 20 0 21 0;
#X connect 21 0 22 0;
#X connect 22 0 23 0;
#X connect 23 0 24 0;
#X connect 24 0 30 0;
#X connect 25 0 26 0;
#X connect 26 0 27 0;
#X connect 30 0 25 0;
