#N canvas 321 23 597 614 10;
#X declare -lib ofelia;
#X obj 0 0 cnv 15 580 40 empty empty ofSetMidiDevices 3 12 0 18 -204280
-1 0;
#X obj 0 401 cnv 3 580 3 empty empty inlets 8 12 0 13 -228856 -1 0
;
#X obj 0 480 cnv 3 580 3 empty empty outlets 8 12 0 13 -228856 -1 0
;
#X obj 75 409 cnv 17 3 60 empty empty 0 5 9 0 16 -228856 -162280 0
;
#X obj 0 562 cnv 15 580 21 empty empty empty 20 12 0 14 -228856 -66577
0;
#X obj 0 513 cnv 3 580 3 empty empty arguments 8 12 0 13 -228856 -1
0;
#X text 72 536 (none);
#X text 95 409 bang;
#X msg 110 274 print;
#X obj 10 73 bng 15 250 50 0 empty empty empty 17 7 0 10 -262144 -1
-1;
#X obj 110 305 bng 15 250 50 0 empty empty empty 17 7 0 10 -262144
-1 -1;
#X text 133 304 apply the current setting.;
#X text 154 273 print the current setting.;
#X text 95 488 (none);
#X text 245 194 <device id>;
#X msg 130 194 input 1 \, output 1;
#X msg 130 224 input 0 \, output 0;
#X obj 10 118 list split 9;
#X obj 117 118 list split 9;
#X text 202 118 you can use up to 9 input/output devices simultaneously.
;
#X text 32 72 set all avaiable input/output midi devices.;
#X text 248 224 use '0' to not use any device.;
#X text 95 429 input <f/s..>;
#X text 95 449 output <f/s..>;
#X obj 475 5 ofSetMidiDevices;
#X obj 10 97 ofGetMidiDevices;
#X obj 10 358 ofSetMidiDevices;
#X obj 10 138 ofPrepend input;
#X obj 117 138 ofPrepend output;
#X text 231 409 - applies the current setting.;
#X text 231 429 - sets input <device id/name..> up to 9 devices.;
#X text 231 449 - sets output <device id/name..> up to 9 devices.;
#X text 129 177 or you can use float to set 'n'th available device.
(from 1);
#X text 11 23 set input/output midi device;
#X obj 462 46 declare -lib ofelia;
#X connect 8 0 26 0;
#X connect 9 0 25 0;
#X connect 10 0 26 0;
#X connect 15 0 26 0;
#X connect 16 0 26 0;
#X connect 17 0 27 0;
#X connect 18 0 28 0;
#X connect 25 0 17 0;
#X connect 25 1 18 0;
#X connect 27 0 26 0;
#X connect 28 0 26 0;
