#N canvas 321 23 599 655 10;
#X obj 0 0 cnv 15 580 40 empty empty ofSetTextMode 3 12 0 18 -204280
-1 0;
#X obj 0 411 cnv 3 580 3 empty empty inlets 8 12 0 13 -228856 -1 0
;
#X obj 0 493 cnv 3 580 3 empty empty outlets 8 12 0 13 -228856 -1 0
;
#X obj 75 419 cnv 17 3 17 empty empty 0 5 9 0 16 -228856 -162280 0
;
#X obj 75 501 cnv 17 3 17 empty empty 0 5 9 0 16 -228856 -162280 0
;
#X obj 0 597 cnv 15 580 21 empty empty empty 20 12 0 14 -228856 -66577
0;
#X obj 0 529 cnv 3 580 3 empty empty arguments 8 12 0 13 -228856 -1
0;
#X text 95 419 render bang;
#X text 211 419 - the incoming render bang.;
#X obj 75 442 cnv 17 3 17 empty empty 1 5 9 0 16 -228856 -162280 0
;
#X text 95 501 render bang;
#X text 211 501 - the outgoing render bang.;
#X obj 168 69 loadbang;
#X text 95 442 float/symbol;
#X text 72 552 1) float/symbol;
#X obj 346 69 loadbang;
#X obj 214 244 vradio 15 1 0 3 empty empty empty 0 -8 0 10 -262144
-1 -1 2;
#X floatatom 214 294 5 0 0 0 - - -, f 5;
#X obj 307 244 vradio 15 1 0 3 empty empty empty 0 -8 0 10 -262144
-1 -1 0;
#X floatatom 307 294 5 0 0 0 - - -, f 5;
#X msg 209 219 set LEFT BOTTOM;
#X obj 75 465 cnv 17 3 17 empty empty 2 5 9 0 16 -228856 -162280 0
;
#X text 95 465 float/symbol;
#X text 72 572 2) float/symbol;
#X text 406 70 load a font.;
#X obj 493 5 ofSetTextMode;
#X obj 168 90 ofGetLastRenderOrder;
#X obj 135 132 ofClear 63;
#X obj 135 153 ofTranslate 160 120;
#X obj 135 174 ofLine2d -100 0 100 0;
#X obj 135 194 ofLine2d 0 -100 0 100;
#X obj 135 314 ofSetTextMode CENTER MIDDLE;
#X obj 23 388 ofWindow 320 240 LEFT TOP;
#X obj 135 111 ofHead;
#X text 232 243 0: LEFT;
#X text 232 259 1: CENTER;
#X text 232 274 2: RIGHT;
#X text 325 243 0: TOP;
#X text 325 259 1: MIDDLE;
#X text 325 274 2: BOTTOM;
#X text 211 442 - 0: LEFT \, 1: CENTER \, 2: RIGHT.;
#X text 211 465 - 0: TOP \, 1: MIDDLE \, 2: BOTTOM.;
#X text 211 552 - 0: LEFT \, 1: CENTER \, 2: RIGHT. (default: LEFT)
;
#X text 211 572 - 0: TOP \, 1: MIDDLE \, 2: BOTTOM. (default: TOP)
;
#X obj 346 111 ofLoadFont @myFont;
#X obj 135 335 ofDrawText @myFont[0] Hello World;
#X text 11 23 set the align mode for drawing texts;
#X text 315 219 align horizontally \, vertically at once.;
#X msg 346 90 load examples/data/Sansation.ttf 30;
#X connect 12 0 26 0;
#X connect 15 0 48 0;
#X connect 16 0 17 0;
#X connect 17 0 31 1;
#X connect 18 0 19 0;
#X connect 19 0 31 2;
#X connect 20 0 31 0;
#X connect 26 0 33 1;
#X connect 27 0 28 0;
#X connect 28 0 29 0;
#X connect 29 0 30 0;
#X connect 30 0 31 0;
#X connect 31 0 45 0;
#X connect 33 0 27 0;
#X connect 48 0 44 0;
