#N canvas 321 23 599 541 10;
#X declare -lib ofelia;
#X obj 0 0 cnv 15 580 40 empty empty ofSetAntiAliasing 3 12 0 18 -204280
-1 0;
#X obj 0 341 cnv 3 580 3 empty empty inlets 8 12 0 13 -228856 -1 0
;
#X obj 0 400 cnv 3 580 3 empty empty outlets 8 12 0 13 -228856 -1 0
;
#X obj 75 349 cnv 17 3 17 empty empty 0 5 9 0 16 -228856 -162280 0
;
#X obj 75 408 cnv 17 3 17 empty empty 0 5 9 0 16 -228856 -162280 0
;
#X obj 0 485 cnv 15 580 21 empty empty empty 20 12 0 14 -228856 -66577
0;
#X obj 0 436 cnv 3 580 3 empty empty arguments 8 12 0 13 -228856 -1
0;
#X text 95 349 render bang;
#X text 211 349 - the incoming render bang.;
#X obj 75 372 cnv 17 3 17 empty empty 1 5 9 0 16 -228856 -162280 0
;
#X obj 328 158 tgl 15 0 empty empty empty 17 7 0 10 -262144 -1 -1 0
1;
#X text 95 408 render bang;
#X text 211 408 - the outgoing render bang.;
#X obj 238 87 loadbang;
#X obj 238 108 ofGetLastRenderOrder;
#X obj 205 129 ofHead;
#X obj 205 150 ofClear 63;
#X obj 23 318 ofWindow 320 240 LEFT TOP;
#X text 95 372 float/symbol;
#X text 72 459 1) float/symbol;
#X text 350 157 0: OFF \, 1: ON.;
#X obj 205 178 ofSetAntiAliasing OFF;
#X obj 205 200 ofSetFillMode OUTLINE;
#X obj 205 222 ofTranslate 160 120;
#X obj 205 244 ofCircle 50;
#X obj 469 5 ofSetAntiAliasing;
#X text 211 372 - enables/disables the anti-aliasing for lines.;
#X text 211 459 - enables/disables the anti-aliasing for lines. (default:
OFF);
#X text 11 23 enable/disable the anti-aliasing for lines;
#X text 203 266 note: see also [ofSetLineSmoothing] object.;
#X obj 462 46 declare -lib ofelia;
#X connect 10 0 21 1;
#X connect 13 0 14 0;
#X connect 14 0 15 1;
#X connect 15 0 16 0;
#X connect 16 0 21 0;
#X connect 21 0 22 0;
#X connect 22 0 23 0;
#X connect 23 0 24 0;
