#N canvas 321 23 611 599 10;
#X declare -lib ofelia;
#X obj 0 0 cnv 15 580 40 empty empty ofSeparator 3 12 0 18 -204280
-1 0;
#X obj 0 427 cnv 3 580 3 empty empty inlets 8 12 0 13 -228856 -1 0
;
#X obj 0 463 cnv 3 580 3 empty empty outlets 8 12 0 13 -228856 -1 0
;
#X obj 75 435 cnv 17 3 17 empty empty 0 5 9 0 16 -228856 -162280 0
;
#X obj 75 471 cnv 17 3 17 empty empty n 5 9 0 16 -228856 -162280 0
;
#X obj 0 547 cnv 15 580 21 empty empty empty 20 12 0 14 -228856 -66577
0;
#X obj 0 499 cnv 3 580 3 empty empty arguments 8 12 0 13 -228856 -1
0;
#X text 72 522 1) float;
#X text 523 5 or;
#X text 109 129 is identical to this subpatch;
#X text 232 286 <- an argument specifies the number of separated render-chains.
;
#X obj 167 174 loadbang;
#X text 95 435 render bang;
#X text 122 149 is identical to this subpatch;
#X text 191 435 - the incoming render bang.;
#X text 95 471 render bang;
#X text 191 471 - 'n' outlets for separated render-chains.;
#X text 11 23 separate render chains in matrix and style;
#X obj 450 5 ofSeparator;
#X obj 541 5 ofSep;
#X obj 23 129 ofSeparator;
#X obj 23 149 ofSeparator 2;
#N canvas 321 160 450 300 ofSeparator 0;
#X obj 146 102 t b b b, f 21;
#X obj 207 141 outlet;
#X obj 146 67 inlet;
#X obj 146 171 ofPopMatrix;
#X obj 269 171 ofPushStyle;
#X obj 146 191 ofPopStyle;
#X obj 269 191 ofPushMatrix;
#X connect 0 0 3 0;
#X connect 0 1 1 0;
#X connect 0 2 4 0;
#X connect 2 0 0 0;
#X connect 3 0 5 0;
#X connect 4 0 6 0;
#X restore 307 129 pd ofSeparator;
#N canvas 321 160 450 300 ofSeparator 0;
#X obj 241 217 outlet;
#X obj 166 47 inlet;
#X obj 166 82 t b b, f 13;
#X obj 166 216 outlet;
#X obj 166 149 ofSeparator;
#X obj 241 149 ofSeparator;
#X connect 1 0 2 0;
#X connect 2 0 4 0;
#X connect 2 1 5 0;
#X connect 4 0 3 0;
#X connect 5 0 0 0;
#X restore 320 149 pd ofSeparator 2;
#X obj 167 195 ofGetLastRenderOrder;
#X obj 134 216 ofHead;
#X obj 134 237 ofClear 63;
#X obj 134 262 ofSetColor yellow;
#X obj 134 287 ofSeparator 2;
#X obj 134 328 ofTranslate 160 120;
#X obj 284 328 ofTranslate 160 120;
#X obj 284 349 ofSetColor red;
#X obj 134 370 ofCircle 25;
#X obj 284 370 ofCircle 50;
#X obj 23 404 ofWindow 320 240 LEFT TOP;
#X text 191 522 - sets the 'n' number of outlets. (from 1 to 64 \,
default 1);
#X text 21 43 [ofSeparator] isolates parallel render-chains with regard
to matrix transformations. (ofTranslate \, ofRotate \, ofScale) and
style settings (ofSetColor \, ofSetBgColor \, ofSetRectMode \, ofSetTextMode
\, ofSetFillMode \, ofSetPolyMode \, ofSetBlendMode \, ofSetLineWidth
\, ofSetLineSmoothing \, ofSetCircleRes \, ofSetCurveRes);
#X obj 462 46 declare -lib ofelia;
#X connect 11 0 24 0;
#X connect 24 0 25 1;
#X connect 25 0 26 0;
#X connect 26 0 27 0;
#X connect 27 0 28 0;
#X connect 28 0 29 0;
#X connect 28 1 30 0;
#X connect 29 0 32 0;
#X connect 30 0 31 0;
#X connect 31 0 33 0;
