#N canvas 321 23 597 667 10;
#X declare -lib ofelia;
#X obj 0 0 cnv 15 580 40 empty empty ofSetPolyMode 3 12 0 18 -204280
-1 0;
#X obj 0 448 cnv 3 580 3 empty empty inlets 8 12 0 13 -228856 -1 0
;
#X obj 0 516 cnv 3 580 3 empty empty outlets 8 12 0 13 -228856 -1 0
;
#X obj 75 456 cnv 17 3 17 empty empty 0 5 9 0 16 -228856 -162280 0
;
#X obj 75 524 cnv 17 3 17 empty empty 0 5 9 0 16 -228856 -162280 0
;
#X obj 0 612 cnv 15 580 21 empty empty empty 20 12 0 14 -228856 -66577
0;
#X obj 0 552 cnv 3 580 3 empty empty arguments 8 12 0 13 -228856 -1
0;
#X text 95 456 render bang;
#X text 191 456 - the incoming render bang.;
#X obj 75 479 cnv 17 3 17 empty empty 1 5 9 0 16 -228856 -162280 0
;
#X text 95 524 render bang;
#X text 191 524 - the outgoing render bang.;
#X obj 248 85 loadbang;
#X text 95 479 float/symbol;
#X text 72 575 1) float/symbol;
#X obj 290 156 vradio 15 1 0 5 empty empty empty 0 -8 0 10 -262144
-1 -1 0;
#X obj 248 106 ofGetLastRenderOrder;
#X obj 215 127 ofHead;
#X obj 215 148 ofClear 63;
#X obj 23 425 ofWindow 320 240 LEFT TOP;
#X text 11 23 set the poly winding mode for drawing;
#X obj 215 239 ofSetPolyMode;
#X text 312 154 0: ODD;
#X text 312 170 1: NONZERO;
#X text 312 185 2: POSITIVE;
#X text 312 200 3: NEGATIVE;
#X text 312 215 4: ABS_GEQ_TWO;
#X obj 215 260 ofBeginShape;
#X obj 215 390 ofEndShape;
#X text 192 479 - 0: ODD \, 1: NONZERO \, 2: POSITIVE \, 3: NEGATIVE
\, 4: ABS_GEQ_TWO.;
#X text 191 575 - 0: ODD \, 1: NONZERO \, 2: POSITIVE \, 3: NEGATIVE
\, 4: ABS_GEQ_TWO.;
#X obj 493 5 ofSetPolyMode;
#X text 21 43 [ofSetPoly] sets the drawing behavior for overlapping
parts of the same polygon.;
#X obj 225 282 ofVertex2d 250 145;
#X obj 225 304 ofVertex2d 65 145;
#X obj 225 325 ofVertex2d 215 30;
#X obj 225 346 ofVertex2d 155 210;
#X obj 225 368 ofVertex2d 100 35;
#X obj 462 46 declare -lib ofelia;
#X connect 12 0 16 0;
#X connect 15 0 21 1;
#X connect 16 0 17 1;
#X connect 17 0 18 0;
#X connect 18 0 21 0;
#X connect 21 0 27 0;
#X connect 27 0 33 0;
#X connect 33 0 34 0;
#X connect 34 0 35 0;
#X connect 35 0 36 0;
#X connect 36 0 37 0;
#X connect 37 0 28 0;
