#N canvas 321 23 599 543 10;
#X obj 0 0 cnv 15 580 40 empty empty ofSetArbTex 3 12 0 18 -204280
-1 0;
#X obj 0 341 cnv 3 580 3 empty empty inlets 8 12 0 13 -228856 -1 0
;
#X obj 0 400 cnv 3 580 3 empty empty outlets 8 12 0 13 -228856 -1 0
;
#X obj 75 349 cnv 17 3 17 empty empty 0 5 9 0 16 -228856 -162280 0
;
#X obj 75 408 cnv 17 3 17 empty empty 0 5 9 0 16 -228856 -162280 0
;
#X obj 0 485 cnv 15 580 21 empty empty empty 20 12 0 14 -228856 -66577
0;
#X obj 0 436 cnv 3 580 3 empty empty arguments 8 12 0 13 -228856 -1
0;
#X text 95 349 render bang;
#X text 211 349 - the incoming render bang.;
#X obj 75 372 cnv 17 3 17 empty empty 1 5 9 0 16 -228856 -162280 0
;
#X obj 322 222 tgl 15 0 empty empty empty 17 7 0 10 -262144 -1 -1 0
1;
#X text 95 408 render bang;
#X text 211 408 - the outgoing render bang.;
#X text 21 43 ARB textures \, also known as rectangular textures enable
the creation of non power of 2 sized textures. it is disabled by default.
;
#X obj 268 127 loadbang;
#X obj 505 5 ofSetArbTex;
#X obj 268 148 ofGetLastRenderOrder;
#X obj 235 169 ofHead;
#X obj 235 190 ofClear 63;
#X obj 23 318 ofWindow 320 240 LEFT TOP;
#X obj 235 248 ofSetArbTex OFF;
#X text 95 372 float/symbol;
#X text 72 459 1) float/symbol;
#X text 344 221 0: OFF \, 1: ON.;
#X text 211 372 - enables/disables the use of ARB textures.;
#X text 211 459 - enables/disables the use of ARB textures. (default:
OFF);
#X text 11 23 enable/disable the use of ARB textures;
#X connect 10 0 20 1;
#X connect 14 0 16 0;
#X connect 16 0 17 1;
#X connect 17 0 18 0;
#X connect 18 0 20 0;
