#N canvas 321 23 602 601 10;
#X obj 0 0 cnv 15 580 40 empty empty ofSepMatrix 3 12 0 18 -204280
-1 0;
#X obj 0 427 cnv 3 580 3 empty empty inlets 8 12 0 13 -228856 -1 0
;
#X obj 0 463 cnv 3 580 3 empty empty outlets 8 12 0 13 -228856 -1 0
;
#X obj 75 435 cnv 17 3 17 empty empty 0 5 9 0 16 -228856 -162280 0
;
#X obj 75 471 cnv 17 3 17 empty empty n 5 9 0 16 -228856 -162280 0
;
#X obj 0 547 cnv 15 580 21 empty empty empty 20 12 0 14 -228856 -66577
0;
#X obj 0 499 cnv 3 580 3 empty empty arguments 8 12 0 13 -228856 -1
0;
#X text 72 522 1) float;
#X text 111 84 is identical to this subpatch;
#X text 232 268 <- an argument specifies the number of separated render-chains.
;
#X obj 167 154 loadbang;
#X text 95 435 render bang;
#X text 121 104 is identical to this subpatch;
#X text 191 435 - the incoming render bang.;
#X text 95 471 render bang;
#X text 191 471 - 'n' outlets for separated render-chains.;
#X text 11 23 separate render chains in matrix;
#X obj 505 5 ofSepMatrix;
#X obj 23 84 ofSepMatrix;
#X obj 23 104 ofSepMatrix 2;
#N canvas 322 121 450 300 ofSepMatrix 0;
#X obj 146 102 t b b b, f 21;
#X obj 207 191 outlet;
#X obj 146 67 inlet;
#X obj 146 151 ofPopMatrix;
#X obj 269 151 ofPushMatrix;
#X connect 0 0 3 0;
#X connect 0 1 1 0;
#X connect 0 2 4 0;
#X connect 2 0 0 0;
#X restore 307 84 pd ofSepMatrix;
#N canvas 321 121 450 300 ofSepMatrix 0;
#X obj 241 216 outlet;
#X obj 166 47 inlet;
#X obj 166 82 t b b, f 13;
#X obj 166 216 outlet;
#X obj 166 149 ofSepMatrix;
#X obj 241 149 ofSepMatrix;
#X connect 1 0 2 0;
#X connect 2 0 4 0;
#X connect 2 1 5 0;
#X connect 4 0 3 0;
#X connect 5 0 0 0;
#X restore 317 104 pd ofSepMatrix 2;
#X obj 167 175 ofGetLastRenderOrder;
#X obj 134 196 ofHead;
#X obj 134 217 ofClear 63;
#X obj 134 267 ofSepMatrix 2;
#X obj 134 308 ofTranslate 160 120;
#X obj 284 308 ofTranslate 160 120;
#X obj 134 329 ofSetColor yellow;
#X obj 284 329 ofSetColor red;
#X obj 134 350 ofCircle 25;
#X obj 284 350 ofCircle 50;
#X obj 23 404 ofWindow 320 240 LEFT TOP;
#X text 21 43 [ofSepMatrix] isolates parallel render-chains with regard
to matrix transformations. (ofTranslate \, ofRotate \, ofScale);
#X text 191 522 - sets the 'n' number of outlets. (from 1 to 64 \,
default 1);
#X connect 10 0 22 0;
#X connect 22 0 23 1;
#X connect 23 0 24 0;
#X connect 24 0 25 0;
#X connect 25 0 26 0;
#X connect 25 1 27 0;
#X connect 26 0 28 0;
#X connect 27 0 29 0;
#X connect 28 0 30 0;
#X connect 29 0 31 0;
