#N canvas 321 23 611 599 10;
#X declare -lib ofelia;
#X obj 0 0 cnv 15 580 40 empty empty ofSepStyle 3 12 0 18 -204280 -1
0;
#X obj 0 427 cnv 3 580 3 empty empty inlets 8 12 0 13 -228856 -1 0
;
#X obj 0 463 cnv 3 580 3 empty empty outlets 8 12 0 13 -228856 -1 0
;
#X obj 75 435 cnv 17 3 17 empty empty 0 5 9 0 16 -228856 -162280 0
;
#X obj 75 471 cnv 17 3 17 empty empty n 5 9 0 16 -228856 -162280 0
;
#X obj 0 547 cnv 15 580 21 empty empty empty 20 12 0 14 -228856 -66577
0;
#X obj 0 499 cnv 3 580 3 empty empty arguments 8 12 0 13 -228856 -1
0;
#X text 72 522 1) float;
#X text 248 287 <- an argument specifies the number of separated render-chains.
;
#X obj 187 174 loadbang;
#X text 95 435 render bang;
#X text 191 435 - the incoming render bang.;
#X text 95 471 render bang;
#X text 191 471 - 'n' outlets for separated render-chains.;
#X text 11 23 separate render chains in style;
#X obj 511 5 ofSepStyle;
#X obj 23 119 ofSepStyle;
#X obj 23 139 ofSepStyle 2;
#N canvas 321 149 450 300 ofSepStyle 0;
#X obj 146 102 t b b b, f 21;
#X obj 207 191 outlet;
#X obj 146 67 inlet;
#X obj 146 151 ofPopStyle;
#X obj 269 151 ofPushStyle;
#X connect 0 0 3 0;
#X connect 0 1 1 0;
#X connect 0 2 4 0;
#X connect 2 0 0 0;
#X restore 300 119 pd ofSepStyle;
#N canvas 321 147 450 300 ofSepStyle 0;
#X obj 241 216 outlet;
#X obj 166 47 inlet;
#X obj 166 82 t b b, f 13;
#X obj 166 216 outlet;
#X obj 166 149 ofSepStyle;
#X obj 241 149 ofSepStyle;
#X connect 1 0 2 0;
#X connect 2 0 4 0;
#X connect 2 1 5 0;
#X connect 4 0 3 0;
#X connect 5 0 0 0;
#X restore 310 139 pd ofSepStyle 2;
#X obj 187 195 ofGetLastRenderOrder;
#X obj 154 216 ofHead;
#X obj 154 237 ofClear 63;
#X obj 154 262 ofSetColor yellow;
#X obj 154 287 ofSepStyle 2;
#X obj 154 370 ofCircle 25;
#X obj 245 328 ofTranslate 160 120;
#X obj 245 349 ofSetColor red;
#X obj 245 370 ofCircle 50;
#X obj 23 404 ofWindow 320 240 LEFT TOP;
#X text 191 522 - sets the 'n' number of outlets. (from 1 to 64 \,
default 1);
#X text 114 139 is identical to this subpatch;
#X text 104 119 is identical to this subpatch;
#X text 21 43 [ofSepStyle] isolates parallel render-chains with regard
to style settings. (ofSetColor \, ofSetBgColor \, ofSetRectMode \,
ofSetTextMode \, ofSetFillMode \, ofSetPolyMode \, ofSetBlendMode \,
ofSetLineWidth \, ofSetLineSmoothing \, ofSetCircleRes \, ofSetCurveRes)
;
#X obj 462 46 declare -lib ofelia;
#X connect 9 0 20 0;
#X connect 20 0 21 1;
#X connect 21 0 22 0;
#X connect 22 0 23 0;
#X connect 23 0 24 0;
#X connect 24 0 25 0;
#X connect 24 1 26 0;
#X connect 26 0 27 0;
#X connect 27 0 28 0;
