#N canvas 321 23 600 564 10;
#X declare -lib ofelia;
#X obj 0 0 cnv 15 580 40 empty empty ofSignedNoise 3 12 0 18 -204280
-1 0;
#X obj 0 341 cnv 3 580 3 empty empty inlets 8 12 0 13 -228856 -1 0
;
#X obj 0 440 cnv 3 580 3 empty empty outlets 8 12 0 13 -228856 -1 0
;
#X obj 75 349 cnv 17 3 80 empty empty 0 5 9 0 16 -228856 -162280 0
;
#X obj 75 448 cnv 17 3 17 empty empty 0 5 9 0 16 -228856 -162280 0
;
#X obj 0 525 cnv 15 580 21 empty empty empty 20 12 0 14 -228856 -66577
0;
#X obj 0 476 cnv 3 580 3 empty empty arguments 8 12 0 13 -228856 -1
0;
#X floatatom 205 302 10 0 0 0 - - -, f 10;
#X text 95 448 float;
#X floatatom 205 116 5 0 0 0 - - -, f 5;
#X floatatom 252 147 5 0 0 0 - - -, f 5;
#X floatatom 309 147 5 0 0 0 - - -, f 5;
#X floatatom 252 207 5 0 0 0 - - -, f 5;
#X floatatom 296 207 5 0 0 0 - - -, f 5;
#X floatatom 340 207 5 0 0 0 - - -, f 5;
#X text 95 349 float;
#X text 95 369 list <f \, f>;
#X text 95 389 list <f \, f \, f>;
#X text 95 409 list <f \, f \, f \, f>;
#X text 72 499 (none);
#N canvas 322 146 723 351 more_examples 0;
#N canvas 0 22 450 278 (subpatch) 0;
#X array \$0-noise 1000 float 2;
#X coords 0 1 1000 -1 200 140 1 0 0;
#X restore 50 56 graph;
#X obj 371 52 tgl 15 0 empty empty empty 17 7 0 10 -262144 -1 -1 0
1;
#X obj 371 237 tabwrite \$0-noise;
#X obj 371 95 t b b;
#X obj 371 136 f;
#X obj 398 136 + 0.01;
#X floatatom 371 158 5 0 0 0 - - -, f 5;
#X floatatom 470 158 5 0 0 0 - - -, f 5;
#X obj 371 73 metro 10;
#X text 258 50 1;
#X text 257 185 -1;
#X floatatom 371 207 5 0 0 0 - - -, f 5;
#X obj 371 185 ofSignedNoise;
#X obj 470 136 ofCount 0 999;
#X text 397 51 write simplex noise values into the array.;
#X connect 1 0 8 0;
#X connect 3 0 4 0;
#X connect 3 1 13 0;
#X connect 4 0 5 0;
#X connect 4 0 6 0;
#X connect 5 0 4 1;
#X connect 6 0 12 0;
#X connect 7 0 2 1;
#X connect 8 0 3 0;
#X connect 11 0 2 0;
#X connect 12 0 11 0;
#X connect 13 0 7 0;
#X restore 480 66 pd more_examples;
#X obj 493 5 ofSignedNoise;
#X text 21 43 [ofSignedNoise] is a random sequence generator producing
a more natural \, harmonic succession of numbers than that of the [ofRandom].
the resulting value will always be between -1 and 1;
#X obj 252 167 ofPack 0 0;
#X obj 252 227 ofPack 0 0 0;
#X obj 205 270 ofSignedNoise;
#X text 11 23 calculate a simplex noise value between -1 and 1;
#X text 247 115 calculate a one dimensional simplex noise.;
#X text 323 167 calculate a 2d simplex noise.;
#X text 335 227 calculate a 3d simplex noise.;
#X text 231 349 - calculates a one dimensional simplex noise.;
#X text 231 369 - calculates a two dimensional simplex noise.;
#X text 231 389 - calculates a three dimensional simplex noise.;
#X text 231 409 - calculates a four dimensional simplex noise.;
#X text 231 448 - the calculated simplex noise value.;
#X obj 462 46 declare -lib ofelia;
#X connect 9 0 25 0;
#X connect 10 0 23 0;
#X connect 11 0 23 1;
#X connect 12 0 24 0;
#X connect 13 0 24 1;
#X connect 14 0 24 2;
#X connect 23 0 25 0;
#X connect 24 0 25 0;
#X connect 25 0 7 0;
