#N canvas 321 23 603 851 10;
#X obj 0 0 cnv 15 580 40 empty empty ofSpotlight 3 12 0 18 -204280
-1 0;
#X obj 0 431 cnv 3 580 3 empty empty inlets 8 12 0 13 -228856 -1 0
;
#X obj 0 759 cnv 3 580 3 empty empty outlets 8 12 0 13 -228856 -1 0
;
#X obj 75 439 cnv 17 3 240 empty empty 0 5 9 0 16 -228856 -162280 0
;
#X obj 75 767 cnv 17 3 17 empty empty 0 5 9 0 16 -228856 -162280 0
;
#X obj 0 884 cnv 15 580 21 empty empty empty 20 12 0 14 -228856 -66577
0;
#X obj 0 795 cnv 3 580 3 empty empty arguments 8 12 0 13 -228856 -1
0;
#X obj 23 408 ofWindow 320 240 LEFT TOP;
#X text 95 439 render bang;
#X text 271 438 - the incoming render bang.;
#X text 95 767 render bang;
#X text 271 767 - the outgoing render bang.;
#X text 487 5 or;
#X text 95 498 quaternion <f \, f \, f \, f>;
#X text 95 518 lookAt <f \, f \, f>;
#X text 95 658 debug <f/s>;
#X obj 75 685 cnv 17 3 17 empty empty 1 5 9 0 16 -228856 -162280 0
;
#X text 95 685 float;
#X obj 75 708 cnv 17 3 17 empty empty 2 5 9 0 16 -228856 -162280 0
;
#X text 95 708 float;
#X obj 75 731 cnv 17 3 17 empty empty 3 5 9 0 16 -228856 -162280 0
;
#X text 95 731 float;
#X text 95 478 eulerAngles <f \, f \, f>;
#X text 72 838 2) float;
#X text 72 818 1) float;
#X text 72 858 3) float;
#X obj 414 5 ofSpotlight;
#X obj 505 5 ofSpotLight;
#X text 271 685 - x position of the light source.;
#X text 271 708 - y position of the light source.;
#X text 271 731 - z position of the light source.;
#X text 95 598 cutoff <f>;
#X text 95 618 concentration <f>;
#X text 95 638 attenuation <f \, f \, f>;
#N canvas 321 88 588 758 ofSpotlight_parameters 0;
#X obj 38 182 ofPack eulerAngles 0 0 0;
#X floatatom 85 161 5 0 0 0 - - -, f 5;
#X floatatom 132 161 5 0 0 0 - - -, f 5;
#X floatatom 179 161 5 0 0 0 - - -, f 5;
#X text 192 183 set orientation with a eular angles.;
#X obj 38 709 outlet;
#X floatatom 68 111 5 0 0 0 - - -, f 5;
#X floatatom 105 111 5 0 0 0 - - -, f 5;
#X floatatom 142 111 5 0 0 0 - - -, f 5;
#X floatatom 179 111 5 0 0 0 - - -, f 5;
#X floatatom 74 221 5 0 0 0 - - -, f 5;
#X floatatom 111 221 5 0 0 0 - - -, f 5;
#X floatatom 148 221 5 0 0 0 - - -, f 5;
#X floatatom 185 221 5 0 0 0 - - -, f 5;
#X text 199 242 set orientation with a quaternion.;
#X floatatom 75 271 5 0 0 0 - - -, f 5;
#X floatatom 112 271 5 0 0 0 - - -, f 5;
#X floatatom 149 271 5 0 0 0 - - -, f 5;
#X obj 38 292 ofPack lookAt 0 0 0;
#X msg 38 32 print;
#X text 87 32 print the current settings.;
#X floatatom 69 61 5 0 0 0 - - -, f 5;
#X floatatom 111 61 5 0 0 0 - - -, f 5;
#X floatatom 153 61 5 0 0 0 - - -, f 5;
#X obj 38 82 ofPack set 0 0 0;
#X text 145 82 set x \, y \, z position of the camera.;
#X text 165 292 make spotlight to look at x \, y \, z position.;
#X floatatom 91 321 5 0 255 0 - - -, f 5;
#X floatatom 144 321 5 0 255 0 - - -, f 5;
#X floatatom 197 321 5 0 255 0 - - -, f 5;
#X obj 119 621 tgl 15 0 empty empty empty 17 7 0 10 -262144 -1 -1 0
1;
#X obj 38 642 ofPack debug 0;
#X text 135 643 enable/disable the debug mode.;
#X text 213 342 set the color of highlights on a material.;
#X floatatom 89 371 5 0 255 0 - - -, f 5;
#X floatatom 140 371 5 0 255 0 - - -, f 5;
#X floatatom 191 371 5 0 255 0 - - -, f 5;
#X text 205 392 set the color of material when it is illuminated.;
#X floatatom 77 421 5 0 255 0 - - -, f 5;
#X floatatom 116 421 5 0 255 0 - - -, f 5;
#X floatatom 155 421 5 0 255 0 - - -, f 5;
#X obj 38 442 ofPack ambient 0 0 0;
#X text 169 442 set the color of material when it is not illuminated.
;
#X floatatom 85 571 5 0 0 0 - - -, f 5;
#X floatatom 132 571 5 0 0 0 - - -, f 5;
#X floatatom 179 571 5 0 0 0 - - -, f 5;
#X text 193 593 set constant \, linear \, quadratic attenuation.;
#X text 193 610 (set the way the light fades out with distance);
#X text 135 660 (when in debug mode \, the light source will be visible
as a 3d object);
#X floatatom 131 471 5 0 255 0 - - -, f 5;
#X text 146 492 set the radius of the cone of light.;
#X floatatom 173 521 5 0 255 0 - - -, f 5;
#X text 188 542 set concentration amount of the spotlight.;
#X text 176 132 set orientation with angle and axis.;
#X obj 38 242 ofPack quaternion 0 0 0 1;
#X obj 38 342 ofPack specular 100 100 100;
#X obj 38 392 ofPack diffuse 200 200 200;
#X obj 38 492 ofPack cutoff 45;
#X obj 38 542 ofPack concentration 64;
#X obj 38 592 ofPack attenuation 1 0 0;
#X text 192 200 (note: watch out for gimbal lock);
#X obj 38 132 ofPack rotate 0 0 0 0;
#X connect 0 0 5 0;
#X connect 1 0 0 1;
#X connect 2 0 0 2;
#X connect 3 0 0 3;
#X connect 6 0 61 1;
#X connect 7 0 61 2;
#X connect 8 0 61 3;
#X connect 9 0 61 4;
#X connect 10 0 54 1;
#X connect 11 0 54 2;
#X connect 12 0 54 3;
#X connect 13 0 54 4;
#X connect 15 0 18 1;
#X connect 16 0 18 2;
#X connect 17 0 18 3;
#X connect 18 0 5 0;
#X connect 19 0 5 0;
#X connect 21 0 24 1;
#X connect 22 0 24 2;
#X connect 23 0 24 3;
#X connect 24 0 5 0;
#X connect 27 0 55 1;
#X connect 28 0 55 2;
#X connect 29 0 55 3;
#X connect 30 0 31 1;
#X connect 31 0 5 0;
#X connect 34 0 56 1;
#X connect 35 0 56 2;
#X connect 36 0 56 3;
#X connect 38 0 41 1;
#X connect 39 0 41 2;
#X connect 40 0 41 3;
#X connect 41 0 5 0;
#X connect 43 0 59 1;
#X connect 44 0 59 2;
#X connect 45 0 59 3;
#X connect 49 0 57 1;
#X connect 51 0 58 1;
#X connect 54 0 5 0;
#X connect 55 0 5 0;
#X connect 56 0 5 0;
#X connect 57 0 5 0;
#X connect 58 0 5 0;
#X connect 59 0 5 0;
#X connect 61 0 5 0;
#X restore 58 181 pd ofSpotlight_parameters;
#X obj 56 81 ofGetLastRenderOrder;
#X obj 23 102 ofHead;
#X obj 23 127 ofClear 63;
#X obj 56 60 loadbang;
#X floatatom 68 213 5 0 0 0 - - -, f 5;
#X floatatom 113 213 5 0 0 0 - - -, f 5;
#X floatatom 158 213 5 0 0 0 - - -, f 5;
#X obj 23 322 ofTranslate 160 120;
#X text 196 212 set x \, y \, z position of the light source.;
#X obj 23 149 ofSetDepthTest ON;
#X obj 23 374 ofSetDepthTest OFF;
#X text 135 149 depth test should be enabled to make lighting work
properly.;
#X obj 23 296 ofMaterial;
#X obj 23 348 ofSphere 50 50;
#X text 95 297 light interacts strongly with material.;
#X text 95 538 specular <f \, f \, f>;
#X text 95 558 diffuse <f \, f \, f>;
#X text 95 578 ambient <f \, f \, f>;
#N canvas 322 90 469 374 ofMaterial_parameters 0;
#X floatatom 89 57 5 0 255 0 - - -, f 5;
#X floatatom 142 57 5 0 255 0 - - -, f 5;
#X floatatom 195 57 5 0 255 0 - - -, f 5;
#X floatatom 87 107 5 0 255 0 - - -, f 5;
#X floatatom 138 107 5 0 255 0 - - -, f 5;
#X floatatom 189 107 5 0 255 0 - - -, f 5;
#X floatatom 75 157 5 0 255 0 - - -, f 5;
#X floatatom 114 157 5 0 255 0 - - -, f 5;
#X floatatom 153 157 5 0 255 0 - - -, f 5;
#X obj 36 178 ofPack ambient 0 0 0;
#X floatatom 83 207 5 0 255 0 - - -, f 5;
#X floatatom 130 207 5 0 255 0 - - -, f 5;
#X floatatom 177 207 5 0 255 0 - - -, f 5;
#X floatatom 153 257 5 0 0 0 - - -, f 5;
#X text 210 78 set the specular color.;
#X text 203 128 set the diffuse color.;
#X text 166 178 set the ambient color.;
#X text 190 228 set the emissive color.;
#X text 167 278 set the shininess.;
#X obj 36 324 outlet;
#X msg 36 32 print;
#X text 85 32 print the current settings.;
#X obj 36 78 ofPack specular 100 100 100;
#X obj 36 128 ofPack diffuse 200 200 200;
#X obj 36 228 ofPack emissive 50 50 50;
#X obj 36 278 ofPack shininess 120;
#X connect 0 0 22 1;
#X connect 1 0 22 2;
#X connect 2 0 22 3;
#X connect 3 0 23 1;
#X connect 4 0 23 2;
#X connect 5 0 23 3;
#X connect 6 0 9 1;
#X connect 7 0 9 2;
#X connect 8 0 9 3;
#X connect 9 0 19 0;
#X connect 10 0 24 1;
#X connect 11 0 24 2;
#X connect 12 0 24 3;
#X connect 13 0 25 1;
#X connect 20 0 19 0;
#X connect 22 0 19 0;
#X connect 23 0 19 0;
#X connect 24 0 19 0;
#X connect 25 0 19 0;
#X restore 58 264 pd ofMaterial_parameters;
#X obj 23 232 ofSpotlight 160 120 200;
#X text 271 458 - sets orientation with angle and axis.;
#X text 271 478 - sets orientation with a eular angles.;
#X text 271 498 - sets orientation with a quaternion.;
#X text 271 518 - makes spotlight to look at x \, y \, z position.
;
#X text 271 538 - sets the color of highlights on a material.;
#X text 271 558 - sets the color of material when it is illuminated.
;
#X text 271 578 - sets the color of material when it is not illuminated.
;
#X text 271 598 - sets the radius of the cone of light.;
#X text 271 618 - sets concentration amount of the spotlight.;
#X text 271 638 - sets constant \, linear \, quadratic attenuation.
;
#X text 271 658 - enables/disables the debug mode.;
#X text 271 818 - x position of the light source. (default: 0);
#X text 271 838 - y position of the light source. (default: 0);
#X text 271 858 - z position of the light source. (default: 0);
#X text 11 23 a light that spreads outward in a cone;
#X text 143 351 a known bug: once you use and destroy [ofSpotlight]
object \, [ofPointLight] and [ofDirectionalLight] may not work properly.
you need to recreate the window in this case.;
#X text 201 394 note: [ofSpotlight] currently does not work correctly
if using non-default orientation on mobile device.;
#X text 95 458 rotate <f \, f \, f \, f>;
#X connect 34 0 54 0;
#X connect 35 0 36 1;
#X connect 36 0 37 0;
#X connect 37 0 44 0;
#X connect 38 0 35 0;
#X connect 39 0 54 1;
#X connect 40 0 54 2;
#X connect 41 0 54 3;
#X connect 42 0 48 0;
#X connect 44 0 54 0;
#X connect 47 0 42 0;
#X connect 48 0 45 0;
#X connect 53 0 47 0;
#X connect 54 0 47 0;
