#N canvas 321 23 597 628 10;
#X declare -lib ofelia;
#X obj 0 0 cnv 15 580 40 empty empty ofSphere 3 12 0 18 -204280 -1
0;
#X obj 0 381 cnv 3 580 3 empty empty inlets 8 12 0 13 -228856 -1 0
;
#X obj 0 463 cnv 3 580 3 empty empty outlets 8 12 0 13 -228856 -1 0
;
#X obj 75 389 cnv 17 3 40 empty empty 0 5 9 0 16 -228856 -162280 0
;
#X obj 75 471 cnv 17 3 17 empty empty 0 5 9 0 16 -228856 -162280 0
;
#X obj 0 569 cnv 15 580 21 empty empty empty 20 12 0 14 -228856 -66577
0;
#X obj 0 499 cnv 3 580 3 empty empty arguments 8 12 0 13 -228856 -1
0;
#X text 72 522 1) float;
#X obj 273 70 loadbang;
#X floatatom 321 311 5 0 0 0 - - -, f 5;
#X obj 75 435 cnv 17 3 17 empty empty 1 5 9 0 16 -228856 -162280 0
;
#X text 95 435 float;
#X text 95 389 render bang;
#X text 211 389 - the incoming render bang.;
#X text 211 471 - the outgoing render bang.;
#X text 95 471 render bang;
#X text 72 543 2) float;
#X text 363 310 change radius.;
#X obj 363 217 tgl 15 0 empty empty empty 17 7 0 10 -262144 -1 -1 0
1;
#X text 211 435 - sets the radius.;
#X floatatom 270 268 5 0 0 0 - - -, f 5;
#X floatatom 273 183 5 0 0 0 - - -, f 5;
#X floatatom 310 183 5 0 0 0 - - -, f 5;
#X floatatom 347 183 5 0 0 0 - - -, f 5;
#X text 11 23 draw a sphere;
#X text 310 268 change the sphere resolution.;
#X text 384 182 rotate the sphere.;
#X obj 523 5 ofSphere;
#X obj 273 91 ofGetLastRenderOrder;
#X obj 240 112 ofHead;
#X obj 240 133 ofClear 63;
#X obj 240 161 ofTranslate 160 120;
#X obj 240 239 ofSetFillMode OUTLINE;
#X obj 240 330 ofSphere 50 50;
#X obj 23 358 ofWindow 320 240 LEFT TOP;
#X text 384 217 0: OUTLINE \, 1: FILLED.;
#X text 211 409 - sets the sphere resolution. (range: 1~);
#X text 211 522 - sets the initial radius. (default: 50);
#X text 211 543 - sets the initial sphere resolution. (default: 50)
;
#X text 95 409 sphereRes <f>;
#X msg 270 288 sphereRes \$1;
#X obj 240 204 ofRotateXYZ 0 0 0;
#X obj 462 46 declare -lib ofelia;
#X connect 8 0 28 0;
#X connect 9 0 33 1;
#X connect 18 0 32 1;
#X connect 20 0 40 0;
#X connect 21 0 41 1;
#X connect 22 0 41 2;
#X connect 23 0 41 3;
#X connect 28 0 29 1;
#X connect 29 0 30 0;
#X connect 30 0 31 0;
#X connect 31 0 41 0;
#X connect 32 0 33 0;
#X connect 40 0 33 0;
#X connect 41 0 32 0;
