#N canvas 321 23 601 629 10;
#X declare -lib ofelia;
#X obj 0 0 cnv 15 580 40 empty empty ofStar 3 12 0 18 -204280 -1 0
;
#X obj 182 103 loadbang;
#X floatatom 176 223 5 0 0 0 - - -, f 5;
#X floatatom 218 223 5 0 0 0 - - -, f 5;
#X floatatom 260 223 5 0 0 0 - - -, f 5;
#X obj 0 341 cnv 3 580 3 empty empty inlets 8 12 0 13 -228856 -1 0
;
#X obj 0 443 cnv 3 580 3 empty empty outlets 8 12 0 13 -228856 -1 0
;
#X obj 75 349 cnv 17 3 17 empty empty 0 5 9 0 16 -228856 -162280 0
;
#X obj 75 451 cnv 17 3 17 empty empty 0 5 9 0 16 -228856 -162280 0
;
#X obj 0 570 cnv 15 580 21 empty empty empty 20 12 0 14 -228856 -66577
0;
#X obj 0 479 cnv 3 580 3 empty empty arguments 8 12 0 13 -228856 -1
0;
#X text 72 502 1) float;
#X obj 75 372 cnv 17 3 17 empty empty 1 5 9 0 16 -228856 -162280 0
;
#X text 95 372 float;
#X text 95 349 render bang;
#X text 211 349 - the incoming render bang.;
#X text 211 451 - the outgoing render bang.;
#X text 95 451 render bang;
#X obj 75 395 cnv 17 3 17 empty empty 2 5 9 0 16 -228856 -162280 0
;
#X text 95 395 float;
#X text 72 523 2) float;
#X obj 75 418 cnv 17 3 17 empty empty 3 5 9 0 16 -228856 -162280 0
;
#X text 95 418 float;
#X text 72 544 3) float;
#X text 11 23 draw a star;
#X text 211 372 - sets the radius1.;
#X text 211 395 - sets the radius2.;
#X text 211 418 - sets the number of points.;
#X text 298 222 change radius1 \, radius2 \, the number of points.
;
#X obj 535 5 ofStar;
#X obj 182 124 ofGetLastRenderOrder;
#X obj 149 145 ofHead;
#X obj 149 166 ofClear 63;
#X obj 149 194 ofTranslate 160 120;
#X obj 149 243 ofStar 50 25 5;
#X obj 23 318 ofWindow 320 240 LEFT TOP;
#X text 211 502 - sets the initial radius1. (default: 50);
#X text 211 523 - sets the initial radius2. (default: 25);
#X text 211 544 - sets the initial number of points. (default: 5);
#X obj 462 46 declare -lib ofelia;
#X connect 1 0 30 0;
#X connect 2 0 34 1;
#X connect 3 0 34 2;
#X connect 4 0 34 3;
#X connect 30 0 31 1;
#X connect 31 0 32 0;
#X connect 32 0 33 0;
#X connect 33 0 34 0;
