#N canvas 321 23 598 605 10;
#X obj 0 0 cnv 15 580 40 empty empty ofStep 3 12 0 18 -204280 -1 0
;
#X obj 0 341 cnv 3 580 3 empty empty inlets 8 12 0 13 -228856 -1 0
;
#X obj 0 423 cnv 3 580 3 empty empty outlets 8 12 0 13 -228856 -1 0
;
#X obj 75 349 cnv 17 3 17 empty empty 0 5 9 0 16 -228856 -162280 0
;
#X obj 75 431 cnv 17 3 17 empty empty 0 5 9 0 16 -228856 -162280 0
;
#X obj 0 548 cnv 15 580 21 empty empty empty 20 12 0 14 -228856 -66577
0;
#X obj 0 459 cnv 3 580 3 empty empty arguments 8 12 0 13 -228856 -1
0;
#X text 95 349 bang;
#X obj 75 372 cnv 17 3 17 empty empty 1 5 9 0 16 -228856 -162280 0
;
#X obj 201 138 bng 15 250 50 0 empty empty empty 17 7 0 10 -262144
-1 -1;
#X floatatom 201 253 5 0 0 0 - - -, f 5;
#X floatatom 276 187 5 0 0 0 - - -, f 5;
#N canvas 322 122 824 387 more_examples 0;
#X obj 36 144 bng 15 250 50 0 empty empty empty 17 7 0 10 -262144 -1
-1;
#X floatatom 36 205 5 0 0 0 - - -, f 5;
#X obj 36 44 bng 15 250 50 0 empty empty empty 17 7 0 10 -262144 -1
-1;
#X floatatom 36 105 5 0 0 0 - - -, f 5;
#X obj 423 144 bng 15 250 50 0 empty empty empty 17 7 0 10 -262144
-1 -1;
#X floatatom 423 205 5 0 0 0 - - -, f 5;
#X obj 423 44 bng 15 250 50 0 empty empty empty 17 7 0 10 -262144 -1
-1;
#X floatatom 423 105 5 0 0 0 - - -, f 5;
#X obj 55 44 bng 15 250 50 0 empty empty empty 17 7 0 10 -262144 -1
-1;
#X floatatom 75 44 5 0 0 0 - - -, f 5;
#X obj 449 44 bng 15 250 50 0 empty empty empty 17 7 0 10 -262144 -1
-1;
#X obj 64 144 bng 15 250 50 0 empty empty empty 17 7 0 10 -262144 -1
-1;
#X floatatom 476 44 5 0 0 0 - - -, f 5;
#X floatatom 93 145 5 0 0 0 - - -, f 5;
#X obj 454 144 bng 15 250 50 0 empty empty empty 17 7 0 10 -262144
-1 -1;
#X floatatom 486 144 5 0 0 0 - - -, f 5;
#X obj 36 244 bng 15 250 50 0 empty empty empty 17 7 0 10 -262144 -1
-1;
#X floatatom 36 305 5 0 0 0 - - -, f 5;
#X obj 423 244 bng 15 250 50 0 empty empty empty 17 7 0 10 -262144
-1 -1;
#X floatatom 423 305 5 0 0 0 - - -, f 5;
#X obj 73 244 bng 15 250 50 0 empty empty empty 17 7 0 10 -262144 -1
-1;
#X floatatom 111 245 5 0 0 0 - - -, f 5;
#X obj 460 244 bng 15 250 50 0 empty empty empty 17 7 0 10 -262144
-1 -1;
#X floatatom 498 244 5 0 0 0 - - -, f 5;
#X text 83 78 range: minFloat~maxFloat \, value set to 0;
#X text 106 178 range: 2~8 \, value set to 2;
#X text 125 278 range: 3~10 \, value set to 5;
#X text 481 78 range: minFloat~maxFloat \, value set to 8;
#X text 500 178 range: 3~-3 \, value set to 3;
#X text 512 278 range: -3~6 \, value set to 2;
#X obj 36 78 ofStep;
#X obj 36 178 ofStep 2 8;
#X obj 36 278 ofStep 3 10 5;
#X obj 423 78 ofStep 8;
#X obj 423 178 ofStep 3 -3;
#X obj 423 278 ofStep -3 6 2;
#X connect 0 0 31 0;
#X connect 2 0 30 0;
#X connect 4 0 34 0;
#X connect 6 0 33 0;
#X connect 8 0 30 1;
#X connect 9 0 30 2;
#X connect 10 0 33 1;
#X connect 11 0 31 1;
#X connect 12 0 33 2;
#X connect 13 0 31 2;
#X connect 14 0 34 1;
#X connect 15 0 34 2;
#X connect 16 0 32 0;
#X connect 18 0 35 0;
#X connect 20 0 32 1;
#X connect 21 0 32 2;
#X connect 22 0 35 1;
#X connect 23 0 35 2;
#X connect 30 0 3 0;
#X connect 31 0 1 0;
#X connect 32 0 17 0;
#X connect 33 0 7 0;
#X connect 34 0 5 0;
#X connect 35 0 19 0;
#X restore 480 46 pd more_examples;
#X obj 75 395 cnv 17 3 17 empty empty 2 5 9 0 16 -228856 -162280 0
;
#X text 95 395 float;
#X text 95 431 float;
#X text 72 482 1) float;
#X text 72 502 2) float;
#X text 72 522 3) float;
#X text 11 23 increase or decrease a value in steps;
#X obj 238 163 bng 15 250 50 0 empty empty empty 17 7 0 10 -262144
-1 -1;
#X text 223 137 increase/decrease the value by 1;
#X text 260 162 increase/decrease the value by 1;
#X text 315 186 set current value.;
#X text 211 349 - increases/decreases the value by 1;
#X text 95 372 bang;
#X text 211 372 - increases/decreases the value by 1;
#X text 211 395 - sets the current value.;
#X text 211 431 - the outgoing value of the stepper.;
#X obj 535 5 ofStep;
#X text 21 43 [ofStep] is a two-segment control used to adjust a value
by increasing or decreasing it by 1;
#X obj 201 225 ofStep -4 4 0;
#X text 211 482 - the min/max value in a range. (default: minFloat)
;
#X text 211 502 - the min/max value in a range. (default: maxFloat)
;
#X text 211 522 - the current value. (default: 0);
#X connect 9 0 31 0;
#X connect 11 0 31 2;
#X connect 20 0 31 1;
#X connect 31 0 10 0;
