#N canvas 321 23 598 564 10;
#X obj 0 0 cnv 15 580 40 empty empty ofSwitch 3 12 0 18 -204280 -1
0;
#X obj 0 341 cnv 3 580 3 empty empty inlets 8 12 0 13 -228856 -1 0
;
#X obj 0 400 cnv 3 580 3 empty empty outlets 8 12 0 13 -228856 -1 0
;
#X obj 75 349 cnv 17 3 17 empty empty 0 5 9 0 16 -228856 -162280 0
;
#X obj 75 408 cnv 17 3 17 empty empty 0 5 9 0 16 -228856 -162280 0
;
#X obj 0 505 cnv 15 580 21 empty empty empty 20 12 0 14 -228856 -66577
0;
#X obj 0 436 cnv 3 580 3 empty empty arguments 8 12 0 13 -228856 -1
0;
#X obj 75 372 cnv 17 3 17 empty empty n 5 9 0 16 -228856 -162280 0
;
#X floatatom 200 273 5 0 0 0 - - -, f 5;
#X floatatom 246 203 5 0 0 0 - - -, f 5;
#X text 72 459 1) float;
#X text 72 479 2) float;
#X text 11 23 pass messages from a specific inlet;
#X floatatom 223 183 5 0 0 0 - - -, f 5;
#X obj 200 139 hradio 15 1 0 4 empty empty empty 0 -8 0 10 -262144
-1 -1 3;
#X floatatom 200 159 5 0 0 0 - - -, f 5;
#X text 259 183 inlet 1;
#X text 282 203 inlet 2;
#X floatatom 269 223 5 0 0 0 - - -, f 5;
#X text 305 222 inlet 3;
#X text 95 372 list;
#X text 95 408 list;
#X text 181 408 - message from the switched on inlet.;
#X text 95 349 float;
#X text 181 372 - any message to pass through the switch.;
#X obj 523 5 ofSwitch;
#X text 21 43 [ofSwitch] outputs data from the inlet that is switched
on. Just one inlet from 'n' inlets can send data \, or none of them.
;
#X obj 200 245 ofSwitch 3 1;
#X text 266 138 select which inlet to open. (0 means all closed);
#X text 181 349 - sets which inlet is open. (0 is all closed);
#X text 181 459 - sets the 'n' number of inlets. (from 1 to 64 \, default
1);
#X text 181 479 - inlet initially switched on. (default 0 - all closed)
;
#X connect 9 0 27 2;
#X connect 13 0 27 1;
#X connect 14 0 15 0;
#X connect 15 0 27 0;
#X connect 18 0 27 3;
#X connect 27 0 8 0;
