#N canvas 321 23 601 538 10;
#X declare -lib ofelia;
#X obj 0 0 cnv 15 580 40 empty empty ofSystemAlertDialog 3 12 0 18
-204280 -1 0;
#X obj 0 341 cnv 3 580 3 empty empty inlets 8 12 0 13 -228856 -1 0
;
#X obj 0 400 cnv 3 580 3 empty empty outlets 8 12 0 13 -228856 -1 0
;
#X obj 75 349 cnv 17 3 40 empty empty 0 5 9 0 16 -228856 -162280 0
;
#X obj 0 483 cnv 15 580 21 empty empty empty 20 12 0 14 -228856 -66577
0;
#X obj 0 434 cnv 3 580 3 empty empty arguments 8 12 0 13 -228856 -1
0;
#X text 72 457 (none);
#X obj 185 192 bng 15 250 50 0 empty empty empty 17 7 0 10 -262144
-1 -1;
#X obj 462 46 declare -lib ofelia;
#X text 95 349 bang;
#X obj 23 318 ofWindow 320 240 LEFT TOP;
#X obj 185 145 route 1;
#X obj 185 124 ofKeyListener;
#X text 231 349 - opens the dialog window.;
#X obj 457 5 ofSystemAlertDialog;
#X msg 185 225 errorMessage This is an error message \, bang, f 38
;
#X text 208 191 set the error message and then send 'bang' to open
the dialog window.;
#X obj 185 257 ofSystemAlertDialog;
#X text 95 408 (none);
#X text 95 369 errorMessage <l>;
#X text 21 43 [ofSystemAlertDialog] is used to show an alert message
through a dialog window. it only works when a graphics window exists.
;
#X text 11 23 show an alert message through a dialog window;
#X text 231 369 - sets the error message to show on the dialog window.
;
#X obj 185 166 sel 32;
#X text 274 123 press the space key while the window has focus.;
#X connect 7 0 15 0;
#X connect 11 0 23 0;
#X connect 12 0 11 0;
#X connect 15 0 17 0;
#X connect 23 0 7 0;
