#N canvas 321 23 601 599 10;
#X declare -lib ofelia;
#X obj 0 0 cnv 15 580 40 empty empty ofSystemLoadDialog 3 12 0 18 -204280
-1 0;
#X obj 0 361 cnv 3 580 3 empty empty inlets 8 12 0 13 -228856 -1 0
;
#X obj 0 460 cnv 3 580 3 empty empty outlets 8 12 0 13 -228856 -1 0
;
#X obj 75 369 cnv 17 3 80 empty empty 0 5 9 0 16 -228856 -162280 0
;
#X obj 0 543 cnv 15 580 21 empty empty empty 20 12 0 14 -228856 -66577
0;
#X obj 0 494 cnv 3 580 3 empty empty arguments 8 12 0 13 -228856 -1
0;
#X text 72 517 (none);
#X obj 132 165 bng 15 250 50 0 empty empty empty 17 7 0 10 -262144
-1 -1;
#X obj 132 197 ofGetPatchDirectory;
#X obj 75 468 cnv 17 3 17 empty empty 0 5 9 0 16 -228856 -162280 0
;
#X obj 462 46 declare -lib ofelia;
#X obj 463 5 ofSystemLoadDialog;
#X obj 132 261 ofSystemLoadDialog;
#X symbolatom 132 302 70 0 0 0 - - -, f 70;
#X msg 132 218 windowTitle Load any file \, folderSelection OFF \,
defaultPath \$1 \, bang, f 26;
#X text 95 369 bang;
#X text 11 23 get the path of a file or folder through a dialog window
;
#X text 307 218 the settings are all optional.;
#X text 144 281 outputs the path of a file or folder. (if selected)
;
#X text 95 389 windowTitle <l>;
#X text 231 389 - sets the title of the window.;
#X text 21 43 [ofSystemLoadDialog] is used to get the path of a file
or folder through a dialog window. it only works when a graphics window
exists.;
#X text 95 409 folderSelection <f/s>;
#X text 95 429 defaultPath <s>;
#X text 231 409 - enables/disables the folder selection. (default:OFF)
;
#X text 231 429 - sets the default path.;
#X text 95 468 symbol;
#X text 231 468 - the path of a file or folder. (if selected);
#X obj 23 338 ofWindow 320 240 LEFT TOP;
#X obj 132 120 route 1;
#X obj 132 99 ofKeyListener;
#X text 231 369 - opens the dialog window.;
#X text 155 164 set the window title \, folder selection \, default
path and then send 'bang' to open the dialog window.;
#X text 221 98 press the space key while the window has focus.;
#X obj 132 141 sel 32;
#X connect 7 0 8 0;
#X connect 8 0 14 0;
#X connect 12 0 13 0;
#X connect 14 0 12 0;
#X connect 29 0 34 0;
#X connect 30 0 29 0;
#X connect 34 0 7 0;
