#N canvas 321 23 598 641 10;
#X declare -lib ofelia;
#X obj 0 0 cnv 15 580 40 empty empty ofTriangle3d 3 12 0 18 -204280
-1 0;
#X obj 0 341 cnv 3 580 3 empty empty inlets 8 12 0 13 -228856 -1 0
;
#X obj 0 446 cnv 3 580 3 empty empty outlets 8 12 0 13 -228856 -1 0
;
#X obj 75 349 cnv 17 3 17 empty empty 0 5 9 0 16 -228856 -162280 0
;
#X obj 75 454 cnv 17 3 17 empty empty 0 5 9 0 16 -228856 -162280 0
;
#X obj 0 582 cnv 15 580 21 empty empty empty 20 12 0 14 -228856 -66577
0;
#X obj 0 482 cnv 3 580 3 empty empty arguments 8 12 0 13 -228856 -1
0;
#X obj 173 93 loadbang;
#X obj 75 372 cnv 17 3 17 empty empty 1 5 9 0 16 -228856 -162280 0
;
#X text 95 349 render bang;
#X text 211 349 - the incoming render bang.;
#X text 211 454 - the outgoing render bang.;
#X text 95 454 render bang;
#X obj 75 395 cnv 17 3 17 empty empty 2 5 9 0 16 -228856 -162280 0
;
#X text 511 5 or;
#X text 384 216 change point1 \, point2 \, point3.;
#X obj 75 418 cnv 17 3 17 empty empty 3 5 9 0 16 -228856 -162280 0
;
#X text 11 23 draw a 3d triangle;
#X msg 213 216 0 0 0;
#X msg 262 216 100 0 0;
#X msg 325 216 50 50 0;
#X text 95 372 list <f \, f \, f>;
#X text 95 395 list <f \, f \, f>;
#X text 95 418 list <f \, f \, f>;
#X text 72 505 1) list <f \, f \, f>;
#X text 72 526 2) list <f \, f \, f>;
#X text 72 547 3) list <f \, f \, f>;
#X obj 432 5 ofTriangle3d;
#X obj 529 5 ofTri3d;
#X obj 173 114 ofGetLastRenderOrder;
#X obj 140 135 ofHead;
#X obj 140 156 ofClear 63;
#X obj 140 184 ofTranslate 160 120;
#X obj 140 243 ofTriangle3d -50 50 0 50 50 0 0 -50 0;
#X obj 23 318 ofWindow 320 240 LEFT TOP;
#X text 211 372 - sets the point1. (x1 \, y1 \, z1);
#X text 211 395 - sets the point2. (x2 \, y2 \, z2);
#X text 211 418 - sets the point3. (x3 \, y3 \, z3);
#X text 211 505 - sets the initial point1. (x1 \, y1 \, z1) (default:
-50 \, 50 \, 0);
#X text 211 526 - sets the initial point2. (x2 \, y2 \, z2) (default:
50 \, 50 \, 0);
#X text 211 547 - sets the initial point3. (x3 \, y3 \, z3) (default:
0 \, -50 \, 0);
#X obj 462 46 declare -lib ofelia;
#X connect 7 0 29 0;
#X connect 18 0 33 1;
#X connect 19 0 33 2;
#X connect 20 0 33 3;
#X connect 29 0 30 1;
#X connect 30 0 31 0;
#X connect 31 0 32 0;
#X connect 32 0 33 0;
