#N canvas 321 23 599 545 10;
#X declare -lib ofelia;
#X obj 0 0 cnv 15 580 40 empty empty ofValue 3 12 0 18 -204280 -1 0
;
#X obj 0 341 cnv 3 580 3 empty empty inlets 8 12 0 13 -228856 -1 0
;
#X obj 0 400 cnv 3 580 3 empty empty outlets 8 12 0 13 -228856 -1 0
;
#X obj 75 349 cnv 17 3 40 empty empty 0 5 9 0 16 -228856 -162280 0
;
#X obj 75 408 cnv 17 3 17 empty empty 0 5 9 0 16 -228856 -162280 0
;
#X obj 0 485 cnv 15 580 21 empty empty empty 20 12 0 14 -228856 -66577
0;
#X obj 0 436 cnv 3 580 3 empty empty arguments 8 12 0 13 -228856 -1
0;
#X floatatom 165 231 10 0 0 0 - - -, f 10;
#X text 95 408 float;
#X floatatom 165 179 5 0 0 0 - - -, f 5;
#X text 11 23 nonlocal shared value;
#X text 523 5 or;
#X obj 541 5 ofVal;
#X obj 474 5 ofValue;
#X obj 165 204 ofValue @myVar;
#X floatatom 335 231 10 0 0 0 - - -, f 10;
#X obj 335 204 ofValue @myVar;
#X obj 335 179 bng 15 250 50 0 empty empty empty 17 7 0 10 -262144
-1 -1;
#X text 95 349 bang;
#X text 95 369 float;
#X text 21 43 [ofValue] is a container. it holds a global variable
numeric value and can be polled at any time with a bang message. it
works just like [value] object but can be used with local variable
name prefixes.;
#X text 211 349 - outputs the current value of the variable.;
#X text 211 369 - sets the current value of the variable.;
#N canvas 322 149 558 681 about_variable 0;
#X obj 47 279 ofSend @foo;
#X floatatom 47 253 5 0 0 0 - - -, f 5;
#X obj 246 253 ofReceive @foo;
#X floatatom 246 282 5 0 0 0 - - -, f 5;
#X floatatom 138 253 5 0 0 0 - - -, f 5;
#X floatatom 358 282 5 0 0 0 - - -, f 5;
#X obj 138 279 send v\$0_foo;
#X obj 358 253 receive v\$0_foo;
#X text 39 192 the first prefix is the "@" symbol which is used to
make the variable name local within the same patch. the prefix "@"
is internally replaced with "v\$0_".;
#X text 39 322 the second prefix is the "#" symbol which is used to
make the variable name local within the same canvas. the prefix "#"
is internally replaced with "v(unique-canvas-name)_".;
#X floatatom 350 471 5 0 0 0 - - -, f 5;
#X floatatom 188 383 5 0 0 0 - - -, f 5;
#X obj 188 470 send;
#X obj 350 448 ofReceive #foo;
#X obj 215 426 ofGetCanvasName;
#X msg 215 448 symbol v\$1_foo;
#X obj 188 402 t f b;
#X obj 350 402 ofValue #foo;
#X obj 350 383 bng 15 250 50 0 empty empty empty 17 7 0 10 -262144
-1 -1;
#X floatatom 350 424 5 0 0 0 - - -, f 5;
#X text 39 132 for these reasons \, in ofelia we provide special prefix
symbols to easily localize variable names. (note: this only applies
to ofelia objects and not the original pd object);
#X text 39 512 you can use these prefixes in all ofelia objects that
use variable names.;
#X obj 47 552 bng 15 250 50 0 empty empty empty 17 7 0 10 -262144 -1
-1;
#X obj 177 552 bng 15 250 50 0 empty empty empty 17 7 0 10 -262144
-1 -1;
#X floatatom 177 609 5 0 0 0 - - -, f 5;
#X obj 320 574 bng 15 250 50 0 empty empty empty 17 7 0 10 -262144
-1 -1;
#X obj 320 616 print;
#X obj 47 574 ofDefine \; @hello = 3 \; #world = 7 \;;
#X obj 177 574 ofExpr \; @hello + #world \;;
#X obj 320 552 ofLoadFloat @myList 1 2 3 4;
#X obj 320 594 ofGetFloats @myList;
#X text 39 32 in pd \, \$0 is commonly used in variable names for localization
purpose. (e.g. \$0-name) however \, using \$0 for variable names can
sometimes be inconvenient to write and hard to read especially when
used in expressions using [expr]. further more \, you cannot use \$0
based variable names in a message box.;
#X floatatom 47 383 5 0 0 0 - - -, f 5;
#X obj 47 402 t f b, f 6;
#X msg 80 448 symbol #foo;
#X obj 47 470 ofSend;
#X connect 1 0 0 0;
#X connect 2 0 3 0;
#X connect 4 0 6 0;
#X connect 7 0 5 0;
#X connect 11 0 16 0;
#X connect 13 0 10 0;
#X connect 14 0 15 0;
#X connect 15 0 12 1;
#X connect 16 0 12 0;
#X connect 16 1 14 0;
#X connect 17 0 19 0;
#X connect 18 0 17 0;
#X connect 22 0 27 0;
#X connect 23 0 28 0;
#X connect 25 0 30 0;
#X connect 28 0 24 0;
#X connect 30 0 26 0;
#X connect 32 0 33 0;
#X connect 33 0 35 0;
#X connect 33 1 34 0;
#X connect 34 0 35 1;
#X restore 474 66 pd about_variable;
#X text 211 408 - the current value of the variable.;
#X text 72 458 1) symbol;
#X text 211 458 - sets the variable name.;
#X obj 462 46 declare -lib ofelia;
#X connect 9 0 14 0;
#X connect 14 0 7 0;
#X connect 16 0 15 0;
#X connect 17 0 16 0;
