#N canvas 321 23 601 821 10;
#X declare -lib ofelia;
#X obj 0 0 cnv 15 580 40 empty empty ofViewport 3 12 0 18 -204280 -1
0;
#X obj 0 451 cnv 3 580 3 empty empty inlets 8 12 0 13 -228856 -1 0
;
#X obj 0 602 cnv 3 580 3 empty empty outlets 8 12 0 13 -228856 -1 0
;
#X obj 75 459 cnv 17 3 40 empty empty 0 5 9 0 16 -228856 -162280 0
;
#X obj 75 610 cnv 17 3 17 empty empty 0 5 9 0 16 -228856 -162280 0
;
#X obj 0 767 cnv 15 580 21 empty empty empty 20 12 0 14 -228856 -66577
0;
#X obj 0 638 cnv 3 580 3 empty empty arguments 8 12 0 13 -228856 -1
0;
#X floatatom 160 206 5 0 0 0 - - -, f 5;
#X floatatom 201 206 5 0 0 0 - - -, f 5;
#X obj 75 505 cnv 17 3 17 empty empty 1 5 9 0 16 -228856 -162280 0
;
#X text 95 505 float;
#X obj 75 528 cnv 17 3 17 empty empty 2 5 9 0 16 -228856 -162280 0
;
#X text 95 528 float;
#X text 72 681 2) float;
#X text 72 661 1) float;
#X text 11 23 setup the drawing viewport;
#X obj 23 428 ofWindow 320 240 LEFT TOP;
#X obj 158 142 ofGetLastRenderOrder;
#X obj 125 163 ofHead;
#X obj 125 184 ofClear 63;
#X obj 158 121 loadbang;
#X floatatom 160 300 5 0 0 0 - - -, f 5;
#X obj 125 320 ofTranslate 100 75;
#X obj 511 5 ofViewport;
#X obj 125 341 ofSetColor orange;
#X floatatom 242 206 5 0 0 0 - - -, f 5;
#X floatatom 284 206 5 0 0 0 - - -, f 5;
#X floatatom 201 300 5 0 0 0 - - -, f 5;
#X floatatom 194 366 5 0 0 0 - - -, f 5;
#X text 324 205 set x \, y \, width \, height of the viewport.;
#X text 231 365 change the size of the circle.;
#X text 239 299 move the circle within the viewport.;
#X obj 125 275 ofRectangle 1000 1000;
#X obj 125 253 ofSetColor white;
#X obj 75 551 cnv 17 3 17 empty empty 3 5 9 0 16 -228856 -162280 0
;
#X text 95 551 float;
#X obj 125 231 ofViewport 50 50 200 150;
#X obj 75 574 cnv 17 3 17 empty empty 4 5 9 0 16 -228856 -162280 0
;
#X text 95 574 float;
#X text 211 574 - height of the viewport.;
#X text 211 551 - width of the viewport.;
#X text 211 528 - y position of the viewport.;
#X text 211 505 - x position of the viewport.;
#X text 211 459 - the incoming render bang.;
#X text 211 610 - the outgoing render bang.;
#X text 95 459 render bang;
#X text 95 610 render bang;
#X text 72 701 3) float;
#X text 72 721 4) float;
#X text 95 479 VFlip <f/s>;
#X text 72 741 5) float/symbol;
#X obj 125 386 ofCircle 100;
#X text 21 43 [ofViewport] creates a rectangular viewing region. the
top left corner of the viewport will be (0 \, 0) coordinate for objects
that are drawn into it. the objects will be clipped to the viewport's
region.;
#X text 211 479 - vertically flips the coordinate system.;
#X text 211 661 - x position of the viewport. (default: 0);
#X text 211 681 - y position of the viewport. (default: 0);
#X text 211 701 - width of the viewport. (default: 100);
#X text 211 721 - height of the viewport. (default: 100);
#X text 211 741 - vertically flips the coordinate system. (default:
ON);
#X text 211 404 note: [ofViewport] currently does not work correctly
if using non-default orientation on mobile device.;
#X obj 462 46 declare -lib ofelia;
#X connect 7 0 36 1;
#X connect 8 0 36 2;
#X connect 17 0 18 1;
#X connect 18 0 19 0;
#X connect 19 0 36 0;
#X connect 20 0 17 0;
#X connect 21 0 22 1;
#X connect 22 0 24 0;
#X connect 24 0 51 0;
#X connect 25 0 36 3;
#X connect 26 0 36 4;
#X connect 27 0 22 2;
#X connect 28 0 51 1;
#X connect 32 0 22 0;
#X connect 33 0 32 0;
#X connect 36 0 33 0;
