#N canvas 321 23 608 520 10;
#X obj 0 0 cnv 15 580 40 empty empty ofWindowListener 3 12 0 18 -204280
-1 0;
#X obj 0 341 cnv 3 580 3 empty empty inlets 8 12 0 13 -228856 -1 0
;
#X obj 0 375 cnv 3 580 3 empty empty outlets 8 12 0 13 -228856 -1 0
;
#X obj 75 383 cnv 17 3 17 empty empty 0 5 9 0 16 -228856 -162280 0
;
#X obj 0 460 cnv 15 580 21 empty empty empty 20 12 0 14 -228856 -66577
0;
#X obj 0 411 cnv 3 580 3 empty empty arguments 8 12 0 13 -228856 -1
0;
#X text 72 434 (none);
#X text 72 349 (none);
#X floatatom 166 128 5 0 0 0 - - -, f 5;
#X text 11 23 listen to the creation/destruction of the current window
;
#X text 211 383 - the creation/destruction of the current window.;
#X msg 23 98 destroy;
#X msg 43 128 create;
#X obj 23 318 ofWindow 320 240 LEFT TOP;
#X obj 166 98 ofWindowListener;
#X text 210 127 0: detroyed \, 1: created.;
#X text 162 149 note: if the window already exists \, [ofWindowListener]
will output 1 as soon as it is created. this makes the listener also
work on a secondly opened patch.;
#X text 21 43 [ofWindowListener] outputs 1 when the window is created
\, and outputs 0 when the window is destroyed.;
#X text 95 383 float;
#X obj 475 5 ofWindowListener;
#X connect 11 0 13 0;
#X connect 12 0 13 0;
#X connect 14 0 8 0;
