#N canvas 321 23 608 520 10;
#X obj 0 0 cnv 15 580 40 empty empty ofWindowLoadBang 3 12 0 18 -204280
-1 0;
#X obj 0 341 cnv 3 580 3 empty empty inlets 8 12 0 13 -228856 -1 0
;
#X obj 0 375 cnv 3 580 3 empty empty outlets 8 12 0 13 -228856 -1 0
;
#X obj 75 383 cnv 17 3 17 empty empty 0 5 9 0 16 -228856 -162280 0
;
#X obj 0 460 cnv 15 580 21 empty empty empty 20 12 0 14 -228856 -66577
0;
#X obj 0 411 cnv 3 580 3 empty empty arguments 8 12 0 13 -228856 -1
0;
#X text 72 434 (none);
#X text 72 349 (none);
#X msg 23 98 destroy;
#X msg 43 128 create;
#X obj 23 318 ofWindow 320 240 LEFT TOP;
#X text 11 23 listen to the creation of the current window;
#X obj 475 5 ofWindowLoadBang;
#X text 21 43 [ofWindowLoadBang] outputs bang when the window is created.
;
#X obj 166 98 ofWindowLoadBang;
#X obj 166 128 bng 15 250 50 0 empty empty empty 17 7 0 10 -262144
-1 -1;
#X text 162 149 note: if the window already exists \, [ofWindowLoadBang]
will output bang as soon as it is created. this makes the listener
also work on a secondly opened patch.;
#X text 95 383 bang;
#X text 211 383 - the creation of the current window.;
#X connect 8 0 10 0;
#X connect 9 0 10 0;
#X connect 14 0 15 0;
