#N canvas 321 23 598 587 10;
#X declare -lib ofelia;
#X obj 0 0 cnv 15 580 40 empty empty ofWrap 3 12 0 18 -204280 -1 0
;
#X obj 0 341 cnv 3 580 3 empty empty inlets 8 12 0 13 -228856 -1 0
;
#X obj 0 425 cnv 3 580 3 empty empty outlets 8 12 0 13 -228856 -1 0
;
#X obj 75 349 cnv 17 3 17 empty empty 0 5 9 0 16 -228856 -162280 0
;
#X obj 75 433 cnv 17 3 17 empty empty 0 5 9 0 16 -228856 -162280 0
;
#X obj 0 528 cnv 15 580 21 empty empty empty 20 12 0 14 -228856 -66577
0;
#X obj 0 459 cnv 3 580 3 empty empty arguments 8 12 0 13 -228856 -1
0;
#X floatatom 245 227 10 0 0 0 - - -, f 10;
#X text 95 433 float;
#X floatatom 245 145 5 0 0 0 - - -, f 5;
#X text 95 349 float;
#X floatatom 276 175 5 0 0 0 - - -, f 5;
#X floatatom 318 175 5 0 0 0 - - -, f 5;
#X text 357 174 set the range.;
#X obj 75 372 cnv 17 3 17 empty empty 1 5 9 0 16 -228856 -162280 0
;
#X text 95 372 float;
#X obj 75 395 cnv 17 3 17 empty empty 2 5 9 0 16 -228856 -162280 0
;
#X text 95 395 float;
#X text 211 372 - the lower bound of the range.;
#X text 211 395 - the upper bound of the range.;
#X text 72 502 2) float;
#N canvas 323 117 832 295 more_examples 0;
#X floatatom 81 215 10 0 0 0 - - -, f 10;
#X floatatom 341 53 5 0 0 0 - - -, f 5;
#X floatatom 341 215 10 0 0 0 - - -, f 10;
#X floatatom 571 215 10 0 0 0 - - -, f 10;
#X text 128 188 range (0~1);
#X text 412 188 range (0~100);
#X text 661 187 range (-40~40);
#X text 382 53 the value to be wrapped.;
#X obj 81 188 ofWrap;
#X obj 341 188 ofWrap 100;
#X obj 571 188 ofWrap -40 40;
#X connect 1 0 8 0;
#X connect 1 0 9 0;
#X connect 1 0 10 0;
#X connect 8 0 0 0;
#X connect 9 0 2 0;
#X connect 10 0 3 0;
#X restore 480 66 pd more_examples;
#X text 72 482 1) float;
#X text 289 144 a value to be wrapped.;
#X text 211 349 - a value to be wrapped.;
#X text 211 433 - the wrapped value.;
#X obj 535 5 ofWrap;
#X obj 245 200 ofWrap 0 50;
#X text 211 482 - the lower bound of the range. (default: 0);
#X text 211 502 - the upper bound of the range. (default: 1);
#X text 11 23 wrap a value if it overflows a given range;
#X obj 462 46 declare -lib ofelia;
#X connect 9 0 27 0;
#X connect 11 0 27 1;
#X connect 12 0 27 2;
#X connect 27 0 7 0;
