#N canvas 321 23 598 514 10;
#X declare -lib ofelia;
#X obj 0 0 cnv 15 580 40 empty empty ofWrapDegrees 3 12 0 18 -204280
-1 0;
#X obj 0 341 cnv 3 580 3 empty empty inlets 8 12 0 13 -228856 -1 0
;
#X obj 0 377 cnv 3 580 3 empty empty outlets 8 12 0 13 -228856 -1 0
;
#X obj 75 349 cnv 17 3 17 empty empty 0 5 9 0 16 -228856 -162280 0
;
#X obj 75 385 cnv 17 3 17 empty empty 0 5 9 0 16 -228856 -162280 0
;
#X obj 0 460 cnv 15 580 21 empty empty empty 20 12 0 14 -228856 -66577
0;
#X obj 0 411 cnv 3 580 3 empty empty arguments 8 12 0 13 -228856 -1
0;
#X floatatom 210 227 10 0 0 0 - - -, f 10;
#X text 95 385 float;
#X floatatom 210 145 5 0 0 0 - - -, f 5;
#X text 95 349 float;
#X text 211 385 - the wrapped value.;
#X obj 493 5 ofWrapDegrees;
#X obj 210 200 ofWrapDegrees;
#X text 11 23 wrap a value within the angle in degrees;
#X text 72 434 (none);
#X text 211 349 - a value to be wrapped within the angle in degrees.
;
#X text 254 144 a value to be wrapped within the angle in degrees.
;
#X obj 462 46 declare -lib ofelia;
#X connect 9 0 13 0;
#X connect 13 0 7 0;
