#N canvas 720 100 665 664 10;
#X declare -lib ofelia;
#X obj 28 102 loadbang;
#X text 315 567 This example was originally written in Processing.
https://processing.org/examples/shapeprimitives.html;
#X obj 28 300 ofDraw;
#X obj 28 180 ofSetup;
#X obj 28 201 ofBackground 0;
#X obj 28 222 ofFill;
#X obj 28 144 ofWindow;
#X text 122 264 Create a path for the arc shape.;
#X text 25 23 The basic shape primitive functions include ofDrawTriangle()
\, ofDrawRectangle() and ofDrawCircle(). Squares are made with ofDrawRectangle().
Each of these functions requires a number of parameters to determine
the shape's position and size.;
#X obj 28 342 ofelia f \; ofSetColor(204) \; ofDrawTriangle(18 \, 18
\, 18 \, 360 \, 81 \, 360) \; ofSetColor(102) \; ofDrawRectangle(81
\, 81 \, 63 \, 63) \; ofSetColor(204) \; ofBeginShape() \; ofVertex(189
\, 18) \; ofVertex(216 \, 18) \; ofVertex(216 \, 360) \; ofVertex(144
\, 360) \; ofEndShape(true) \; ofSetColor(255) \; ofDrawCircle(252
\, 144 \, 36) \; ofSetColor(204) \; ofDrawTriangle(288 \, 18 \, 351
\, 360 \, 288 \, 360) \; ofSetColor(255) \; a.path:draw() \;;
#X msg 28 123 setPosition 30 100 \, setSize 640 360 \, create;
#X obj 514 29 declare -lib ofelia;
#X text 143 321 Require the module that has the path.;
#X msg 28 243 setCircleResolution 50 \, arc 479 300 140 140 180 0;
#X obj 28 264 ofPath \$0-path;
#X obj 28 321 ofRequire \$0-path;
#X connect 0 0 10 0;
#X connect 2 0 15 0;
#X connect 3 0 4 0;
#X connect 4 0 5 0;
#X connect 5 0 13 0;
#X connect 10 0 6 0;
#X connect 13 0 14 0;
#X connect 15 0 9 0;
