#N canvas 720 100 665 664 10;
#X declare -path ofelia/libs/of;
#X obj 28 102 loadbang;
#X text 315 577 This example was originally written in Processing.
https://processing.org/examples/shapeprimitives.html;
#X obj 462 29 declare -path ofelia/libs/of;
#X obj 28 312 ofDraw;
#X obj 28 180 ofSetup;
#X obj 28 201 ofBackground 0;
#X obj 28 222 ofFill;
#X obj 28 144 ofWindow;
#X text 275 252 Create a path for the arc shape.;
#X text 25 23 The basic shape primitive functions include ofDrawTriangle()
\, ofDrawRectangle() and ofDrawCircle(). Squares are made with ofDrawRectangle().
Each of these functions requires a number of parameters to determine
the shape's position and size.;
#X obj 28 333 ofGetPtr \$0-vars;
#X obj 28 354 ofelia f \; ofSetColor(204) \; ofDrawTriangle(18 \, 18
\, 18 \, 360 \, 81 \, 360) \; ofSetColor(102) \; ofDrawRectangle(81
\, 81 \, 63 \, 63) \; ofSetColor(204) \; ofBeginShape() \; ofVertex(189
\, 18) \; ofVertex(216 \, 18) \; ofVertex(216 \, 360) \; ofVertex(144
\, 360) \; ofEndShape(true) \; ofSetColor(255) \; ofDrawCircle(252
\, 144 \, 36) \; ofSetColor(204) \; ofDrawTriangle(288 \, 18 \, 351
\, 360 \, 288 \, 360) \; ofSetColor(255) \; a.path:draw() \;;
#X text 135 333 Get a pointer to the variable module.;
#X msg 28 123 setPosition 30 100 \, setSize 640 360 \, create;
#X obj 28 243 ofelia f \$0-vars \; M.path = ofPath() \; M.path:setCircleResolution(50)
\; M.path:arc(479 \, 300 \, 140 \, 140 \, 180 \, 0) \;;
#X text 275 269 "M" is an alias of the module table "ofelia".;
#X connect 0 0 13 0;
#X connect 3 0 10 0;
#X connect 4 0 5 0;
#X connect 5 0 6 0;
#X connect 6 0 14 0;
#X connect 10 0 11 0;
#X connect 13 0 7 0;
