#N canvas 720 100 515 300 10;
#X declare -lib ofelia;
#X obj 141 99 loadbang;
#X obj 141 141 ofelia;
#X text 190 141 <- click to see the loaded script.;
#X obj 381 22 declare -lib ofelia;
#X msg 141 120 read -c geometryShader.lua;
#X text 166 244 This example is based on the openFrameworks example
"geometryShaderExample";
#X text 23 21 This example shows a single lua script implementation
of loading and applying geometry shader.;
#X connect 0 0 4 0;
#X connect 4 0 1 0;
