#N canvas 640 23 679 401 10;
#X obj 27 95 ofWindow 800 600 LEFT TOP 0.5;
#X text 213 95 create a window with the scale set to 0.5;
#X text 175 132 load 2 images from the specified paths.;
#X text 154 272 display the first image.;
#X text 25 23 loads a "mask" for an image to specify the transparency
in different parts of the image. The two images are blended together
by sending the "alphaMask" message to [ofEditImage] object.;
#X text 330 341 This example was originally written in Processing.
https://processing.org/examples/alphamask.html;
#X obj 27 250 ofHead 50 OFF;
#X text 57 228 enable redering when editing is done.;
#X text 162 185 mask image when loading is done.;
#X msg 27 185 alphaMask @images[1];
#X obj 27 206 ofEditImage @images[0];
#X obj 27 272 ofDrawImage @images;
#X obj 27 228 1;
#X obj 27 131 ofLoadImage \; @images \; ../data/background.jpg \; ../data/texture.jpg
\;;
#X connect 6 0 11 0;
#X connect 9 0 10 0;
#X connect 10 0 12 0;
#X connect 12 0 6 0;
#X connect 13 0 9 0;
