#N canvas 640 23 656 556 10;
#X declare -lib ofelia;
#X obj 27 475 ofHead;
#X obj 27 87 ofWindow 800 600 LEFT TOP 0.5;
#X text 213 87 create a window with the scale set to 0.5;
#X text 302 161 load an image from the specified path.;
#X obj 27 242 ofMouseListener;
#X obj 27 497 ofDrawImage @processed;
#X msg 27 183 clone @original;
#X obj 27 205 ofEditImage @processed;
#X obj 27 438 ofEditImage @processed;
#X msg 54 313 clone @original;
#X obj 27 411 ofPrepend brightness;
#X obj 27 269 route 1;
#X obj 27 389 ofClamp -255 255;
#X obj 27 367 ofMap 0 800 -128 128;
#X text 172 498 display the processed image.;
#X text 133 183 clone the original image.;
#X text 257 124 an image space to copy and process the original image.
;
#X obj 27 291 t l b;
#X obj 27 345 unpack f f, f 24;
#X obj 168 389 ofClamp -255 255;
#X obj 168 367 ofMap 0 600 -128 128;
#X obj 168 411 ofPrepend contrast;
#X text 25 23 click and drag the mouse pointer across the image to
change its brightness(x) and contrast(y). this processes every pixel
of the image.;
#X obj 27 124 ofCreateImage @processed 800 600 RGB;
#X text 159 313 clone the original image before each processing. (so
it can always process from its original state);
#X obj 27 161 ofLoadImage @original ../data/background.jpg;
#X obj 510 29 declare -lib ofelia;
#X connect 0 0 5 0;
#X connect 4 0 11 0;
#X connect 4 1 11 0;
#X connect 6 0 7 0;
#X connect 9 0 8 0;
#X connect 10 0 8 0;
#X connect 11 0 17 0;
#X connect 12 0 10 0;
#X connect 13 0 12 0;
#X connect 17 0 18 0;
#X connect 17 1 9 0;
#X connect 18 0 13 0;
#X connect 18 1 20 0;
#X connect 19 0 21 0;
#X connect 20 0 19 0;
#X connect 21 0 8 0;
#X connect 25 0 6 0;
