#N canvas 640 23 660 459 10;
#X obj 27 75 ofWindow 800 600 LEFT TOP 0.5;
#X text 213 75 create a window with the scale set to 0.5;
#X text 273 113 load an image from the specified path.;
#X obj 27 200 t b b, f 7;
#X obj 27 244 ofTranslate;
#X obj 27 266 t b b, f 8;
#X text 204 288 get width and height of the image.;
#X text 135 353 display the half sized image.;
#X text 25 23 images can be loaded and displayed to the screen at their
actual size or any other size.;
#X text 136 178 display the image at its actual size.;
#X text 104 244 move to (0 \, ofGetHeight/2).;
#X text 291 396 This example was originally written in Processing.
https://processing.org/examples/loaddisplayimage.html;
#X obj 27 156 ofHead 50 OFF;
#X obj 27 134 1;
#X text 58 134 enable rendering.;
#X obj 27 178 ofDrawImage @img;
#X obj 73 288 ofGetImageDimen @img;
#X obj 27 353 ofDrawImage @img;
#X obj 69 222 ofExpr ofGetHeight / 2;
#X obj 73 310 ofExpr \; $i1 / 2 \; $i2 / 2 \;;
#X obj 27 112 ofLoadImage @img ../data/background.jpg;
#X connect 3 0 4 0;
#X connect 3 1 18 0;
#X connect 4 0 5 0;
#X connect 5 0 17 0;
#X connect 5 1 16 0;
#X connect 12 0 15 0;
#X connect 13 0 12 0;
#X connect 15 0 3 0;
#X connect 16 0 19 0;
#X connect 18 0 4 2;
#X connect 19 0 17 1;
#X connect 19 1 17 2;
#X connect 20 0 13 0;
