#N canvas 636 23 683 500 10;
#X obj 37 90 ofWindow 800 600 LEFT TOP 0.5;
#X text 223 90 create a window with the scale set to 0.5;
#X text 284 171 load an image from the specified path.;
#X obj 37 112 ofSetBgColor 0;
#X text 145 391 display the image.;
#X text 35 33 in this example \, we draw a heart shape into an fbo
and then pass the result to the image we want to mask.;
#X obj 37 134 ofSetCurveRes 100;
#X obj 37 369 ofHead 50 OFF;
#X obj 37 347 1;
#X text 66 347 start rendering when editing is done.;
#X text 271 428 This example is based on the openFrameworks tutorial.
http://openframeworks.cc/learning/02_graphics/how_to_maskanimagewithashape/
;
#X obj 129 215 0;
#X obj 37 325 ofEditImage @img;
#X msg 37 303 alphaMask @fbo;
#X text 134 303 mask @img with @fbo.;
#X obj 37 193 1;
#X text 69 194 when loading is done \, store drawings to the fbo once.
;
#X text 251 237 create fbo.;
#X obj 37 259 ofTranslate 100 75;
#X obj 37 281 ofHeart 100 100;
#X obj 37 237 ofCreateFbo @fbo 200 150 RGB black;
#X obj 37 391 ofDrawImage @img;
#X text 141 281 draw a heart at the center of the fbo area.;
#X obj 37 171 ofLoadImage @img ../data/background.jpg;
#X obj 37 215 ofHead 50 OFF;
#X connect 0 0 3 0;
#X connect 3 0 6 0;
#X connect 7 0 21 0;
#X connect 8 0 7 0;
#X connect 11 0 24 0;
#X connect 12 0 8 0;
#X connect 13 0 12 0;
#X connect 15 0 24 0;
#X connect 18 0 19 0;
#X connect 19 0 13 0;
#X connect 20 0 18 0;
#X connect 23 0 15 0;
#X connect 24 0 11 0;
#X connect 24 0 20 0;
