#N canvas 640 23 678 565 10;
#X obj 27 87 ofWindow 800 600 LEFT TOP 0.5;
#X text 214 87 create a window with the scale set to 0.5;
#X text 273 260 load an image from the specified path.;
#X obj 27 343 t b b;
#X obj 27 459 ofTranslate;
#X text 188 364 get width and height of the image.;
#X obj 27 202 ofMouseListener;
#X obj 27 438 ofSetColor 255 127;
#X text 147 438 display at half opacity.;
#X text 134 322 display at full opacity.;
#X text 328 504 This example was originally written in Processing.
https://processing.org/examples/transparency.html;
#X obj 70 223 ofDefine @mouseX = $i2;
#X obj 27 322 ofDrawImage @img;
#X obj 54 364 ofGetImageDimen @img;
#X obj 27 123 ofWindowLoadBang;
#X obj 27 480 ofDrawImage @img;
#X text 25 23 move the pointer left and right across the image to change
its position. this program overlays one image over another by modifying
the alpha value of the image.;
#X obj 54 385 ofExpr \; @offset = ((@mouseX - $i1 / 2) - @offset) *
@easing + @offset \; $o1 = @offset \;, f 63;
#X obj 27 259 ofLoadImage @img ../data/background.jpg;
#X obj 27 301 ofHead 50 OFF;
#X obj 27 144 ofDefine \; @easing = 0.05 \; @offset \;;
#X obj 27 280 1;
#X text 54 280 enable rendering.;
#X connect 3 0 7 0;
#X connect 3 1 13 0;
#X connect 4 0 15 0;
#X connect 6 1 11 0;
#X connect 7 0 4 0;
#X connect 12 0 3 0;
#X connect 13 0 17 0;
#X connect 14 0 20 0;
#X connect 17 0 4 1;
#X connect 18 0 21 0;
#X connect 19 0 12 0;
#X connect 21 0 19 0;
