#N canvas 720 100 665 705 10;
#X declare -path ofelia/libs/of;
#X obj 28 72 loadbang;
#X obj 462 29 declare -path ofelia/libs/of;
#X obj 28 114 ofWindow;
#X obj 28 150 ofSetup;
#X obj 28 535 ofDraw;
#X obj 28 171 ofBackground 0;
#X obj 28 213 ofFbo \$0-fbo;
#X obj 28 303 ofUpdate;
#X obj 28 556 ofSetColor 255;
#X obj 28 577 ofDrawFbo \$0-fbo;
#X text 325 615 This example is based on the openFrameworks example
"gl/fboTrailsExample".";
#X text 368 324 Change the alpha value for fading the fbo.;
#X text 83 150 Setup callback.;
#X text 89 304 Update callback.;
#X text 77 535 Draw callback.;
#X obj 28 234 ofelia f \; a:beginFbo() \; ofClear(255 \, 0) \; a:endFbo()
\;;
#X msg 28 192 allocate 400 400 GL_RGBA \, bang;
#X obj 28 324 ofGetFboPtr \$0-fbo;
#X obj 28 345 ofelia f -c21 10 \; local fbo = a[1] \; ofEnableAlphaBlending()
\; fbo:beginFbo() \; ofFill() \; ofSetColor(ofColor(255) \, a[2]) \;
ofDrawRectangle(0 \, 0 \, ofGetWidth() \, ofGetHeight()) \; ofNoFill()
\; ofSetColor(255) \; ofPushMatrix() \; ofTranslate(200 \, 200) \;
ofRotateDeg(ofGetElapsedTimef()*30 \, 1 \, 0 \, 0.5) \; ofDrawBox(100)
\; ofPopMatrix() \; fbo:endFbo() \;;
#X floatatom 331 325 5 0 0 0 - - -;
#X text 132 345 <- default value for the added inlet.;
#X msg 28 93 setPosition 30 100 \, setSize 400 400 \, create;
#X text 146 324 Get a pointer to the fbo.;
#X text 223 192 Allocate an fbo. ('bang' outputs the fbo pointer);
#X text 346 380 Store drawings to the fbo.;
#X text 344 501 Finish storing drawings to the fbo.;
#X text 137 578 Draw the fbo.;
#X text 136 245 Clear the fbo.;
#X text 25 23 This example shows how to create a simple trailing effect
using the fbo.;
#X connect 0 0 21 0;
#X connect 3 0 5 0;
#X connect 4 0 8 0;
#X connect 5 0 16 0;
#X connect 6 0 15 0;
#X connect 7 0 17 0;
#X connect 8 0 9 0;
#X connect 16 0 6 0;
#X connect 17 0 18 0;
#X connect 19 0 18 1;
#X connect 21 0 2 0;
