#N canvas 720 100 520 300 10;
#X obj 141 99 loadbang;
#X obj 141 141 ofelia;
#X text 190 141 <- click to see the loaded script.;
#X text 23 21 This example shows a single lua script implementation
of drawing polygons.;
#X msg 141 120 read -c polygonExample.lua;
#X text 141 244 "polygonExample.lua" is based on ofxLua's example script.
https://github.com/danomatika/ofxLua;
#X connect 0 0 4 0;
#X connect 4 0 1 0;
