#N canvas 720 100 515 300 10;
#X declare -lib ofelia;
#X obj 141 99 loadbang;
#X obj 141 141 ofelia;
#X text 190 141 <- click to see the loaded script.;
#X text 23 21 This example shows a single lua script implementation
of drawing texts using the loaded fonts.;
#X msg 141 120 read -c fontsExample.lua;
#X text 151 244 "fontsExample.lua" is based on ofxLua's example script.
https://github.com/danomatika/ofxLua;
#X obj 377 23 declare -lib ofelia;
#X connect 0 0 4 0;
#X connect 4 0 1 0;
