#N canvas 720 100 665 625 10;
#X declare -path ofelia/libs/of;
#X obj 28 80 loadbang;
#X obj 462 29 declare -path ofelia/libs/of;
#X obj 28 122 ofWindow;
#X obj 28 158 ofSetup;
#X floatatom 28 242 5 0 0 0 - - -;
#X text 69 242 0: fail \, 1: success.;
#X obj 28 334 ofDraw;
#X obj 28 277 ofUpdate;
#X msg 28 101 setPosition 30 100 \, setSize 640 480 \, create;
#X obj 28 221 route setup;
#X obj 28 200 ofGrabber \$0-grabber;
#X obj 28 298 ofUpdateGrabber \$0-grabber;
#X obj 28 355 ofSetColor 255 255 255;
#X obj 28 376 ofDrawGrabber \$0-grabber 0 0;
#X obj 28 397 ofSetColor 255 0 0;
#X obj 28 418 ofDrawGrabber \$0-grabber 320 0;
#X obj 28 439 ofSetColor 0 255 0;
#X obj 28 460 ofDrawGrabber \$0-grabber 0 240;
#X obj 28 481 ofSetColor 0 0 255;
#X obj 28 502 ofDrawGrabber \$0-grabber 320 240;
#X text 194 298 Updates the grabber's frame.;
#X msg 28 179 listDevices \, setDeviceID 0 \, setup 320 240;
#X text 290 179 Print available devices \, select the first one \,
then setup the video grabber.;
#X text 75 335 Draws the grabber in different colors.;
#X text 321 534 This example is based on the openFrameworks example
"videoGrabberExample";
#X text 25 23 This example is designed to demonstrate how to access
the webcam using [ofGrabber] abstraction which internally uses ofVideoGrabber
class.;
#X connect 0 0 8 0;
#X connect 3 0 21 0;
#X connect 6 0 12 0;
#X connect 7 0 11 0;
#X connect 8 0 2 0;
#X connect 9 0 4 0;
#X connect 10 0 9 0;
#X connect 12 0 13 0;
#X connect 13 0 14 0;
#X connect 14 0 15 0;
#X connect 15 0 16 0;
#X connect 16 0 17 0;
#X connect 17 0 18 0;
#X connect 18 0 19 0;
#X connect 21 0 10 0;
