#N canvas 720 100 665 663 10;
#X declare -lib ofelia;
#X obj 28 62 loadbang;
#X text 325 573 This example was originally written in Processing.
https://processing.org/examples/brownian.html;
#X text 25 23 Recording random movement as a continuous line.;
#X obj 28 104 ofWindow;
#X obj 28 140 ofSetup;
#X obj 28 161 ofBackground 51;
#X obj 28 182 ofSetFrameRate 30;
#X obj 28 351 ofDraw;
#X floatatom 53 208 5 -30 30 0 - - -;
#X text 91 208 Try changing the value.;
#X msg 53 228 range \$1;
#X text 246 253 Variables used.;
#X obj 28 393 ofelia f \; for i=2 \, a.num do \; a.ax[i-1] = a.ax[i]
\; a.ay[i-1] = a.ay[i] \; end \; a.ax[a.num] = a.ax[a.num] + ofRandom(-a.range
\, a.range) \; a.ay[a.num] = a.ay[a.num] + ofRandom(-a.range \, a.range)
\; a.ax[a.num] = ofClamp(a.ax[a.num] \, 0 \, ofGetWidth()) \; a.ay[a.num]
= ofClamp(a.ay[a.num] \, 0 \, ofGetHeight()) \; for i=2 \, a.num do
\; local val = i/a.num * 204 + 51 \; ofSetColor(val) \; ofDrawLine(a.ax[i-1]
\, a.ay[i-1] \, a.ax[i] \, a.ay[i]) \; end \;;
#X msg 28 83 setPosition 30 100 \, setSize 640 360 \, create;
#X obj 28 372 ofRequire \$0-vars;
#X obj 512 29 declare -lib ofelia;
#X text 144 372 Require the module that has the variables.;
#X obj 28 249 ofelia f \$0-vars \; M.num \, M.range = 2000 \, 6 \;
M.ax \, M.ay = ofTable() \, ofTable() \; for i=1 \, M.num do \; M.ax[i]
= 320 \; M.ay[i] = 200 \; end \;;
#X connect 0 0 13 0;
#X connect 4 0 5 0;
#X connect 5 0 6 0;
#X connect 6 0 17 0;
#X connect 7 0 14 0;
#X connect 8 0 10 0;
#X connect 10 0 17 0;
#X connect 13 0 3 0;
#X connect 14 0 12 0;
