#N canvas 641 23 677 823 10;
#X declare -lib ofelia;
#X obj 98 324 ofMouseListener, f 17;
#X obj 31 123 ofWindow 640 400 LEFT TOP;
#X obj 31 79 ofRcv @bgColor;
#X obj 131 226 ofLoadPolyline2d @circle moveTo 376 200 circle 46;
#X obj 131 182 ofLoadPolyline2d @square moveTo 220 155 square 90;
#X obj 131 160 ofLoadPath2d @square moveTo 220 155 square 90;
#X obj 131 204 ofLoadPath2d @circle moveTo 376 200 circle 46;
#X obj 31 599 ofSetColor 0;
#X obj 31 621 ofDrawPath2d @square;
#X obj 31 643 ofSetColor 255;
#X obj 31 665 ofDrawPolyline2d @square;
#X obj 31 709 ofDrawPath2d @circle;
#X obj 31 731 ofSetColor 0;
#X obj 31 753 ofDrawPolyline2d @circle;
#X obj 98 452 ofIsPointInsidePath2d @square;
#X obj 377 452 ofIsPointInsidePath2d @circle;
#X obj 74 540 ofSnd @bgColor;
#X obj 98 430 t l l, f 47;
#X obj 131 253 bang;
#X obj 131 275 ofCount;
#X obj 131 297 >= 3;
#X obj 31 577 ofHead;
#X obj 31 101 ofPrepend bgColor;
#X obj 41 518 sel -1;
#X obj 98 368 route 1;
#X obj 147 368 list split 1;
#X obj 182 566 ofPrepend set;
#X obj 269 566 ofPrepend set;
#X obj 31 687 ofSetColor 255;
#X obj 181 390 t l b;
#X obj 182 512 sel 0 255, f 15;
#X obj 98 390 t l b;
#X msg 182 539 50;
#X msg 215 539 0;
#X msg 269 539 255;
#X msg 302 539 204;
#X obj 98 346 spigot;
#X obj 147 346 spigot;
#X obj 41 496 ofGate 2 2;
#X msg 125 410 1;
#X msg 208 410 2;
#X text 29 27 click on one of the colored shapes in the center of the
screen to change the color of the background.;
#X obj 98 474 ofExpr if ($i1 == 1 \, 0 \, if ($i2 == 1 \, 255 \, -1))
;
#X text 321 765 This example was originally written in Processing.
https://processing.org/examples/button.html;
#X obj 532 29 declare -lib ofelia;
#X connect 0 0 36 0;
#X connect 0 1 37 0;
#X connect 2 0 22 0;
#X connect 3 0 18 0;
#X connect 4 0 18 0;
#X connect 5 0 18 0;
#X connect 6 0 18 0;
#X connect 7 0 8 0;
#X connect 8 0 9 0;
#X connect 9 0 10 0;
#X connect 10 0 28 0;
#X connect 11 0 12 0;
#X connect 12 0 13 0;
#X connect 14 0 42 0;
#X connect 15 0 42 1;
#X connect 17 0 14 0;
#X connect 17 1 15 0;
#X connect 18 0 19 0;
#X connect 19 0 20 0;
#X connect 20 0 36 1;
#X connect 20 0 37 1;
#X connect 21 0 7 0;
#X connect 22 0 1 0;
#X connect 23 1 16 0;
#X connect 24 0 31 0;
#X connect 25 1 29 0;
#X connect 26 0 7 0;
#X connect 27 0 28 0;
#X connect 28 0 11 0;
#X connect 29 0 17 0;
#X connect 29 1 40 0;
#X connect 30 0 32 0;
#X connect 30 0 34 0;
#X connect 30 1 33 0;
#X connect 30 1 35 0;
#X connect 30 2 33 0;
#X connect 30 2 34 0;
#X connect 31 0 17 0;
#X connect 31 1 39 0;
#X connect 32 0 26 0;
#X connect 33 0 26 0;
#X connect 34 0 27 0;
#X connect 35 0 27 0;
#X connect 36 0 24 0;
#X connect 37 0 25 0;
#X connect 38 0 23 0;
#X connect 38 1 30 0;
#X connect 39 0 38 0;
#X connect 40 0 38 0;
#X connect 42 0 38 1;
