#N canvas 641 23 670 764 10;
#X declare -lib ofelia;
#X obj 31 324 ofMouseListener;
#X obj 31 123 ofWindow 640 400 LEFT TOP;
#X obj 31 79 ofRcv @bgColor;
#X text 29 27 roll over the colored shapes in the center of the screen
to change the color of the background.;
#X obj 74 368 list split 1;
#X obj 107 226 ofLoadPolyline2d @circle moveTo 376 200 circle 46;
#X obj 107 182 ofLoadPolyline2d @square moveTo 220 155 square 90;
#X obj 107 160 ofLoadPath2d @square moveTo 220 155 square 90;
#X obj 107 204 ofLoadPath2d @circle moveTo 376 200 circle 46;
#X obj 31 515 ofSetColor 0;
#X obj 31 537 ofDrawPath2d @square;
#X obj 31 559 ofSetColor 255;
#X obj 31 581 ofDrawPolyline2d @square;
#X obj 31 625 ofDrawPath2d @circle;
#X obj 31 647 ofSetColor 0;
#X obj 31 669 ofDrawPolyline2d @circle;
#X obj 108 412 ofIsPointInsidePath2d @square;
#X obj 393 412 ofIsPointInsidePath2d @circle;
#X obj 108 456 ofSnd @bgColor;
#X obj 108 390 t l l, f 48;
#X text 321 705 This example was originally written in Processing.
https://processing.org/examples/rollover.html;
#X obj 107 253 bang;
#X obj 107 275 ofCount;
#X obj 107 297 >= 3;
#X obj 74 346 spigot;
#X obj 31 493 ofHead;
#X obj 31 101 ofPrepend bgColor;
#X obj 31 603 ofSetColor 255;
#X obj 108 434 ofExpr if ($i1 == 1 \, 0 \, if ($i2 == 1 \, 255 \, 102))
;
#X obj 522 29 declare -lib ofelia;
#X connect 0 1 24 0;
#X connect 2 0 26 0;
#X connect 4 1 19 0;
#X connect 5 0 21 0;
#X connect 6 0 21 0;
#X connect 7 0 21 0;
#X connect 8 0 21 0;
#X connect 9 0 10 0;
#X connect 10 0 11 0;
#X connect 11 0 12 0;
#X connect 12 0 27 0;
#X connect 13 0 14 0;
#X connect 14 0 15 0;
#X connect 16 0 28 0;
#X connect 17 0 28 1;
#X connect 19 0 16 0;
#X connect 19 1 17 0;
#X connect 21 0 22 0;
#X connect 22 0 23 0;
#X connect 23 0 24 1;
#X connect 24 0 4 0;
#X connect 25 0 9 0;
#X connect 26 0 1 0;
#X connect 27 0 13 0;
#X connect 28 0 18 0;
