#N canvas 720 100 682 664 10;
#X declare -lib ofelia;
#X obj 28 82 loadbang;
#X floatatom 28 307 5 0 0 0 - - -;
#X text 68 308 0: fail \, 1: success.;
#X floatatom 253 307 5 0 0 0 - - -;
#X text 293 308 0: fail \, 1: success.;
#X text 86 160 Setup callback.;
#X text 276 422 Generate a string for title.;
#X text 309 443 Draw the string at position (80 \, 80).;
#X text 272 511 Generate a string for content.;
#X text 177 182 Set background color.;
#X obj 28 124 ofWindow;
#X obj 28 160 ofSetup;
#X obj 28 181 ofSetBackgroundColor 55;
#X obj 28 286 route load;
#X obj 253 286 route load;
#X obj 28 353 ofDraw;
#X obj 28 374 ofSetColor 255;
#X obj 28 464 ofDrawLine 80 95 560 95;
#X text 178 464 Draw a line.;
#X text 83 354 Draw callback.;
#X msg 28 103 setPosition 30 100 \, setSize 640 360 \, create;
#X text 328 564 Draw the string at position (80 \, 140).;
#X obj 117 401 ofSetup;
#X obj 123 490 ofSetup;
#X obj 537 25 declare -lib ofelia;
#X text 442 244 Load fonts from the path.;
#X obj 28 202 ofGetDir;
#X obj 28 223 t s s, f 38;
#X msg 28 244 load \$1/data/DejaVuSansMono.ttf 32;
#X msg 253 244 load \$1/data/Sansation.ttf 48;
#X obj 28 265 ofTrueTypeFont \$0-content;
#X obj 253 265 ofTrueTypeFont \$0-title;
#X obj 28 443 ofTrueTypeFont \$0-title drawString text 80 80;
#X text 25 23 The [ofTrueTypeFont] allows user to load a font which
can be easily accessed from other object of its kind by sharing the
same name.;
#X obj 117 422 ofExpr "What is OFELIA?";
#X obj 123 532 ofExpr "OFELIA stands for"..a.."OpenFrameworks as"..a.."an
External Library"..a.."for Interactive"..a.."Applications.";
#X obj 28 564 ofTrueTypeFont \$0-content drawString text 80 140;
#X obj 123 511 ofExpr string.char(10);
#X connect 0 0 20 0;
#X connect 11 0 12 0;
#X connect 12 0 26 0;
#X connect 13 0 1 0;
#X connect 14 0 3 0;
#X connect 15 0 16 0;
#X connect 16 0 32 0;
#X connect 17 0 36 0;
#X connect 20 0 10 0;
#X connect 22 0 34 0;
#X connect 23 0 37 0;
#X connect 26 0 27 0;
#X connect 27 0 28 0;
#X connect 27 1 29 0;
#X connect 28 0 30 0;
#X connect 29 0 31 0;
#X connect 30 0 13 0;
#X connect 31 0 14 0;
#X connect 32 0 17 0;
#X connect 34 0 32 1;
#X connect 35 0 36 1;
#X connect 37 0 35 0;
