#N canvas 723 23 716 450 10;
#X declare -path ofelia/libs/of;
#X obj 525 21 declare -path ofelia/libs/of;
#X obj 39 78 of.Window;
#X obj 39 36 loadbang;
#X obj 39 114 of.setup;
#X msg 39 57 create;
#X obj 39 156 of.setWindowShape 1440 900;
#X obj 39 234 of.draw;
#X obj 39 135 of.setWindowPosition 2 0;
#X obj 39 177 of.setWindowTitle Iteration;
#X obj 39 198 of.setBackgroundColor 55;
#X obj 39 255 ofelia d \; local gridSize = 80 \; function ofelia.bang()
\; local width \, height = of.getWidth() \, of.getHeight() \; for x
= gridSize \, width-gridSize \, gridSize do \; for y = gridSize \,
height-gridSize \, gridSize do \; of.setColor(255) \; of.drawCircle(x
\, y \, 3) \; of.setColor(255 \, 255 \, 255 \, 100) \; of.drawLine(x
\, y \, width/2 \, height/2) \; end \; end \; end \;;
#X connect 2 0 4 0;
#X connect 3 0 7 0;
#X connect 4 0 1 0;
#X connect 5 0 8 0;
#X connect 6 0 10 0;
#X connect 7 0 5 0;
#X connect 8 0 9 0;
