#N canvas 723 23 716 450 10;
#X declare -path ofelia/libs/of;
#X obj 525 21 declare -path ofelia/libs/of;
#X obj 39 36 loadbang;
#X obj 39 78 ofWindow;
#X obj 39 114 ofSetup;
#X obj 39 135 ofSetBackgroundColor 55;
#X obj 39 248 ofDraw;
#X msg 39 57 setPosition 2 0 \, setSize 1440 900 \, title Iteration
\, create;
#X obj 39 269 ofGetPtr \$0-vars;
#X msg 72 180 gridSize \$1;
#X floatatom 72 161 5 10 100 0 - - -;
#X obj 39 289 ofelia f \; local width \, height = ofGetWidth() \, ofGetHeight()
\; for x = a.gridSize \, width-a.gridSize \, a.gridSize do \; for y
= a.gridSize \, height-a.gridSize \, a.gridSize do \; ofSetColor(255)
\; ofDrawCircle(x \, y \, 3) \; ofSetColor(255 \, 255 \, 255 \, 100)
\; ofDrawLine(x \, y \, width/2 \, height/2) \; end \; end \;;
#X obj 39 201 ofelia f \$0-vars \; M.gridSize = 80 \;;
#X text 110 161 Try changing the value.;
#X text 154 211 Variables used.;
#X connect 1 0 6 0;
#X connect 3 0 4 0;
#X connect 4 0 11 0;
#X connect 5 0 7 0;
#X connect 6 0 2 0;
#X connect 7 0 10 0;
#X connect 8 0 11 0;
#X connect 9 0 8 0;
