#N canvas 723 23 716 450 10;
#X declare -path ofelia/libs/of;
#X obj 525 21 declare -path ofelia/libs/of;
#X obj 39 78 of.Window;
#X obj 39 36 loadbang;
#X obj 39 114 of.setup;
#X msg 39 57 create;
#X obj 39 156 of.setWindowShape 1440 900;
#X obj 39 198 of.setBackgroundColor 55;
#X obj 39 255 of.draw;
#X obj 39 297 of.drawCircle 510 450 200;
#X obj 39 318 of.drawRectangle 730 250 200 400;
#X obj 39 339 of.drawTriangle 950 250 1120 250 950 420;
#X obj 39 360 of.drawRectangle 950 440 100 100;
#X obj 39 219 of.setCircleResolution 50;
#X obj 39 177 of.setWindowTitle Logo;
#X obj 39 276 of.setColor 230;
#X obj 39 135 of.setWindowPosition 2 0;
#X connect 2 0 4 0;
#X connect 3 0 15 0;
#X connect 4 0 1 0;
#X connect 5 0 13 0;
#X connect 6 0 12 0;
#X connect 7 0 14 0;
#X connect 8 0 9 0;
#X connect 9 0 10 0;
#X connect 10 0 11 0;
#X connect 13 0 6 0;
#X connect 14 0 8 0;
#X connect 15 0 5 0;
