#N canvas 723 23 716 450 10;
#X declare -path ofelia/abs;
#X obj 39 36 loadbang;
#X msg 39 57 create;
#X obj 39 78 ofWindow;
#X obj 39 133 ofSetup;
#X obj 39 278 ofDraw;
#X text 92 133 A setup callback.;
#X text 93 58 Create a graphics window.;
#X text 86 278 A draw callback.;
#X obj 545 21 declare -path ofelia/abs;
#X obj 39 173 ofelia f \; ofSetWindowPosition(2 \, 0) \; ofSetWindowShape(1440
\, 900) \; ofSetWindowTitle("Logo") \; ofSetBackgroundColor(55) \;
ofSetCircleResolution(50) \;;
#X msg 39 153 bang;
#X obj 39 298 ofelia f \; ofSetColor(230) \; ofDrawCircle(510 \, 450
\, 200) \; ofDrawRectangle(730 \, 250 \, 200 \, 400) \; ofDrawTriangle(950
\, 250 \, 1120 \, 250 \, 950 \, 420) \; ofDrawRectangle(950 \, 440
\, 100 \, 100) \;;
#X connect 0 0 1 0;
#X connect 1 0 2 0;
#X connect 3 0 10 0;
#X connect 4 0 11 0;
#X connect 10 0 9 0;
