#N canvas 720 80 665 638 10;
#X declare -path ofelia/libs/of;
#X obj 28 70 loadbang;
#X text 25 23 Draws letters to the screen. This requires loading a
font \, setting the font \, and then drawing the letters.;
#X text 273 190 Load a font.;
#X text 333 548 This example was originally written in Processing.
https://processing.org/examples/letters.html;
#X text 68 254 0: fail \, 1: success.;
#X obj 462 29 declare -path ofelia/libs/of;
#X obj 28 112 ofWindow;
#X obj 28 148 ofSetup;
#X obj 28 169 ofSetBackgroundColor 0;
#X obj 28 211 ofFont \$0-font;
#X obj 28 232 route load;
#X floatatom 28 253 5 0 0 0 - - -;
#X obj 28 288 ofDraw;
#X msg 28 190 load data/SourceCodePro-Regular.ttf 24;
#X text 163 309 Get a pointer to the font.;
#X obj 28 309 ofGetFontPtr \$0-font;
#X msg 28 91 setPosition 30 100 \, setSize 640 360 \, create;
#X obj 28 330 ofelia f \; local font = a \; local gap = 46 \; ofTranslate(35
\, 55) \; local counter = 35 \; for y = 0 \, ofGetHeight()-gap \, gap
do \; for x = 0 \, ofGetWidth()-gap \, gap do \; local letter = string.char(counter)
\; if letter == "A" or letter == "E" or letter == "I" or letter ==
"O" or letter == "U" then \; ofSetColor(255 \, 204 \, 0) \; else \;
ofSetColor(255) \; end \; font:drawString(tostring(letter) \, x \,
y) \; counter = counter + 1 \; end \; end \;;
#X f 91;
#X connect 0 0 16 0;
#X connect 7 0 8 0;
#X connect 8 0 13 0;
#X connect 9 0 10 0;
#X connect 10 0 11 0;
#X connect 12 0 15 0;
#X connect 13 0 9 0;
#X connect 15 0 17 0;
#X connect 16 0 6 0;
