#N canvas 641 23 711 833 10;
#X declare -lib ofelia;
#X declare -lib Gem;
#X obj 552 29 declare -lib ofelia;
#X obj 552 49 declare -lib Gem;
#X text 29 28 GEM can be used with ofelia. make sure you have GEM installed
on your computer. you need to create the output window using [ofGemwin]
abstraction in order to draw both ofelia and GEM objects on the window.
[ofGemwin] abstraction works just like how [ofWindow] object works.
;
#X obj 30 100 ofGemwin 640 400 LEFT TOP 1 black;
#X obj 30 222 ofGemhead;
#X obj 30 305 circle 1;
#X floatatom 65 243 5 0 0 0 - - -, f 5;
#X floatatom 100 243 5 0 0 0 - - -, f 5;
#X text 29 138 you can use [ofGemhead] abstraction to draw GEM objects
using the GEM's normalized coordinate system. you can bring your existing
GEM drawings to ofelia project by replacing [gemhead] with [ofGemhead].
;
#X obj 30 412 ofHead;
#X obj 30 454 gemlist;
#X obj 30 433 ofTranslate 100 100;
#X obj 30 517 bang;
#X text 29 340 although it is recommended to use ofelia and GEM objects
separately using different rendering heads \, it is possible to mix
the two in the same rendering chain. you can place [gemlist] to use
GEM object after ofelia object and place [bang] to use ofelia object
after GEM object.;
#X obj 30 475 color 1 0 0;
#X obj 30 496 disk 50 50 45;
#X obj 30 538 ofSetColor yellow;
#X obj 30 559 ofStar 30 12 5;
#X text 84 454 you can use GEM object after the [gemlist].;
#X text 67 517 you can use ofelia object after the [bang].;
#X obj 30 284 color 1 0.5 0;
#X obj 93 653 ofLoadImage @img ../data/texture.jpg;
#X obj 93 674 ofGetImageTexID @img;
#X floatatom 93 695 5 0 0 0 - - -, f 5;
#X obj 30 695 ofGemhead;
#X obj 30 202 tgl 15 0 empty empty empty 17 7 0 10 -262144 -1 -1 0
1;
#X obj 30 737 pix_texture;
#X obj 30 263 translateXYZ 0 0 0;
#X obj 30 758 square 1;
#X obj 30 716 translateXYZ -4 -2 0;
#X text 29 600 the texture of ofelia's image or fbo can be used by
GEM by getting the texture ID using [ofGetImageTexID] or [ofGetFboTexID].
;
#X text 223 674 get the texture ID of the loaded image.;
#X text 336 745 [ofGemwin] and [ofGemhead] abstractions are written
by Arnaud Courcelle. https://github.com/ArnaudCourcelle;
#X text 336 775 copy the abstractions to the directory you like for
your convenience. (e.g. external search path \, project folder);
#X connect 4 0 27 0;
#X connect 6 0 27 1;
#X connect 7 0 27 2;
#X connect 9 0 11 0;
#X connect 10 0 14 0;
#X connect 11 0 10 0;
#X connect 12 0 16 0;
#X connect 14 0 15 0;
#X connect 15 0 12 0;
#X connect 16 0 17 0;
#X connect 20 0 5 0;
#X connect 21 0 22 0;
#X connect 22 0 23 0;
#X connect 23 0 26 1;
#X connect 24 0 29 0;
#X connect 25 0 4 0;
#X connect 26 0 28 0;
#X connect 27 0 20 0;
#X connect 29 0 26 0;
