#N canvas 641 143 549 401 10;
#X declare -lib ofelia;
#X declare -lib Gem;
#X obj 39 76 inlet;
#X obj 39 277 outlet;
#X obj 93 55 ofGetCanvasArgs;
#X obj 93 34 loadbang;
#X text 147 337 This abstraction was originally written by Arnaud Courcelle.
https://github.com/ArnaudCourcelle;
#X obj 392 36 declare -lib ofelia;
#X obj 392 56 declare -lib Gem;
#X obj 93 76 ofPrepend set;
#X obj 39 102 ofHead, f 42;
#X obj 66 144 ofExpr \; $o1 = ofGetWidth / 2 \; $o2 = ofGetHeight /
2 \; $o3 = min(ofGetWidth \, ofGetHeight) / 8 \; $o4 = -$o3 \;;
#X obj 288 76 inlet;
#X obj 39 214 ofTranslate;
#X obj 39 235 ofScale;
#X obj 39 123 t b b;
#X obj 39 256 gemlist;
#X connect 0 0 8 0;
#X connect 2 0 7 0;
#X connect 3 0 2 0;
#X connect 7 0 8 0;
#X connect 8 0 13 0;
#X connect 9 0 11 1;
#X connect 9 1 11 2;
#X connect 9 2 12 1;
#X connect 9 3 12 2;
#X connect 10 0 8 1;
#X connect 11 0 12 0;
#X connect 12 0 14 0;
#X connect 13 0 11 0;
#X connect 13 1 9 0;
#X connect 14 0 1 0;
