#N canvas 641 23 677 578 10;
#X declare -lib ofelia;
#X obj 27 333 ofHead;
#X obj 522 29 declare -lib ofelia;
#X text 200 107 load .vert and .frag shaders from the path.;
#X obj 27 158 ofMouseListener;
#X obj 70 179 list split 1;
#X obj 27 375 ofApplyShader @shader;
#X obj 27 417 t b b;
#X obj 27 80 ofWindow 640 400 LEFT TOP 1 55;
#X obj 27 106 ofLoadShader @shader shader;
#X obj 104 200 ofExpr \; $o1 = $i1 \; $o2 = 0 \; $o3 = ofGetWidth \;
$o4 = 1 \; $o5 = -1 \;;
#X obj 104 276 ofMap 0 0 0 0 ON, f 17;
#X obj 104 297 ofSnd @mousePosition;
#X obj 198 375 ofRcv @mousePosition;
#X obj 54 438 ofExpr \; ofGetWidth/2 \; ofGetHeight/2 \;;
#X obj 27 481 ofTranslate;
#X obj 27 132 ofLoadImage @img img.jpg;
#X text 181 132 load an image from the path.;
#X obj 27 354 ofBindImageTex @img;
#X obj 27 502 ofPlane 400 300;
#X text 25 23 please find "Adding Textures" section from http://openframeworks.cc/ofBook/chapters/shaders.html
to see the original code and learn more about how it works.;
#X obj 27 396 ofSetShaderUniform1f mouseX 0;
#X text 330 514 This example is based on the openFrameworks example
"04_simpleTexturing";
#X connect 0 0 17 0;
#X connect 3 1 4 0;
#X connect 4 1 9 0;
#X connect 5 0 20 0;
#X connect 6 0 14 0;
#X connect 6 1 13 0;
#X connect 9 0 10 0;
#X connect 9 1 10 1;
#X connect 9 2 10 2;
#X connect 9 3 10 3;
#X connect 9 4 10 4;
#X connect 10 0 11 0;
#X connect 12 0 20 1;
#X connect 13 0 14 1;
#X connect 13 1 14 2;
#X connect 14 0 18 0;
#X connect 17 0 5 0;
#X connect 20 0 6 0;
