#N canvas 720 100 665 747 10;
#X declare -path ofelia/libs/of;
#X declare -path ofelia/libs/ez;
#X obj 28 124 of.Window;
#X obj 28 82 loadbang;
#X obj 28 160 of.setup;
#X obj 28 238 of.draw;
#X obj 28 181 of.background 102;
#X obj 28 202 of.fill;
#X obj 28 259 of.pushMatrix;
#X obj 28 377 of.popMatrix;
#X obj 28 398 of.pushMatrix;
#X obj 28 516 of.popMatrix;
#X obj 28 537 of.pushMatrix;
#X obj 28 655 of.popMatrix;
#X obj 28 280 ofelia d \; function ofelia.bang() \; of.translate(of.getWidth()*0.2
\, of.getHeight()*0.5) \; of.rotateZDeg(of.getFrameNum()*0.5) \; return
nil \; end \;;
#X obj 28 558 ofelia d \; function ofelia.bang() \; of.translate(of.getWidth()*0.8
\, of.getHeight()*0.5) \; of.rotateZDeg(of.getFrameNum()*-1) \; return
nil \; end \;;
#X obj 28 419 ofelia d \; function ofelia.bang() \; of.translate(of.getWidth()*0.5
\, of.getHeight()*0.5) \; of.rotateZDeg(of.getFrameNum()*1) \; return
nil \; end \;;
#X text 328 693 This example was originally written in Processing.
https://processing.org/examples/star.html;
#X obj 462 29 declare -path ofelia/libs/of;
#X obj 462 50 declare -path ofelia/libs/ez;
#X obj 28 356 ez.drawStar 0 0 5 70 3;
#X obj 28 495 ez.drawStar 0 0 80 100 40;
#X obj 28 634 ez.drawStar 0 0 30 70 5;
#X text 25 23 The [ez.drawStar] abstraction is capable of drawing a
wide range of different forms. Try setting different arguments for
the abstraction to explore.;
#X msg 28 103 setPosition 30 100 \, setSize 640 400 \, create;
#X connect 1 0 22 0;
#X connect 2 0 4 0;
#X connect 3 0 6 0;
#X connect 4 0 5 0;
#X connect 6 0 12 0;
#X connect 7 0 8 0;
#X connect 8 0 14 0;
#X connect 9 0 10 0;
#X connect 10 0 13 0;
#X connect 12 0 18 0;
#X connect 13 0 20 0;
#X connect 14 0 19 0;
#X connect 18 0 7 0;
#X connect 19 0 9 0;
#X connect 20 0 11 0;
#X connect 22 0 0 0;
