#N canvas 321 23 601 544 10;
#X declare -path ofelia/abs;
#X obj 0 0 cnv 15 580 40 empty empty ofBackPressed 3 12 0 18 -204280
-1 0;
#X obj 0 341 cnv 3 580 3 empty empty inlets 8 12 0 13 -228856 -1 0
;
#X obj 0 392 cnv 3 580 3 empty empty outlets 8 12 0 13 -228856 -1 0
;
#X obj 75 349 cnv 17 3 17 empty empty 0 5 9 0 16 -228856 -162280 0
;
#X obj 0 491 cnv 15 580 21 empty empty empty 20 12 0 14 -228856 -66577
0;
#X obj 0 428 cnv 3 580 3 empty empty arguments 8 12 0 13 -228856 -1
0;
#X text 72 451 1) float;
#X obj 493 5 ofBackPressed;
#X text 11 23 listen to the back button press on Android;
#X text 21 43 [ofBackPressed] is used to detect the back button press
on an Android device.;
#X obj 191 226 ofBackPressed 50;
#X obj 191 262 print;
#X obj 75 400 cnv 17 3 17 empty empty 0 5 9 0 16 -228856 -162280 0
;
#X text 95 401 bang;
#X text 211 451 - the listening order. (default: 50);
#X text 232 262 outputs bang when the back button is pressed on an
Android device.;
#X text 211 401 - outputs bang when the back button is pressed.;
#X text 72 466 2) float;
#X text 211 466 - 0: disable / 1: enable the listener. (default: 1)
;
#X text 95 350 setOrder <f>;
#X text 211 350 - change the listening order. (default: 50);
#X text 95 365 setEnabled <f>;
#X text 211 365 - 0: disable / 1: enable the listener. (default: 1)
;
#X floatatom 191 124 5 0 0 0 - - -;
#X obj 211 170 tgl 15 0 empty empty empty 17 7 0 10 -262144 -1 -1 0
1;
#X text 232 169 0: disable / 1: enable the listener. (default: 1);
#X text 227 124 change the listening order. (default: 50);
#X msg 211 190 setEnabled \$1;
#X msg 191 144 setOrder \$1;
#X obj 432 46 declare -path ofelia/abs;
#X connect 10 0 11 0;
#X connect 23 0 28 0;
#X connect 24 0 27 0;
#X connect 27 0 10 0;
#X connect 28 0 10 0;
