#N canvas 321 23 601 542 10;
#X declare -path ofelia/abs;
#X obj 0 0 cnv 15 580 40 empty empty ofCancelPressed 3 12 0 18 -204280
-1 0;
#X text 11 23 listen to the cancel button press on Android;
#X obj 481 5 ofCancelPressed;
#X text 21 43 [ofCancelPressed] is used to detect the cancel button
press on an Android device.;
#X obj 0 341 cnv 3 580 3 empty empty inlets 8 12 0 13 -228856 -1 0
;
#X obj 0 392 cnv 3 580 3 empty empty outlets 8 12 0 13 -228856 -1 0
;
#X obj 75 349 cnv 17 3 17 empty empty 0 5 9 0 16 -228856 -162280 0
;
#X obj 0 428 cnv 3 580 3 empty empty arguments 8 12 0 13 -228856 -1
0;
#X obj 75 400 cnv 17 3 17 empty empty 0 5 9 0 16 -228856 -162280 0
;
#X text 95 401 bang;
#X text 211 401 - outputs bang when the cancel button is pressed.;
#X obj 181 262 print;
#X floatatom 181 124 5 0 0 0 - - -;
#X obj 201 170 tgl 15 0 empty empty empty 17 7 0 10 -262144 -1 -1 0
1;
#X text 222 169 0: disable / 1: enable the listener. (default: 1);
#X text 217 124 change the listening order. (default: 50);
#X msg 201 190 setEnabled \$1;
#X msg 181 144 setOrder \$1;
#X obj 181 226 ofCancelPressed 50;
#X text 222 262 outputs bang when the cancel button is pressed on an
Android device.;
#X text 95 350 setOrder <f>;
#X text 211 350 - change the listening order. (default: 50);
#X text 95 365 setEnabled <f>;
#X text 211 365 - 0: disable / 1: enable the listener. (default: 1)
;
#X obj 0 491 cnv 15 580 21 empty empty empty 20 12 0 14 -228856 -66577
0;
#X text 72 451 1) float;
#X text 211 451 - the listening order. (default: 50);
#X text 72 466 2) float;
#X text 211 466 - 0: disable / 1: enable the listener. (default: 1)
;
#X obj 432 46 declare -path ofelia/abs;
#X connect 12 0 17 0;
#X connect 13 0 16 0;
#X connect 16 0 18 0;
#X connect 17 0 18 0;
#X connect 18 0 11 0;
