#N canvas 321 23 601 542 10;
#X declare -path ofelia/abs;
#X obj 0 0 cnv 15 580 40 empty empty ofDeviceOrientationChanged 3 12
0 18 -204280 -1 0;
#X obj 175 226 print;
#X obj 415 5 ofDeviceOrientationChanged;
#X text 11 23 listen when the orientation is changed on iOS;
#X text 21 43 [ofDeviceOrientationChanged] is used to detect the orientation
change on an iOS device.;
#X obj 175 190 ofDeviceOrientationChanged 50;
#X text 216 226 outputs the orientation whenever it changes.;
#X text 216 246 1: OF_ORIENTATION_DEFAULT;
#X text 216 261 2: OF_ORIENTATION_180;
#X text 216 276 3: OF_ORIENTATION_90_LEFT;
#X text 216 291 4: OF_ORIENTATION_90_RIGHT;
#X text 216 306 5: OF_ORIENTATION_UNKNOWN;
#X obj 0 341 cnv 3 580 3 empty empty inlets 8 12 0 13 -228856 -1 0
;
#X obj 0 392 cnv 3 580 3 empty empty outlets 8 12 0 13 -228856 -1 0
;
#X obj 75 349 cnv 17 3 17 empty empty 0 5 9 0 16 -228856 -162280 0
;
#X obj 0 428 cnv 3 580 3 empty empty arguments 8 12 0 13 -228856 -1
0;
#X obj 75 400 cnv 17 3 17 empty empty 0 5 9 0 16 -228856 -162280 0
;
#X text 211 401 - outputs the orientation whenever it changes. (1 ~
5);
#X text 95 401 float;
#X floatatom 175 88 5 0 0 0 - - -;
#X obj 195 134 tgl 15 0 empty empty empty 17 7 0 10 -262144 -1 -1 0
1;
#X text 216 133 0: disable / 1: enable the listener. (default: 1);
#X text 211 88 change the listening order. (default: 50);
#X msg 195 154 setEnabled \$1;
#X msg 175 108 setOrder \$1;
#X text 95 350 setOrder <f>;
#X text 211 350 - change the listening order. (default: 50);
#X text 95 365 setEnabled <f>;
#X text 211 365 - 0: disable / 1: enable the listener. (default: 1)
;
#X obj 0 491 cnv 15 580 21 empty empty empty 20 12 0 14 -228856 -66577
0;
#X text 72 451 1) float;
#X text 211 451 - the listening order. (default: 50);
#X text 72 466 2) float;
#X text 211 466 - 0: disable / 1: enable the listener. (default: 1)
;
#X obj 432 46 declare -path ofelia/abs;
#X connect 5 0 1 0;
#X connect 19 0 24 0;
#X connect 20 0 23 0;
#X connect 23 0 5 0;
#X connect 24 0 5 0;
