#N canvas 321 23 601 618 10;
#X declare -path ofelia/abs;
#X obj 0 0 cnv 15 580 40 empty empty ofDraw 3 12 0 18 -204280 -1 0
;
#X obj 0 341 cnv 3 580 3 empty empty inlets 8 12 0 13 -228856 -1 0
;
#X obj 0 435 cnv 3 580 3 empty empty outlets 8 12 0 13 -228856 -1 0
;
#X obj 75 349 cnv 17 3 17 empty empty 0 5 9 0 16 -228856 -162280 0
;
#X obj 0 471 cnv 3 580 3 empty empty arguments 8 12 0 13 -228856 -1
0;
#X obj 75 443 cnv 17 3 17 empty empty 0 5 9 0 16 -228856 -162280 0
;
#X text 95 444 bang;
#X obj 535 5 ofDraw;
#X text 11 23 a draw callback which is called regularly to draw things
;
#X obj 191 265 ofDraw 50;
#X text 203 285 outputs bang every frame.;
#X text 368 317 draw a circle.;
#X obj 23 158 ofWindow;
#X obj 23 116 loadbang;
#X msg 23 137 setPosition 0 0 \, setSize 640 480 \, create;
#X text 211 444 - outputs bang every frame. (while the window exists)
;
#X text 95 350 setOrder <f>;
#X text 211 350 - change the listening order. (default: 50);
#X text 95 365 setEnabled <f>;
#X text 211 365 - 0: disable / 1: enable the listener. (default: 1)
;
#X obj 0 564 cnv 15 580 21 empty empty empty 20 12 0 14 -228856 -66577
0;
#X text 72 494 1) float;
#X text 211 494 - the listening order. (default: 50);
#X text 72 509 2) float;
#X text 211 509 - 0: disable / 1: enable the listener. (default: 1)
;
#X text 95 380 setStyleAuto <f>;
#X text 95 395 setMatrixAuto <f>;
#X text 95 410 setAuto <f>;
#X text 72 524 3) float;
#X text 72 539 4) float;
#X text 211 380 - 0: disable / 1: enable the style push/pop. (default:
1);
#X text 211 395 - 0: disable / 1: enable the matrix push/pop. (default:
1);
#X text 211 410 - 0: disable / 1: enable the style and matrix push/pop.
;
#X text 211 524 - 0: disable / 1: enable the style push/pop. (default:
1);
#X text 211 539 - 0: disable / 1: enable the matrix push/pop. (default:
1);
#X floatatom 191 163 5 0 0 0 - - -;
#X obj 211 209 tgl 15 0 empty empty empty 17 7 0 10 -262144 -1 -1 0
1;
#X text 232 208 0: disable / 1: enable the listener. (default: 1);
#X text 227 163 change the listening order. (default: 50);
#X msg 211 229 setEnabled \$1;
#X msg 191 183 setOrder \$1;
#X text 21 43 [ofDraw] is called regularly to draw things on the graphics
window while the window exists. it internally calls ofPushStyle()/ofPopStyle()
and ofPushMatrix()/ofPopMatrix() before and after outputting the bang
message. you can optionally disable this with "setAuto 0" message.
;
#X obj 191 307 ofelia f \; ofDrawCircle(200 \, 200 \, 100) \;;
#X obj 432 46 declare -path ofelia/abs;
#X connect 9 0 42 0;
#X connect 13 0 14 0;
#X connect 14 0 12 0;
#X connect 35 0 40 0;
#X connect 36 0 39 0;
#X connect 39 0 9 0;
#X connect 40 0 9 0;
