#N canvas 321 23 601 564 10;
#X declare -path ofelia/abs;
#X obj 0 0 cnv 15 580 40 empty empty ofDragged 3 12 0 18 -204280 -1
0;
#X obj 0 341 cnv 3 580 3 empty empty inlets 8 12 0 13 -228856 -1 0
;
#X obj 0 392 cnv 3 580 3 empty empty outlets 8 12 0 13 -228856 -1 0
;
#X obj 75 349 cnv 17 3 17 empty empty 0 5 9 0 16 -228856 -162280 0
;
#X obj 0 450 cnv 3 580 3 empty empty arguments 8 12 0 13 -228856 -1
0;
#X obj 201 307 print;
#X obj 75 400 cnv 17 3 17 empty empty 0 5 9 0 16 -228856 -162280 0
;
#X obj 517 5 ofDragged;
#X obj 201 236 ofDragged 50;
#X text 11 23 listen to the dragging of the files to the window;
#X text 21 43 [ofDragged] is used to detect the files being dragged
to the window.;
#X text 242 307 outputs the list of file names.;
#X obj 270 257 unpack f f;
#X floatatom 270 278 5 0 0 0 - - -;
#X floatatom 327 278 5 0 0 0 - - -;
#X text 366 278 dragged x \, y position.;
#X obj 23 129 ofWindow;
#X obj 23 87 loadbang;
#X text 276 108 try dragging any file into the graphics window.;
#X obj 75 422 cnv 17 3 17 empty empty 1 5 9 0 16 -228856 -162280 0
;
#X text 95 423 list <f \, f>;
#X text 211 401 - outputs the list of dragged file names.;
#X msg 23 108 setPosition 0 0 \, setSize 640 480 \, create;
#X text 95 401 list;
#X text 211 423 - outputs the x \, y position of the dragged files.
;
#X floatatom 201 134 5 0 0 0 - - -;
#X obj 221 180 tgl 15 0 empty empty empty 17 7 0 10 -262144 -1 -1 0
1;
#X text 242 179 0: disable / 1: enable the listener. (default: 1);
#X text 237 134 change the listening order. (default: 50);
#X msg 221 200 setEnabled \$1;
#X msg 201 154 setOrder \$1;
#X text 95 350 setOrder <f>;
#X text 211 350 - change the listening order. (default: 50);
#X text 95 365 setEnabled <f>;
#X text 211 365 - 0: disable / 1: enable the listener. (default: 1)
;
#X obj 0 511 cnv 15 580 21 empty empty empty 20 12 0 14 -228856 -66577
0;
#X text 72 471 1) float;
#X text 211 471 - the listening order. (default: 50);
#X text 72 486 2) float;
#X text 211 486 - 0: disable / 1: enable the listener. (default: 1)
;
#X obj 432 46 declare -path ofelia/abs;
#X connect 8 0 5 0;
#X connect 8 1 12 0;
#X connect 12 0 13 0;
#X connect 12 1 14 0;
#X connect 17 0 22 0;
#X connect 22 0 16 0;
#X connect 25 0 30 0;
#X connect 26 0 29 0;
#X connect 29 0 8 0;
#X connect 30 0 8 0;
