#N canvas 321 23 601 544 10;
#X declare -path ofelia/abs;
#X obj 0 0 cnv 15 580 40 empty empty ofExit 3 12 0 18 -204280 -1 0
;
#X obj 0 341 cnv 3 580 3 empty empty inlets 8 12 0 13 -228856 -1 0
;
#X obj 0 390 cnv 3 580 3 empty empty outlets 8 12 0 13 -228856 -1 0
;
#X obj 75 349 cnv 17 3 17 empty empty 0 5 9 0 16 -228856 -162280 0
;
#X obj 0 426 cnv 3 580 3 empty empty arguments 8 12 0 13 -228856 -1
0;
#X obj 75 398 cnv 17 3 17 empty empty 0 5 9 0 16 -228856 -162280 0
;
#X text 95 399 bang;
#X obj 23 129 ofWindow;
#X obj 23 87 loadbang;
#X msg 23 108 setPosition 0 0 \, setSize 640 480 \, create;
#X obj 535 5 ofExit;
#X text 11 23 an exit callback which is called before the app is closed
;
#X obj 191 236 ofExit 50;
#X text 21 43 [ofExit] is called right before the app is closed (or
the window is destroyed);
#X msg 191 279 The window is closed!;
#X obj 191 300 print;
#X text 203 256 outputs bang before the app is closed.;
#X text 211 399 - outputs bang before the app is closed.;
#X text 281 108 <- try closing the created window.;
#X floatatom 191 134 5 0 0 0 - - -;
#X obj 211 180 tgl 15 0 empty empty empty 17 7 0 10 -262144 -1 -1 0
1;
#X text 232 179 0: disable / 1: enable the listener. (default: 1);
#X text 227 134 change the listening order. (default: 50);
#X msg 211 200 setEnabled \$1;
#X msg 191 154 setOrder \$1;
#X text 95 350 setOrder <f>;
#X text 211 350 - change the listening order. (default: 50);
#X text 95 365 setEnabled <f>;
#X text 211 365 - 0: disable / 1: enable the listener. (default: 1)
;
#X obj 0 491 cnv 15 580 21 empty empty empty 20 12 0 14 -228856 -66577
0;
#X text 72 451 1) float;
#X text 211 451 - the listening order. (default: 50);
#X text 72 466 2) float;
#X text 211 466 - 0: disable / 1: enable the listener. (default: 1)
;
#X obj 432 46 declare -path ofelia/abs;
#X connect 8 0 9 0;
#X connect 9 0 7 0;
#X connect 12 0 14 0;
#X connect 14 0 15 0;
#X connect 19 0 24 0;
#X connect 20 0 23 0;
#X connect 23 0 12 0;
#X connect 24 0 12 0;
