#N canvas 321 23 601 547 10;
#X declare -path ofelia/abs;
#X obj 0 0 cnv 15 580 40 empty empty ofLaunchedWithURL 3 12 0 18 -204280
-1 0;
#X obj 0 341 cnv 3 580 3 empty empty inlets 8 12 0 13 -228856 -1 0
;
#X obj 0 390 cnv 3 580 3 empty empty outlets 8 12 0 13 -228856 -1 0
;
#X obj 75 349 cnv 17 3 17 empty empty 0 5 9 0 16 -228856 -162280 0
;
#X obj 0 426 cnv 3 580 3 empty empty arguments 8 12 0 13 -228856 -1
0;
#X obj 191 272 print;
#X obj 75 398 cnv 17 3 17 empty empty 0 5 9 0 16 -228856 -162280 0
;
#X obj 469 5 ofLaunchedWithURL;
#X obj 191 236 ofLaunchedWithURL 50;
#X text 21 43 [ofLaunchedWithURL] is used to detect when the app is
launched with a URL on iOS;
#X text 11 23 listen when the app is launched with a URL on iOS;
#X text 232 272 outputs the URL when the app is launched with a URL.
;
#X text 95 399 symbol;
#X text 211 399 - outputs the URL when the app is launched with a URL.
;
#X floatatom 191 134 5 0 0 0 - - -;
#X obj 211 180 tgl 15 0 empty empty empty 17 7 0 10 -262144 -1 -1 0
1;
#X text 232 179 0: disable / 1: enable the listener. (default: 1);
#X text 227 134 change the listening order. (default: 50);
#X msg 211 200 setEnabled \$1;
#X msg 191 154 setOrder \$1;
#X text 95 350 setOrder <f>;
#X text 211 350 - change the listening order. (default: 50);
#X text 95 365 setEnabled <f>;
#X text 211 365 - 0: disable / 1: enable the listener. (default: 1)
;
#X obj 0 491 cnv 15 580 21 empty empty empty 20 12 0 14 -228856 -66577
0;
#X text 72 451 1) float;
#X text 211 451 - the listening order. (default: 50);
#X text 72 466 2) float;
#X text 211 466 - 0: disable / 1: enable the listener. (default: 1)
;
#X obj 432 46 declare -path ofelia/abs;
#X connect 8 0 5 0;
#X connect 14 0 19 0;
#X connect 15 0 18 0;
#X connect 18 0 8 0;
#X connect 19 0 8 0;
