#N canvas 321 23 601 545 10;
#X declare -path ofelia/abs;
#X obj 0 0 cnv 15 580 40 empty empty ofLostFocus 3 12 0 18 -204280
-1 0;
#X obj 0 341 cnv 3 580 3 empty empty inlets 8 12 0 13 -228856 -1 0
;
#X obj 0 390 cnv 3 580 3 empty empty outlets 8 12 0 13 -228856 -1 0
;
#X obj 0 426 cnv 3 580 3 empty empty arguments 8 12 0 13 -228856 -1
0;
#X obj 75 398 cnv 17 3 17 empty empty 0 5 9 0 16 -228856 -162280 0
;
#X text 95 399 bang;
#X obj 505 5 ofLostFocus;
#X text 11 23 listen when the app loses focus on iOS;
#X text 21 43 [ofLostFocus] is used to detect the app losing focus
on an iOS device.;
#X text 211 399 - outputs bang when the app loses focus.;
#X obj 191 262 print;
#X floatatom 191 124 5 0 0 0 - - -;
#X obj 211 170 tgl 15 0 empty empty empty 17 7 0 10 -262144 -1 -1 0
1;
#X text 232 169 0: disable / 1: enable the listener. (default: 1);
#X text 227 124 change the listening order. (default: 50);
#X msg 211 190 setEnabled \$1;
#X msg 191 144 setOrder \$1;
#X text 232 262 outputs bang when the app loses focus on iOS device.
;
#X obj 75 349 cnv 17 3 17 empty empty 0 5 9 0 16 -228856 -162280 0
;
#X text 95 350 setOrder <f>;
#X text 211 350 - change the listening order. (default: 50);
#X text 95 365 setEnabled <f>;
#X text 211 365 - 0: disable / 1: enable the listener. (default: 1)
;
#X obj 0 491 cnv 15 580 21 empty empty empty 20 12 0 14 -228856 -66577
0;
#X text 72 451 1) float;
#X text 211 451 - the listening order. (default: 50);
#X text 72 466 2) float;
#X text 211 466 - 0: disable / 1: enable the listener. (default: 1)
;
#X obj 191 226 ofLostFocus 50;
#X obj 432 46 declare -path ofelia/abs;
#X connect 11 0 16 0;
#X connect 12 0 15 0;
#X connect 15 0 28 0;
#X connect 16 0 28 0;
#X connect 28 0 10 0;
