#N canvas 321 23 601 545 10;
#X declare -path ofelia/abs;
#X obj 0 0 cnv 15 580 40 empty empty ofMessageReceived 3 12 0 18 -204280
-1 0;
#X obj 0 341 cnv 3 580 3 empty empty inlets 8 12 0 13 -228856 -1 0
;
#X obj 0 390 cnv 3 580 3 empty empty outlets 8 12 0 13 -228856 -1 0
;
#X obj 0 426 cnv 3 580 3 empty empty arguments 8 12 0 13 -228856 -1
0;
#X obj 171 282 print;
#X obj 75 398 cnv 17 3 17 empty empty 0 5 9 0 16 -228856 -162280 0
;
#X obj 23 129 ofWindow;
#X obj 23 87 loadbang;
#X msg 23 108 setPosition 0 0 \, setSize 640 480 \, create;
#X text 11 23 listen to the messages sent from ofSendMessage;
#X obj 171 246 ofMessageReceived 50;
#X obj 469 5 ofMessageReceived;
#X text 21 43 [ofMessageReceived] is used to receive messages sent
from [ofSendMessage];
#X floatatom 312 246 5 0 0 0 - - -;
#X msg 359 246 symbol Hello;
#X text 95 399 float/symbol;
#X text 447 245 send any message.;
#X text 211 399 - outputs the received message sent from [ofSendMessage]
;
#X floatatom 171 144 5 0 0 0 - - -;
#X obj 191 190 tgl 15 0 empty empty empty 17 7 0 10 -262144 -1 -1 0
1;
#X text 212 189 0: disable / 1: enable the listener. (default: 1);
#X text 207 144 change the listening order. (default: 50);
#X msg 191 210 setEnabled \$1;
#X msg 171 164 setOrder \$1;
#X obj 75 349 cnv 17 3 17 empty empty 0 5 9 0 16 -228856 -162280 0
;
#X text 95 350 setOrder <f>;
#X text 211 350 - change the listening order. (default: 50);
#X text 95 365 setEnabled <f>;
#X text 211 365 - 0: disable / 1: enable the listener. (default: 1)
;
#X obj 0 491 cnv 15 580 21 empty empty empty 20 12 0 14 -228856 -66577
0;
#X text 72 451 1) float;
#X text 211 451 - the listening order. (default: 50);
#X text 72 466 2) float;
#X text 211 466 - 0: disable / 1: enable the listener. (default: 1)
;
#X obj 312 282 ofelia f \; ofSendMessage(a) \;;
#X obj 432 46 declare -path ofelia/abs;
#X connect 7 0 8 0;
#X connect 8 0 6 0;
#X connect 10 0 4 0;
#X connect 13 0 34 0;
#X connect 14 0 34 0;
#X connect 18 0 23 0;
#X connect 19 0 22 0;
#X connect 22 0 10 0;
#X connect 23 0 10 0;
