#N canvas 321 23 601 542 10;
#X declare -path ofelia/abs;
#X obj 0 0 cnv 15 580 40 empty empty ofOkPressed 3 12 0 18 -204280
-1 0;
#X obj 505 5 ofOkPressed;
#X text 11 23 listen to the OK button press on Android;
#X text 21 43 [ofOkPressed] is used to detect the OK button press on
an Android device.;
#X obj 201 262 print;
#X floatatom 201 124 5 0 0 0 - - -;
#X obj 221 170 tgl 15 0 empty empty empty 17 7 0 10 -262144 -1 -1 0
1;
#X text 242 169 0: disable / 1: enable the listener. (default: 1);
#X text 237 124 change the listening order. (default: 50);
#X msg 221 190 setEnabled \$1;
#X msg 201 144 setOrder \$1;
#X text 242 262 outputs bang when the OK button is pressed on an Android
device.;
#X obj 201 226 ofOkPressed 50;
#X obj 0 341 cnv 3 580 3 empty empty inlets 8 12 0 13 -228856 -1 0
;
#X obj 0 392 cnv 3 580 3 empty empty outlets 8 12 0 13 -228856 -1 0
;
#X obj 75 349 cnv 17 3 17 empty empty 0 5 9 0 16 -228856 -162280 0
;
#X obj 0 491 cnv 15 580 21 empty empty empty 20 12 0 14 -228856 -66577
0;
#X obj 0 428 cnv 3 580 3 empty empty arguments 8 12 0 13 -228856 -1
0;
#X text 72 451 1) float;
#X obj 75 400 cnv 17 3 17 empty empty 0 5 9 0 16 -228856 -162280 0
;
#X text 95 401 bang;
#X text 211 451 - the listening order. (default: 50);
#X text 72 466 2) float;
#X text 211 466 - 0: disable / 1: enable the listener. (default: 1)
;
#X text 95 350 setOrder <f>;
#X text 211 350 - change the listening order. (default: 50);
#X text 95 365 setEnabled <f>;
#X text 211 365 - 0: disable / 1: enable the listener. (default: 1)
;
#X text 211 401 - outputs bang when the OK button is pressed.;
#X obj 432 46 declare -path ofelia/abs;
#X connect 5 0 10 0;
#X connect 6 0 9 0;
#X connect 9 0 12 0;
#X connect 10 0 12 0;
#X connect 12 0 4 0;
