#N canvas 321 23 601 586 10;
#X declare -path ofelia/abs;
#X obj 0 0 cnv 15 580 40 empty empty ofSetup 3 12 0 18 -204280 -1 0
;
#X obj 23 129 ofWindow;
#X obj 23 87 loadbang;
#X msg 23 108 setPosition 0 0 \, setSize 640 480 \, create;
#X obj 191 298 print;
#X obj 529 5 ofSetup;
#X obj 191 236 ofSetup 50;
#X msg 191 277 The window is created!;
#X text 11 23 a setup callback which is called at the start of the
app;
#X text 21 43 [ofSetup] is called once at the start of the app (or
whenever the window is created);
#X text 203 256 outputs bang at the start of the app.;
#X text 263 236 <- recreating the object will output bang.;
#X floatatom 191 134 5 0 0 0 - - -;
#X obj 211 180 tgl 15 0 empty empty empty 17 7 0 10 -262144 -1 -1 0
1;
#X text 232 179 0: disable / 1: enable the listener. (default: 1);
#X text 227 134 change the listening order. (default: 50);
#X msg 211 200 setEnabled \$1;
#X msg 191 154 setOrder \$1;
#X text 189 319 note: [ofSetup] will also output bang when the object
is created while the window already exists. it is recommended to use
[ofSetup] instead of [loadbang] to initialize any ofelia objects. (except
when creating the window);
#X obj 0 381 cnv 3 580 3 empty empty inlets 8 12 0 13 -228856 -1 0
;
#X obj 0 430 cnv 3 580 3 empty empty outlets 8 12 0 13 -228856 -1 0
;
#X obj 75 389 cnv 17 3 17 empty empty 0 5 9 0 16 -228856 -162280 0
;
#X obj 0 466 cnv 3 580 3 empty empty arguments 8 12 0 13 -228856 -1
0;
#X obj 75 438 cnv 17 3 17 empty empty 0 5 9 0 16 -228856 -162280 0
;
#X text 95 439 bang;
#X text 95 390 setOrder <f>;
#X text 211 390 - change the listening order. (default: 50);
#X text 95 405 setEnabled <f>;
#X text 211 405 - 0: disable / 1: enable the listener. (default: 1)
;
#X obj 0 531 cnv 15 580 21 empty empty empty 20 12 0 14 -228856 -66577
0;
#X text 72 491 1) float;
#X text 211 491 - the listening order. (default: 50);
#X text 72 506 2) float;
#X text 211 506 - 0: disable / 1: enable the listener. (default: 1)
;
#X text 211 439 - outputs bang at the start of the app.;
#X obj 432 46 declare -path ofelia/abs;
#X connect 2 0 3 0;
#X connect 3 0 1 0;
#X connect 6 0 7 0;
#X connect 7 0 4 0;
#X connect 12 0 17 0;
#X connect 13 0 16 0;
#X connect 16 0 6 0;
#X connect 17 0 6 0;
