#N canvas 321 23 601 542 10;
#X declare -path ofelia/abs;
#X obj 0 0 cnv 15 580 40 empty empty ofSwipe 3 12 0 18 -204280 -1 0
;
#X obj 529 5 ofSwipe;
#X obj 191 226 ofSwipe 50;
#X text 11 23 listen to the swipe gesture on Android;
#X text 21 43 [ofSwipe] is used to detect the swipe gesture on an Android
device.;
#X obj 191 267 unpack f f;
#X floatatom 191 288 5 0 0 0 - - -;
#X floatatom 248 288 5 0 0 0 - - -;
#X text 202 245 outputs the direction and id as a list.;
#X floatatom 191 124 5 0 0 0 - - -;
#X obj 211 170 tgl 15 0 empty empty empty 17 7 0 10 -262144 -1 -1 0
1;
#X text 232 169 0: disable / 1: enable the listener. (default: 1);
#X text 227 124 change the listening order. (default: 50);
#X msg 211 190 setEnabled \$1;
#X msg 191 144 setOrder \$1;
#X obj 0 341 cnv 3 580 3 empty empty inlets 8 12 0 13 -228856 -1 0
;
#X obj 0 392 cnv 3 580 3 empty empty outlets 8 12 0 13 -228856 -1 0
;
#X obj 75 349 cnv 17 3 17 empty empty 0 5 9 0 16 -228856 -162280 0
;
#X obj 0 491 cnv 15 580 21 empty empty empty 20 12 0 14 -228856 -66577
0;
#X obj 0 428 cnv 3 580 3 empty empty arguments 8 12 0 13 -228856 -1
0;
#X text 72 451 1) float;
#X obj 75 400 cnv 17 3 17 empty empty 0 5 9 0 16 -228856 -162280 0
;
#X text 211 451 - the listening order. (default: 50);
#X text 72 466 2) float;
#X text 211 466 - 0: disable / 1: enable the listener. (default: 1)
;
#X text 95 350 setOrder <f>;
#X text 211 350 - change the listening order. (default: 50);
#X text 95 365 setEnabled <f>;
#X text 211 365 - 0: disable / 1: enable the listener. (default: 1)
;
#X text 95 401 list <f \, f>;
#X text 211 401 - outputs the direction and id as a list.;
#X obj 432 46 declare -path ofelia/abs;
#X connect 2 0 5 0;
#X connect 5 0 6 0;
#X connect 5 1 7 0;
#X connect 9 0 14 0;
#X connect 10 0 13 0;
#X connect 13 0 2 0;
#X connect 14 0 2 0;
