#N canvas 321 23 601 595 10;
#X declare -path ofelia/abs;
#X obj 0 0 cnv 15 580 40 empty empty ofTouchDown 3 12 0 18 -204280
-1 0;
#X obj 23 129 ofWindow;
#X obj 23 87 loadbang;
#X msg 23 108 setPosition 0 0 \, setSize 640 480 \, create;
#X obj 505 5 ofTouchDown;
#X text 11 23 listen to the touch down event;
#X text 21 43 [ofTouchDown] is used to detect the touch down event.
;
#X obj 171 266 print;
#X text 212 266 outputs the touch events as a list.;
#X floatatom 171 134 5 0 0 0 - - -;
#X obj 191 180 tgl 15 0 empty empty empty 17 7 0 10 -262144 -1 -1 0
1;
#X text 212 179 0: disable / 1: enable the listener. (default: 1);
#X text 207 134 change the listening order. (default: 50);
#X msg 191 200 setEnabled \$1;
#X msg 171 154 setOrder \$1;
#X text 210 286 - simplified: x \, y \, id.;
#X text 210 306 - full: type \, x \, y \, id \, time \, numTouches
\, width \, height \, angle \, minoraxis \, majoraxis \, pressure \,
xspeed \, yspeed \, xaccel \, yaccel.;
#X obj 0 361 cnv 3 580 3 empty empty inlets 8 12 0 13 -228856 -1 0
;
#X obj 0 425 cnv 3 580 3 empty empty outlets 8 12 0 13 -228856 -1 0
;
#X obj 0 461 cnv 3 580 3 empty empty arguments 8 12 0 13 -228856 -1
0;
#X obj 75 433 cnv 17 3 17 empty empty 0 5 9 0 16 -228856 -162280 0
;
#X text 95 434 list;
#X obj 75 369 cnv 17 3 17 empty empty 0 5 9 0 16 -228856 -162280 0
;
#X text 95 370 setOrder <f>;
#X text 211 370 - change the listening order. (default: 50);
#X text 95 385 setEnabled <f>;
#X text 211 385 - 0: disable / 1: enable the listener. (default: 1)
;
#X obj 0 541 cnv 15 580 21 empty empty empty 20 12 0 14 -228856 -66577
0;
#X text 72 486 1) float;
#X text 211 486 - the listening order. (default: 50);
#X text 72 501 2) float;
#X text 211 501 - 0: disable / 1: enable the listener. (default: 1)
;
#X text 72 516 3) float;
#X text 95 400 setSimplify <f>;
#X text 211 400 - whether to output full(0) or simplified(1). (default:
1);
#X text 211 516 - whether to output full(0) or simplified(1). (default:
1);
#X text 211 434 - outputs the touch events as a list.;
#X obj 171 240 ofTouchDown 50;
#X obj 432 46 declare -path ofelia/abs;
#X connect 2 0 3 0;
#X connect 3 0 1 0;
#X connect 9 0 14 0;
#X connect 10 0 13 0;
#X connect 13 0 37 0;
#X connect 14 0 37 0;
#X connect 37 0 7 0;
