#N canvas 321 23 601 567 10;
#X declare -path ofelia/abs;
#X obj 0 0 cnv 15 580 40 empty empty ofUpdate 3 12 0 18 -204280 -1
0;
#X obj 23 129 ofWindow;
#X obj 23 87 loadbang;
#X msg 23 108 setPosition 0 0 \, setSize 640 480 \, create;
#X obj 523 5 ofUpdate;
#X obj 201 235 ofUpdate 50;
#X obj 201 276 f;
#X text 11 23 an update callback called before draw to update states
;
#X text 21 43 [ofUpdate] is called regularly to update states before
[ofDraw] is called.;
#X text 213 255 outputs bang every frame. (before [ofDraw] is called)
;
#X obj 132 297 ofDraw 50;
#X obj 227 276 + 0.1;
#X floatatom 201 133 5 0 0 0 - - -;
#X obj 221 179 tgl 15 0 empty empty empty 17 7 0 10 -262144 -1 -1 0
1;
#X text 242 178 0: disable / 1: enable the listener. (default: 1);
#X text 237 133 change the listening order. (default: 50);
#X msg 221 199 setEnabled \$1;
#X msg 201 153 setOrder \$1;
#X obj 0 361 cnv 3 580 3 empty empty inlets 8 12 0 13 -228856 -1 0
;
#X obj 0 410 cnv 3 580 3 empty empty outlets 8 12 0 13 -228856 -1 0
;
#X obj 75 369 cnv 17 3 17 empty empty 0 5 9 0 16 -228856 -162280 0
;
#X obj 0 446 cnv 3 580 3 empty empty arguments 8 12 0 13 -228856 -1
0;
#X obj 75 418 cnv 17 3 17 empty empty 0 5 9 0 16 -228856 -162280 0
;
#X text 95 419 bang;
#X text 95 370 setOrder <f>;
#X text 211 370 - change the listening order. (default: 50);
#X text 95 385 setEnabled <f>;
#X text 211 385 - 0: disable / 1: enable the listener. (default: 1)
;
#X obj 0 511 cnv 15 580 21 empty empty empty 20 12 0 14 -228856 -66577
0;
#X text 72 471 1) float;
#X text 211 471 - the listening order. (default: 50);
#X text 72 486 2) float;
#X text 211 486 - 0: disable / 1: enable the listener. (default: 1)
;
#X text 211 419 - outputs bang every frame. (while the window exists)
;
#X obj 201 297 expr sin($f1) * 200 + 320;
#X obj 132 323 ofelia f -c21 \; ofDrawRectangle(a[1] \, 240 \, 50 \,
50) \;;
#X obj 432 46 declare -path ofelia/abs;
#X connect 2 0 3 0;
#X connect 3 0 1 0;
#X connect 5 0 6 0;
#X connect 6 0 11 0;
#X connect 6 0 34 0;
#X connect 10 0 35 0;
#X connect 11 0 6 1;
#X connect 12 0 17 0;
#X connect 13 0 16 0;
#X connect 16 0 5 0;
#X connect 17 0 5 0;
#X connect 34 0 35 1;
