#N canvas 397 307 444 239 10;
#X obj 32 107 inlet;
#X obj 32 29 loadbang;
#X obj 32 149 outlet;
#X obj 32 128 ofelia d \$0-of;
#X obj 32 71 s \$0-of;
#X msg 32 50 read -c ofWindowResized.lua;
#X connect 0 0 3 0;
#X connect 1 0 5 0;
#X connect 3 0 2 0;
#X connect 5 0 4 0;
