#N canvas 321 23 601 542 10;
#X declare -path ofelia/abs;
#X obj 0 0 cnv 15 580 40 empty empty ofWindowResized 3 12 0 18 -204280
-1 0;
#X obj 23 129 ofWindow;
#X obj 23 87 loadbang;
#X msg 23 108 setPosition 0 0 \, setSize 640 480 \, create;
#X obj 481 5 ofWindowResized;
#X text 11 23 listen when the window is being resized;
#X text 21 43 [ofWindowResized] is used to detect when the window is
being resized.;
#X floatatom 191 134 5 0 0 0 - - -;
#X obj 211 180 tgl 15 0 empty empty empty 17 7 0 10 -262144 -1 -1 0
1;
#X text 232 179 0: disable / 1: enable the listener. (default: 1);
#X text 227 134 change the listening order. (default: 50);
#X msg 211 200 setEnabled \$1;
#X msg 191 154 setOrder \$1;
#X obj 191 236 ofWindowResized 50;
#X text 203 256 outputs the resized width and height of the window.
;
#X obj 191 278 unpack f f;
#X floatatom 191 299 5 0 0 0 - - -;
#X floatatom 248 299 5 0 0 0 - - -;
#X obj 0 341 cnv 3 580 3 empty empty inlets 8 12 0 13 -228856 -1 0
;
#X obj 0 390 cnv 3 580 3 empty empty outlets 8 12 0 13 -228856 -1 0
;
#X obj 75 349 cnv 17 3 17 empty empty 0 5 9 0 16 -228856 -162280 0
;
#X obj 0 426 cnv 3 580 3 empty empty arguments 8 12 0 13 -228856 -1
0;
#X obj 75 398 cnv 17 3 17 empty empty 0 5 9 0 16 -228856 -162280 0
;
#X text 95 350 setOrder <f>;
#X text 211 350 - change the listening order. (default: 50);
#X text 95 365 setEnabled <f>;
#X text 211 365 - 0: disable / 1: enable the listener. (default: 1)
;
#X obj 0 491 cnv 15 580 21 empty empty empty 20 12 0 14 -228856 -66577
0;
#X text 72 451 1) float;
#X text 211 451 - the listening order. (default: 50);
#X text 72 466 2) float;
#X text 211 466 - 0: disable / 1: enable the listener. (default: 1)
;
#X text 211 399 - outputs the resized width and height of the window.
;
#X text 95 399 list <f \, f>;
#X obj 432 46 declare -path ofelia/abs;
#X connect 2 0 3 0;
#X connect 3 0 1 0;
#X connect 7 0 12 0;
#X connect 8 0 11 0;
#X connect 11 0 13 0;
#X connect 12 0 13 0;
#X connect 13 0 15 0;
#X connect 15 0 16 0;
#X connect 15 1 17 0;
