#N canvas 641 23 684 742 10;
#X declare -lib ofelia;
#N canvas 641 259 555 300 pointLight1 0;
#X obj 48 63 inlet;
#X obj 48 85 t b b;
#X obj 48 184 ofPointLight;
#X obj 107 63 ofWindowLoadBang;
#X msg 107 85 diffuse 216.75 216.75 140.25 \, specular 255 255 255
;
#X obj 48 206 outlet;
#X obj 75 110 ofExpr \; ofGetWidth*0.5 + cos(ofGetElapsedTime*0.5)
* ofGetWidth*0.3 \; ofGetHeight/2 \; 500 \;, f 64;
#X connect 0 0 1 0;
#X connect 1 0 2 0;
#X connect 1 1 6 0;
#X connect 2 0 5 0;
#X connect 3 0 4 0;
#X connect 4 0 2 0;
#X connect 6 0 2 1;
#X connect 6 1 2 2;
#X connect 6 2 2 2;
#X restore 88 269 pd pointLight1;
#N canvas 641 259 555 300 pointLight2 0;
#X obj 48 63 inlet;
#X obj 48 85 t b b;
#X obj 48 184 ofPointLight;
#X obj 107 63 ofWindowLoadBang;
#X obj 48 206 outlet;
#X msg 107 85 diffuse 238 57 135 \, specular 204 204 229.5;
#X obj 75 110 ofExpr \; ofGetWidth*0.5 + cos(ofGetElapsedTime*0.15)
* ofGetWidth*0.3 \; ofGetHeight*0.5 + sin(ofGetElapsedTime*0.7)
* ofGetHeight \; -300 \;, f 65;
#X connect 0 0 1 0;
#X connect 1 0 2 0;
#X connect 1 1 6 0;
#X connect 2 0 4 0;
#X connect 3 0 5 0;
#X connect 5 0 2 0;
#X connect 6 0 2 1;
#X connect 6 1 2 2;
#X connect 6 2 2 2;
#X restore 88 291 pd pointLight2;
#N canvas 640 259 555 300 pointLight3 0;
#X obj 48 63 inlet;
#X obj 48 85 t b b;
#X obj 48 184 ofPointLight;
#X obj 107 63 ofWindowLoadBang;
#X obj 48 206 outlet;
#X msg 107 85 diffuse 19 94 77 \, specular 18 150 135;
#X obj 75 110 ofExpr \; cos(ofGetElapsedTime*1.5) * ofGetWidth*0.5
\; sin(ofGetElapsedTime*1.5) * ofGetWidth*0.5 \; cos(ofGetElapsedTime*0.2)
* ofGetWidth \;, f 62;
#X connect 0 0 1 0;
#X connect 1 0 2 0;
#X connect 1 1 6 0;
#X connect 2 0 4 0;
#X connect 3 0 5 0;
#X connect 5 0 2 0;
#X connect 6 0 2 1;
#X connect 6 1 2 2;
#X connect 6 2 2 2;
#X restore 88 313 pd pointLight3;
#N canvas 642 259 555 300 material 0;
#X obj 48 63 inlet;
#X obj 107 63 ofWindowLoadBang;
#X obj 48 206 outlet;
#X msg 107 85 shininess 120 \, specular 255;
#X obj 48 184 ofMaterial;
#X connect 0 0 4 0;
#X connect 1 0 3 0;
#X connect 3 0 4 0;
#X connect 4 0 2 0;
#X restore 88 335 pd material;
#N canvas 641 258 334 300 plane 0;
#X obj 48 46 inlet;
#X obj 48 68 t b b;
#X obj 48 195 ofTranslate;
#X obj 48 239 ofPlane;
#X obj 75 90 ofExpr \; ofGetWidth * 0.2 \; ofGetHeight * 0.25 \; @spinX
\; @spinY \; @width * 1.5 \; @height * 1.5 \;, f 20;
#X obj 48 217 ofRotateXYZ;
#X connect 0 0 1 0;
#X connect 1 0 2 0;
#X connect 1 1 4 0;
#X connect 2 0 5 0;
#X connect 4 0 2 1;
#X connect 4 1 2 2;
#X connect 4 2 5 1;
#X connect 4 3 5 2;
#X connect 4 4 3 1;
#X connect 4 5 3 2;
#X connect 5 0 3 0;
#X restore 50 520 pd plane;
#X obj 88 247 ofSetDepthTest ON;
#X obj 31 657 ofSetDepthTest OFF;
#X obj 50 498 ofSepMatrix 6;
#N canvas 642 257 334 300 box 0;
#X obj 48 46 inlet;
#X obj 48 68 t b b;
#X obj 48 195 ofTranslate;
#X obj 75 90 ofExpr \; ofGetWidth * 0.5 \; ofGetHeight * 0.25 \; @spinX
\; @spinY \; @width * 1.25 \;, f 20;
#X obj 48 239 ofBox;
#X obj 48 217 ofRotateXYZ;
#X connect 0 0 1 0;
#X connect 1 0 2 0;
#X connect 1 1 3 0;
#X connect 2 0 5 0;
#X connect 3 0 2 1;
#X connect 3 1 2 2;
#X connect 3 2 5 1;
#X connect 3 3 5 2;
#X connect 3 4 4 1;
#X connect 3 4 4 2;
#X connect 3 4 4 3;
#X connect 5 0 4 0;
#X restore 65 542 pd box;
#N canvas 642 257 334 300 sphere 0;
#X obj 48 46 inlet;
#X obj 48 68 t b b;
#X obj 48 195 ofTranslate;
#X obj 75 90 ofExpr \; ofGetWidth * 0.8 \; ofGetHeight * 0.25 \; @spinX
\; @spinY \; @width \;, f 20;
#X obj 48 239 ofSphere;
#X obj 48 217 ofRotateXYZ;
#X connect 0 0 1 0;
#X connect 1 0 2 0;
#X connect 1 1 3 0;
#X connect 2 0 5 0;
#X connect 3 0 2 1;
#X connect 3 1 2 2;
#X connect 3 2 5 1;
#X connect 3 3 5 2;
#X connect 3 4 4 1;
#X connect 5 0 4 0;
#X restore 80 564 pd sphere;
#N canvas 641 258 334 300 icosphere 0;
#X obj 48 46 inlet;
#X obj 48 68 t b b;
#X obj 48 195 ofTranslate;
#X obj 48 239 ofIcosphere;
#X obj 75 90 ofExpr \; ofGetWidth * 0.2 \; ofGetHeight * 0.75 \; @spinX
\; @spinY \; @width \;, f 20;
#X obj 48 217 ofRotateXYZ;
#X connect 0 0 1 0;
#X connect 1 0 2 0;
#X connect 1 1 4 0;
#X connect 2 0 5 0;
#X connect 4 0 2 1;
#X connect 4 1 2 2;
#X connect 4 2 5 1;
#X connect 4 3 5 2;
#X connect 4 4 3 1;
#X connect 5 0 3 0;
#X restore 95 586 pd icosphere;
#N canvas 641 258 334 300 cylinder 0;
#X obj 48 46 inlet;
#X obj 48 68 t b b;
#X obj 48 195 ofTranslate;
#X obj 48 239 ofCylinder;
#X obj 75 90 ofExpr \; ofGetWidth * 0.5 \; ofGetHeight * 0.75 \; @spinX
\; @spinY \; @width * 0.7 \; @height * 2.2 \;, f 20;
#X obj 48 217 ofRotateXYZ;
#X connect 0 0 1 0;
#X connect 1 0 2 0;
#X connect 1 1 4 0;
#X connect 2 0 5 0;
#X connect 4 0 2 1;
#X connect 4 1 2 2;
#X connect 4 2 5 1;
#X connect 4 3 5 3;
#X connect 4 4 3 1;
#X connect 4 5 3 2;
#X connect 5 0 3 0;
#X restore 110 608 pd cylinder;
#N canvas 641 258 334 300 cone 0;
#X obj 48 46 inlet;
#X obj 48 68 t b b;
#X obj 48 195 ofTranslate;
#X obj 48 239 ofCone;
#X obj 75 90 ofExpr \; ofGetWidth * 0.8 \; ofGetHeight * 0.75 \; @spinX
\; @spinY \; @width * 0.75 \; @height * 2.2 \;, f 20;
#X obj 48 217 ofRotateXYZ;
#X connect 0 0 1 0;
#X connect 1 0 2 0;
#X connect 1 1 4 0;
#X connect 2 0 5 0;
#X connect 4 0 2 1;
#X connect 4 1 2 2;
#X connect 4 2 5 1;
#X connect 4 3 5 3;
#X connect 4 4 3 1;
#X connect 4 5 3 2;
#X connect 5 0 3 0;
#X restore 125 630 pd cone;
#X obj 31 91 ofWindow 640 400 LEFT TOP 1 20;
#X obj 70 428 ofDefine \; @width = ofGetWidth * 0.12 \; @height = ofGetHeight
* 0.12 \; @spinX = sin(ofGetElapsedTime * 0.17) * 360 \; @spinY
= cos(ofGetElapsedTime * 0.13) * 360 \;;
#X obj 31 154 ofMouseListener;
#X obj 31 176 bang;
#X obj 31 406 t b b b;
#X obj 31 357 ofGate 2 1;
#X obj 31 198 ofCount 1 2 2;
#X text 283 119 load an image for the texture.;
#X obj 88 379 ofBindImageTex @texture;
#X text 239 380 bind/unbind the stored image's texture.;
#X text 203 247 enable the depth test.;
#X text 152 658 disable the depth test.;
#X text 185 269 create 3 point lights.;
#X text 166 336 set the material.;
#X text 29 28 this example shows how 3d primitives can be drawn on
the screen with the lights and material. click on the screen to enable/disable
the texture mapping.;
#X text 331 683 This example is based on the openFrameworks example
"3DPrimitivesExample";
#X text 122 198 toggle between 1 and 2;
#X obj 88 225 ofHead;
#X text 136 225 start rendering.;
#X text 141 498 separate render chains in matrix.;
#X obj 31 118 ofLoadImage @texture ../data/texture.jpg;
#X obj 532 29 declare -lib ofelia;
#X connect 0 0 1 0;
#X connect 1 0 2 0;
#X connect 2 0 3 0;
#X connect 3 0 18 1;
#X connect 5 0 0 0;
#X connect 7 0 4 0;
#X connect 7 1 8 0;
#X connect 7 2 9 0;
#X connect 7 3 10 0;
#X connect 7 4 11 0;
#X connect 7 5 12 0;
#X connect 15 0 16 0;
#X connect 16 0 19 0;
#X connect 17 0 6 0;
#X connect 17 1 7 0;
#X connect 17 2 14 0;
#X connect 18 0 17 0;
#X connect 18 1 21 0;
#X connect 19 0 18 0;
#X connect 21 0 17 0;
#X connect 30 0 5 0;
