#N canvas 601 23 767 586 10;
#X obj 187 147 ofHead;
#X text 233 147 the start of a rendering chain.;
#X obj 187 127 tgl 15 0 empty empty empty 17 7 0 10 -262144 -1 -1 0
1;
#X text 211 126 enable/disable rendering.;
#X floatatom 236 341 5 0 0 0 - - -, f 5;
#X floatatom 285 341 5 0 0 0 - - -, f 5;
#X obj 187 315 ofSetFillMode FILLED;
#X obj 304 295 tgl 15 0 empty empty empty 17 7 0 10 -262144 -1 -1 0
1;
#X floatatom 334 341 5 0 0 0 - - -, f 5;
#X text 374 340 change width \, height \, depth.;
#X text 351 361 note: if one of the dimensions is set to non-zero value
\, it will use the specified dimensions and be scaled accordingly.
;
#X obj 187 169 ofSetDepthTest ON;
#X obj 187 393 ofSetDepthTest OFF;
#X text 300 169 enable the depth test.;
#X text 307 393 disable the depth test.;
#X floatatom 31 445 5 0 0 0 - - -, f 5;
#X floatatom 63 465 5 0 0 0 - - -, f 5;
#X floatatom 95 485 5 0 0 0 - - -, f 5;
#X floatatom 127 505 5 0 0 0 - - -, f 5;
#X floatatom 160 525 5 0 0 0 - - -, f 5;
#X text 71 444 the number of stored vertices.;
#X text 104 464 the number of stored indices.;
#X text 136 484 the number of stored normals.;
#X text 162 504 the number of stored texture coordinates.;
#X text 195 524 the number of stored colors.;
#X text 325 294 note: the mesh will be drawn as a wireframe when it's
not filled.;
#X obj 187 191 t b b;
#X obj 187 271 ofTranslate;
#X obj 31 90 ofWindow 600 400 LEFT TOP 1 63;
#X obj 31 127 ofLoadMesh3d \; @coloredCube \; box 120 120 120 1 1 1
\; color \; 0 0 255 255 \; 255 0 255 255 \; 0 255 255 255 \; 255 255
255 255 \; 255 0 255 255 \; 255 0 0 255 \; 255 255 255 255 \; 255 255
0 255 \; 0 0 0 255 \; 0 0 255 255 \; 0 255 0 255 \; 0 255 255 255 \;
255 0 0 255 \; 0 0 0 255 \; 255 255 0 255 \; 0 255 0 255 \; 0 0 0 255
\; 255 0 0 255 \; 0 0 255 255 \; 255 0 255 255 \; 0 255 255 255 \;
255 255 255 255 \; 0 255 0 255 \; 255 255 0 255 \;;
#X obj 187 361 ofDrawMesh3d @coloredCube;
#X text 29 26 [ofLoadMesh3d] object allows you to store a set of arrays
for a 3d mesh and [ofDrawMesh3d] object allows you to draw the stored
mesh3d.;
#X obj 187 293 ofRotateXYZ;
#X obj 214 212 ofExpr \; ofGetWidth/2 \; ofGetHeight/2 \; ofGetFrameNum*0.75
\;;
#X connect 0 0 11 0;
#X connect 2 0 0 0;
#X connect 4 0 30 1;
#X connect 5 0 30 2;
#X connect 6 0 30 0;
#X connect 7 0 6 1;
#X connect 8 0 30 3;
#X connect 11 0 26 0;
#X connect 26 0 27 0;
#X connect 26 1 33 0;
#X connect 27 0 32 0;
#X connect 29 0 15 0;
#X connect 29 1 16 0;
#X connect 29 2 17 0;
#X connect 29 3 18 0;
#X connect 29 4 19 0;
#X connect 30 0 12 0;
#X connect 32 0 6 0;
#X connect 33 0 27 1;
#X connect 33 1 27 2;
#X connect 33 2 32 1;
#X connect 33 2 32 2;
#X connect 33 2 32 3;
