#N canvas 641 23 692 851 10;
#X obj 74 149 list split 1;
#X obj 31 127 ofMouseListener;
#X obj 108 215 ofLoadVec3f @points;
#X obj 108 193 ofPrepend add;
#X obj 108 171 list append 0;
#X obj 31 91 ofWindow 640 400 LEFT TOP 1 255;
#X obj 31 317 ofHead;
#X obj 82 383 ofCountUntil;
#X obj 82 405 t b f;
#X obj 82 449 ofEditVec3f @points;
#X msg 82 427 sub 0 0 4;
#X obj 48 657 ofLoadVec3f @direction;
#X obj 48 613 ofGetVec3f @points;
#X obj 48 635 ofPrepend load;
#X obj 48 679 sel 1;
#X obj 48 701 ofGetVec3f @points;
#X obj 48 811 ofPrepend sub;
#X obj 48 833 ofEditVec3f @direction;
#X obj 201 877 ofGetVec3fLength @direction;
#X obj 48 855 t b b, f 26;
#X msg 48 877 normalize;
#X obj 48 899 ofEditVec3f @direction;
#X obj 48 921 ofGetVec3f @direction;
#X obj 48 943 ofPrepend load;
#X obj 48 965 t a a, f 26;
#X obj 48 987 ofLoadVec3f @toTheLeft;
#X obj 201 987 ofLoadVec3f @toTheRight;
#X msg 48 1009 rotate -90 0 0 1;
#X msg 201 1009 rotate 90 0 0 1;
#X obj 48 1031 ofEditVec3f @toTheLeft;
#X obj 201 1031 ofEditVec3f @toTheRight;
#X obj 48 723 ofPrepend load;
#X obj 48 745 ofLoadVec3f @thisPoint;
#X obj 48 569 t b f;
#X obj 48 767 sel 1;
#X obj 48 789 ofGetVec3f @thisPoint;
#X obj 201 943 ofVal @thickness;
#X obj 48 1053 ofVal @thickness;
#X obj 48 1075 ofPrepend mult;
#X obj 48 1097 ofEditVec3f @toTheLeft;
#X obj 48 1119 ofGetVec3f @thisPoint;
#X obj 48 1141 ofPrepend add;
#X obj 48 1163 ofEditVec3f @toTheLeft;
#X obj 201 1053 ofVal @thickness;
#X obj 201 1075 ofPrepend mult;
#X obj 201 1119 ofGetVec3f @thisPoint;
#X obj 201 1141 ofPrepend add;
#X obj 201 1097 ofEditVec3f @toTheRight;
#X obj 201 1163 ofEditVec3f @toTheRight;
#X obj 201 1185 ofGetVec3f @toTheRight;
#X obj 48 1185 ofGetVec3f @toTheLeft;
#X obj 48 1295 ofLoadMesh3d @mesh;
#X msg 65 476 clear \, primMode TRIANGLE_STRIP;
#X obj 65 498 ofSnd @toMesh;
#X obj 48 1207 list append, f 26;
#X obj 48 1229 ofPrepend vertex;
#X obj 65 1273 ofRcv @toMesh;
#X msg 31 149 clear;
#X obj 48 547 ofCountUntil;
#X obj 75 591 + 1;
#X obj 82 361 ofVal @numPoints;
#X obj 48 525 ofExpr if(@numPoints \, @numPoints-1 \, 0);
#X obj 48 1251 ofPrepend append;
#X obj 108 281 ofVal @numPoints;
#X msg 165 259 erase 0;
#X obj 108 237 moses 1001;
#X obj 201 899 ofMap 0 60 10 1;
#X obj 201 921 ofClamp 1 10;
#X text 220 238 if the size of the vector exceeds 1000 \, erase the
first element from the vector.;
#X text 29 27 move the cursor to generate ribbons along the mouse trail
that descend in space. click on the screen to clear the ribbons.;
#X text 301 1383 This example is based on the openFrameworks example
"cameraRibbonExample" which is written by James George.;
#X obj 31 339 t b b b b;
#X obj 31 1344 ofDrawMesh3d @mesh;
#X obj 31 1322 ofSetColor 0;
#X connect 0 1 4 0;
#X connect 1 0 57 0;
#X connect 1 1 0 0;
#X connect 2 0 65 0;
#X connect 3 0 2 0;
#X connect 4 0 3 0;
#X connect 6 0 71 0;
#X connect 7 0 8 0;
#X connect 8 0 10 0;
#X connect 8 1 9 0;
#X connect 10 0 9 0;
#X connect 11 0 14 0;
#X connect 12 0 13 0;
#X connect 13 0 11 0;
#X connect 14 0 15 0;
#X connect 15 0 31 0;
#X connect 16 0 17 0;
#X connect 17 0 19 0;
#X connect 18 0 66 0;
#X connect 19 0 20 0;
#X connect 19 1 18 0;
#X connect 20 0 21 0;
#X connect 21 0 22 0;
#X connect 22 0 23 0;
#X connect 23 0 24 0;
#X connect 24 0 25 0;
#X connect 24 1 26 0;
#X connect 25 0 27 0;
#X connect 26 0 28 0;
#X connect 27 0 29 0;
#X connect 28 0 30 0;
#X connect 29 0 37 0;
#X connect 30 0 43 0;
#X connect 31 0 32 0;
#X connect 32 0 34 0;
#X connect 33 0 12 0;
#X connect 33 1 15 0;
#X connect 33 1 59 0;
#X connect 34 0 35 0;
#X connect 35 0 16 0;
#X connect 37 0 38 0;
#X connect 38 0 39 0;
#X connect 39 0 40 0;
#X connect 40 0 41 0;
#X connect 41 0 42 0;
#X connect 42 0 50 0;
#X connect 43 0 44 0;
#X connect 44 0 47 0;
#X connect 45 0 46 0;
#X connect 46 0 48 0;
#X connect 47 0 45 0;
#X connect 48 0 49 0;
#X connect 49 0 54 1;
#X connect 50 0 54 0;
#X connect 52 0 53 0;
#X connect 54 0 55 0;
#X connect 55 0 62 0;
#X connect 56 0 51 0;
#X connect 57 0 2 0;
#X connect 58 0 33 0;
#X connect 59 0 12 0;
#X connect 60 0 7 0;
#X connect 61 0 58 0;
#X connect 62 0 51 0;
#X connect 64 0 2 0;
#X connect 65 0 63 0;
#X connect 65 1 64 0;
#X connect 66 0 67 0;
#X connect 67 0 36 0;
#X connect 71 0 73 0;
#X connect 71 1 61 0;
#X connect 71 2 52 0;
#X connect 71 3 60 0;
#X connect 73 0 72 0;
