#N canvas 641 23 700 851 10;
#X obj 27 72 ofWindow 640 400 LEFT TOP 1 51;
#X text 311 848 This example was originally written in Processing.
https://processing.org/examples/brownian.html;
#X obj 27 108 ofWindowLoadBang;
#X obj 27 250 ofLoadVec2f @pos;
#X obj 27 50 ofRcv @toWindow;
#X obj 27 130 ofDefine \; @num = 2000 \; @range = 6 \; $o1 = ofGetWidth/2
\; $o2 = ofGetHeight/2 \; $o3 = @num-1 \;;
#X obj 27 206 pack f f f, f 20;
#X msg 27 228 insert \$1 \$2 0 \$3;
#X text 147 228 insert center position to the index range "0~1999".
;
#X obj 27 294 ofSnd @toWindow;
#X obj 27 330 ofHead;
#X obj 174 406 ofCountUntil;
#X obj 201 451 + 1;
#X obj 174 428 t b f;
#X obj 174 522 ofEditVec2f @pos;
#X obj 174 478 ofGetVec2f @pos;
#X obj 174 500 ofPrepend assign;
#X text 283 522 shift all elements 1 place to the left.;
#X obj 27 450 ofEditVec2f @pos;
#X obj 27 406 pack f f, f 12;
#X obj 27 647 ofExpr @num-1;
#X obj 27 669 ofCountUntil;
#X obj 27 691 t b f;
#X obj 27 796 ofSetColor;
#X obj 54 767 ofPrepend set;
#X obj 255 793 ofGetVec2f @pos;
#X obj 255 767 t b f;
#X obj 154 793 ofGetVec2f @pos;
#X obj 154 767 t b f;
#X obj 54 713 ofExpr \; $o1 = ($i1 + 1) / @num * 204 + 51 \; $o2 =
$i1 \; $o3 = $i1 + 1 \;;
#X obj 27 818 ofLine2d, f 38;
#X obj 27 428 ofPrepend add;
#X obj 27 352 ofExpr \; random(-@range \, @range) \; random(-@range
\, @range) \; @num-1 \;, f 25;
#X obj 27 472 ofGetVec2f @pos;
#X obj 27 581 pack f f, f 20;
#X obj 27 603 ofPrepend assign;
#X obj 27 625 ofEditVec2f @pos;
#X text 267 819 draw a line connecting the points.;
#X msg 27 272 frameRate 30;
#X text 23 19 recording random movement as a continuous line.;
#X obj 27 494 ofExpr \; if ($i1 < 0 \, 0 \, if ($i1 > ofGetWidth \,
ofGetWidth \, $i1)) \; if ($i2 < 0 \, 0 \, if ($i2 > ofGetHeight \,
ofGetHeight \, $i2)) \;, f 20;
#X text 137 625 put a new value at the end of the array and constrain
all points to the screen.;
#X connect 2 0 5 0;
#X connect 3 0 38 0;
#X connect 4 0 0 0;
#X connect 5 0 6 0;
#X connect 5 1 6 1;
#X connect 5 2 6 2;
#X connect 6 0 7 0;
#X connect 7 0 3 0;
#X connect 10 0 32 0;
#X connect 11 0 13 0;
#X connect 12 0 15 0;
#X connect 13 0 15 0;
#X connect 13 1 12 0;
#X connect 13 1 14 0;
#X connect 15 0 16 0;
#X connect 16 0 14 0;
#X connect 18 0 33 0;
#X connect 19 0 31 0;
#X connect 20 0 21 0;
#X connect 21 0 22 0;
#X connect 22 0 23 0;
#X connect 22 1 29 0;
#X connect 23 0 30 0;
#X connect 24 0 23 0;
#X connect 25 0 30 2;
#X connect 26 0 25 0;
#X connect 26 1 25 0;
#X connect 27 0 30 1;
#X connect 28 0 27 0;
#X connect 28 1 27 0;
#X connect 29 0 24 0;
#X connect 29 1 28 0;
#X connect 29 2 26 0;
#X connect 31 0 18 0;
#X connect 32 0 19 0;
#X connect 32 1 19 1;
#X connect 32 2 18 0;
#X connect 32 2 33 0;
#X connect 32 2 36 0;
#X connect 32 2 11 0;
#X connect 33 0 40 0;
#X connect 34 0 35 0;
#X connect 35 0 36 0;
#X connect 36 0 20 0;
#X connect 38 0 9 0;
#X connect 40 0 34 0;
#X connect 40 1 34 1;
