#N canvas 641 23 688 505 10;
#X obj 30 142 ofMouseListener;
#X obj 30 164 bang;
#X obj 511 387 ofAnimate;
#X obj 30 245 ofHead;
#X obj 471 414 ofSetColor 51 255 118;
#X obj 30 105 ofWindow 640 400 LEFT TOP 1 51;
#X obj 511 365 ofAppend EXPO_INOUT;
#X msg 567 338 640 1000;
#X msg 511 338 0 1900;
#X obj 511 316 sel 0 1;
#X obj 30 267 t b b b b, f 74;
#X obj 471 436 ofRect 0 400;
#X obj 364 387 ofAnimate;
#X obj 364 365 ofAppend EXPO_INOUT;
#X obj 364 316 sel 0 1;
#X obj 324 436 ofRect 0 400;
#X obj 217 387 ofAnimate;
#X obj 217 365 ofAppend EXPO_INOUT;
#X obj 217 316 sel 0 1;
#X obj 177 436 ofRect 0 400;
#X obj 70 387 ofAnimate;
#X obj 70 365 ofAppend EXPO_INOUT;
#X obj 70 316 sel 0 1;
#X obj 30 436 ofRect 0 400;
#X obj 324 414 ofSetColor 255 0 66;
#X obj 177 414 ofSetColor 46 72 103;
#X obj 30 414 ofSetColor 63 162 255;
#X msg 420 338 640 1300;
#X msg 364 338 0 1600;
#X msg 273 338 640 1600;
#X msg 217 338 0 1300;
#X msg 70 338 0 1000;
#X msg 126 338 640 1900;
#X obj 30 186 ofCount 0 1 1;
#X obj 30 208 ofSnd @wipe;
#X obj 70 294 ofRcv @wipe;
#X obj 217 294 ofRcv @wipe;
#X obj 364 294 ofRcv @wipe;
#X obj 511 294 ofRcv @wipe;
#X text 29 27 click on the screen to perform a linear wipe animation.
[ofAnimate] object allows you to smoothly change a value over time.
you can also set the easing type of the animation. see the help file
for more info.;
#X text 120 186 toggle between 0 and 1;
#X connect 0 0 1 0;
#X connect 1 0 33 0;
#X connect 2 0 11 1;
#X connect 3 0 10 0;
#X connect 4 0 11 0;
#X connect 6 0 2 0;
#X connect 7 0 6 0;
#X connect 8 0 6 0;
#X connect 9 0 8 0;
#X connect 9 1 7 0;
#X connect 10 0 26 0;
#X connect 10 1 25 0;
#X connect 10 2 24 0;
#X connect 10 3 4 0;
#X connect 12 0 15 1;
#X connect 13 0 12 0;
#X connect 14 0 28 0;
#X connect 14 1 27 0;
#X connect 16 0 19 1;
#X connect 17 0 16 0;
#X connect 18 0 30 0;
#X connect 18 1 29 0;
#X connect 20 0 23 1;
#X connect 21 0 20 0;
#X connect 22 0 31 0;
#X connect 22 1 32 0;
#X connect 24 0 15 0;
#X connect 25 0 19 0;
#X connect 26 0 23 0;
#X connect 27 0 13 0;
#X connect 28 0 13 0;
#X connect 29 0 17 0;
#X connect 30 0 17 0;
#X connect 31 0 21 0;
#X connect 32 0 21 0;
#X connect 33 0 34 0;
#X connect 35 0 22 0;
#X connect 36 0 18 0;
#X connect 37 0 14 0;
#X connect 38 0 9 0;
