#N canvas 641 23 647 609 10;
#X declare -lib ofelia;
#X obj 27 203 ofHead;
#X obj 482 29 declare -lib ofelia;
#X text 200 117 load .vert and .frag shaders from the path.;
#X obj 315 168 ofMouseListener;
#X obj 358 189 list split 1;
#X obj 392 264 ofMap 0 1 -60 60 ON;
#X obj 392 285 + 60;
#X obj 392 306 ofSnd @rotation;
#X obj 27 80 ofWindow 640 400 LEFT TOP 1 55;
#X obj 27 116 ofLoadShader @shader shader;
#X obj 27 142 ofCreateImage @img 80 60 GRAY;
#X obj 27 168 ofLoadMesh2d @plane plane 400 300 80 60 1;
#X obj 27 224 t b b;
#N canvas 641 307 541 483 update 0;
#X obj 160 47 ofGetImageDimen @img;
#X obj 160 90 ofCountUntil;
#X obj 160 112 t b f;
#X obj 160 156 ofCountUntil;
#X obj 160 68 unpack f f;
#X obj 160 134 f;
#X obj 160 178 t f f;
#X obj 287 339 ofNoise;
#X obj 287 318 pack f f f, f 22;
#X obj 287 360 * 255;
#X obj 160 428 ofEditImage @img;
#X obj 160 407 ofPrepend colorAt;
#X obj 160 386 pack f f f;
#X text 231 386 x \, y \, color.;
#X obj 187 135 ofVal #x;
#X obj 187 198 ofVal #y;
#X obj 160 26 inlet;
#X obj 160 220 ofExpr \; $o1 = #x \; $o2 = #y \; _noiseScale = (@mouseX
/ ofGetWidth) * 0.1 \; _noiseVel = ofGetElapsedTime \; $o3 = #x * _noiseScale
\; $o4 = #y * _noiseScale \; $o5 = _noiseVel \;;
#X text 291 46 get image dimensions.;
#X text 240 90 count from 0 to imageWidth-1;
#X text 240 156 count from 0 to imageHeight-1;
#X connect 0 0 4 0;
#X connect 1 0 2 0;
#X connect 2 0 5 0;
#X connect 2 1 14 0;
#X connect 3 0 6 0;
#X connect 4 0 1 0;
#X connect 4 1 5 1;
#X connect 5 0 3 0;
#X connect 6 0 17 0;
#X connect 6 1 15 0;
#X connect 7 0 9 0;
#X connect 8 0 7 0;
#X connect 9 0 12 2;
#X connect 11 0 10 0;
#X connect 12 0 11 0;
#X connect 16 0 0 0;
#X connect 17 0 12 0;
#X connect 17 1 12 1;
#X connect 17 2 8 0;
#X connect 17 3 8 1;
#X connect 17 4 8 2;
#X restore 54 245 pd update;
#X obj 101 287 ofBindImageTex @img;
#X obj 101 308 ofApplyShader @shader;
#X obj 101 329 t b b;
#X obj 128 350 ofExpr \; ofGetWidth / 2 \; ofGetHeight / 2 \;;
#X obj 101 398 ofTranslate;
#X obj 101 445 ofRotate 0 1 0 0;
#X obj 124 424 ofRcv @rotation;
#X obj 101 466 ofSetFillMode OUTLINE;
#X obj 101 487 ofDrawMesh2d @plane;
#X obj 27 513 ofDrawImage @img;
#X obj 27 267 ofSepMatrix 2;
#X text 290 547 This example is based on the openFrameworks example
"08_displacementMap";
#X obj 392 210 ofDefine \; @mouseX = $i1 \; @mouseY = $i2 \; $o1 =
@mouseY / ofGetHeight \;;
#X text 25 23 please find "Textures as Data" section from http://openframeworks.cc/ofBook/chapters/shaders.html
to see the original code and learn more about how it works.;
#X connect 0 0 12 0;
#X connect 3 1 4 0;
#X connect 4 1 26 0;
#X connect 5 0 6 0;
#X connect 6 0 7 0;
#X connect 12 0 24 0;
#X connect 12 1 13 0;
#X connect 14 0 15 0;
#X connect 15 0 16 0;
#X connect 16 0 18 0;
#X connect 16 1 17 0;
#X connect 17 0 18 1;
#X connect 17 1 18 2;
#X connect 18 0 19 0;
#X connect 19 0 21 0;
#X connect 20 0 19 1;
#X connect 21 0 22 0;
#X connect 24 0 23 0;
#X connect 24 1 14 0;
#X connect 26 0 5 0;
