#N canvas 641 23 690 770 10;
#X declare -lib ofelia;
#X obj 31 319 ofHead;
#X obj 31 239 ofMouseListener;
#X obj 31 620 ofTranslate;
#X obj 31 341 t b b;
#X obj 31 79 ofWindow 640 400 LEFT TOP 1 51;
#X text 192 136 variables used.;
#X obj 31 643 t b b, f 8;
#X obj 172 542 ofSetColor 76;
#X obj 172 564 t b b;
#X obj 172 665 ofTranslate;
#X obj 172 687 ofRectangle;
#X text 29 26 move the mouse across the screen to move the circle.
the program constrains the circle to its box.;
#X text 342 712 This example was originally written in Processing.
https://processing.org/examples/constrain.html;
#X obj 31 687 ofCircle;
#X obj 58 363 ofExpr \; _dx = @mouseX - @mx \; _dy = @mouseY - @my
\; $o1 = if (abs(_dx) > 0.1 \, @mx + _dx * @easing \, @mx) \; $o2 =
@inner \; $o3 = ofGetWidth - @inner \; $o4 = if (abs(_dy) > 0.1 \,
@my + _dy * @easing \, @my) \; $o5 = @inner \; $o6 = ofGetHeight -
@inner \;;
#X obj 199 586 ofExpr \; $o1 = @edge \; _e = @edge * 2 \; $o2 = ofGetWidth
- _e \; $o3 = ofGetHeight - _e \;;
#X obj 58 472 ofClamp, f 21;
#X obj 243 472 ofClamp, f 21;
#X obj 74 261 ofDefine \; @mouseX = $i2 \; @mouseY = $i3 \;;
#X obj 58 494 ofSnd @mx;
#X obj 243 494 ofSnd @my;
#X obj 52 576 ofRcv @mx;
#X obj 73 598 ofRcv @my;
#X obj 31 115 ofWindowLoadBang;
#X obj 76 665 ofVal @radius;
#X obj 31 137 ofDefine \; @easing = 0.05 \; @radius = 24 \; @edge =
100 \; @inner = @edge + @radius \; @mx \; @my \;;
#X obj 31 542 ofSetColor 255;
#X obj 31 520 ofSepMatrix 2, f 24;
#X text 187 520 separate render chains in matrix.;
#X text 378 471 clamp a value between min and max.;
#X obj 536 29 declare -lib ofelia;
#X connect 0 0 3 0;
#X connect 1 1 18 0;
#X connect 2 0 6 0;
#X connect 3 0 27 0;
#X connect 3 1 14 0;
#X connect 6 0 13 0;
#X connect 6 1 24 0;
#X connect 7 0 8 0;
#X connect 8 0 9 0;
#X connect 8 1 15 0;
#X connect 9 0 10 0;
#X connect 14 0 16 0;
#X connect 14 1 16 1;
#X connect 14 2 16 2;
#X connect 14 3 17 0;
#X connect 14 4 17 1;
#X connect 14 5 17 2;
#X connect 15 0 9 1;
#X connect 15 0 9 2;
#X connect 15 1 10 1;
#X connect 15 2 10 2;
#X connect 16 0 19 0;
#X connect 17 0 20 0;
#X connect 21 0 2 1;
#X connect 22 0 2 2;
#X connect 23 0 25 0;
#X connect 24 0 13 1;
#X connect 26 0 2 0;
#X connect 27 0 26 0;
#X connect 27 1 7 0;
