#N canvas 641 23 695 545 10;
#X declare -lib ofelia;
#X obj 33 78 ofWindow 640 400;
#X obj 33 99 ofSetBgColor 55;
#X obj 127 154 ofLoadPath2d \; @star \; star 50 20 5 \;;
#X obj 33 154 ofLoadPath2d \; @circle \; circle 40 \;;
#X obj 221 154 ofLoadPath2d \; @tri \; isoTriangle 90 80 \;;
#X obj 435 154 ofLoadPath2d \; @rect \; rectangle 70 90 \;;
#X obj 35 217 ofMouseListener, f 37;
#X obj 35 343 ofSnd @mousePressed;
#X obj 144 238 ofSnd @mouseMoved;
#X obj 254 238 ofSnd @mouseReleased;
#X obj 52 259 ofGetLastRenderOrder;
#X obj 35 301 ofCountUntil;
#X obj 81 280 ofGetFirstRenderOrder;
#X obj 35 238 t b b b l;
#X obj 35 322 list append;
#X text 113 323 order \, buttonID \, mouseX \, mouseY.;
#X text 118 301 count from last render order to first render order.
;
#X obj 343 154 ofLoadPath2d \; @heart \; heart 84 80 \;;
#X obj 547 29 declare -lib ofelia;
#N canvas 641 103 757 731 circle 0;
#X obj 197 646 ofSetColor orange;
#X obj 197 667 ofDrawPath2d @circle;
#X obj 230 469 ofGetLastRenderOrder;
#X obj 230 154 route 1;
#X obj 257 260 ofIsPointInsidePath2d @circle;
#X obj 230 175 t l l;
#X obj 230 328 spigot;
#X obj 257 239 pack f f, f 10;
#X obj 583 104 route 1;
#X obj 197 625 ofTranslate;
#X obj 257 196 ofExpr \; $i1 - #ax \; $i2 - #ay \;;
#X obj 230 349 ofExpr \; #cx = $i1 \; #cy = $i2 \;;
#X obj 400 125 ofExpr \; #dx = $i1 - (#cx - #ax) \; #dy = $i2 - (#cy
- #ay) \; $o1 = #dx \; $o2 = #dy \;;
#X obj 257 281 ofSnd #selected;
#X obj 583 179 ofSnd #selected;
#X obj 583 125 ofExpr \; #ax = #dx \; #ay = #dy \; $o1 = 0 \;;
#X obj 263 307 ofRcv #selected;
#X obj 316 583 ofRcv #selected;
#X obj 316 604 ofExpr \; if ($i1 \, 200 \, 255) \;;
#X obj 230 132 spigot 1;
#X obj 400 307 ofRcv #selected;
#X obj 400 328 == 0;
#X obj 275 109 ofRcv @selectGate;
#X obj 400 350 ofSnd @selectGate;
#X obj 239 425 ofRcv #selected;
#X obj 239 446 sel 1;
#X obj 230 397 loadbang;
#X obj 230 490 + 1;
#X obj 197 557 ofHead;
#X obj 230 36 ofRcv @mousePressed;
#X obj 230 510 ofSnd #order;
#X obj 275 62 ofRcv #order;
#X obj 400 36 ofRcv @mouseMoved;
#X obj 583 35 ofRcv @mouseReleased;
#X obj 230 83 route 50;
#X obj 230 536 ofRcv #order;
#X obj 400 190 pack f f, f 24;
#X obj 400 104 route 1;
#X obj 400 83 spigot;
#X obj 433 62 ofRcv #selected;
#X obj 400 211 ofSnd #pos;
#X obj 225 583 ofRcv #pos;
#X obj 225 604 ofPrepend set;
#X text 440 614 reduce alpha when selected.;
#X text 311 536 make the shape appear on top when selected.;
#X obj 583 83 spigot;
#X obj 616 62 ofRcv #selected;
#X obj 42 36 inlet;
#X obj 42 187 ofSnd #pos;
#X text 83 36 set position.;
#X obj 445 646 ofRcv #selected;
#X obj 445 667 outlet;
#X text 112 70 clicked x \, y pos.;
#X text 112 91 actual x \, y pos.;
#X text 112 110 dragged x \, y pos.;
#X text 434 328 close the selectGate if selected.;
#X obj 42 57 ofDefine \; #cx \; #cy \; #ax = $i1 \; #ay = $i2 \; #dx
\; #dy \; $o1 = #ax \; $o2 = #ay \;;
#X obj 42 166 pack f f, f 10;
#X connect 0 0 1 0;
#X connect 2 0 27 0;
#X connect 3 0 5 0;
#X connect 4 0 13 0;
#X connect 5 0 6 0;
#X connect 5 1 10 0;
#X connect 6 0 11 0;
#X connect 7 0 4 0;
#X connect 8 0 15 0;
#X connect 9 0 0 0;
#X connect 10 0 7 0;
#X connect 10 1 7 1;
#X connect 12 0 36 0;
#X connect 12 1 36 1;
#X connect 15 0 14 0;
#X connect 16 0 6 1;
#X connect 17 0 18 0;
#X connect 18 0 0 4;
#X connect 19 0 3 0;
#X connect 20 0 21 0;
#X connect 21 0 23 0;
#X connect 22 0 19 1;
#X connect 24 0 25 0;
#X connect 25 0 2 0;
#X connect 26 0 2 0;
#X connect 27 0 30 0;
#X connect 28 0 9 0;
#X connect 29 0 34 0;
#X connect 31 0 34 1;
#X connect 32 0 38 0;
#X connect 33 0 45 0;
#X connect 34 0 19 0;
#X connect 35 0 28 1;
#X connect 36 0 40 0;
#X connect 37 0 12 0;
#X connect 38 0 37 0;
#X connect 39 0 38 1;
#X connect 41 0 42 0;
#X connect 42 0 9 0;
#X connect 45 0 8 0;
#X connect 46 0 45 1;
#X connect 47 0 56 0;
#X connect 50 0 51 0;
#X connect 56 0 57 0;
#X connect 56 1 57 1;
#X connect 57 0 48 0;
#X restore 35 440 pd circle;
#X msg 35 419 100 100;
#X floatatom 35 461 5 0 0 0 - - -, f 5;
#X floatatom 115 461 5 0 0 0 - - -, f 5;
#X floatatom 195 461 5 0 0 0 - - -, f 5;
#X floatatom 275 461 5 0 0 0 - - -, f 5;
#X floatatom 355 461 5 0 0 0 - - -, f 5;
#N canvas 641 102 757 731 star 0;
#X obj 230 469 ofGetLastRenderOrder;
#X obj 230 154 route 1;
#X obj 230 175 t l l;
#X obj 230 328 spigot;
#X obj 257 239 pack f f, f 10;
#X obj 583 104 route 1;
#X obj 197 625 ofTranslate;
#X obj 257 196 ofExpr \; $i1 - #ax \; $i2 - #ay \;;
#X obj 230 349 ofExpr \; #cx = $i1 \; #cy = $i2 \;;
#X obj 400 125 ofExpr \; #dx = $i1 - (#cx - #ax) \; #dy = $i2 - (#cy
- #ay) \; $o1 = #dx \; $o2 = #dy \;;
#X obj 257 281 ofSnd #selected;
#X obj 583 179 ofSnd #selected;
#X obj 583 125 ofExpr \; #ax = #dx \; #ay = #dy \; $o1 = 0 \;;
#X obj 263 307 ofRcv #selected;
#X obj 316 583 ofRcv #selected;
#X obj 316 604 ofExpr \; if ($i1 \, 200 \, 255) \;;
#X obj 230 132 spigot 1;
#X obj 400 307 ofRcv #selected;
#X obj 400 328 == 0;
#X obj 275 109 ofRcv @selectGate;
#X obj 400 350 ofSnd @selectGate;
#X obj 239 425 ofRcv #selected;
#X obj 239 446 sel 1;
#X obj 230 397 loadbang;
#X obj 230 490 + 1;
#X obj 197 557 ofHead;
#X obj 230 36 ofRcv @mousePressed;
#X obj 230 510 ofSnd #order;
#X obj 275 62 ofRcv #order;
#X obj 400 36 ofRcv @mouseMoved;
#X obj 583 35 ofRcv @mouseReleased;
#X obj 230 83 route 50;
#X obj 230 536 ofRcv #order;
#X obj 400 190 pack f f, f 24;
#X obj 400 104 route 1;
#X obj 400 83 spigot;
#X obj 433 62 ofRcv #selected;
#X obj 400 211 ofSnd #pos;
#X obj 225 583 ofRcv #pos;
#X obj 225 604 ofPrepend set;
#X text 440 614 reduce alpha when selected.;
#X text 311 536 make the shape appear on top when selected.;
#X obj 583 83 spigot;
#X obj 616 62 ofRcv #selected;
#X obj 42 36 inlet;
#X text 83 36 set position.;
#X obj 445 646 ofRcv #selected;
#X obj 445 667 outlet;
#X text 434 328 close the selectGate if selected.;
#X obj 257 260 ofIsPointInsidePath2d @star;
#X obj 197 667 ofDrawPath2d @star;
#X obj 197 646 ofSetColor yellow;
#X obj 42 187 ofSnd #pos;
#X text 112 70 clicked x \, y pos.;
#X text 112 91 actual x \, y pos.;
#X text 112 110 dragged x \, y pos.;
#X obj 42 57 ofDefine \; #cx \; #cy \; #ax = $i1 \; #ay = $i2 \; #dx
\; #dy \; $o1 = #ax \; $o2 = #ay \;;
#X obj 42 166 pack f f, f 10;
#X connect 0 0 24 0;
#X connect 1 0 2 0;
#X connect 2 0 3 0;
#X connect 2 1 7 0;
#X connect 3 0 8 0;
#X connect 4 0 49 0;
#X connect 5 0 12 0;
#X connect 6 0 51 0;
#X connect 7 0 4 0;
#X connect 7 1 4 1;
#X connect 9 0 33 0;
#X connect 9 1 33 1;
#X connect 12 0 11 0;
#X connect 13 0 3 1;
#X connect 14 0 15 0;
#X connect 15 0 51 4;
#X connect 16 0 1 0;
#X connect 17 0 18 0;
#X connect 18 0 20 0;
#X connect 19 0 16 1;
#X connect 21 0 22 0;
#X connect 22 0 0 0;
#X connect 23 0 0 0;
#X connect 24 0 27 0;
#X connect 25 0 6 0;
#X connect 26 0 31 0;
#X connect 28 0 31 1;
#X connect 29 0 35 0;
#X connect 30 0 42 0;
#X connect 31 0 16 0;
#X connect 32 0 25 1;
#X connect 33 0 37 0;
#X connect 34 0 9 0;
#X connect 35 0 34 0;
#X connect 36 0 35 1;
#X connect 38 0 39 0;
#X connect 39 0 6 0;
#X connect 42 0 5 0;
#X connect 43 0 42 1;
#X connect 44 0 56 0;
#X connect 46 0 47 0;
#X connect 49 0 10 0;
#X connect 51 0 50 0;
#X connect 56 0 57 0;
#X connect 56 1 57 1;
#X connect 57 0 52 0;
#X restore 115 440 pd star;
#N canvas 641 104 757 731 tri 0;
#X obj 230 469 ofGetLastRenderOrder;
#X obj 230 154 route 1;
#X obj 230 175 t l l;
#X obj 230 328 spigot;
#X obj 257 239 pack f f, f 10;
#X obj 583 104 route 1;
#X obj 197 625 ofTranslate;
#X obj 257 196 ofExpr \; $i1 - #ax \; $i2 - #ay \;;
#X obj 230 349 ofExpr \; #cx = $i1 \; #cy = $i2 \;;
#X obj 400 125 ofExpr \; #dx = $i1 - (#cx - #ax) \; #dy = $i2 - (#cy
- #ay) \; $o1 = #dx \; $o2 = #dy \;;
#X obj 257 281 ofSnd #selected;
#X obj 583 179 ofSnd #selected;
#X obj 583 125 ofExpr \; #ax = #dx \; #ay = #dy \; $o1 = 0 \;;
#X obj 263 307 ofRcv #selected;
#X obj 316 583 ofRcv #selected;
#X obj 316 604 ofExpr \; if ($i1 \, 200 \, 255) \;;
#X obj 230 132 spigot 1;
#X obj 400 307 ofRcv #selected;
#X obj 400 328 == 0;
#X obj 275 109 ofRcv @selectGate;
#X obj 400 350 ofSnd @selectGate;
#X obj 239 425 ofRcv #selected;
#X obj 239 446 sel 1;
#X obj 230 397 loadbang;
#X obj 230 490 + 1;
#X obj 197 557 ofHead;
#X obj 230 36 ofRcv @mousePressed;
#X obj 230 510 ofSnd #order;
#X obj 275 62 ofRcv #order;
#X obj 400 36 ofRcv @mouseMoved;
#X obj 583 35 ofRcv @mouseReleased;
#X obj 230 83 route 50;
#X obj 230 536 ofRcv #order;
#X obj 400 190 pack f f, f 24;
#X obj 400 104 route 1;
#X obj 400 83 spigot;
#X obj 433 62 ofRcv #selected;
#X obj 400 211 ofSnd #pos;
#X obj 225 583 ofRcv #pos;
#X obj 225 604 ofPrepend set;
#X text 440 614 reduce alpha when selected.;
#X text 311 536 make the shape appear on top when selected.;
#X obj 583 83 spigot;
#X obj 616 62 ofRcv #selected;
#X obj 42 36 inlet;
#X text 83 36 set position.;
#X obj 445 646 ofRcv #selected;
#X obj 445 667 outlet;
#X text 434 328 close the selectGate if selected.;
#X obj 257 260 ofIsPointInsidePath2d @tri;
#X obj 197 667 ofDrawPath2d @tri;
#X obj 197 646 ofSetColor 0 153 37;
#X obj 42 187 ofSnd #pos;
#X text 112 70 clicked x \, y pos.;
#X text 112 91 actual x \, y pos.;
#X text 112 110 dragged x \, y pos.;
#X obj 42 57 ofDefine \; #cx \; #cy \; #ax = $i1 \; #ay = $i2 \; #dx
\; #dy \; $o1 = #ax \; $o2 = #ay \;;
#X obj 42 166 pack f f, f 10;
#X connect 0 0 24 0;
#X connect 1 0 2 0;
#X connect 2 0 3 0;
#X connect 2 1 7 0;
#X connect 3 0 8 0;
#X connect 4 0 49 0;
#X connect 5 0 12 0;
#X connect 6 0 51 0;
#X connect 7 0 4 0;
#X connect 7 1 4 1;
#X connect 9 0 33 0;
#X connect 9 1 33 1;
#X connect 12 0 11 0;
#X connect 13 0 3 1;
#X connect 14 0 15 0;
#X connect 15 0 51 4;
#X connect 16 0 1 0;
#X connect 17 0 18 0;
#X connect 18 0 20 0;
#X connect 19 0 16 1;
#X connect 21 0 22 0;
#X connect 22 0 0 0;
#X connect 23 0 0 0;
#X connect 24 0 27 0;
#X connect 25 0 6 0;
#X connect 26 0 31 0;
#X connect 28 0 31 1;
#X connect 29 0 35 0;
#X connect 30 0 42 0;
#X connect 31 0 16 0;
#X connect 32 0 25 1;
#X connect 33 0 37 0;
#X connect 34 0 9 0;
#X connect 35 0 34 0;
#X connect 36 0 35 1;
#X connect 38 0 39 0;
#X connect 39 0 6 0;
#X connect 42 0 5 0;
#X connect 43 0 42 1;
#X connect 44 0 56 0;
#X connect 46 0 47 0;
#X connect 49 0 10 0;
#X connect 51 0 50 0;
#X connect 56 0 57 0;
#X connect 56 1 57 1;
#X connect 57 0 52 0;
#X restore 195 440 pd tri;
#N canvas 641 104 757 731 heart 0;
#X obj 230 469 ofGetLastRenderOrder;
#X obj 230 154 route 1;
#X obj 230 175 t l l;
#X obj 230 328 spigot;
#X obj 257 239 pack f f, f 10;
#X obj 583 104 route 1;
#X obj 197 625 ofTranslate;
#X obj 257 196 ofExpr \; $i1 - #ax \; $i2 - #ay \;;
#X obj 230 349 ofExpr \; #cx = $i1 \; #cy = $i2 \;;
#X obj 400 125 ofExpr \; #dx = $i1 - (#cx - #ax) \; #dy = $i2 - (#cy
- #ay) \; $o1 = #dx \; $o2 = #dy \;;
#X obj 257 281 ofSnd #selected;
#X obj 583 179 ofSnd #selected;
#X obj 583 125 ofExpr \; #ax = #dx \; #ay = #dy \; $o1 = 0 \;;
#X obj 263 307 ofRcv #selected;
#X obj 316 583 ofRcv #selected;
#X obj 316 604 ofExpr \; if ($i1 \, 200 \, 255) \;;
#X obj 230 132 spigot 1;
#X obj 400 307 ofRcv #selected;
#X obj 400 328 == 0;
#X obj 275 109 ofRcv @selectGate;
#X obj 400 350 ofSnd @selectGate;
#X obj 239 425 ofRcv #selected;
#X obj 239 446 sel 1;
#X obj 230 397 loadbang;
#X obj 230 490 + 1;
#X obj 197 557 ofHead;
#X obj 230 36 ofRcv @mousePressed;
#X obj 230 510 ofSnd #order;
#X obj 275 62 ofRcv #order;
#X obj 400 36 ofRcv @mouseMoved;
#X obj 583 35 ofRcv @mouseReleased;
#X obj 230 83 route 50;
#X obj 230 536 ofRcv #order;
#X obj 400 190 pack f f, f 24;
#X obj 400 104 route 1;
#X obj 400 83 spigot;
#X obj 433 62 ofRcv #selected;
#X obj 400 211 ofSnd #pos;
#X obj 225 583 ofRcv #pos;
#X obj 225 604 ofPrepend set;
#X text 440 614 reduce alpha when selected.;
#X text 311 536 make the shape appear on top when selected.;
#X obj 583 83 spigot;
#X obj 616 62 ofRcv #selected;
#X obj 42 36 inlet;
#X text 83 36 set position.;
#X obj 445 646 ofRcv #selected;
#X obj 445 667 outlet;
#X text 434 328 close the selectGate if selected.;
#X obj 257 260 ofIsPointInsidePath2d @heart;
#X obj 197 667 ofDrawPath2d @heart;
#X obj 197 646 ofSetColor red;
#X obj 42 187 ofSnd #pos;
#X text 112 70 clicked x \, y pos.;
#X text 112 91 actual x \, y pos.;
#X text 112 110 dragged x \, y pos.;
#X obj 42 57 ofDefine \; #cx \; #cy \; #ax = $i1 \; #ay = $i2 \; #dx
\; #dy \; $o1 = #ax \; $o2 = #ay \;;
#X obj 42 166 pack f f, f 10;
#X connect 0 0 24 0;
#X connect 1 0 2 0;
#X connect 2 0 3 0;
#X connect 2 1 7 0;
#X connect 3 0 8 0;
#X connect 4 0 49 0;
#X connect 5 0 12 0;
#X connect 6 0 51 0;
#X connect 7 0 4 0;
#X connect 7 1 4 1;
#X connect 9 0 33 0;
#X connect 9 1 33 1;
#X connect 12 0 11 0;
#X connect 13 0 3 1;
#X connect 14 0 15 0;
#X connect 15 0 51 4;
#X connect 16 0 1 0;
#X connect 17 0 18 0;
#X connect 18 0 20 0;
#X connect 19 0 16 1;
#X connect 21 0 22 0;
#X connect 22 0 0 0;
#X connect 23 0 0 0;
#X connect 24 0 27 0;
#X connect 25 0 6 0;
#X connect 26 0 31 0;
#X connect 28 0 31 1;
#X connect 29 0 35 0;
#X connect 30 0 42 0;
#X connect 31 0 16 0;
#X connect 32 0 25 1;
#X connect 33 0 37 0;
#X connect 34 0 9 0;
#X connect 35 0 34 0;
#X connect 36 0 35 1;
#X connect 38 0 39 0;
#X connect 39 0 6 0;
#X connect 42 0 5 0;
#X connect 43 0 42 1;
#X connect 44 0 56 0;
#X connect 46 0 47 0;
#X connect 49 0 10 0;
#X connect 51 0 50 0;
#X connect 56 0 57 0;
#X connect 56 1 57 1;
#X connect 57 0 52 0;
#X restore 275 440 pd heart;
#N canvas 641 103 757 731 rect 0;
#X obj 230 469 ofGetLastRenderOrder;
#X obj 230 154 route 1;
#X obj 230 175 t l l;
#X obj 230 328 spigot;
#X obj 257 239 pack f f, f 10;
#X obj 583 104 route 1;
#X obj 197 625 ofTranslate;
#X obj 257 196 ofExpr \; $i1 - #ax \; $i2 - #ay \;;
#X obj 230 349 ofExpr \; #cx = $i1 \; #cy = $i2 \;;
#X obj 400 125 ofExpr \; #dx = $i1 - (#cx - #ax) \; #dy = $i2 - (#cy
- #ay) \; $o1 = #dx \; $o2 = #dy \;;
#X obj 257 281 ofSnd #selected;
#X obj 583 179 ofSnd #selected;
#X obj 583 125 ofExpr \; #ax = #dx \; #ay = #dy \; $o1 = 0 \;;
#X obj 263 307 ofRcv #selected;
#X obj 316 583 ofRcv #selected;
#X obj 316 604 ofExpr \; if ($i1 \, 200 \, 255) \;;
#X obj 230 132 spigot 1;
#X obj 400 307 ofRcv #selected;
#X obj 400 328 == 0;
#X obj 275 109 ofRcv @selectGate;
#X obj 400 350 ofSnd @selectGate;
#X obj 239 425 ofRcv #selected;
#X obj 239 446 sel 1;
#X obj 230 397 loadbang;
#X obj 230 490 + 1;
#X obj 197 557 ofHead;
#X obj 230 36 ofRcv @mousePressed;
#X obj 230 510 ofSnd #order;
#X obj 275 62 ofRcv #order;
#X obj 400 36 ofRcv @mouseMoved;
#X obj 583 35 ofRcv @mouseReleased;
#X obj 230 83 route 50;
#X obj 230 536 ofRcv #order;
#X obj 400 190 pack f f, f 24;
#X obj 400 104 route 1;
#X obj 400 83 spigot;
#X obj 433 62 ofRcv #selected;
#X obj 400 211 ofSnd #pos;
#X obj 225 583 ofRcv #pos;
#X obj 225 604 ofPrepend set;
#X text 440 614 reduce alpha when selected.;
#X text 311 536 make the shape appear on top when selected.;
#X obj 583 83 spigot;
#X obj 616 62 ofRcv #selected;
#X obj 42 36 inlet;
#X text 83 36 set position.;
#X obj 445 646 ofRcv #selected;
#X obj 445 667 outlet;
#X text 434 328 close the selectGate if selected.;
#X obj 257 260 ofIsPointInsidePath2d @rect;
#X obj 197 667 ofDrawPath2d @rect;
#X obj 197 646 ofSetColor 0x3293ef;
#X obj 42 187 ofSnd #pos;
#X text 112 70 clicked x \, y pos.;
#X text 112 91 actual x \, y pos.;
#X text 112 110 dragged x \, y pos.;
#X obj 42 57 ofDefine \; #cx \; #cy \; #ax = $i1 \; #ay = $i2 \; #dx
\; #dy \; $o1 = #ax \; $o2 = #ay \;;
#X obj 42 166 pack f f, f 10;
#X connect 0 0 24 0;
#X connect 1 0 2 0;
#X connect 2 0 3 0;
#X connect 2 1 7 0;
#X connect 3 0 8 0;
#X connect 4 0 49 0;
#X connect 5 0 12 0;
#X connect 6 0 51 0;
#X connect 7 0 4 0;
#X connect 7 1 4 1;
#X connect 9 0 33 0;
#X connect 9 1 33 1;
#X connect 12 0 11 0;
#X connect 13 0 3 1;
#X connect 14 0 15 0;
#X connect 15 0 51 4;
#X connect 16 0 1 0;
#X connect 17 0 18 0;
#X connect 18 0 20 0;
#X connect 19 0 16 1;
#X connect 21 0 22 0;
#X connect 22 0 0 0;
#X connect 23 0 0 0;
#X connect 24 0 27 0;
#X connect 25 0 6 0;
#X connect 26 0 31 0;
#X connect 28 0 31 1;
#X connect 29 0 35 0;
#X connect 30 0 42 0;
#X connect 31 0 16 0;
#X connect 32 0 25 1;
#X connect 33 0 37 0;
#X connect 34 0 9 0;
#X connect 35 0 34 0;
#X connect 36 0 35 1;
#X connect 38 0 39 0;
#X connect 39 0 6 0;
#X connect 42 0 5 0;
#X connect 43 0 42 1;
#X connect 44 0 56 0;
#X connect 46 0 47 0;
#X connect 49 0 10 0;
#X connect 51 0 50 0;
#X connect 56 0 57 0;
#X connect 56 1 57 1;
#X connect 57 0 52 0;
#X restore 355 440 pd rect;
#X msg 115 419 300 150;
#X msg 195 419 500 80;
#X msg 275 419 200 300;
#X msg 355 419 400 250;
#X obj 35 398 loadbang;
#X obj 115 398 loadbang;
#X obj 195 398 loadbang;
#X obj 275 398 loadbang;
#X obj 355 398 loadbang;
#X text 31 133 load paths that will be used in the subpatches.;
#X text 29 27 click and drag the shapes using the mouse. the selected
shape will appear on top of other shapes.;
#X text 416 418 set initial positions.;
#X text 401 461 outputs 1 while selected.;
#X connect 0 0 1 0;
#X connect 6 0 13 0;
#X connect 6 1 8 0;
#X connect 6 2 9 0;
#X connect 10 0 11 1;
#X connect 11 0 14 0;
#X connect 12 0 11 2;
#X connect 13 0 11 0;
#X connect 13 1 10 0;
#X connect 13 2 12 0;
#X connect 13 3 14 1;
#X connect 14 0 7 0;
#X connect 19 0 21 0;
#X connect 20 0 19 0;
#X connect 26 0 22 0;
#X connect 27 0 23 0;
#X connect 28 0 24 0;
#X connect 29 0 25 0;
#X connect 30 0 26 0;
#X connect 31 0 27 0;
#X connect 32 0 28 0;
#X connect 33 0 29 0;
#X connect 34 0 20 0;
#X connect 35 0 30 0;
#X connect 36 0 31 0;
#X connect 37 0 32 0;
#X connect 38 0 33 0;
