#N canvas 641 23 690 554 10;
#X declare -lib ofelia;
#X obj 31 332 ofHead;
#X obj 31 252 ofMouseListener;
#X obj 31 446 ofTranslate;
#X obj 31 354 t b b;
#X obj 31 468 ofCircle 33;
#X obj 31 125 ofWindow 640 400 LEFT TOP 1 51;
#X text 29 27 move the mouse across the screen and the circle will
follow. between drawing each frame of the animation \, the program
calculates the difference between the position of the circle and the
cursor. if the distance is larger than 1 pixel \, the circle moves
part of the distance (0.05) from its current position toward the cursor.
;
#X text 332 491 This example was originally written in Processing.
https://processing.org/examples/easing.html;
#X obj 31 183 ofDefine \; @easing = 0.05 \; @x \; @y \;;
#X obj 58 376 ofExpr \; @x = (@mouseX - @x) * @easing + @x \; @y =
(@mouseY - @y) * @easing + @y \; $o1 = @x \; $o2 = @y \;;
#X obj 74 274 ofDefine \; @mouseX = $i2 \; @mouseY = $i3 \;;
#X obj 31 161 ofWindowLoadBang;
#X obj 537 29 declare -lib ofelia;
#X connect 0 0 3 0;
#X connect 1 1 10 0;
#X connect 2 0 4 0;
#X connect 3 0 2 0;
#X connect 3 1 9 0;
#X connect 9 0 2 1;
#X connect 9 1 2 2;
#X connect 11 0 8 0;
