#N canvas 641 23 690 746 10;
#X declare -lib ofelia;
#X obj 23 148 ofKeyListener;
#X obj 23 169 route 1;
#X text 79 169 pass keycode on key press.;
#X obj 73 337 ofMap 0 25 0 0;
#X obj 68 408 ofHead;
#X obj 23 528 ofSetColor;
#X obj 55 501 ofPrepend set;
#X obj 23 577 ofTranslate;
#X obj 23 599 t b b;
#X obj 23 668 ofRectangle;
#X obj 23 91 ofWindow 640 400 LEFT TOP 1 0;
#X obj 56 244 t b f b b;
#X text 21 19 click on the window to give it focus and press the letter
keys to create forms in time and space. each key has a unique identifying
number. these numbers can be used to position shapes in space.;
#X text 77 211 if it's not a letter key \, clear the screen. and if
it's a letter key \, draw a rectangle.;
#X text 342 689 This example was originally written in Processing.
https://processing.org/examples/keyboard.html;
#X obj 23 191 ofExpr if ($i1 >= 65 && $i1 <= 90 \, $i1 - 65 \, if ($i1
>= 97 && $i1 <= 122 \, $i1 - 97 \, -1)), f 88;
#X obj 107 288 ofSnd @color;
#X obj 55 479 ofRcv @color;
#X obj 73 359 ofSnd @xpos;
#X obj 44 555 ofRcv @xpos;
#X obj 90 310 ofExpr ofGetWidth * 0.75;
#X obj 107 266 ofExpr ofGetElapsedTime % 255;
#X obj 50 620 ofExpr \; ofGetWidth * 0.25 \; ofGetHeight \;;
#X obj 23 430 ofGate 2;
#X obj 23 222 sel -1;
#X obj 56 381 1;
#X obj 23 381 2;
#X obj 68 452 ofClear 0;
#X obj 23 112 ofSetBgAuto OFF;
#X text 128 113 disable the auto background clearing function.;
#X obj 539 29 declare -lib ofelia;
#X connect 0 0 1 0;
#X connect 1 0 15 0;
#X connect 3 0 18 0;
#X connect 4 0 23 1;
#X connect 5 0 7 0;
#X connect 6 0 5 0;
#X connect 7 0 8 0;
#X connect 8 0 9 0;
#X connect 8 1 22 0;
#X connect 10 0 28 0;
#X connect 11 0 25 0;
#X connect 11 1 3 0;
#X connect 11 2 20 0;
#X connect 11 3 21 0;
#X connect 15 0 24 0;
#X connect 17 0 6 0;
#X connect 19 0 7 1;
#X connect 20 0 3 4;
#X connect 21 0 16 0;
#X connect 22 0 9 1;
#X connect 22 1 9 2;
#X connect 23 0 5 0;
#X connect 23 1 27 0;
#X connect 24 0 26 0;
#X connect 24 1 11 0;
#X connect 25 0 23 0;
#X connect 26 0 23 0;
