#N canvas 641 23 655 401 10;
#X obj 27 131 ofHead;
#X obj 354 175 t b b;
#X obj 27 73 ofWindow 640 400 LEFT TOP;
#X obj 354 256 ofTranslate;
#X obj 354 278 ofRotateZ;
#X obj 27 95 ofSetBgColor 102;
#X obj 190 175 t b b;
#X obj 190 256 ofTranslate;
#X obj 190 278 ofRotateZ;
#X obj 27 175 t b b;
#X obj 27 256 ofTranslate;
#X obj 27 278 ofRotateZ;
#X obj 354 300 ofStar 5 70 3;
#X obj 190 300 ofStar 80 100 40;
#X obj 27 300 ofStar 30 70 5;
#X text 25 23 [ofStar] object is capable of drawing a wide range of
different forms.;
#X text 307 343 This example was originally written in Processing.
https://processing.org/examples/star.html;
#X obj 54 197 ofExpr \; ofGetWidth * 0.8 \; ofGetHeight * 0.5 \; ofGetFrameNum
* -1 \;;
#X obj 217 197 ofExpr \; ofGetWidth * 0.5 \; ofGetHeight * 0.5 \; ofGetFrameNum
\;;
#X obj 381 197 ofExpr \; ofGetWidth * 0.2 \; ofGetHeight * 0.5 \; ofGetFrameNum
/ 2 \;;
#X obj 27 153 ofSepMatrix 3, f 55;
#X connect 0 0 20 0;
#X connect 1 0 3 0;
#X connect 1 1 19 0;
#X connect 2 0 5 0;
#X connect 3 0 4 0;
#X connect 4 0 12 0;
#X connect 6 0 7 0;
#X connect 6 1 18 0;
#X connect 7 0 8 0;
#X connect 8 0 13 0;
#X connect 9 0 10 0;
#X connect 9 1 17 0;
#X connect 10 0 11 0;
#X connect 11 0 14 0;
#X connect 17 0 10 1;
#X connect 17 1 10 2;
#X connect 17 2 11 1;
#X connect 18 0 7 1;
#X connect 18 1 7 2;
#X connect 18 2 8 1;
#X connect 19 0 3 1;
#X connect 19 1 3 2;
#X connect 19 2 4 1;
#X connect 20 0 9 0;
#X connect 20 1 6 0;
#X connect 20 2 1 0;
