#N canvas 720 100 665 438 10;
#X declare -path ofelia/libs/of;
#X text 328 383 This example was originally written in Processing.
https://processing.org/examples/bezier.html;
#X obj 28 134 of.Window;
#X obj 28 92 loadbang;
#X obj 28 170 of.setup;
#X obj 28 191 of.background 0;
#X obj 28 212 of.noFill;
#X obj 28 248 of.draw;
#X obj 28 269 ofelia d \; function ofelia.bang() \; for i = 0 \, 200
\, 20 do \; of.drawBezier(of.getMouseX()-(i/2.0) \, 40+i \, 410 \,
20 \, 440 \, 300 \, 240-(i/16.0) \, 300+(i/8.0)) \; end \; end \;;
#X f 91;
#X text 25 23 The first two parameters for the of.drawBezier() function
specify the first point in the curve and the last two parameters specify
the last point. The middle parameters set the control points that define
the shape of the curve.;
#X obj 462 29 declare -path ofelia/libs/of;
#X msg 28 113 setPosition 30 100 \, setSize 640 400 \, create;
#X connect 2 0 10 0;
#X connect 3 0 4 0;
#X connect 4 0 5 0;
#X connect 6 0 7 0;
#X connect 10 0 1 0;
