#N canvas 641 23 643 500 10;
#X obj 27 272 ofHead;
#X obj 27 112 ofSetCircleRes 20;
#X msg 27 382 all bang;
#X obj 70 170 list split 1;
#X obj 27 148 ofMouseListener;
#X obj 97 338 ofPrepend all;
#X obj 168 382 ofPrepend all;
#X obj 27 404 clone clonedParticle 200;
#X text 286 443 This example is based on the openFrameworks example
"particlesExample";
#X text 25 23 move the cursor over the window to make particles move.
click on the screen to toggle between attract and repel mode. this
example demonstrates how pd's [clone] object can be used for building
a particle system.;
#X obj 104 192 ofSnd @mousepos;
#X obj 27 192 bang;
#X obj 27 214 ofCount 0 1 1;
#X obj 27 236 ofSnd @mode;
#X obj 168 360 ofRcv @mode;
#X obj 97 316 ofRcv @mousepos;
#X text 183 404 draw 200 particles.;
#X obj 27 294 ofSetColor white;
#X obj 27 90 ofWindow 1280 800 LEFT TOP 0.5 51;
#X connect 0 0 17 0;
#X connect 2 0 7 0;
#X connect 3 1 10 0;
#X connect 4 0 11 0;
#X connect 4 1 3 0;
#X connect 5 0 7 1;
#X connect 6 0 7 2;
#X connect 11 0 12 0;
#X connect 12 0 13 0;
#X connect 14 0 6 0;
#X connect 15 0 5 0;
#X connect 17 0 2 0;
#X connect 18 0 1 0;
