#N canvas 641 23 750 851 10;
#X obj 25 72 ofWindowLoadBang;
#X obj 25 338 t b b, f 32;
#X obj 218 360 list append 0 0;
#X obj 25 214 pack f f, f 9;
#X obj 127 214 pack f f, f 9;
#X obj 229 214 pack f f, f 9;
#X obj 25 236 ofPrepend load;
#X obj 25 258 ofLoadVec2f @pos;
#X obj 127 236 ofPrepend load;
#X obj 127 258 ofLoadVec2f @vel;
#X obj 229 236 ofPrepend load;
#X obj 229 258 ofLoadVec2f @frc;
#X obj 218 426 ofGetVec2f @pos;
#X obj 218 448 ofPrepend sub;
#X obj 53 668 ofEditVec2f @frc;
#X obj 218 492 ofVal @drag;
#X obj 218 514 ofPrepend mult;
#X obj 218 536 ofEditVec2f @vel;
#X obj 53 1062 ofGetVec2f @vel;
#X obj 53 1084 ofPrepend add;
#X obj 53 1106 ofEditVec2f @pos;
#X obj 53 1128 ofGetVec2f @pos;
#X obj 86 1214 ofPrepend assignX;
#X obj 86 1236 ofEditVec2f @pos;
#X obj 86 1280 ofEditVec2f @vel;
#X obj 53 1150 ofExpr \; if ($i1 > ofGetWidth \, ofGetWidth \, if ($i1
< 0 \, 0 \, -1)) \; if ($i2 > ofGetHeight \, ofGetHeight \, if ($i2
< 0 \, 0 \, -1)) \;;
#X obj 425 1236 ofEditVec2f @pos;
#X obj 425 1280 ofEditVec2f @vel;
#X obj 425 1214 ofPrepend assignY;
#X obj 53 1193 sel -1;
#X obj 392 1193 sel -1;
#X obj 44 1328 ofGetVec2f @pos;
#X obj 44 1350 ofPrepend set;
#X obj 25 1377 ofTranslate;
#X obj 25 1306 t b b b;
#X obj 148 1328 ofVal @scale;
#X obj 53 646 ofPack normalize;
#X obj 218 382 ofPrepend assign;
#X obj 218 404 ofEditVec2f @frc;
#X obj 218 470 ofEditVec2f @frc;
#X obj 86 1258 ofPack mult -1 1;
#X obj 425 1258 ofPack mult 1 -1;
#X obj 305 294 inlet mousepos;
#X obj 25 294 inlet render;
#X obj 53 712 sel 1 0;
#X obj 53 734 ofPack mult -0.6;
#X obj 53 996 ofGetVec2f @frc;
#X obj 53 1018 ofPrepend add;
#X obj 53 1040 ofEditVec2f @vel;
#X obj 72 887 ofSignedNoise;
#X obj 72 756 ofGetVec2f @pos;
#X obj 72 865 pack f f f, f 13;
#X obj 185 865 pack f f f, f 13;
#X obj 185 887 ofSignedNoise;
#X obj 72 952 ofPrepend assign;
#X obj 72 909 ofExpr \; $i1 * 0.04 \; $i2 * 0.04 \;, f 19;
#X obj 25 1399 ofCircle;
#X obj 72 778 ofExpr \; $o1 = @uniqueVal \; $o2 = $i2 * 0.01 \; $o3
= ofGetElapsedTime * 0.0002 \; $o4 = $o1 \; $o5 = $i1 * 0.01 \; $o6
= $o3 \;;
#X obj 80 602 ofGetVec2fLength @frc;
#X obj 53 580 t b b;
#X obj 80 624 ofVal @dist;
#X obj 53 690 ofExpr @dist < 150;
#X obj 218 602 ofEditVec2f @frc;
#X obj 218 580 ofPack normalize;
#X obj 218 624 ofPack mult 0.6;
#X obj 53 974 ofEditVec2f @frc;
#X obj 470 294 inlet mode;
#X obj 470 338 ofSnd @mode;
#X obj 53 536 ofRcv @mode;
#X obj 470 316 ofExpr if ($i1 == 0 \, 1 \, 2);
#X obj 53 558 ofGate 2 1, f 28;
#X text 341 1428 This example is based on the openFrameworks example
"particlesExample";
#X text 25 23 this patch is used as an abstraction for "clonedParticleSystem.pd"
example.;
#X text 553 295 0: repel \, 1: attract.;
#X obj 25 94 ofDefine \; @uniqueVal = random(-10000 \, 10000) \; $o1
= random(0 \, ofGetWidth) \; $o2 = random(0 \, ofGetHeight) \; $o3
= random(-3.9 \, 3.9) \; $o4 = random(-3.9 \, 3.9) \; $o5 = 0 \; $o6
= 0 \; @scale = random(4 \, 16) \; @drag = random(0.95 \, 0.998) \;
, f 43;
#X obj 25 316 ofSepMatrix;
#X connect 0 0 74 0;
#X connect 1 0 34 0;
#X connect 1 1 2 0;
#X connect 2 0 37 0;
#X connect 3 0 6 0;
#X connect 4 0 8 0;
#X connect 5 0 10 0;
#X connect 6 0 7 0;
#X connect 8 0 9 0;
#X connect 10 0 11 0;
#X connect 12 0 13 0;
#X connect 13 0 39 0;
#X connect 14 0 61 0;
#X connect 15 0 16 0;
#X connect 16 0 17 0;
#X connect 17 0 70 1;
#X connect 18 0 19 0;
#X connect 19 0 20 0;
#X connect 20 0 21 0;
#X connect 21 0 25 0;
#X connect 22 0 23 0;
#X connect 23 0 40 0;
#X connect 25 0 29 0;
#X connect 25 1 30 0;
#X connect 26 0 41 0;
#X connect 28 0 26 0;
#X connect 29 1 22 0;
#X connect 30 1 28 0;
#X connect 31 0 32 0;
#X connect 32 0 33 0;
#X connect 33 0 56 0;
#X connect 34 0 33 0;
#X connect 34 1 31 0;
#X connect 34 2 35 0;
#X connect 35 0 56 1;
#X connect 36 0 14 0;
#X connect 37 0 38 0;
#X connect 38 0 12 0;
#X connect 39 0 15 0;
#X connect 40 0 24 0;
#X connect 41 0 27 0;
#X connect 42 0 2 1;
#X connect 43 0 75 0;
#X connect 44 0 45 0;
#X connect 44 1 50 0;
#X connect 45 0 65 0;
#X connect 46 0 47 0;
#X connect 47 0 48 0;
#X connect 48 0 18 0;
#X connect 49 0 55 0;
#X connect 50 0 57 0;
#X connect 51 0 49 0;
#X connect 52 0 53 0;
#X connect 53 0 55 1;
#X connect 54 0 65 0;
#X connect 55 0 54 0;
#X connect 57 0 51 0;
#X connect 57 1 51 1;
#X connect 57 2 51 2;
#X connect 57 3 52 0;
#X connect 57 4 52 1;
#X connect 57 5 52 2;
#X connect 58 0 60 0;
#X connect 59 0 36 0;
#X connect 59 1 58 0;
#X connect 61 0 44 0;
#X connect 62 0 64 0;
#X connect 63 0 62 0;
#X connect 64 0 65 0;
#X connect 65 0 46 0;
#X connect 66 0 69 0;
#X connect 68 0 70 0;
#X connect 69 0 67 0;
#X connect 70 0 59 0;
#X connect 70 1 63 0;
#X connect 74 0 3 0;
#X connect 74 1 3 1;
#X connect 74 2 4 0;
#X connect 74 3 4 1;
#X connect 74 4 5 0;
#X connect 74 5 5 1;
#X connect 75 0 1 0;
