#N canvas 641 23 711 624 10;
#X declare -lib ofelia;
#X obj 27 258 pack f f, f 15;
#X obj 27 280 ofPrepend load;
#X obj 27 324 > 0;
#X obj 27 346 ofHead 50 OFF;
#X obj 27 368 t b b;
#X obj 27 439 ofCountUntil;
#N canvas 642 220 522 358 update 0;
#X obj 340 262 ofPrepend add;
#X obj 43 240 t b f;
#X obj 43 43 inlet;
#X obj 43 65 t f f f;
#X obj 204 262 ofPrepend add;
#X msg 43 262 sub 1;
#X obj 340 284 ofEditVec2f @vel;
#X obj 340 240 ofGetVec2f @accel;
#X obj 204 284 ofEditVec2f @pos;
#X obj 204 240 ofGetVec2f @vel;
#X obj 340 213 t b f;
#X obj 204 213 t b f;
#X obj 43 284 ofEditFloat @lifespan;
#X connect 0 0 6 0;
#X connect 1 0 5 0;
#X connect 1 1 12 0;
#X connect 2 0 3 0;
#X connect 3 0 1 0;
#X connect 3 1 11 0;
#X connect 3 2 10 0;
#X connect 4 0 8 0;
#X connect 5 0 12 0;
#X connect 7 0 0 0;
#X connect 9 0 4 0;
#X connect 10 0 7 0;
#X connect 10 1 7 0;
#X connect 10 1 6 0;
#X connect 11 0 9 0;
#X connect 11 1 9 0;
#X connect 11 1 8 0;
#X restore 66 483 pd update;
#X obj 27 461 t f f f;
#N canvas 641 219 316 365 remove 0;
#X obj 50 120 < 0;
#X obj 50 142 sel 1;
#X obj 50 164 f;
#X obj 50 186 ofPrepend erase;
#X obj 50 49 inlet;
#X obj 135 223 ofSnd @toPosLoader;
#X obj 101 250 ofSnd @toVelLoader;
#X obj 77 277 ofSnd @toAccelLoader;
#X obj 50 304 ofSnd @toLifespanLoader;
#X obj 50 98 ofGetFloat @lifespan;
#X obj 50 71 t b f;
#X connect 0 0 1 0;
#X connect 1 0 2 0;
#X connect 2 0 3 0;
#X connect 3 0 5 0;
#X connect 3 0 6 0;
#X connect 3 0 7 0;
#X connect 3 0 8 0;
#X connect 4 0 10 0;
#X connect 9 0 0 0;
#X connect 10 0 9 0;
#X connect 10 1 9 0;
#X connect 10 1 2 1;
#X restore 27 527 pd remove;
#N canvas 641 219 437 387 display 0;
#X obj 43 45 inlet;
#X obj 43 299 ofTranslate;
#X obj 274 240 ofPrepend set;
#X obj 43 321 ofCircle 4;
#X obj 43 240 ofSetColor;
#X obj 274 191 t b f;
#X obj 110 191 t b f;
#X obj 43 67 t b f f;
#X obj 274 218 ofGetVec2f @pos;
#X obj 110 218 ofGetFloat @lifespan;
#X obj 43 262 ofSepMatrix;
#X connect 0 0 7 0;
#X connect 1 0 3 0;
#X connect 2 0 1 0;
#X connect 4 0 10 0;
#X connect 5 0 8 0;
#X connect 5 1 8 0;
#X connect 6 0 9 0;
#X connect 6 1 9 0;
#X connect 7 0 4 0;
#X connect 7 1 6 0;
#X connect 7 2 5 0;
#X connect 8 0 2 0;
#X connect 9 0 4 4;
#X connect 10 0 1 0;
#X restore 46 505 pd display;
#N canvas 642 220 288 403 add 0;
#X obj 71 179 pack f f, f 14;
#X obj 71 201 ofPrepend add;
#X obj 54 272 ofPrepend add;
#X obj 37 38 inlet;
#X obj 37 65 t b b b b;
#X msg 88 87 add 0 0.05;
#X obj 71 223 ofSnd @toVelLoader;
#X obj 54 250 ofGetVec2f @origin;
#X obj 54 294 ofSnd @toPosLoader;
#X obj 37 343 ofSnd @toLifespanLoader;
#X obj 88 109 ofSnd @toAccelLoader;
#X msg 37 321 add 255;
#X obj 71 136 ofExpr \; random(-1 \, 1) \; random(-2 \, 1) \;;
#X connect 0 0 1 0;
#X connect 1 0 6 0;
#X connect 2 0 8 0;
#X connect 3 0 4 0;
#X connect 4 0 11 0;
#X connect 4 1 7 0;
#X connect 4 2 12 0;
#X connect 4 3 5 0;
#X connect 5 0 10 0;
#X connect 7 0 2 0;
#X connect 11 0 9 0;
#X connect 12 0 0 0;
#X connect 12 1 0 1;
#X restore 54 390 pd add;
#X obj 27 97 ofSetCircleRes 20;
#X text 25 23 particles are generated each cycle through a rendering
chain \, fall with gravity and fade out over time.;
#X text 321 566 This example was originally written in Processing.
https://processing.org/examples/simpleparticlesystem.html;
#X text 99 390 add particles.;
#X text 90 528 remove particles.;
#X text 130 484 update position.;
#X text 116 506 draw particles.;
#X text 111 439 count backwards.;
#X obj 27 134 ofRcv @toPosLoader;
#X obj 177 134 ofRcv @toVelLoader;
#X obj 327 134 ofRcv @toAccelLoader;
#X obj 491 134 ofRcv @toLifespanLoader;
#X obj 27 156 ofLoadVec2f @pos;
#X obj 177 156 ofLoadVec2f @vel;
#X obj 327 156 ofLoadVec2f @accel;
#X obj 491 156 ofLoadFloat @lifespan;
#X obj 27 302 ofLoadVec2f @origin;
#X obj 27 417 ofExpr -@numParticles;
#X obj 491 178 ofDefine @numParticles = $i1;
#X obj 27 193 ofWindowLoadBang;
#X obj 27 215 ofExpr \; ofGetWidth / 2 \; 50 \;;
#X obj 27 75 ofWindow 640 400 LEFT TOP 1 0;
#X obj 561 29 declare -lib ofelia;
#X connect 0 0 1 0;
#X connect 1 0 27 0;
#X connect 2 0 3 0;
#X connect 3 0 4 0;
#X connect 4 0 28 0;
#X connect 4 1 10 0;
#X connect 5 0 7 0;
#X connect 7 0 8 0;
#X connect 7 1 9 0;
#X connect 7 2 6 0;
#X connect 19 0 23 0;
#X connect 20 0 24 0;
#X connect 21 0 25 0;
#X connect 22 0 26 0;
#X connect 26 0 29 0;
#X connect 27 0 2 0;
#X connect 28 0 5 0;
#X connect 30 0 31 0;
#X connect 31 0 0 0;
#X connect 31 1 0 1;
#X connect 32 0 11 0;
