#N canvas 723 23 716 450 10;
#X declare -path ofelia/libs/of;
#X obj 525 21 declare -path ofelia/libs/of;
#X obj 39 36 loadbang;
#X msg 39 57 create;
#X obj 39 78 ofWindow;
#X obj 39 114 ofSetup;
#X obj 39 135 ofSetWindowPosition 2 0;
#X obj 39 156 ofSetWindowShape 1440 900;
#X obj 39 177 ofSetWindowTitle Logo;
#X obj 39 198 ofSetBackgroundColor 55;
#X obj 39 219 ofSetCircleResolution 50;
#X obj 39 255 ofDraw;
#X obj 39 276 ofSetColor 230;
#X obj 39 297 ofDrawCircle 510 450 200;
#X obj 39 318 ofDrawRectangle 730 250 200 400;
#X obj 39 339 ofDrawTriangle 950 250 1120 250 950 420;
#X obj 39 360 ofDrawRectangle 950 440 100 100;
#X connect 1 0 2 0;
#X connect 2 0 3 0;
#X connect 4 0 5 0;
#X connect 5 0 6 0;
#X connect 6 0 7 0;
#X connect 7 0 8 0;
#X connect 8 0 9 0;
#X connect 10 0 11 0;
#X connect 11 0 12 0;
#X connect 12 0 13 0;
#X connect 13 0 14 0;
#X connect 14 0 15 0;
