#N canvas 723 23 716 450 10;
#X declare -path ofelia/libs/of;
#X obj 30 66 of.Window;
#X obj 30 24 loadbang;
#X obj 30 102 of.setup;
#X obj 521 24 declare -path ofelia/libs/of;
#X obj 30 180 of.draw;
#X obj 30 123 of.setBackgroundColor 0;
#X msg 30 45 setPosition 2 0 \, setSize 1440 900 \, title Whirl \,
create;
#X obj 30 144 of.setFrameRate 30;
#X obj 30 201 ofelia d \; local angle = 0 \; function ofelia.bang()
\; of.noFill() \; of.setLineWidth(0.1) \; of.enableSmoothing() \; of.setCircleResolution(3)
\; local centerX \, centerY = of.getWidth() / 2 \, of.getHeight() /
2 \; of.translate(centerX \, centerY) \; for i=1 \, 500 do \; of.pushMatrix()
\; of.setColor(i * 2 \, (255 / i) * 100 \, i / 20) \; of.rotateXDeg(angle
* 10 / i * 0.01) \; of.rotateYDeg(angle * 7 / i * 0.02) \; of.rotateZDeg(angle
* 4 * i * 0.03) \; of.drawCircle(0 \, 0 \, 100 + math.sin(angle + i)
* 200 + i * math.cos(angle) * 0.5) \; of.popMatrix() \; end \; angle
= angle + 0.01 \; end \;;
#X f 82;
#X connect 1 0 6 0;
#X connect 2 0 5 0;
#X connect 4 0 8 0;
#X connect 5 0 7 0;
#X connect 6 0 0 0;
