#N canvas 641 23 675 664 10;
#X declare -lib ofelia;
#X text 25 23 all shapes drawn to the screen have a position that is
specified as a coordinate. all coordinates are measured as the distance
from the origin in units of pixels. The origin [0 \, 0] is the coordinate
is in the upper left of the window and the coordinate in the lower
right is [ofGetWidth-1 \, ofGetHeight-1].;
#X text 190 125 create a 640 x 400 sized window on the left top corner
of the screen.;
#X obj 27 125 ofWindow 640 400 LEFT TOP;
#X obj 27 151 ofSetBgColor 0;
#X text 123 151 set the background color to black.;
#X obj 27 210 ofSetFillMode 0;
#X text 130 210 turn off the fill color.;
#X obj 27 188 ofHead;
#X text 76 188 the start of a rendering chain.;
#X obj 27 232 ofSetColor 0 153 255;
#X obj 27 254 t b b;
#X obj 54 340 pack f f;
#X text 90 366 coordinates are used for drawing all shapes. for example
\, the first inlet of [ofLine2d] specifies the coordinates of the first
endpoint and the second inlet specifies the second endpoint.;
#X obj 27 429 ofSetColor 255 153 0;
#X obj 27 574 ofRectangle;
#X obj 27 451 t b b;
#X obj 27 552 ofTranslate;
#X text 177 473 the first two inlets of [ofTranslate] specifies the
x \, y coordinates of the upper-left corner of the rectangle. and the
two inlets of [ofRectangle] specifies the width and height.;
#X obj 152 340 pack f f;
#X obj 27 367 ofLine2d;
#X text 324 602 This example was originally written in Processing.
https://processing.org/examples/coordinates.html;
#X obj 54 275 ofExpr \; $o1 = 0 \; $o2 = ofGetHeight * 0.33 \; $o3
= ofGetWidth \; $o4 = $o2 \;;
#X obj 54 473 ofExpr \; ofGetWidth * 0.25 \; ofGetHeight * 0.1 \; ofGetWidth
* 0.5 \; ofGetHeight * 0.8 \;;
#X obj 523 28 declare -lib ofelia;
#X connect 2 0 3 0;
#X connect 5 0 9 0;
#X connect 7 0 5 0;
#X connect 9 0 10 0;
#X connect 10 0 19 0;
#X connect 10 1 21 0;
#X connect 11 0 19 1;
#X connect 13 0 15 0;
#X connect 15 0 16 0;
#X connect 15 1 22 0;
#X connect 16 0 14 0;
#X connect 18 0 19 2;
#X connect 19 0 13 0;
#X connect 21 0 11 0;
#X connect 21 1 11 1;
#X connect 21 2 18 0;
#X connect 21 3 18 1;
#X connect 22 0 16 1;
#X connect 22 1 16 2;
#X connect 22 2 14 1;
#X connect 22 3 14 2;
