#N canvas 641 23 697 661 10;
#X obj 27 199 ofHead;
#X text 25 23 embedding "for" structures allows repetition in two dimensions.
;
#X text 322 600 This example was originally written in Processing.
https://processing.org/examples/embeddediteration.html;
#X obj 27 130 ofDefine \; @gridSize = 40 \; @x \; @y \;;
#X obj 27 108 ofWindowLoadBang;
#X obj 27 549 ofTranslate;
#X obj 27 571 ofSquare 3;
#X obj 27 328 ofSetColor 255 100;
#X obj 27 505 ofLine2d, f 10;
#X obj 54 458 pack f f;
#X obj 144 458 pack f f;
#X obj 27 527 ofSetColor 255;
#X obj 27 349 t b b;
#X text 100 505 draw a line from current position to center.;
#X text 99 571 draw a small square.;
#X obj 234 458 pack f f;
#X obj 234 480 ofPrepend set;
#X obj 54 371 ofExpr \; $o1 = @x \; $o2 = @y \; $o3 = ofGetWidth /
2 \; $o4 = ofGetHeight / 2 \; $o5 = @x - 1 \; $o6 = @y - 1 \;, f 38
;
#N canvas 642 292 450 300 for 0;
#X obj 30 136 sel 1;
#X obj 80 87 t b b;
#X obj 30 160 t b b b;
#X obj 107 110 ofExpr @x = @gridSize \;;
#X obj 49 189 ofExpr @x = @x + @gridSize \;;
#X obj 80 47 inlet;
#X obj 80 136 ofExpr if (@x <= ofGetWidth - @gridSize \, 1 \, 0) \;
;
#X obj 69 226 outlet;
#X connect 0 0 2 0;
#X connect 1 0 6 0;
#X connect 1 1 3 0;
#X connect 2 0 6 0;
#X connect 2 1 4 0;
#X connect 2 2 7 0;
#X connect 5 0 1 0;
#X connect 6 0 0 0;
#X restore 27 221 pd for (@x = @gridSize \; @x <= ofGetWidth - @gridSize
\; @x += @gridSize);
#N canvas 642 293 450 300 for 0;
#X obj 30 136 sel 1;
#X obj 80 87 t b b;
#X obj 30 160 t b b b;
#X obj 80 47 inlet;
#X obj 69 226 outlet;
#X obj 107 110 ofExpr @y = @gridSize \;;
#X obj 80 136 ofExpr if (@y <= ofGetHeight - @gridSize \, 1 \, 0) \;
;
#X obj 49 189 ofExpr @y = @y + @gridSize \;;
#X connect 0 0 2 0;
#X connect 1 0 6 0;
#X connect 1 1 5 0;
#X connect 2 0 6 0;
#X connect 2 1 7 0;
#X connect 2 2 4 0;
#X connect 3 0 1 0;
#X connect 6 0 0 0;
#X restore 27 264 pd for (@y = @gridSize \; @y <= ofGetHeight - @gridSize
\; @y += @gridSize);
#X obj 27 72 ofWindow 640 400 LEFT TOP 1 0;
#X obj 27 307 ofSepMatrix;
#X connect 0 0 18 0;
#X connect 4 0 3 0;
#X connect 5 0 6 0;
#X connect 7 0 12 0;
#X connect 8 0 11 0;
#X connect 9 0 8 1;
#X connect 10 0 8 2;
#X connect 11 0 5 0;
#X connect 12 0 8 0;
#X connect 12 1 17 0;
#X connect 15 0 16 0;
#X connect 16 0 5 0;
#X connect 17 0 9 0;
#X connect 17 1 9 1;
#X connect 17 2 10 0;
#X connect 17 3 10 1;
#X connect 17 4 15 0;
#X connect 17 5 15 1;
#X connect 18 0 19 0;
#X connect 19 0 21 0;
#X connect 21 0 7 0;
