#N canvas 641 23 674 618 10;
#X declare -lib ofelia;
#X obj 31 285 ofHead;
#X obj 31 206 ofMouseListener;
#X obj 31 80 ofWindow 640 400 LEFT TOP 1 51;
#X obj 74 227 ofDefine \; @mouseX = $i2 \; @mouseY = $i3 \;;
#X obj 58 395 ofSetColor 255;
#X obj 58 417 t b b;
#X obj 58 509 ofTranslate;
#X obj 58 531 ofCircle 30;
#X obj 31 558 ofDrawFbo @fbo;
#X obj 58 373 ofRectangle 640 400;
#X obj 31 307 t b b;
#X text 188 350 by drawing a rectangle the size of the fbo with a small
alpha value \, we can slowly fade the current contents of the fbo.
;
#X text 128 558 draw the fbo.;
#X obj 58 351 ofSetColor 51 10;
#X text 29 27 move the mouse across the screen to see the circle moving
around with trails which slowly fade over time.;
#X obj 58 329 ofCreateFbo @fbo 640 400 RGBA 51;
#X obj 85 439 ofExpr \; @x = (@mouseX - @x) * @easing + @x \; @y =
(@mouseY - @y) * @easing + @y \; $o1 = @x \; $o2 = @y \;;
#X obj 31 137 ofDefine \; @easing = 0.05 \; @x \; @y \;;
#X obj 31 116 ofWindowLoadBang;
#X obj 532 29 declare -lib ofelia;
#X connect 0 0 10 0;
#X connect 1 1 3 0;
#X connect 4 0 5 0;
#X connect 5 0 6 0;
#X connect 5 1 16 0;
#X connect 6 0 7 0;
#X connect 9 0 4 0;
#X connect 10 0 8 0;
#X connect 10 1 15 0;
#X connect 13 0 9 0;
#X connect 15 0 13 0;
#X connect 16 0 6 1;
#X connect 16 1 6 2;
#X connect 18 0 17 0;
