#N canvas 641 23 694 434 10;
#X declare -lib ofelia;
#X obj 47 170 ofHead;
#X obj 47 134 ofSetCircleRes 100;
#X text 45 38 the "drawTarget" subpatch makes it easy to draw many
distinct targets. each call to "drawTarget" specifies the position
\, size \, and number of rings for each target.;
#N canvas 642 126 525 541 drawTarget 0;
#X obj 47 66 t b l;
#X text 165 88 process parameters first.;
#X obj 47 44 inlet;
#X text 92 44 drawTarget(float xloc \, float yloc \, int size \, int
num) function.;
#X obj 47 209 ofCountUntil;
#X obj 47 293 ofSetColor;
#X obj 47 462 ofTranslate;
#X obj 47 231 t b f f;
#X obj 86 381 list prepend;
#X obj 47 484 ofCircle;
#X obj 86 337 *, f 15;
#X text 139 264 i * grayvalues.;
#X text 194 405 xloc \, yloc \, size - i * steps.;
#X text 189 337 i * steps.;
#X text 189 133 num \, grayvalues \, steps.;
#X obj 47 187 f, f 5;
#X obj 74 88 ofSnd #params;
#X obj 74 111 ofRcv #params;
#X obj 155 359 ofRcv #params;
#X obj 74 133 ofExpr \; $i4 \; 255 / $i4 \; $i3 / $i4 \;, f 17;
#X obj 86 403 ofExpr \; $i1 \; $i2 \; ($i3 - $i5) / 2 \;;
#X obj 66 253 ofExpr \; $i1 * $i2 \;;
#X obj 47 315 ofSepMatrix;
#X connect 0 0 15 0;
#X connect 0 1 16 0;
#X connect 2 0 0 0;
#X connect 4 0 7 0;
#X connect 5 0 22 0;
#X connect 6 0 9 0;
#X connect 7 0 5 0;
#X connect 7 1 21 0;
#X connect 7 2 10 0;
#X connect 8 0 20 0;
#X connect 10 0 8 0;
#X connect 15 0 4 0;
#X connect 17 0 19 0;
#X connect 18 0 8 1;
#X connect 19 0 15 1;
#X connect 19 1 21 1;
#X connect 19 2 10 1;
#X connect 20 0 6 1;
#X connect 20 1 6 2;
#X connect 20 2 9 1;
#X connect 21 0 5 1;
#X connect 21 0 5 2;
#X connect 21 0 5 3;
#X connect 22 0 6 0;
#X restore 47 315 pd drawTarget;
#X obj 302 279 pack f f f f, f 18;
#X obj 174 279 pack f f f f, f 18;
#X obj 47 279 pack f f f f, f 18;
#X obj 47 192 t b b b, f 43;
#X text 140 316 drawTarget(float xloc \, float yloc \, int size \,
int num) function.;
#X text 341 376 This example was originally written in Processing.
https://processing.org/examples/functions.html;
#X obj 47 214 ofExpr \; ofGetWidth * 0.75 \; ofGetHeight * 0.3 \; 120
\; 6 \;;
#X obj 174 214 ofExpr \; ofGetWidth * 0.5 \; ofGetHeight * 0.5 \; 300
\; 10 \;;
#X obj 302 214 ofExpr \; ofGetWidth * 0.25 \; ofGetHeight * 0.4 \;
200 \; 4 \;;
#X obj 47 112 ofWindow 640 400 LEFT TOP 1 51;
#X obj 542 29 declare -lib ofelia;
#X connect 0 0 7 0;
#X connect 4 0 3 0;
#X connect 5 0 3 0;
#X connect 6 0 3 0;
#X connect 7 0 10 0;
#X connect 7 1 11 0;
#X connect 7 2 12 0;
#X connect 10 0 6 0;
#X connect 10 1 6 1;
#X connect 10 2 6 2;
#X connect 10 3 6 3;
#X connect 11 0 5 0;
#X connect 11 1 5 1;
#X connect 11 2 5 2;
#X connect 11 3 5 3;
#X connect 12 0 4 0;
#X connect 12 1 4 1;
#X connect 12 2 4 2;
#X connect 12 3 4 3;
#X connect 13 0 1 0;
