#N canvas 641 23 686 401 10;
#X obj 47 196 ofHead;
#X obj 47 272 pack f f f, f 15;
#X obj 47 115 ofWindow 640 400 LEFT TOP;
#N canvas 641 138 480 602 drawCircle 0;
#X obj 37 273 ofTranslate;
#X obj 37 148 ofSetColor;
#X obj 37 56 t b l;
#X obj 37 170 ofPushMatrix;
#X obj 37 317 ofPopMatrix;
#X obj 37 426 spigot;
#X obj 37 361 list append;
#X obj 37 448 t l l, f 21;
#X obj 37 524 pack f f f, f 14;
#X obj 160 525 pack f f f, f 14;
#X obj 37 295 ofCircle;
#X text 154 77 process parameters first.;
#X text 82 34 drawCircle(int x \, int radius \, int level) function.
;
#X obj 37 34 inlet;
#X obj 37 551 outlet;
#X obj 64 121 ofExpr 126 * $i3 / 4;
#X obj 64 77 ofSnd #params;
#X obj 64 99 ofRcv #params;
#X obj 61 192 ofRcv #params;
#X obj 100 339 ofRcv #params;
#X obj 70 382 ofRcv #params;
#X obj 70 404 ofExpr if ($i3 > 1 \, 1 \, 0);
#X obj 61 214 ofExpr \; $i1 \; ofGetHeight / 2 \; $i2 \;;
#X obj 37 470 ofExpr \; $i1 + $i2 / 2 \; $i2 / 2 \; $i3 - 1 \;;
#X obj 160 470 ofExpr \; $i1 - $i2 / 2 \; $i2 / 2 \; $i3 - 1 \;;
#X connect 0 0 10 0;
#X connect 1 0 3 0;
#X connect 2 0 1 0;
#X connect 2 1 16 0;
#X connect 3 0 0 0;
#X connect 4 0 6 0;
#X connect 5 0 7 0;
#X connect 6 0 5 0;
#X connect 7 0 23 0;
#X connect 7 1 24 0;
#X connect 8 0 14 0;
#X connect 9 0 14 0;
#X connect 10 0 4 0;
#X connect 13 0 2 0;
#X connect 15 0 1 1;
#X connect 15 0 1 2;
#X connect 15 0 1 3;
#X connect 17 0 15 0;
#X connect 18 0 22 0;
#X connect 19 0 6 1;
#X connect 20 0 21 0;
#X connect 21 0 5 1;
#X connect 22 0 0 1;
#X connect 22 1 0 2;
#X connect 22 2 10 1;
#X connect 23 0 8 0;
#X connect 23 1 8 1;
#X connect 23 2 8 2;
#X connect 24 0 9 0;
#X connect 24 1 9 1;
#X connect 24 2 9 2;
#X restore 47 294 pd drawCircle;
#X obj 17 294 t l;
#X text 45 38 a demonstration of recursion \, which means functions
call themselves. notice how the "drawCircle" subpatch calls itself
at the end of its block. it continues to do this until the variable
"level" is equal to 1;
#X text 138 294 drawCircle(int x \, int radius \, int level) function.
;
#X obj 47 159 ofSetCircleRes 100;
#X obj 47 137 ofSetBgColor 255;
#X text 331 334 This example was originally written in Processing.
https://processing.org/examples/recursion.html;
#X obj 47 218 ofExpr \; ofGetWidth / 2 \; 300 \; 6 \;;
#X connect 0 0 10 0;
#X connect 1 0 3 0;
#X connect 2 0 8 0;
#X connect 3 0 4 0;
#X connect 4 0 3 0;
#X connect 8 0 7 0;
#X connect 10 0 1 0;
#X connect 10 1 1 1;
#X connect 10 2 1 2;
