#N canvas 641 23 676 535 10;
#X obj 47 231 ofHead;
#X obj 47 253 t b b;
#X obj 47 151 ofMouseListener;
#X obj 47 333 ofTranslate;
#X obj 47 355 ofLine2d 0 0 0 -120;
#X obj 47 377 ofTranslate 0 -120;
#N canvas 640 144 490 549 branch 0;
#X obj 37 34 inlet;
#X obj 91 493 outlet;
#X text 80 34 branch(float h) function.;
#X obj 37 56 * 0.66;
#X obj 37 100 sel 0;
#X obj 223 187 ofPushMatrix;
#X obj 223 209 t b b, f 9;
#X obj 223 144 t b f;
#X obj 64 187 ofPushMatrix;
#X obj 64 209 t b b, f 9;
#X obj 64 351 ofLine2d 0 0 0 0;
#X obj 64 280 t b b;
#X obj 91 324 list prepend 0;
#X obj 64 405 ofTranslate;
#X obj 91 378 ofPrepend set;
#X obj 64 471 ofPopMatrix;
#X obj 64 449 t b f;
#X obj 64 144 t b f;
#X text 172 351 draw the branch.;
#X text 141 405 move to the end of the branch.;
#X text 105 449 call myself to draw new branches.;
#X obj 37 78 ofExpr if ($i1 > 2 \, $i1 \, 0);
#X obj 115 231 ofExpr -@degrees;
#X obj 274 231 ofExpr @degrees;
#X obj 64 122 t f f, f 27;
#X obj 91 165 ofValue #h;
#X obj 250 165 ofValue #h;
#X obj 91 302 ofValue #h;
#X obj 64 427 ofValue #h;
#X obj 64 253 ofRotateZ;
#X obj 223 253 ofRotateZ;
#X connect 0 0 3 0;
#X connect 3 0 21 0;
#X connect 4 1 24 0;
#X connect 5 0 6 0;
#X connect 6 0 30 0;
#X connect 6 1 23 0;
#X connect 7 0 5 0;
#X connect 7 1 26 0;
#X connect 8 0 9 0;
#X connect 9 0 29 0;
#X connect 9 1 22 0;
#X connect 10 0 13 0;
#X connect 11 0 10 0;
#X connect 11 1 27 0;
#X connect 12 0 10 2;
#X connect 12 0 14 0;
#X connect 13 0 28 0;
#X connect 14 0 13 0;
#X connect 16 0 15 0;
#X connect 16 1 1 0;
#X connect 17 0 8 0;
#X connect 17 1 25 0;
#X connect 21 0 4 0;
#X connect 22 0 29 1;
#X connect 23 0 30 1;
#X connect 24 0 17 0;
#X connect 24 1 7 0;
#X connect 27 0 12 0;
#X connect 28 0 16 0;
#X connect 29 0 11 0;
#X connect 30 0 11 0;
#X restore 47 443 pd branch;
#X obj 47 421 120;
#X obj 17 443 t f;
#X text 45 38 renders a simple tree-like structure via recursion. the
branching angle is calculated as a function of the horizontal mouse
location. move the mouse left and right to change the angle.;
#X text 331 475 This example was originally written in Processing.
https://processing.org/examples/tree.html;
#X text 112 444 branch(float h) function.;
#X obj 90 173 ofDefine \; @mouseX = $i2 \; @degrees \;;
#X obj 74 274 ofExpr \; $o1 = ofGetWidth / 2 \; $o2 = ofGetHeight \;
@degrees = (@mouseX / ofGetWidth) * 90 \;;
#X obj 47 115 ofWindow 640 400 LEFT TOP 1 0;
#X obj 47 399 ofRotateZ 180;
#X connect 0 0 1 0;
#X connect 1 0 3 0;
#X connect 1 1 13 0;
#X connect 2 1 12 0;
#X connect 3 0 4 0;
#X connect 4 0 5 0;
#X connect 5 0 15 0;
#X connect 6 0 8 0;
#X connect 7 0 6 0;
#X connect 8 0 6 0;
#X connect 13 0 3 1;
#X connect 13 1 3 2;
#X connect 15 0 7 0;
