#N canvas 641 23 685 481 10;
#X declare -lib ofelia;
#X obj 27 111 ofHead;
#X obj 27 155 ofCountUntil;
#X text 110 155 count over a range at once.;
#X obj 27 199 t b f;
#X obj 27 177 * 20;
#X obj 27 392 ofRectangle;
#X obj 27 265 ofSetColor 255;
#X obj 27 370 ofTranslate;
#X obj 27 287 t b b;
#X obj 144 392 ofRectangle;
#X obj 144 287 t b b;
#X obj 144 265 ofSetColor 129 206 15;
#X obj 144 370 ofTranslate;
#X text 25 23 "ofGetWidth" and "ofGetHeight" variables contain the
width and height of the display window.;
#X text 331 418 This example was originally written in Processing.
https://processing.org/examples/widthheight.html;
#X obj 27 133 ofExpr ofGetHeight / 20;
#X obj 54 309 ofExpr \; #i \; 10 \; ofGetHeight \;;
#X obj 171 309 ofExpr \; #i \; ofGetWidth \; 10 \;;
#X obj 54 221 ofVal #i;
#X obj 27 75 ofWindow 640 400 LEFT TOP 1 127;
#X obj 27 243 ofSepMatrix 2, f 20;
#X obj 532 29 declare -lib ofelia;
#X connect 0 0 15 0;
#X connect 1 0 4 0;
#X connect 3 0 20 0;
#X connect 3 1 18 0;
#X connect 4 0 3 0;
#X connect 6 0 8 0;
#X connect 7 0 5 0;
#X connect 8 0 7 0;
#X connect 8 1 16 0;
#X connect 10 0 12 0;
#X connect 10 1 17 0;
#X connect 11 0 10 0;
#X connect 12 0 9 0;
#X connect 15 0 1 0;
#X connect 16 0 7 1;
#X connect 16 1 5 1;
#X connect 16 2 5 2;
#X connect 17 0 12 2;
#X connect 17 1 9 1;
#X connect 17 2 9 2;
#X connect 20 0 6 0;
#X connect 20 1 11 0;
