#N canvas 637 23 652 486 10;
#X obj 31 140 ofWindowLoadBang;
#X obj 31 206 ofSaveURL;
#X obj 31 162 ofGetPatchDirectory;
#X obj 31 250 textfile;
#X obj 31 294 ofPrepend load;
#X obj 31 81 ofWindow 100 100 LEFT TOP 4 0;
#X text 307 424 This example was originally written in Processing.
https://processing.org/examples/loadfile1.html;
#X text 216 81 create a window with the scale set to 4;
#X text 92 250 read the file.;
#X text 160 162 get the directory of the patch.;
#X text 29 26 load a text file that contains 2d positions to draw lines
on the screen. (this example requires an internet connection);
#X obj 31 353 ofHead;
#X obj 31 272 ofPrepend vertex;
#X obj 31 316 ofLoadPolyline2d @lines;
#X obj 31 375 ofDrawPolyline2d @lines;
#X text 182 375 draw the polyline.;
#X text 182 317 load the polyline based on the positions list.;
#X obj 31 103 ofSetLineWidth 0.25;
#X msg 31 184 save https://processing.org/examples/positions.txt \$1/../data/positions.txt
, f 75;
#X msg 31 228 read ../data/positions.txt \, rewind \, bang;
#X text 98 206 save a file from the specified url to data directory.
;
#X connect 0 0 2 0;
#X connect 1 0 19 0;
#X connect 2 0 18 0;
#X connect 3 0 12 0;
#X connect 4 0 13 0;
#X connect 5 0 17 0;
#X connect 11 0 14 0;
#X connect 12 0 4 0;
#X connect 18 0 1 0;
#X connect 19 0 3 0;
