#N canvas 641 23 570 400 10;
#X obj 27 158 ofHead;
#X obj 27 62 ofWindow 640 400 LEFT TOP;
#X text 135 202 display the image.;
#X obj 27 180 ofTranslate 80 72;
#X obj 27 84 ofSetBgColor 0;
#N canvas 642 189 656 344 createImage 0;
#X obj 37 107 ofCountUntil;
#X obj 37 130 t b f;
#X obj 37 174 ofCountUntil;
#X obj 37 196 t f f;
#X obj 37 240 pack f f f f 255;
#X obj 106 218 -;
#X obj 106 196 swap 255;
#X obj 37 262 ofPrepend colorAt;
#X text 144 240 color a pixel at the specified x \, y position.(x \,
y \, r \, g \, b);
#X obj 37 85 unpack f f;
#X obj 37 152 f;
#X obj 37 63 ofGetImageDimen @img;
#X obj 37 284 ofEditImage @img;
#X obj 37 41 ofCreateImage @img 255 255 RGB;
#X text 171 63 get dimensions of the image.;
#X text 231 41 allocate an image. (width \, height \, type);
#X connect 0 0 1 0;
#X connect 1 0 10 0;
#X connect 1 1 4 1;
#X connect 1 1 6 0;
#X connect 2 0 3 0;
#X connect 3 0 4 0;
#X connect 3 1 4 2;
#X connect 4 0 7 0;
#X connect 5 0 4 3;
#X connect 6 0 5 0;
#X connect 6 1 5 1;
#X connect 7 0 12 0;
#X connect 9 0 0 0;
#X connect 9 1 10 1;
#X connect 10 0 2 0;
#X connect 11 0 9 0;
#X connect 13 0 11 0;
#X restore 27 121 pd createImage;
#X text 122 121 create a custom image.;
#X obj 27 259 savepanel;
#X obj 27 239 bng 15 250 50 0 empty empty empty 17 7 0 10 -262144 -1
-1;
#X msg 27 281 save \$1.png;
#X text 49 238 save the image to a disk in png format.;
#X text 25 23 you can use [ofSaveImage] object to save any loaded image.
;
#X obj 27 202 ofDrawImage @img;
#X obj 27 303 ofSaveImage @img;
#X connect 0 0 3 0;
#X connect 1 0 4 0;
#X connect 3 0 12 0;
#X connect 7 0 9 0;
#X connect 8 0 7 0;
#X connect 9 0 13 0;
