#N canvas 640 23 579 730 10;
#X declare -lib ofelia;
#X obj 27 561 ofHead;
#X obj 27 379 ofMouseListener;
#X obj 27 627 ofLine2d;
#X obj 70 400 ofExpr \; _mouseX = $i2 \; _mouseY = $i3 \; $o1 = 0 \;
$o2 = 0 \; $o3 = _mouseX \; $o4 = ofGetHeight \; $o5 = ofGetWidth \;
$o6 = 0 \; $o7 = 0 \; $o8 = _mouseY \;, f 54;
#X obj 70 531 pack f f;
#X obj 161 531 pack f f;
#X obj 253 531 pack f f;
#X obj 345 531 pack f f;
#X obj 27 649 ofLine2d;
#X obj 27 605 ofSetColor black;
#X text 231 673 This example was originally written in Processing.
https://processing.org/examples/saveoneframe.html;
#X obj 27 233 ofGetDimen;
#X msg 27 255 grabScreen 0 0 \$1 \$2;
#X obj 27 277 ofEditImage @screenshot;
#X msg 27 321 save \$1.png;
#X text 176 343 save the image to a disk in png format.;
#X obj 27 343 ofSaveImage @screenshot;
#X text 261 133 allocate space for a screenshot.;
#X text 163 255 take a screenshot. (x \, y \, w \, h);
#X obj 27 133 ofCreateImage @screenshot 300 300 RGB;
#X obj 27 97 ofWindow 300 300 LEFT TOP 1 204;
#X obj 27 583 ofSetLineWidth 1.5;
#X obj 432 29 declare -lib ofelia;
#X text 177 279 note: when you take a screenshot using grabScreen \,
the grabbed image can have larger pixels than the specified window
dimensions if your hardware supports retina.;
#X obj 27 211 sel 32;
#X obj 27 169 ofKeyListener;
#X obj 27 190 route 1;
#X obj 27 299 ofSystemSaveDialog;
#X text 25 23 [ofEditImage] object allows you to grab the current screen
by receiving "grabScreen" message. [ofSaveImage] object allows you
to save the image to a disk. press the space key while the window has
focus to save the current screen.;
#X connect 0 0 21 0;
#X connect 1 1 3 0;
#X connect 2 0 8 0;
#X connect 3 0 4 0;
#X connect 3 1 4 1;
#X connect 3 2 5 0;
#X connect 3 3 5 1;
#X connect 3 4 6 0;
#X connect 3 5 6 1;
#X connect 3 6 7 0;
#X connect 3 7 7 1;
#X connect 4 0 2 1;
#X connect 5 0 2 2;
#X connect 6 0 8 1;
#X connect 7 0 8 2;
#X connect 9 0 2 0;
#X connect 11 0 12 0;
#X connect 12 0 13 0;
#X connect 13 0 27 0;
#X connect 14 0 16 0;
#X connect 21 0 9 0;
#X connect 24 0 11 0;
#X connect 25 0 26 0;
#X connect 26 0 24 0;
#X connect 27 0 14 0;
