#N canvas 720 100 528 300 10;
#X obj 141 99 loadbang;
#X obj 141 141 ofelia;
#X text 190 141 <- click to see the loaded script.;
#X text 171 244 This example is based on the Processing "ASCII Video"
example by Ben Fry;
#X msg 141 120 read -c asciiVideoExample.lua;
#X text 23 21 This example shows a single lua script implementation
of reinterpretting live video as text to make it look like some good
old ASCII art. Try moving your cursor left and right in order to change
the video transparency.;
#X connect 0 0 4 0;
#X connect 4 0 1 0;
