#N canvas 720 100 680 679 10;
#X declare -lib ofelia;
#X obj 535 22 declare -lib ofelia;
#X obj 28 70 loadbang;
#X obj 28 112 ofWindow;
#X obj 28 148 ofSetup;
#X msg 28 91 setPosition 30 100 \, setSize 840 640 \, create;
#X obj 28 169 ofSetWindowTitle GLSL;
#X obj 28 418 ofDraw;
#X obj 28 439 ofRequire \$0-shader;
#X text 65 383 0: fail \, 1: success.;
#X obj 46 257 + 1;
#X text 23 21 This example shows loading some of GLSL shader examples
from http://glslsandbox.com and https://www.shadertoy.com;
#X obj 46 237 hradio 15 1 0 7 empty empty empty 0 -8 0 10 -262144 -1
-1 6;
#X text 336 592 This patch was originally created by Jonathan Frank.
;
#X text 155 440 Require the module that has the shader.;
#X obj 28 190 ofBackground 0;
#X obj 28 211 ofGetDir;
#X obj 46 278 t b f;
#X msg 28 320 load \$1/data/test\$2;
#X obj 28 341 ofShader \$0-shader;
#X obj 28 362 route load;
#X floatatom 28 383 5 0 0 0 - - -;
#X obj 28 299 pack s 1;
#X obj 28 460 ofelia f \; local shader = a.shader \; shader:beginShader()
\; ofSetColor(255) \; shader:setUniform1f("time" \, ofGetElapsedTimef())
\; shader:setUniform2f("resolution" \, ofGetWindowSize()) \; shader:setUniform2f("mouse"
\, ofGetMouseX() \, ofGetMouseY()) \; ofDrawRectangle(20 \, 20 \, ofGetWidth()-40
\, ofGetHeight()-40) \; shader:endShader() \;;
#X text 158 236 <- Try different examples.;
#X text 173 251 (some examples react to mouse movement);
#X connect 1 0 4 0;
#X connect 3 0 5 0;
#X connect 4 0 2 0;
#X connect 5 0 14 0;
#X connect 6 0 7 0;
#X connect 7 0 22 0;
#X connect 9 0 16 0;
#X connect 11 0 9 0;
#X connect 14 0 15 0;
#X connect 15 0 21 0;
#X connect 16 0 21 0;
#X connect 16 1 21 1;
#X connect 17 0 18 0;
#X connect 18 0 19 0;
#X connect 19 0 20 0;
#X connect 21 0 17 0;
