#N canvas 720 100 665 662 10;
#X declare -path ofelia/libs/of;
#X obj 28 80 loadbang;
#X text 333 569 This example was originally written in Processing.
https://processing.org/examples/transparency.html;
#X text 25 23 Move the pointer left and right across the image to change
its position. This program overlays one image over another by modifying
the alpha value of the image.;
#X obj 462 29 declare -path ofelia/libs/of;
#X obj 28 122 ofWindow;
#X obj 28 158 ofSetup;
#X msg 28 179 load data/moonwalk.jpg;
#X obj 28 200 ofImage \$0-img;
#X obj 28 221 route load;
#X floatatom 28 242 5 0 0 0 - - -;
#X text 67 242 0: fail \, 1: success.;
#X obj 28 380 ofDraw;
#X text 162 401 Get a pointer to the image.;
#X obj 28 401 ofGetImagePtr \$0-img;
#X msg 68 301 easing \$1;
#X floatatom 68 281 5 0 0 0 - - -;
#X obj 71 261 hsl 128 15 0.01 0.1 0 0 empty empty empty -2 -8 0 10
-262144 -1 -1 0 1;
#X text 211 260 Try changing the value.;
#X text 143 332 Variables used.;
#X obj 28 422 ofGetPtr \$0-vars;
#X obj 28 462 ofelia f \; local img \, v = a[1] \, a[2] \; img:draw(0
\, 0) \; local dx = (ofGetMouseX() - img:getWidth()/2) - v.offset \;
v.offset = v.offset + (dx * v.easing) \; ofSetColor(255 \, 255 \, 255
\, 127) \; img:draw(v.offset \, 0) \;;
#X text 35 442 This outputs a list of the two pointers in order.;
#X msg 28 101 setPosition 30 100 \, setSize 640 360 \, create;
#X obj 28 322 ofelia f \$0-vars \; M.offset = 0 \; M.easing = 0.05
\;;
#X text 138 422 Get a pointer to the variable module.;
#X connect 0 0 22 0;
#X connect 5 0 6 0;
#X connect 6 0 7 0;
#X connect 7 0 8 0;
#X connect 8 0 9 0;
#X connect 9 0 23 0;
#X connect 11 0 13 0;
#X connect 13 0 19 0;
#X connect 14 0 23 0;
#X connect 15 0 14 0;
#X connect 16 0 15 0;
#X connect 19 0 20 0;
#X connect 22 0 4 0;
