#N canvas 720 100 665 670 10;
#X declare -lib ofelia;
#X obj 28 80 loadbang;
#X text 333 571 This example was originally written in Processing.
https://processing.org/examples/transparency.html;
#X text 25 23 Move the pointer left and right across the image to change
its position. This program overlays one image over another by modifying
the alpha value of the image.;
#X obj 28 122 ofWindow;
#X obj 28 158 ofSetup;
#X obj 28 221 ofImage \$0-img;
#X obj 28 242 route load;
#X floatatom 28 263 5 0 0 0 - - -;
#X text 67 263 0: fail \, 1: success.;
#X obj 28 401 ofDraw;
#X msg 68 322 easing \$1;
#X floatatom 68 302 5 0 0 0 - - -;
#X obj 71 282 hsl 128 15 0.01 0.1 0 0 empty empty empty -2 -8 0 10
-262144 -1 -1 0 1;
#X text 211 281 Try changing the value.;
#X text 143 353 Variables used.;
#X msg 28 101 setPosition 30 100 \, setSize 640 360 \, create;
#X obj 28 343 ofelia f \$0-vars \; M.offset = 0 \; M.easing = 0.05
\;;
#X obj 28 422 ofRequire \$0-img;
#X obj 28 443 ofRequire \$0-vars;
#X text 137 422 Require the module that has the image.;
#X text 138 443 Require the module that has the variables.;
#X obj 28 464 ofelia f \; local img \, v = a[1].image \, a[2] \; img:draw(0
\, 0) \; local dx = (ofGetMouseX() - img:getWidth()/2) - v.offset \;
v.offset = v.offset + (dx * v.easing) \; ofSetColor(255 \, 255 \, 255
\, 127) \; img:draw(v.offset \, 0) \;;
#X obj 28 179 ofGetDir;
#X msg 28 200 load \$1/data/moonwalk.jpg;
#X obj 512 29 declare -lib ofelia;
#X connect 0 0 15 0;
#X connect 4 0 22 0;
#X connect 5 0 6 0;
#X connect 6 0 7 0;
#X connect 7 0 16 0;
#X connect 9 0 17 0;
#X connect 10 0 16 0;
#X connect 11 0 10 0;
#X connect 12 0 11 0;
#X connect 15 0 3 0;
#X connect 17 0 18 0;
#X connect 18 0 21 0;
#X connect 22 0 23 0;
#X connect 23 0 5 0;
