#N canvas 321 23 595 529 10;
#X declare -lib ofelia;
#X obj 0 0 cnv 15 580 40 empty empty ofBlTriangle~ 3 12 0 18 -204280
-1 0;
#X obj 0 341 cnv 3 580 3 empty empty inlets 8 12 0 13 -228856 -1 0
;
#X obj 0 390 cnv 3 580 3 empty empty outlets 8 12 0 13 -228856 -1 0
;
#X obj 75 349 cnv 17 3 17 empty empty 0 5 9 0 16 -228856 -162280 0
;
#X obj 75 398 cnv 17 3 17 empty empty 0 5 9 0 16 -228856 -162280 0
;
#X obj 0 474 cnv 15 580 21 empty empty empty 20 12 0 14 -228856 -66577
0;
#X obj 0 426 cnv 3 580 3 empty empty arguments 8 12 0 13 -228856 -1
0;
#X obj 85 301 dac~;
#X obj 211 301 tabwrite~ \$0-array;
#X obj 184 134 bng 15 250 50 0 empty empty empty 17 7 0 10 -262144
-1 -1;
#N canvas 0 22 450 278 (subpatch) 0;
#X array \$0-array 100 float 0;
#X coords 0 1 99 -1 150 100 1 0 0;
#X restore 382 217 graph;
#X obj 85 267 *~ 0.1;
#X obj 184 157 t b b;
#X text 206 133 write the outgoing signal to array.;
#X text 95 349 float/signal;
#X text 211 349 - an incoming float/signal changes the frequency.;
#X text 95 398 signal;
#X text 11 23 bandlimited triangle wave oscillator;
#X text 211 398 - the bandlimited triangle wave oscillator output.
;
#X obj 493 5 ofBlTriangle~;
#X floatatom 85 113 10 0 0 0 - - -;
#X text 223 89 change frequency.;
#X obj 88 90 hsl 128 15 20 22050 1 0 empty empty empty -2 -8 0 10 -262144
-1 -1 0 1;
#X text 21 43 [ofBlTriangle~] generates an anti-aliased triangle wave
at a given frequency.;
#N canvas 8 23 228 316 dspstate 0;
#X obj 102 46 r pd;
#X obj 102 72 route dsp;
#X msg 121 158 1;
#X obj 71 189 sig~;
#X obj 71 213 snapshot~;
#X obj 102 129 t b b b;
#X msg 150 158 set 0;
#X obj 71 158 del 10;
#X obj 39 21 cnv 15 40 18 empty empty dsp 9 9 1 15 -233017 -66577 0
;
#X obj 20 20 tgl 20 0 \$0-d.dspstate-s \$0-d.dspstate-r empty 17 7
0 10 -228856 -1 -1 0 1;
#X msg 71 243 set \$1;
#X obj 20 99 s pd;
#X msg 20 72 dsp \$1;
#X obj 148 46 loadbang;
#X connect 0 0 1 0;
#X connect 1 0 5 0;
#X connect 2 0 3 0;
#X connect 3 0 4 0;
#X connect 4 0 10 0;
#X connect 5 0 7 0;
#X connect 5 1 2 0;
#X connect 5 2 6 0;
#X connect 6 0 4 0;
#X connect 7 0 4 0;
#X connect 9 0 12 0;
#X connect 10 0 9 0;
#X connect 12 0 11 0;
#X connect 13 0 5 0;
#X coords 0 -1 1 1 60 20 2 20 20;
#X restore 520 67 pd dspstate;
#X obj 462 46 declare -lib ofelia;
#X msg 184 178 setPhase 0;
#X obj 85 207 ofBlTriangle~ 440;
#X text 95 364 setPhase <f>;
#X text 211 364 - resets the phase.;
#X text 72 449 1) float;
#X text 210 449 - the initial frequency.;
#X connect 9 0 12 0;
#X connect 11 0 7 0;
#X connect 11 0 7 1;
#X connect 12 0 26 0;
#X connect 12 1 8 0;
#X connect 20 0 27 0;
#X connect 22 0 20 0;
#X connect 26 0 27 0;
#X connect 27 0 11 0;
#X connect 27 0 8 0;
