#N canvas 320 23 600 554 10;
#X declare -lib ofelia;
#X obj 0 0 cnv 15 580 40 empty empty ofBlPulse~ 3 12 0 18 -204280 -1
0;
#X obj 0 341 cnv 3 580 3 empty empty inlets 8 12 0 13 -228856 -1 0
;
#X obj 0 415 cnv 3 580 3 empty empty outlets 8 12 0 13 -228856 -1 0
;
#X obj 75 349 cnv 17 3 17 empty empty 0 5 9 0 16 -228856 -162280 0
;
#X obj 75 423 cnv 17 3 17 empty empty 0 5 9 0 16 -228856 -162280 0
;
#X obj 0 499 cnv 15 580 21 empty empty empty 20 12 0 14 -228856 -66577
0;
#X obj 0 451 cnv 3 580 3 empty empty arguments 8 12 0 13 -228856 -1
0;
#X obj 55 311 dac~;
#X obj 240 311 tabwrite~ \$0-array;
#X obj 213 145 bng 15 250 50 0 empty empty empty 17 7 0 10 -262144
-1 -1;
#N canvas 0 22 450 278 (subpatch) 0;
#X array \$0-array 100 float 0;
#X coords 0 1 99 -1 150 100 1 0 0;
#X restore 373 227 graph;
#X obj 55 277 *~ 0.1;
#X obj 213 168 t b b;
#X floatatom 55 103 10 0 0 0 - - -;
#X text 235 143 write the outgoing signal to array.;
#X text 95 349 float/signal;
#X text 211 349 - an incoming float/signal changes the frequency.;
#X text 95 423 signal;
#X text 193 79 change frequency.;
#X obj 58 80 hsl 128 15 20 22050 1 0 empty empty empty -2 -8 0 10 -262144
-1 -1 5600 1;
#X text 11 23 bandlimited pulse wave oscillator;
#X obj 139 103 hsl 128 15 0 0.9 0 0 empty empty empty -2 -8 0 10 -262144
-1 -1 6400 1;
#X floatatom 136 124 5 0 0 0 - - -;
#X obj 136 189 line~;
#X obj 136 168 pack 0 100;
#X text 275 102 change pulsewidth. (50~95% duty cycle);
#X text 211 423 - the bandlimited pulse wave oscillator output.;
#X text 21 43 [ofBlPulse~] generates an anti-aliased pulse wave at
a given frequency.;
#X obj 511 5 ofBlPulse~;
#X obj 75 387 cnv 17 3 17 empty empty 1 5 9 0 16 -228856 -162280 0
;
#X text 95 387 float/signal;
#X text 211 387 - an incoming float/signal changes the pulse width.
;
#N canvas 8 23 228 316 dspstate 0;
#X obj 102 46 r pd;
#X obj 102 72 route dsp;
#X msg 121 158 1;
#X obj 71 189 sig~;
#X obj 71 213 snapshot~;
#X obj 102 129 t b b b;
#X msg 150 158 set 0;
#X obj 71 158 del 10;
#X obj 39 21 cnv 15 40 18 empty empty dsp 9 9 1 15 -233017 -66577 0
;
#X obj 20 20 tgl 20 0 \$0-d.dspstate-s \$0-d.dspstate-r empty 17 7
0 10 -228856 -1 -1 1 1;
#X msg 71 243 set \$1;
#X obj 20 99 s pd;
#X msg 20 72 dsp \$1;
#X obj 148 46 loadbang;
#X connect 0 0 1 0;
#X connect 1 0 5 0;
#X connect 2 0 3 0;
#X connect 3 0 4 0;
#X connect 4 0 10 0;
#X connect 5 0 7 0;
#X connect 5 1 2 0;
#X connect 5 2 6 0;
#X connect 6 0 4 0;
#X connect 7 0 4 0;
#X connect 9 0 12 0;
#X connect 10 0 9 0;
#X connect 12 0 11 0;
#X connect 13 0 5 0;
#X coords 0 -1 1 1 60 20 2 20 20;
#X restore 520 67 pd dspstate;
#X obj 462 46 declare -lib ofelia;
#X obj 55 217 ofBlPulse~ 440;
#X text 72 474 1) float;
#X text 210 474 - the initial frequency.;
#X text 95 364 setPhase <f>;
#X text 211 364 - resets the phase.;
#X msg 213 189 setPhase 0;
#X connect 9 0 12 0;
#X connect 11 0 7 0;
#X connect 11 0 7 1;
#X connect 12 0 39 0;
#X connect 12 1 8 0;
#X connect 13 0 34 0;
#X connect 19 0 13 0;
#X connect 21 0 22 0;
#X connect 22 0 24 0;
#X connect 23 0 34 1;
#X connect 24 0 23 0;
#X connect 34 0 11 0;
#X connect 34 0 8 0;
#X connect 39 0 34 0;
