#N canvas 321 23 601 542 10;
#X declare -lib ofelia;
#X obj 0 0 cnv 15 580 40 empty empty ofCanvasPosition 3 12 0 18 -204280
-1 0;
#X obj 0 341 cnv 3 580 3 empty empty inlets 8 12 0 13 -228856 -1 0
;
#X obj 0 400 cnv 3 580 3 empty empty outlets 8 12 0 13 -228856 -1 0
;
#X obj 75 349 cnv 17 3 17 empty empty 0 5 9 0 16 -228856 -162280 0
;
#X obj 75 408 cnv 17 3 17 empty empty 0 5 9 0 16 -228856 -162280 0
;
#X obj 0 485 cnv 15 580 21 empty empty empty 20 12 0 14 -228856 -66577
0;
#X obj 0 436 cnv 3 580 3 empty empty arguments 8 12 0 13 -228856 -1
0;
#X text 95 349 bang;
#X text 72 459 1) float;
#X obj 231 146 bng 15 250 50 0 empty empty empty 17 7 0 10 -262144
-1 -1;
#N canvas 322 121 483 300 myCanvas 0;
#X obj 70 95 inlet;
#X obj 70 159 outlet;
#X text 182 127 get or set the position of the parent canvas.;
#X obj 70 127 ofCanvasPosition;
#X connect 0 0 3 0;
#X connect 3 0 1 0;
#X restore 231 194 pd myCanvas;
#X obj 231 215 unpack f f;
#X floatatom 231 236 5 0 0 0 - - -;
#X floatatom 288 236 5 0 0 0 - - -;
#X text 95 408 list <f \, f>;
#X obj 475 5 ofCanvasPosition;
#X obj 75 372 cnv 17 3 17 empty empty 0 5 9 0 16 -228856 -162280 0
;
#X text 95 372 list <f \, f>;
#X obj 462 46 declare -lib ofelia;
#X text 11 23 get or set the position of the parent canvas;
#X text 21 43 [ofCanvasPosition] is used to get or set the position
of the parent canvas.;
#X text 211 349 - gets the position of the parent canvas.;
#X text 211 372 - sets the position of the parent canvas.;
#X text 211 408 - the position of the parent canvas.;
#X text 211 459 - the 'n'th level. (default: 0) (0 = one level parent)
;
#X text 251 145 get the position of the subpatch.;
#X text 311 168 set the position of the subpatch.;
#X msg 258 168 50 200;
#X connect 9 0 10 0;
#X connect 10 0 11 0;
#X connect 11 0 12 0;
#X connect 11 1 13 0;
#X connect 27 0 10 0;
