#N canvas 321 23 601 667 10;
#X declare -lib ofelia;
#X obj 0 0 cnv 15 580 40 empty empty ofExpr~ 3 12 0 18 -204280 -1 0
;
#X obj 0 491 cnv 3 580 3 empty empty inlets 8 12 0 13 -228856 -1 0
;
#X obj 0 527 cnv 3 580 3 empty empty outlets 8 12 0 13 -228856 -1 0
;
#X obj 75 499 cnv 17 3 17 empty empty n 5 9 0 16 -228856 -162280 0
;
#X obj 0 612 cnv 15 580 21 empty empty empty 20 12 0 14 -228856 -66577
0;
#X obj 0 563 cnv 3 580 3 empty empty arguments 8 12 0 13 -228856 -1
0;
#X obj 75 535 cnv 17 3 17 empty empty n 5 9 0 16 -228856 -162280 0
;
#X text 72 586 n) anything;
#X obj 529 5 ofExpr~;
#X text 95 536 signal;
#X text 211 536 - the output signal result.;
#N canvas 8 23 228 316 dspstate 0;
#X obj 102 46 r pd;
#X obj 102 72 route dsp;
#X msg 121 158 1;
#X obj 71 189 sig~;
#X obj 71 213 snapshot~;
#X obj 102 129 t b b b;
#X msg 150 158 set 0;
#X obj 71 158 del 10;
#X obj 39 21 cnv 15 40 18 empty empty dsp 9 9 1 15 -233017 -66577 0
;
#X obj 20 20 tgl 20 0 \$0-d.dspstate-s \$0-d.dspstate-r empty 17 7
0 10 -228856 -1 -1 0 1;
#X msg 71 243 set \$1;
#X obj 20 99 s pd;
#X msg 20 72 dsp \$1;
#X obj 148 46 loadbang;
#X connect 0 0 1 0;
#X connect 1 0 5 0;
#X connect 2 0 3 0;
#X connect 3 0 4 0;
#X connect 4 0 10 0;
#X connect 5 0 7 0;
#X connect 5 1 2 0;
#X connect 5 2 6 0;
#X connect 6 0 4 0;
#X connect 7 0 4 0;
#X connect 9 0 12 0;
#X connect 10 0 9 0;
#X connect 12 0 11 0;
#X connect 13 0 5 0;
#X coords 0 -1 1 1 60 20 2 20 20;
#X restore 520 67 pd dspstate;
#X obj 27 176 snapshot~;
#X obj 45 153 bang~;
#X floatatom 27 197 5 0 0 0 - - -;
#X obj 310 243 ofExpr~ ofRandom(-1 \, 1);
#X obj 27 292 snapshot~;
#X obj 45 269 bang~;
#X floatatom 27 313 5 0 0 0 - - -;
#X obj 310 176 snapshot~;
#X obj 328 153 bang~;
#X floatatom 310 197 5 0 0 0 - - -;
#X text 211 586 - expression or a constant.;
#X obj 462 46 declare -lib ofelia;
#X text 11 23 get an expression result in signal;
#X text 21 43 [ofExpr~] is used to quickly get an expression result
or a constant value in signal.;
#X floatatom 138 86 5 0 0 0 - - -;
#X text 176 83 pulse width (0-100);
#X text 25 85 pulse waveform.;
#X obj 27 106 phasor~ 1;
#X obj 27 435 snapshot~;
#X floatatom 27 456 5 0 0 0 - - -;
#X obj 91 435 snapshot~;
#X floatatom 91 456 5 0 0 0 - - -;
#X obj 156 435 snapshot~;
#X floatatom 156 456 5 0 0 0 - - -;
#X obj 168 414 bang~;
#X floatatom 27 361 5 0 0 0 - - -;
#X text 26 342 using float to control the inlet.;
#X obj 138 106 / 100;
#X obj 310 435 snapshot~;
#X floatatom 310 456 5 0 0 0 - - -;
#X obj 409 435 snapshot~;
#X floatatom 409 456 5 0 0 0 - - -;
#X obj 425 402 bang~;
#X obj 359 359 sig~ 2;
#X obj 310 359 sig~ 1;
#X obj 409 359 sig~ 3;
#X text 308 340 multiple signal inlets and outlets.;
#X obj 310 292 snapshot~;
#X obj 328 269 bang~;
#X floatatom 310 313 5 0 0 0 - - -;
#X obj 27 127 ofExpr~ a1 > a2;
#X f 19;
#X obj 27 381 ofExpr~ \; a1 * 0.1 \; a1 * 0.2 \; a1 * 0.3 \;;
#X f 22;
#X obj 310 381 ofExpr~ \; (a1 + a2) / 2 \; (a2 + a3) / 2 \;;
#X f 17;
#X obj 27 243 ofExpr~ math.sin(ofGetElapsedTimef());
#X text 309 222 noise generator.;
#X text 95 500 float/signal;
#X text 211 500 - the incoming float/signal;
#X floatatom 493 108 5 0 0 0 - - -;
#X obj 310 106 osc~ 1;
#X obj 310 127 ofExpr~ ofClamp(a1 * a2 \, -1 \, 1);
#X text 531 107 gain.;
#X text 308 87 hard clipping distortion.;
#X text 25 222 sine LFO using the elapsed time in seconds.;
#X connect 12 0 14 0;
#X connect 13 0 12 0;
#X connect 15 0 49 0;
#X connect 16 0 18 0;
#X connect 17 0 16 0;
#X connect 19 0 21 0;
#X connect 20 0 19 0;
#X connect 26 0 39 0;
#X connect 29 0 52 0;
#X connect 30 0 31 0;
#X connect 32 0 33 0;
#X connect 34 0 35 0;
#X connect 36 0 34 0;
#X connect 36 0 32 0;
#X connect 36 0 30 0;
#X connect 37 0 53 0;
#X connect 39 0 52 1;
#X connect 40 0 41 0;
#X connect 42 0 43 0;
#X connect 44 0 42 0;
#X connect 44 0 40 0;
#X connect 45 0 54 1;
#X connect 46 0 54 0;
#X connect 47 0 54 2;
#X connect 49 0 51 0;
#X connect 50 0 49 0;
#X connect 52 0 12 0;
#X connect 53 0 30 0;
#X connect 53 1 32 0;
#X connect 53 2 34 0;
#X connect 54 0 40 0;
#X connect 54 1 42 0;
#X connect 55 0 16 0;
#X connect 59 0 61 1;
#X connect 60 0 61 0;
#X connect 61 0 19 0;
