#N canvas 321 23 601 565 10;
#X declare -lib ofelia;
#X obj 0 0 cnv 15 580 40 empty empty ofFor 3 12 0 18 -204280 -1 0;
#X obj 541 5 ofFor;
#X text 11 23 increment/decrement number until it reaches the target
;
#X obj 0 381 cnv 3 580 3 empty empty inlets 8 12 0 13 -228856 -1 0
;
#X obj 0 417 cnv 3 580 3 empty empty outlets 8 12 0 13 -228856 -1 0
;
#X obj 75 389 cnv 17 3 17 empty empty 0 5 9 0 16 -228856 -162280 0
;
#X obj 0 512 cnv 15 580 21 empty empty empty 20 12 0 14 -228856 -66577
0;
#X obj 0 453 cnv 3 580 3 empty empty arguments 8 12 0 13 -228856 -1
0;
#X obj 75 425 cnv 17 3 17 empty empty n 5 9 0 16 -228856 -162280 0
;
#X text 21 43 [ofFor] is used to increment/decrement the initial value
by specified amount until it reaches the target value.;
#X text 95 426 float;
#X obj 31 222 print;
#X obj 295 101 bng 15 250 50 0 empty empty empty 17 7 0 10 -262144
-1 -1;
#X obj 295 144 print;
#X obj 462 46 declare -lib ofelia;
#X obj 31 101 bng 15 250 50 0 empty empty empty 17 7 0 10 -262144 -1
-1;
#X obj 31 144 print;
#X text 52 100 count from 1 to 5 incremented by 1;
#X obj 31 123 ofFor 1 5;
#X obj 295 222 print;
#X msg 295 180 0 100 20;
#X obj 295 201 ofFor a[1] a[2] a[3];
#X text 356 180 count from 0 to 100 incremented by 20;
#X text 316 100 count from 4 to 0 decremented by 1;
#X obj 295 123 ofFor 4 0 -1;
#X obj 31 281 ofFor \; 1 4 \; 1 3 \;;
#X f 8;
#X obj 31 259 bng 15 250 50 0 empty empty empty 17 7 0 10 -262144 -1
-1;
#X text 55 258 a two dimensional for loop.;
#X obj 31 324 pack f f;
#X obj 31 345 print;
#X obj 295 313 print;
#X text 328 259 you can also use functions or expressions.;
#X obj 295 281 ofFor \; 1 ofGetDay() - 1 a \;;
#X msg 295 260 2;
#X obj 31 201 ofFor -2 a 0.5;
#X msg 31 180 2;
#X text 62 180 count from -2 to 2 incremented by 0.5;
#X text 95 390 anything;
#X text 211 390 - start the for loop. (optionally pass variables);
#X text 211 426 - the incremented/decremented value.;
#X text 72 476 n) anything;
#X text 211 476 - expressions or constants to set the 1) initial value
\, 2) target value and 3) increment/decrement amount (default: 1);
#X connect 12 0 24 0;
#X connect 15 0 18 0;
#X connect 18 0 16 0;
#X connect 20 0 21 0;
#X connect 21 0 19 0;
#X connect 24 0 13 0;
#X connect 25 0 28 0;
#X connect 25 1 28 1;
#X connect 26 0 25 0;
#X connect 28 0 29 0;
#X connect 32 0 30 0;
#X connect 33 0 32 0;
#X connect 34 0 11 0;
#X connect 35 0 34 0;
