#N canvas 321 23 601 518 10;
#X declare -lib ofelia;
#X obj 0 0 cnv 15 580 40 empty empty ofGetLastDrawOrder 3 12 0 18 -204280
-1 0;
#X obj 0 341 cnv 3 580 3 empty empty inlets 8 12 0 13 -228856 -1 0
;
#X obj 0 377 cnv 3 580 3 empty empty outlets 8 12 0 13 -228856 -1 0
;
#X obj 75 349 cnv 17 3 17 empty empty 0 5 9 0 16 -228856 -162280 0
;
#X obj 0 462 cnv 15 580 21 empty empty empty 20 12 0 14 -228856 -66577
0;
#X obj 0 413 cnv 3 580 3 empty empty arguments 8 12 0 13 -228856 -1
0;
#X obj 75 385 cnv 17 3 17 empty empty 0 5 9 0 16 -228856 -162280 0
;
#X obj 204 143 bng 15 250 50 0 empty empty empty 17 7 0 10 -262144
-1 -1;
#X floatatom 204 194 5 0 0 0 - - -;
#X text 72 436 (none);
#X text 95 386 float;
#X text 95 350 bang;
#X text 11 23 get the last draw order;
#X obj 463 5 ofGetLastDrawOrder;
#X text 21 43 [ofGetLastDrawOrder] is used to find out the last draw
order among multiple [ofDraw] listeners with different order.;
#X text 227 143 get the last draw order among the existing [ofDraw]
listeners.;
#X obj 204 173 ofGetLastDrawOrder;
#X text 211 350 - get the last draw order.;
#X text 211 386 - outputs the last draw order.;
#X obj 92 268 ofDraw 50;
#X obj 202 268 ofDraw 60;
#X obj 312 268 ofDraw 40;
#X obj 422 268 ofDraw 30;
#X floatatom 92 227 5 0 0 0 - - -;
#X msg 92 247 setOrder \$1;
#X floatatom 202 227 5 0 0 0 - - -;
#X msg 202 247 setOrder \$1;
#X floatatom 312 227 5 0 0 0 - - -;
#X msg 312 247 setOrder \$1;
#X floatatom 422 227 5 0 0 0 - - -;
#X msg 422 247 setOrder \$1;
#X obj 462 46 declare -lib ofelia;
#X connect 7 0 16 0;
#X connect 16 0 8 0;
#X connect 23 0 24 0;
#X connect 24 0 19 0;
#X connect 25 0 26 0;
#X connect 26 0 20 0;
#X connect 27 0 28 0;
#X connect 28 0 21 0;
#X connect 29 0 30 0;
#X connect 30 0 22 0;
