#N canvas 321 23 598 517 10;
#X declare -lib ofelia;
#X obj 0 0 cnv 15 580 40 empty empty ofGetDir 3 12 0 18 -204280 -1
0;
#X obj 0 341 cnv 3 580 3 empty empty inlets 8 12 0 13 -228856 -1 0
;
#X obj 0 377 cnv 3 580 3 empty empty outlets 8 12 0 13 -228856 -1 0
;
#X obj 75 349 cnv 17 3 17 empty empty 0 5 9 0 16 -228856 -162280 0
;
#X obj 75 385 cnv 17 3 17 empty empty 0 5 9 0 16 -228856 -162280 0
;
#X obj 0 462 cnv 15 580 21 empty empty empty 20 12 0 14 -228856 -66577
0;
#X obj 0 413 cnv 3 580 3 empty empty arguments 8 12 0 13 -228856 -1
0;
#X obj 168 140 bng 15 250 50 0 empty empty empty 17 7 0 10 -262144
-1 -1;
#X text 95 349 bang;
#X text 72 436 1) float;
#X text 211 436 - the 'n'th level. (default: 0);
#X obj 168 230 bng 15 250 50 0 empty empty empty 17 7 0 10 -262144
-1 -1;
#X text 190 230 get the \$0 value of the parent patch. (if it exists)
;
#X text 11 23 get the directory of the patch;
#X text 190 140 get the directory of the patch.;
#X symbolatom 168 186 60 0 0 0 - - -;
#X symbolatom 168 276 60 0 0 0 - - -;
#X text 211 349 - gets the directory of the patch.;
#X text 211 385 - the directory of the patch in a specified level.
;
#X text 95 385 symbol;
#X obj 523 5 ofGetDir;
#X text 21 43 [ofGetDir] is used to get the directory of the current
or the parent patch. for example \, if you use [ofGetDir] in an abstraction
\, you can get the directory of the parent patch.;
#X obj 168 165 ofGetDir;
#X obj 168 255 ofGetDir 1;
#X obj 462 46 declare -lib ofelia;
#X connect 7 0 22 0;
#X connect 11 0 23 0;
#X connect 22 0 15 0;
#X connect 23 0 16 0;
