#N canvas 321 23 599 516 10;
#X declare -lib ofelia;
#X obj 0 0 cnv 15 580 40 empty empty ofGetOfeliaVersionMinor 3 12 0
18 -204280 -1 0;
#X obj 0 341 cnv 3 580 3 empty empty inlets 8 12 0 13 -228856 -1 0
;
#X obj 0 375 cnv 3 580 3 empty empty outlets 8 12 0 13 -228856 -1 0
;
#X obj 75 349 cnv 17 3 17 empty empty 0 5 9 0 16 -228856 -162280 0
;
#X obj 75 383 cnv 17 3 17 empty empty 0 5 9 0 16 -228856 -162280 0
;
#X obj 0 460 cnv 15 580 21 empty empty empty 20 12 0 14 -228856 -66577
0;
#X obj 0 411 cnv 3 580 3 empty empty arguments 8 12 0 13 -228856 -1
0;
#X text 95 349 bang;
#X text 72 434 (none);
#X obj 245 159 bng 15 250 50 0 empty empty empty 17 7 0 10 -262144
-1 -1;
#X obj 462 46 declare -lib ofelia;
#X floatatom 245 211 5 0 0 0 - - -;
#X text 95 383 float;
#X obj 433 5 ofGetOfeliaVersionMinor;
#X text 11 23 get the current ofelia minor version;
#X obj 245 185 ofGetOfeliaVersionMinor;
#X text 211 349 - gets the current ofelia minor version.;
#X text 211 383 - get the current ofelia minor version.;
#X connect 9 0 15 0;
#X connect 15 0 11 0;
