#N canvas 321 23 599 516 10;
#X declare -lib ofelia;
#X obj 0 0 cnv 15 580 40 empty empty ofGetMaxString 3 12 0 18 -204280
-1 0;
#X obj 0 341 cnv 3 580 3 empty empty inlets 8 12 0 13 -228856 -1 0
;
#X obj 0 375 cnv 3 580 3 empty empty outlets 8 12 0 13 -228856 -1 0
;
#X obj 75 349 cnv 17 3 17 empty empty 0 5 9 0 16 -228856 -162280 0
;
#X obj 75 383 cnv 17 3 17 empty empty 0 5 9 0 16 -228856 -162280 0
;
#X obj 0 460 cnv 15 580 21 empty empty empty 20 12 0 14 -228856 -66577
0;
#X obj 0 411 cnv 3 580 3 empty empty arguments 8 12 0 13 -228856 -1
0;
#X text 95 349 bang;
#X text 72 434 (none);
#X text 95 383 float;
#X obj 205 149 bng 15 250 50 0 empty empty empty 17 7 0 10 -262144
-1 -1;
#X floatatom 205 204 15 0 0 0 - - -;
#X obj 462 46 declare -lib ofelia;
#X obj 487 5 ofGetMaxString;
#X text 11 23 get the maximum supported length of string;
#X obj 205 175 ofGetMaxString;
#X text 211 349 - gets the maximum supported length of string.;
#X text 211 383 - the maximum supported length of string.;
#X text 307 204 the maximum supported length of a pd symbol.;
#X text 21 43 [ofGetMaxString] internally uses "MAXPDSTRING" preprocessor
defined in "m_pd.h".;
#X connect 10 0 15 0;
#X connect 15 0 11 0;
