#N canvas 321 23 601 697 10;
#X declare -lib ofelia;
#X obj 0 0 cnv 15 580 40 empty empty ofIf~ 3 12 0 18 -204280 -1 0;
#X obj 0 521 cnv 3 580 3 empty empty inlets 8 12 0 13 -228856 -1 0
;
#X obj 0 557 cnv 3 580 3 empty empty outlets 8 12 0 13 -228856 -1 0
;
#X obj 75 529 cnv 17 3 17 empty empty n 5 9 0 16 -228856 -162280 0
;
#X obj 0 642 cnv 15 580 21 empty empty empty 20 12 0 14 -228856 -66577
0;
#X obj 0 593 cnv 3 580 3 empty empty arguments 8 12 0 13 -228856 -1
0;
#X obj 75 565 cnv 17 3 17 empty empty n 5 9 0 16 -228856 -162280 0
;
#X obj 462 46 declare -lib ofelia;
#X text 72 616 n) anything;
#X text 211 616 - expression or a constant.;
#X floatatom 26 85 5 0 0 0 - - -;
#X obj 541 5 ofIf~;
#X text 11 23 get a conditional result in signal;
#X text 21 43 [ofIf~] is used to quickly get a result in signal based
on the condition.;
#N canvas 8 23 228 316 dspstate 0;
#X obj 102 46 r pd;
#X obj 102 72 route dsp;
#X msg 121 158 1;
#X obj 71 189 sig~;
#X obj 71 213 snapshot~;
#X obj 102 129 t b b b;
#X msg 150 158 set 0;
#X obj 71 158 del 10;
#X obj 39 21 cnv 15 40 18 empty empty dsp 9 9 1 15 -233017 -66577 0
;
#X obj 20 20 tgl 20 0 \$0-d.dspstate-s \$0-d.dspstate-r empty 17 7
0 10 -228856 -1 -1 1 1;
#X msg 71 243 set \$1;
#X obj 20 99 s pd;
#X msg 20 72 dsp \$1;
#X obj 148 46 loadbang;
#X connect 0 0 1 0;
#X connect 1 0 5 0;
#X connect 2 0 3 0;
#X connect 3 0 4 0;
#X connect 4 0 10 0;
#X connect 5 0 7 0;
#X connect 5 1 2 0;
#X connect 5 2 6 0;
#X connect 6 0 4 0;
#X connect 7 0 4 0;
#X connect 9 0 12 0;
#X connect 10 0 9 0;
#X connect 12 0 11 0;
#X connect 13 0 5 0;
#X coords 0 -1 1 1 60 20 2 20 20;
#X restore 520 67 pd dspstate;
#X obj 26 149 snapshot~;
#X obj 44 126 bang~;
#X floatatom 26 170 5 0 0 0 - - -;
#X obj 26 299 snapshot~;
#X obj 44 276 bang~;
#X floatatom 26 320 5 0 0 0 - - -;
#X obj 26 206 tgl 15 0 empty empty empty 17 7 0 10 -262144 -1 -1 0
1;
#X obj 111 234 sig~ 2;
#X obj 197 234 sig~ 3;
#X obj 24 356 tgl 15 0 empty empty empty 17 7 0 10 -262144 -1 -1 1
1;
#X obj 159 376 sig~ 5;
#X obj 24 463 snapshot~;
#X obj 42 440 bang~;
#X floatatom 24 484 5 0 0 0 - - -;
#X obj 159 463 snapshot~;
#X obj 177 440 bang~;
#X floatatom 159 484 5 0 0 0 - - -;
#X text 48 204 output signal from the 0) second or 1) third inlet.
;
#X obj 26 255 ofIf~ a1 == 0 then a2 else a3;
#X obj 24 397 ofIf~ \; a1 == 0 then a2 else 0 \; a1 == 1 then a2 else
0 \;;
#X obj 26 105 ofIf~ a1 < -1 then -1 elseif a1 > 1 then 1 else a1;
#X text 339 105 clip the signal within -1 and 1;
#X text 95 530 float/signal;
#X text 211 530 - the incoming float/signal.;
#X text 211 566 - the output signal result.;
#X text 95 566 signal;
#X text 45 355 output signal through the 0) first or 1) second outlet.
;
#X connect 10 0 35 0;
#X connect 15 0 17 0;
#X connect 16 0 15 0;
#X connect 18 0 20 0;
#X connect 19 0 18 0;
#X connect 21 0 33 0;
#X connect 22 0 33 1;
#X connect 23 0 33 2;
#X connect 24 0 34 0;
#X connect 25 0 34 1;
#X connect 26 0 28 0;
#X connect 27 0 26 0;
#X connect 29 0 31 0;
#X connect 30 0 29 0;
#X connect 33 0 18 0;
#X connect 34 0 26 0;
#X connect 34 1 29 0;
#X connect 35 0 15 0;
