#N canvas 321 23 601 757 10;
#X declare -lib ofelia;
#X obj 0 0 cnv 15 580 40 empty empty ofIf 3 12 0 18 -204280 -1 0;
#X obj 0 581 cnv 3 580 3 empty empty inlets 8 12 0 13 -228856 -1 0
;
#X obj 0 617 cnv 3 580 3 empty empty outlets 8 12 0 13 -228856 -1 0
;
#X obj 75 589 cnv 17 3 17 empty empty 0 5 9 0 16 -228856 -162280 0
;
#X obj 0 702 cnv 15 580 21 empty empty empty 20 12 0 14 -228856 -66577
0;
#X obj 0 653 cnv 3 580 3 empty empty arguments 8 12 0 13 -228856 -1
0;
#X obj 75 625 cnv 17 3 17 empty empty n 5 9 0 16 -228856 -162280 0
;
#X obj 462 46 declare -lib ofelia;
#X text 95 626 anything;
#X text 95 590 anything;
#X text 211 626 - the returned result.;
#X text 72 676 n) anything;
#X text 211 676 - expression or a constant.;
#X obj 547 5 ofIf;
#X floatatom 26 85 5 0 0 0 - - -;
#X floatatom 26 126 5 0 0 0 - - -;
#X obj 26 105 ofIf a > 0 then a;
#X text 140 105 output the incoming number "a" if it is larger than
zero.;
#X floatatom 26 155 5 0 0 0 - - -;
#X floatatom 26 196 5 0 0 0 - - -;
#X obj 26 175 ofIf a > 0 then a else 0;
#X text 182 175 output the incoming number "a" if it is larger than
zero otherwise \, output zero.;
#X floatatom 26 225 5 0 0 0 - - -;
#X floatatom 26 266 5 0 0 0 - - -;
#X obj 26 245 ofIf a > 0 then 1 elseif a == 0 then 0 else -1;
#X text 312 245 output 1 if positive \, -1 if negative \, 0 if 0;
#X text 11 23 get a conditional result;
#X text 21 43 [ofIf] is used to quickly get a result based on the condition.
;
#X floatatom 26 336 5 0 0 0 - - -;
#X obj 26 315 ofIf #a == 3 then a[1] + a[2] + a[3];
#X msg 26 294 1 2 3;
#X text 253 315 if the incoming list has 3 elements \, get the sum
of 3;
#X obj 26 385 ofIf \; a < 0 then a \; a >= 0 then a \;;
#X floatatom 107 428 5 0 0 0 - - -;
#X floatatom 26 428 5 0 0 0 - - -;
#X floatatom 26 365 5 0 0 0 - - -;
#X text 122 384 you can also write multiple if statements to output
results in separate outlets.;
#X obj 26 483 symbol;
#X msg 26 457 year;
#X msg 66 457 month;
#X msg 111 457 day;
#X obj 26 504 ofIf \; a == "year" then ofGetYear() elseif a == "month"
then ofGetMonth() elseif a == "day" then ofGetDay();
#X f 51;
#X floatatom 26 547 5 0 0 0 - - -;
#X text 74 484 get a symbol based conditional result.;
#X text 211 590 - get the result based on a condition.;
#X floatatom 355 416 5 0 0 0 - - -;
#X floatatom 355 457 5 0 0 0 - - -;
#X floatatom 355 486 5 0 0 0 - - -;
#X floatatom 355 527 5 0 0 0 - - -;
#X text 395 456 bypass if between -10 and 10;
#X text 395 526 bypass if outside -10 and 10;
#X obj 355 436 ofIf a >= -10 and a <= 10 then a;
#X obj 355 506 ofIf a <= -10 or a >= 10 then a;
#X connect 14 0 16 0;
#X connect 16 0 15 0;
#X connect 18 0 20 0;
#X connect 20 0 19 0;
#X connect 22 0 24 0;
#X connect 24 0 23 0;
#X connect 29 0 28 0;
#X connect 30 0 29 0;
#X connect 32 0 34 0;
#X connect 32 1 33 0;
#X connect 35 0 32 0;
#X connect 37 0 41 0;
#X connect 38 0 37 0;
#X connect 39 0 37 0;
#X connect 40 0 37 0;
#X connect 41 0 42 0;
#X connect 45 0 51 0;
#X connect 47 0 52 0;
#X connect 51 0 46 0;
#X connect 52 0 48 0;
