#N canvas 321 23 601 815 10;
#X declare -lib ofelia;
#X obj 0 0 cnv 15 580 40 empty empty ofJson 3 12 0 18 -204280 -1 0
;
#X obj 0 351 cnv 3 580 3 empty empty inlets 8 12 0 13 -228856 -1 0
;
#X obj 0 677 cnv 3 580 3 empty empty outlets 8 12 0 13 -228856 -1 0
;
#X obj 75 359 cnv 17 3 17 empty empty 0 5 9 0 16 -228856 -162280 0
;
#X obj 75 685 cnv 17 3 17 empty empty 0 5 9 0 16 -228856 -162280 0
;
#X obj 0 762 cnv 15 580 21 empty empty empty 20 12 0 14 -228856 -66577
0;
#X obj 0 713 cnv 3 580 3 empty empty arguments 8 12 0 13 -228856 -1
0;
#X obj 462 46 declare -lib ofelia;
#X text 95 685 anything;
#X text 211 685 - <method name \, returned value>;
#X text 72 736 1) symbol;
#X text 211 736 - an optional module name.;
#X obj 535 5 ofJson;
#X text 21 43 [ofJson] is used to handle JSON files.;
#X text 95 359 setDelimiter <s>;
#X text 95 377 load <s>;
#X text 211 377 - load a JSON file from the path.;
#X text 95 395 save <s>;
#X text 211 395 - save a JSON file to the path.;
#X text 95 413 getAsJsonString;
#X text 211 413 - get the current content as a string.;
#X text 95 431 getString <s>;
#X text 211 359 - set the delimiter. (default: "/");
#X text 211 431 - get a string from the key.;
#X text 95 451 getBool <s>;
#X text 95 471 getInt <s>;
#X text 95 491 getFloat <s>;
#X text 95 511 getDouble <s>;
#X text 211 471 - get a integer from the key.;
#X text 211 451 - get a boolean from the key.;
#X text 211 491 - get a float from the key.;
#X text 211 511 - get a double from the key.;
#X text 95 531 setString <s \, s>;
#X text 95 551 setBool <s \, f>;
#X text 95 571 setInt <s \, f>;
#X text 95 591 setFloat <s \, f>;
#X text 95 611 setDouble <s \, f>;
#X text 211 531 - set the string with <key \, string>;
#X text 211 551 - set the boolean with <key \, boolean>;
#X text 211 571 - set the integer with <key \, integer>;
#X text 211 591 - set the float with <key \, float>;
#X text 211 611 - set the double with <key \, double>;
#X text 95 631 exists <s>;
#X text 95 651 remove <s>;
#X text 211 631 - check whether the key exists or not.;
#X text 211 651 - remove the key.;
#X text 11 23 load/modify/save a JSON file;
#X obj 32 142 ofJson \$0-json;
#X obj 32 100 ofGetDir;
#X obj 32 78 bng 15 250 50 0 empty empty empty 17 7 0 10 -262144 -1
-1;
#X floatatom 32 184 5 0 0 0 - - -;
#X text 75 185 0: fail \, 1: succcess.;
#X text 52 77 load a JSON file.;
#X obj 32 163 route load;
#X obj 332 162 ofJson \$0-json getAsJsonString;
#X obj 332 183 print;
#X obj 332 141 bng 15 250 50 0 empty empty empty 17 7 0 10 -262144
-1 -1;
#X text 355 140 print the current data as string.;
#X text 30 217 get a string from the key.;
#X symbolatom 30 312 17 0 0 0 - - -;
#X obj 30 291 ofJson \$0-json getString ?;
#X msg 30 239 symbol fonts/heading/face;
#X msg 50 265 symbol fonts/body/face;
#X floatatom 215 312 5 0 0 0 - - -;
#X msg 215 239 symbol x-pos;
#X obj 215 291 ofJson \$0-json getFloat ?;
#X msg 231 265 symbol size;
#X text 216 216 get a float from the key.;
#X text 391 216 set the float with <key \, float>;
#X obj 394 291 ofJson \$0-json setFloat ? ?;
#X msg 394 239 list x-pos 200;
#X msg 410 265 list size 100;
#X msg 32 121 load \$1/../examples/utils/loadSaveJson/data/data.json
;
#X connect 47 0 53 0;
#X connect 48 0 72 0;
#X connect 49 0 48 0;
#X connect 53 0 50 0;
#X connect 54 0 55 0;
#X connect 56 0 54 0;
#X connect 60 0 59 0;
#X connect 61 0 60 0;
#X connect 62 0 60 0;
#X connect 64 0 65 0;
#X connect 65 0 63 0;
#X connect 66 0 65 0;
#X connect 70 0 69 0;
#X connect 71 0 69 0;
#X connect 72 0 47 0;
