#N canvas 321 23 598 517 10;
#X declare -lib ofelia;
#X obj 0 0 cnv 15 580 40 empty empty ofMakeFileName 3 12 0 18 -204280
-1 0;
#X obj 0 341 cnv 3 580 3 empty empty inlets 8 12 0 13 -228856 -1 0
;
#X obj 0 377 cnv 3 580 3 empty empty outlets 8 12 0 13 -228856 -1 0
;
#X obj 75 349 cnv 17 3 17 empty empty 0 5 9 0 16 -228856 -162280 0
;
#X obj 75 385 cnv 17 3 17 empty empty 0 5 9 0 16 -228856 -162280 0
;
#X obj 0 462 cnv 15 580 21 empty empty empty 20 12 0 14 -228856 -66577
0;
#X obj 0 413 cnv 3 580 3 empty empty arguments 8 12 0 13 -228856 -1
0;
#X text 72 436 1) float;
#X text 211 436 - the 'n'th level. (default: 0);
#X symbolatom 58 168 80 0 0 0 - - -;
#X text 95 385 symbol;
#X obj 487 5 ofMakeFileName;
#X text 11 23 convert a file name to an absolute path;
#X msg 58 126 symbol ofMakeFileName.pd;
#X obj 58 147 ofMakeFileName;
#X text 21 43 [ofMakeFileName] is used to convert a file name (relative
to the current or the parent patch) to an absolute path.;
#X text 95 349 symbol;
#X text 211 349 - the file name to convert to an absolute path.;
#X text 211 385 - the converted absolute path.;
#X symbolatom 58 268 80 0 0 0 - - -;
#X msg 58 226 symbol ofMakeFileName.pd;
#X obj 58 247 ofMakeFileName 1;
#X text 216 125 convert the file name (relative to the current patch)
to an absolute path.;
#X text 216 225 convert the file name (relative to the parent patch)
to an absolute path. (if the parent patch exists);
#X obj 462 46 declare -lib ofelia;
#X connect 13 0 14 0;
#X connect 14 0 9 0;
#X connect 20 0 21 0;
#X connect 21 0 19 0;
