#N canvas 321 23 601 624 10;
#X declare -lib ofelia;
#X obj 0 0 cnv 15 580 40 empty empty ofOscReceiver 3 12 0 18 -204280
-1 0;
#X obj 0 361 cnv 3 580 3 empty empty inlets 8 12 0 13 -228856 -1 0
;
#X obj 0 484 cnv 3 580 3 empty empty outlets 8 12 0 13 -228856 -1 0
;
#X obj 75 369 cnv 17 3 17 empty empty 0 5 9 0 16 -228856 -162280 0
;
#X obj 75 492 cnv 17 3 17 empty empty 0 5 9 0 16 -228856 -162280 0
;
#X obj 0 569 cnv 15 580 21 empty empty empty 20 12 0 14 -228856 -66577
0;
#X obj 0 520 cnv 3 580 3 empty empty arguments 8 12 0 13 -228856 -1
0;
#X obj 462 46 declare -lib ofelia;
#X obj 84 195 ofOscSender;
#X msg 84 94 setup localhost 12345;
#X msg 105 166 clear;
#X floatatom 100 120 5 0 0 0 - - -;
#X msg 100 140 send /test/number \$1;
#X msg 240 140 send /test/string foo;
#X obj 84 280 ofOscReceiver;
#X msg 84 233 setup 12345;
#X obj 84 322 print;
#X msg 94 254 stop;
#X text 138 119 <- send number to an address "/test/number";
#X text 380 140 <- send string;
#X text 126 322 the received OSC message. (address + value);
#X text 129 254 <- stop listening.;
#X text 95 369 setup <s \, f>;
#X text 211 369 - setup the sender with the host name/ip and port.
;
#X text 227 94 <- setup the sender with host "localhost" and port "12345".
;
#X text 95 492 anything;
#X text 211 492 - <method name \, returned value>;
#X text 72 543 1) symbol;
#X text 211 543 - an optional module name.;
#X obj 493 5 ofOscReceiver;
#X text 11 23 OSC message receiver which listens on a network port
;
#X text 21 43 [ofOscReceiver] is used to receive OSC messages from
a network port.;
#X text 164 233 <- setup the receiver with the port to listen for messages.
;
#X text 95 387 start;
#X text 211 387 - start listening manually using the current settings.
;
#X text 95 405 stop;
#X text 211 405 - stop listening.;
#X text 95 423 isListening;
#X text 211 423 - check if the receiver is listening.;
#X text 95 441 hasWaitingMessages;
#X text 211 441 - check if the receiver has waiting messages.;
#X text 95 458 getPort;
#X text 211 458 - get the listening port.;
#X obj 84 301 route received;
#X connect 9 0 8 0;
#X connect 10 0 8 0;
#X connect 11 0 12 0;
#X connect 12 0 8 0;
#X connect 13 0 8 0;
#X connect 14 0 43 0;
#X connect 15 0 14 0;
#X connect 17 0 14 0;
#X connect 43 0 16 0;
