#N canvas 321 23 598 516 10;
#X declare -lib ofelia;
#X obj 0 0 cnv 15 580 40 empty empty ofSysGui 3 12 0 18 -204280 -1
0;
#X obj 0 341 cnv 3 580 3 empty empty inlets 8 12 0 13 -228856 -1 0
;
#X obj 0 377 cnv 3 580 3 empty empty outlets 8 12 0 13 -228856 -1 0
;
#X obj 75 349 cnv 17 3 17 empty empty 0 5 9 0 16 -228856 -162280 0
;
#X obj 0 462 cnv 15 580 21 empty empty empty 20 12 0 14 -228856 -66577
0;
#X obj 0 413 cnv 3 580 3 empty empty arguments 8 12 0 13 -228856 -1
0;
#X obj 75 385 cnv 17 3 17 empty empty 0 5 9 0 16 -228856 -162280 0
;
#X text 95 385 bang;
#X obj 523 5 ofSysGui;
#X text 11 23 send Tcl/Tk commands to Pd;
#X text 21 43 [ofSysGui] is used to send Tcl/Tk commands to Pd.;
#X obj 46 177 bng 15 250 50 0 empty empty empty 17 7 0 10 -262144 -1
-1;
#X text 95 349 symbol;
#X text 72 439 (none);
#X text 211 349 - send the Tcl/Tk command to Pd.;
#X text 211 385 - outputs bang after sending the command.;
#X text 67 177 <- Click to send the command to Pd.;
#X obj 46 202 ofCanvasName;
#X obj 46 244 ofSysGui;
#X obj 46 223 ofExpr string.format("%s create oval %d %d %d %d -fill
orange" \, a \, 80 \, 80 \, 150 \, 150) \;;
#X f 86;
#X obj 462 46 declare -lib ofelia;
#X connect 11 0 17 0;
#X connect 17 0 19 0;
#X connect 19 0 18 0;
