#N canvas 321 23 601 557 10;
#X declare -lib ofelia;
#X obj 0 0 cnv 15 580 40 empty empty ofTable 3 12 0 18 -204280 -1 0
;
#X obj 0 381 cnv 3 580 3 empty empty inlets 8 12 0 13 -228856 -1 0
;
#X obj 0 417 cnv 3 580 3 empty empty outlets 8 12 0 13 -228856 -1 0
;
#X obj 75 389 cnv 17 3 17 empty empty 0 5 9 0 16 -228856 -162280 0
;
#X obj 0 502 cnv 15 580 21 empty empty empty 20 12 0 14 -228856 -66577
0;
#X obj 0 453 cnv 3 580 3 empty empty arguments 8 12 0 13 -228856 -1
0;
#X obj 75 425 cnv 17 3 17 empty empty 0 5 9 0 16 -228856 -162280 0
;
#X obj 462 46 declare -lib ofelia;
#X obj 31 101 bng 15 250 50 0 empty empty empty 17 7 0 10 -262144 -1
-1;
#X obj 31 144 print;
#X text 95 390 anything;
#X text 72 476 n) anything;
#X text 11 23 create a table and get it as a list;
#X text 21 43 [ofTable] is used to quickly create a table which can
be used as a list in pd.;
#X text 211 390 - get the table as a list. (optionally pass variables)
;
#X text 95 426 list;
#X text 211 426 - the returned list.;
#X text 211 476 - expressions or constants to set table elements.;
#X obj 529 5 ofTable;
#X obj 31 123 ofTable 1 2 3 4;
#X obj 151 101 bng 15 250 50 0 empty empty empty 17 7 0 10 -262144
-1 -1;
#X obj 151 144 print;
#X obj 151 123 ofTable "apple" "orange" "peach";
#X obj 371 101 bng 15 250 50 0 empty empty empty 17 7 0 10 -262144
-1 -1;
#X obj 371 144 print;
#X obj 371 123 ofTable 1+2 3+4 5+6;
#X obj 31 243 print;
#X obj 31 222 ofTable 5 6 a 8;
#X msg 31 200 7;
#X obj 151 243 print;
#X obj 151 222 ofTable "one" "two" a "four";
#X msg 151 200 symbol three;
#X obj 371 243 print;
#X msg 371 200 10;
#X obj 371 222 ofTable a*1 a*2 a*3;
#X obj 31 343 print;
#X obj 31 322 ofTable ofGetYear() ofGetMonth() ofGetDay();
#X obj 31 302 bng 15 250 50 0 empty empty empty 17 7 0 10 -262144 -1
-1;
#X obj 321 343 print;
#X obj 321 322 ofTable a.r a.g a.b a.a;
#X obj 321 301 ofExpr ofColor.orange;
#X obj 321 281 bng 15 250 50 0 empty empty empty 17 7 0 10 -262144
-1 -1;
#X text 30 80 - getting a list:;
#X text 30 180 - passing a variable:;
#X text 30 280 - using functions and classes:;
#X obj 482 281 bng 15 250 50 0 empty empty empty 17 7 0 10 -262144
-1 -1;
#X obj 482 301 ofTable \; print("first") \; print("second") \; print("third")
\;;
#X text 480 262 execution order.;
#X connect 8 0 19 0;
#X connect 19 0 9 0;
#X connect 20 0 22 0;
#X connect 22 0 21 0;
#X connect 23 0 25 0;
#X connect 25 0 24 0;
#X connect 27 0 26 0;
#X connect 28 0 27 0;
#X connect 30 0 29 0;
#X connect 31 0 30 0;
#X connect 33 0 34 0;
#X connect 34 0 32 0;
#X connect 36 0 35 0;
#X connect 37 0 36 0;
#X connect 39 0 38 0;
#X connect 40 0 39 0;
#X connect 41 0 40 0;
#X connect 45 0 46 0;
