#N canvas 321 23 601 723 10;
#X declare -lib ofelia;
#X obj 0 0 cnv 15 580 40 empty empty ofTrueTypeFontSettings 3 12 0
18 -204280 -1 0;
#X obj 0 420 cnv 3 580 3 empty empty inlets 8 12 0 13 -228856 -1 0
;
#X obj 0 584 cnv 3 580 3 empty empty outlets 8 12 0 13 -228856 -1 0
;
#X obj 75 428 cnv 17 3 17 empty empty 0 5 9 0 16 -228856 -162280 0
;
#X obj 0 669 cnv 15 580 21 empty empty empty 20 12 0 14 -228856 -66577
0;
#X obj 0 620 cnv 3 580 3 empty empty arguments 8 12 0 13 -228856 -1
0;
#X obj 75 592 cnv 17 3 17 empty empty 0 5 9 0 16 -228856 -162280 0
;
#X obj 23 129 ofWindow;
#X obj 23 87 loadbang;
#X msg 23 108 setPosition 0 0 \, setSize 640 480 \, create;
#X obj 462 46 declare -lib ofelia;
#X obj 439 5 ofTrueTypeFontSettings;
#X text 11 23 create and output font settings for [ofTrueTypeFont]
;
#X text 21 43 [ofTrueTypeFontSettings] is used to create and output
font settings for loading a font with [ofTrueTypeFont] object.;
#X text 95 429 bang;
#X text 211 429 - outputs the current [ofTrueTypeFontSettings] instance.
;
#X text 95 593 pointer;
#X text 211 593 - outputs the current [ofTrueTypeFontSettings] instance.
;
#X text 72 643 1) symbol;
#X text 211 643 - an optional module name to be accessed from other
scripts.;
#X obj 23 249 ofTrueTypeFontSettings;
#X obj 23 291 ofTrueTypeFont \$0-font;
#X msg 23 270 load \$1;
#X obj 23 165 ofSetup;
#X obj 23 312 route load;
#X floatatom 23 333 5 0 0 0 - - -;
#X text 59 333 0: fail \, 1: success.;
#X obj 23 368 ofDraw;
#X obj 23 389 ofTrueTypeFont \$0-font drawString 안녕하세요 250
250;
#X f 49;
#X obj 23 186 ofSetBackgroundColor 0;
#X obj 23 207 ofGetDir;
#X text 95 444 set <s \, f>;
#X text 211 444 - sets the font name (filename) and the font size.
;
#X text 95 459 antialiased <f>;
#X text 211 459 - 0: disable / 1: enable antialiased. (default: 1)
;
#X text 95 474 contours <f>;
#X text 211 474 - 0: disable / 1: enable contours. (default: 0);
#X text 95 489 simplifyAmt <f>;
#X text 211 489 - simplify amount. (default: 0.3);
#X text 95 504 dpi <f>;
#X text 211 504 - sets the font dpi. (default: 0);
#X text 95 519 direction <f>;
#X text 211 519 - sets the font direction. (default: 0);
#X text 95 534 addRanges <s>;
#X text 211 534 - Emoji/Japanese/Chinese/Korean/Arabic/Devanagari/Latin
/Greek/Cyrillic.;
#X text 95 559 addRange <s>;
#X text 211 559 - https://openframeworks.cc/documentation/graphics/ofUnicode
;
#X msg 23 228 set \$1/../examples/text/unicode/data/gungsuh.ttf 16
\, addRanges Korean \, addRanges Latin \, bang, f 92;
#X msg 120 368 symbol Hello;
#X text 208 367 replace the string.;
#X connect 8 0 9 0;
#X connect 9 0 7 0;
#X connect 20 0 22 0;
#X connect 21 0 24 0;
#X connect 22 0 21 0;
#X connect 23 0 29 0;
#X connect 24 0 25 0;
#X connect 27 0 28 0;
#X connect 29 0 30 0;
#X connect 30 0 47 0;
#X connect 47 0 20 0;
#X connect 48 0 28 1;
