#N canvas 321 23 599 577 10;
#X declare -lib ofelia;
#X obj 0 0 cnv 15 580 40 empty empty ofUnZip 3 12 0 18 -204280 -1 0
;
#X obj 0 341 cnv 3 580 3 empty empty inlets 8 12 0 13 -228856 -1 0
;
#X obj 0 420 cnv 3 580 3 empty empty outlets 8 12 0 13 -228856 -1 0
;
#X obj 75 349 cnv 17 3 17 empty empty 0 5 9 0 16 -228856 -162280 0
;
#X obj 75 428 cnv 17 3 17 empty empty 0 5 9 0 16 -228856 -162280 0
;
#X obj 0 525 cnv 15 580 21 empty empty empty 20 12 0 14 -228856 -66577
0;
#X obj 0 456 cnv 3 580 3 empty empty arguments 8 12 0 13 -228856 -1
0;
#X text 95 349 bang;
#X text 95 428 float;
#X obj 462 46 declare -lib ofelia;
#X obj 215 159 bng 15 250 50 0 empty empty empty 17 7 0 10 -262144
-1 -1;
#X obj 75 372 cnv 17 3 17 empty empty 1 5 9 0 16 -228856 -162280 0
;
#X floatatom 215 210 5 0 0 0 - - -;
#X text 254 210 0: fail \, 1: success.;
#X text 95 372 symbol;
#X text 211 372 - sets the path to the zip file to unarchive.;
#X text 211 428 - the result. (0: fail or 1: success);
#X text 72 479 1) symbol;
#X text 211 478 - the path to the zip file to unarchive.;
#X text 11 23 unarchive a zip file;
#X obj 529 5 ofUnZip;
#X text 211 349 - unarchive a zip file.;
#X obj 75 395 cnv 17 3 17 empty empty 2 5 9 0 16 -228856 -162280 0
;
#X text 95 395 symbol;
#X text 72 499 2) symbol;
#X text 211 498 - the destination directory. (default: same as the
file);
#X obj 215 184 ofUnZip path/to/file.zip path/to/directory;
#X text 211 395 - sets the destination directory.;
#X connect 10 0 26 0;
#X connect 26 0 12 0;
