#N canvas 397 307 515 239 10;
#X obj 32 107 inlet;
#X obj 32 29 loadbang;
#X obj 32 149 outlet;
#X obj 142 107 inlet;
#X obj 32 128 ofelia d \$0-ez;
#X obj 32 71 s \$0-ez;
#X obj 142 149 s \$0-ez;
#X obj 212 107 inlet;
#X obj 212 149 s \$0-ez;
#X obj 282 107 inlet;
#X obj 282 149 s \$0-ez;
#X msg 32 50 read -c ez.drawFontString.lua;
#X msg 142 128 str \$1;
#X msg 212 128 x \$1;
#X msg 282 128 y \$1;
#X connect 0 0 4 0;
#X connect 1 0 11 0;
#X connect 3 0 12 0;
#X connect 4 0 2 0;
#X connect 7 0 13 0;
#X connect 9 0 14 0;
#X connect 11 0 5 0;
#X connect 12 0 6 0;
#X connect 13 0 8 0;
#X connect 14 0 10 0;
