#N canvas 397 307 588 239 10;
#X obj 32 107 inlet;
#X obj 32 29 loadbang;
#X obj 32 149 outlet;
#X obj 142 107 inlet;
#X obj 32 128 ofelia d \$0-of;
#X obj 32 71 s \$0-of;
#X obj 142 149 s \$0-of;
#X obj 212 107 inlet;
#X obj 212 149 s \$0-of;
#X obj 282 107 inlet;
#X obj 282 149 s \$0-of;
#X obj 352 107 inlet;
#X obj 352 149 s \$0-of;
#X msg 142 128 x \$1;
#X msg 212 128 y \$1;
#X msg 282 128 z \$1;
#X obj 422 107 inlet;
#X obj 422 149 s \$0-of;
#X msg 352 128 radius1 \$1;
#X obj 492 107 inlet;
#X obj 492 149 s \$0-of;
#X msg 492 128 npoints \$1;
#X msg 422 128 radius2 \$1;
#X msg 32 50 read -c ez.drawStar.lua;
#X connect 0 0 4 0;
#X connect 1 0 23 0;
#X connect 3 0 13 0;
#X connect 4 0 2 0;
#X connect 7 0 14 0;
#X connect 9 0 15 0;
#X connect 11 0 18 0;
#X connect 13 0 6 0;
#X connect 14 0 8 0;
#X connect 15 0 10 0;
#X connect 16 0 22 0;
#X connect 18 0 12 0;
#X connect 19 0 21 0;
#X connect 21 0 20 0;
#X connect 22 0 17 0;
#X connect 23 0 5 0;
