#N canvas 720 100 674 456 10;
#X declare -path ofelia/libs/pd;
#X obj 478 21 declare -path ofelia/libs/pd;
#X obj 271 302 *~ 0.1;
#X obj 268 328 dac~;
#X obj 215 250 pdBlSaw~;
#X obj 215 198 mtof~;
#X obj 271 281 pdLowPass~;
#X obj 347 250 mtof~;
#X obj 271 250 pdBlSaw~;
#X obj 215 178 sig~ 45;
#X obj 271 229 *~ 2.01;
#X obj 158 250 pdBlSaw~;
#X obj 158 229 *~ 0.499;
#X obj 347 229 +~ 80;
#X obj 390 251 sig~ 30;
#X obj 347 187 pdTriangle~;
#X obj 347 166 sig~ 0.04;
#X obj 347 208 *~ 40;
#X text 343 282 Low Pass Filter.;
#X text 442 251 Resonance.;
#X text 155 156 Bandlimited Saw Oscillators.;
#X text 25 23 This example shows how a simple subtractive synthesizer
can be built using ofelia abstractions.;
#X text 424 188 Triangle LFO to control filter freq.;
#X connect 1 0 2 0;
#X connect 1 0 2 1;
#X connect 3 0 5 0;
#X connect 4 0 3 0;
#X connect 4 0 9 0;
#X connect 4 0 11 0;
#X connect 5 0 1 0;
#X connect 6 0 5 1;
#X connect 7 0 5 0;
#X connect 8 0 4 0;
#X connect 9 0 7 0;
#X connect 10 0 5 0;
#X connect 11 0 10 0;
#X connect 12 0 6 0;
#X connect 13 0 5 2;
#X connect 14 0 16 0;
#X connect 15 0 14 0;
#X connect 16 0 12 0;
