#N canvas 720 100 674 568 10;
#X declare -lib ofelia;
#X obj 231 452 *~ 0.1;
#X obj 231 478 dac~;
#X obj 135 309 ofBlSaw~;
#X obj 135 236 mtof~;
#X obj 231 361 ofLowPass~;
#X obj 280 278 mtof~;
#X obj 191 309 ofBlSaw~;
#X obj 78 309 ofBlSaw~;
#X obj 280 215 ofTriangle~;
#X obj 280 194 sig~ 0.04;
#X obj 280 236 *~ 40;
#X text 303 362 Low Pass Filter.;
#X text 372 306 Resonance.;
#X text 79 269 Bandlimited Saw Oscillators.;
#X obj 528 23 declare -lib ofelia;
#X obj 135 117 tgl 15 0 empty empty empty 17 7 0 10 -262144 -1 -1 1
1;
#X obj 231 431 *~;
#X obj 246 410 vline~;
#X obj 135 95 loadbang;
#X text 357 216 Triangle LFO to control the filter freq.;
#N canvas 8 23 228 316 dspstate 0;
#X obj 102 46 r pd;
#X obj 102 72 route dsp;
#X msg 121 158 1;
#X obj 71 189 sig~;
#X obj 71 213 snapshot~;
#X obj 102 129 t b b b;
#X msg 150 158 set 0;
#X obj 71 158 del 10;
#X obj 39 21 cnv 15 40 18 empty empty dsp 9 9 1 15 -233017 -66577 0
;
#X obj 20 20 tgl 20 0 \$0-d.dspstate-s \$0-d.dspstate-r empty 17 7
0 10 -228856 -1 -1 0 1;
#X msg 71 243 set \$1;
#X obj 20 99 s pd;
#X msg 20 72 dsp \$1;
#X obj 148 46 loadbang;
#X connect 0 0 1 0;
#X connect 1 0 5 0;
#X connect 2 0 3 0;
#X connect 3 0 4 0;
#X connect 4 0 10 0;
#X connect 5 0 7 0;
#X connect 5 1 2 0;
#X connect 5 2 6 0;
#X connect 6 0 4 0;
#X connect 7 0 4 0;
#X connect 9 0 12 0;
#X connect 10 0 9 0;
#X connect 12 0 11 0;
#X connect 13 0 5 0;
#X coords 0 -1 1 1 60 20 2 20 20;
#X restore 586 44 pd dspstate;
#X obj 280 299 *~;
#X obj 326 279 vline~;
#X text 374 279 Envelope Generator.;
#X text 294 410 Envelope Generator.;
#X obj 280 257 +~ 100;
#X obj 246 152 metro 150;
#X obj 135 152 metro 900;
#X obj 135 215 line~;
#X msg 326 258 1 5 \, 0 300 5;
#X msg 246 389 1 5 \, 0 220 5;
#X text 175 216 Portamento.;
#X obj 320 306 sig~ 20;
#X obj 135 173 ofRandom 36 57;
#X msg 135 194 \$1 100;
#X obj 135 330 *~ 0.9;
#X obj 78 330 *~ 0.85;
#X obj 78 288 *~ 0.497;
#X obj 191 288 *~ 2.03;
#X text 25 23 This example shows how a simple subtractive synthesizer
can be built.;
#X obj 191 330 *~ 0.85;
#X connect 0 0 1 0;
#X connect 0 0 1 1;
#X connect 2 0 35 0;
#X connect 3 0 2 0;
#X connect 3 0 37 0;
#X connect 3 0 38 0;
#X connect 4 0 16 0;
#X connect 5 0 21 0;
#X connect 6 0 40 0;
#X connect 7 0 36 0;
#X connect 8 0 10 0;
#X connect 9 0 8 0;
#X connect 10 0 25 0;
#X connect 15 0 26 0;
#X connect 15 0 27 0;
#X connect 16 0 0 0;
#X connect 17 0 16 1;
#X connect 18 0 15 0;
#X connect 21 0 4 1;
#X connect 22 0 21 1;
#X connect 25 0 5 0;
#X connect 26 0 30 0;
#X connect 26 0 29 0;
#X connect 27 0 33 0;
#X connect 28 0 3 0;
#X connect 29 0 22 0;
#X connect 30 0 17 0;
#X connect 32 0 4 2;
#X connect 33 0 34 0;
#X connect 34 0 28 0;
#X connect 35 0 4 0;
#X connect 36 0 4 0;
#X connect 37 0 7 0;
#X connect 38 0 6 0;
#X connect 40 0 4 0;
