#N canvas 641 23 727 851 10;
#X declare -lib ofelia;
#X obj 27 196 pack f f, f 20;
#X obj 27 217 ofPrepend load;
#X obj 201 238 ofLoadVec2f @velocity 0 0;
#X obj 27 274 ofMouseListener;
#X obj 54 388 ofPrepend load;
#X obj 27 322 ofHead;
#X obj 54 454 ofGetVec2f @location;
#X obj 54 476 ofPrepend sub;
#X obj 54 410 ofLoadVec2f @acceleration;
#X obj 54 498 ofEditVec2f @acceleration;
#X obj 54 564 ofGetVec2f @acceleration;
#X obj 54 586 ofPrepend add;
#X obj 54 608 ofEditVec2f @velocity;
#X obj 54 630 ofExpr @topspeed;
#X obj 54 652 ofPrepend limit;
#X obj 54 696 ofGetVec2f @velocity;
#X obj 54 718 ofPrepend add;
#X obj 54 740 ofEditVec2f @location;
#X obj 27 238 ofLoadVec2f @location 0 0;
#X obj 27 810 ofTranslate;
#X obj 54 762 ofGetVec2f @location;
#X obj 54 784 ofPrepend set;
#X obj 27 832 ofCircle 24;
#X obj 27 121 ofWindowLoadBang;
#X obj 54 674 ofEditVec2f @velocity;
#X obj 54 542 ofEditVec2f @acceleration;
#X msg 54 520 scale 0.2;
#X obj 54 432 sel 1;
#X obj 27 344 t b b;
#X obj 27 85 ofWindow 640 400 LEFT TOP 1 0;
#X obj 27 142 ofDefine \; @topspeed = 5 \; $o1 = ofGetWidth/2 \; $o2
= ofGetHeight/2 \;;
#X text 217 498 compute a vector that points from location to mouse.
;
#X text 192 608 velocity changes according to acceleration.;
#X text 159 652 limit the velocity by topspeed.;
#X text 194 740 location changes by velocity.;
#X text 311 858 This example was originally written in Processing.
https://processing.org/examples/accelerationwithvectors.html;
#X text 25 23 demonstration of the basics of motion with vector. the
motion is controlled by affecting the acceleration. (in this case towards
the mouse);
#X obj 70 295 list split 1;
#X obj 54 366 list 0 0;
#X text 218 542 set length(magnitude) of acceleration.;
#X obj 562 29 declare -lib ofelia;
#X connect 0 0 1 0;
#X connect 1 0 18 0;
#X connect 3 1 37 0;
#X connect 4 0 8 0;
#X connect 5 0 28 0;
#X connect 6 0 7 0;
#X connect 7 0 9 0;
#X connect 8 0 27 0;
#X connect 9 0 26 0;
#X connect 10 0 11 0;
#X connect 11 0 12 0;
#X connect 12 0 13 0;
#X connect 13 0 14 0;
#X connect 14 0 24 0;
#X connect 15 0 16 0;
#X connect 16 0 17 0;
#X connect 17 0 20 0;
#X connect 19 0 22 0;
#X connect 20 0 21 0;
#X connect 21 0 19 0;
#X connect 23 0 30 0;
#X connect 24 0 15 0;
#X connect 25 0 10 0;
#X connect 26 0 25 0;
#X connect 27 0 6 0;
#X connect 28 0 19 0;
#X connect 28 1 38 0;
#X connect 30 0 0 0;
#X connect 30 1 0 1;
#X connect 37 1 38 1;
#X connect 38 0 4 0;
