#N canvas 641 23 682 733 10;
#X declare -lib ofelia;
#X obj 31 191 ofCount;
#X obj 31 235 ofHead 50 OFF;
#X obj 58 301 ofPrepend add;
#X obj 58 368 ofPrepend add;
#X obj 58 477 sel 1;
#X obj 289 477 sel 1;
#X obj 31 257 t b b;
#X obj 31 547 t b b;
#X obj 58 590 ofPrepend set;
#X obj 31 616 ofTranslate;
#X text 327 672 This example was originally written in Processing.
https://processing.org/examples/bouncingball.html;
#X obj 31 213 >= 2;
#X text 29 27 demonstration of using vectors to control motion of body.
;
#X obj 31 638 ofCircle 24;
#X text 218 107 location of shape.;
#X text 218 127 velocity of shape.;
#X text 200 147 gravity acts at the shape's acceleration.;
#X text 196 323 add velocity to the location.;
#X text 195 390 add gravity to velocity.;
#X text 305 435 bounce off edges.;
#X text 111 639 display circle at location vector.;
#X text 66 213 determine if all vectors are loaded.;
#X obj 31 107 ofLoadVec2f @location 100 100;
#X obj 31 127 ofLoadVec2f @velocity 1.5 2.1;
#X obj 31 147 ofLoadVec2f @gravity 0 0.2;
#X obj 58 279 ofGetVec2f @velocity;
#X obj 58 323 ofEditVec2f @location;
#X obj 58 346 ofGetVec2f @gravity;
#X obj 58 390 ofEditVec2f @velocity;
#X obj 58 412 ofGetVec2f @location;
#X obj 289 521 ofEditVec2f @velocity;
#X obj 58 521 ofEditVec2f @velocity;
#X obj 289 587 ofEditVec2f @location;
#X obj 58 568 ofGetVec2f @location;
#X msg 58 499 mult -1 1;
#X msg 289 499 mult 1 -0.95;
#X obj 289 565 ofPrepend assignY;
#X obj 289 543 ofGetHeight;
#X obj 58 434 ofExpr \; if ($i1 > ofGetWidth || $i1 < 0 \, 1 \, 0)
\; if ($i2 > ofGetHeight \, 1 \, 0) \;;
#X obj 31 169 sel 1;
#X obj 31 71 ofWindow 640 400 LEFT TOP 1 0;
#X obj 532 29 declare -lib ofelia;
#X connect 0 0 11 0;
#X connect 1 0 6 0;
#X connect 2 0 26 0;
#X connect 3 0 28 0;
#X connect 4 0 34 0;
#X connect 5 0 35 0;
#X connect 6 0 7 0;
#X connect 6 1 25 0;
#X connect 7 0 9 0;
#X connect 7 1 33 0;
#X connect 8 0 9 0;
#X connect 9 0 13 0;
#X connect 11 0 1 0;
#X connect 22 0 39 0;
#X connect 23 0 39 0;
#X connect 24 0 39 0;
#X connect 25 0 2 0;
#X connect 26 0 27 0;
#X connect 27 0 3 0;
#X connect 28 0 29 0;
#X connect 29 0 38 0;
#X connect 30 0 37 0;
#X connect 33 0 8 0;
#X connect 34 0 31 0;
#X connect 35 0 30 0;
#X connect 36 0 32 0;
#X connect 37 0 36 0;
#X connect 38 0 4 0;
#X connect 38 1 5 0;
#X connect 39 0 0 0;
