#N canvas 641 23 677 786 10;
#X declare -lib ofelia;
#X obj 31 248 ofPrepend load;
#X obj 31 333 pack f f, f 16;
#X obj 31 355 ofPrepend load;
#X obj 97 463 ofPrepend sub;
#X obj 58 420 t b b b;
#X obj 31 185 ofHead;
#X obj 31 637 ofTranslate;
#X obj 31 568 t b b;
#X obj 31 659 t b b, f 20;
#X obj 74 149 list split 1;
#X obj 31 127 ofMouseListener;
#X obj 31 703 ofLine2d 0 0 150 150;
#X obj 31 399 t b b;
#X text 29 27 demonstration of some basic vector math: subtraction
\, normalization and scaling. normalizing a vector sets its length
to 1;
#X text 327 723 This example was originally written in Processing.
https://processing.org/examples/vectormath.html;
#X text 151 269 a vector that points to the mouse location.;
#X text 159 377 a vector that points to the center of the window.;
#X text 121 520 multiply its length by 150 (scaling its length);
#X text 71 568 draw the resulting vector.;
#X text 187 464 subtract center from mouse which results in a vector
that points from center to mouse.;
#X text 147 494 normalize the vector.;
#X obj 31 227 list append 0 0;
#X obj 31 269 ofLoadVec2f @mouse;
#X obj 31 290 ofExpr \; ofGetWidth / 2 \; ofGetHeight / 2 \;;
#X obj 31 377 ofLoadVec2f @center;
#X obj 97 441 ofGetVec2f @center;
#X msg 77 494 normalize;
#X msg 58 520 mult 150;
#X obj 58 589 ofExpr \; ofGetWidth / 2 \; ofGetHeight / 2 \;;
#X obj 148 681 ofGetVec2f @mouse;
#X obj 58 542 ofEditVec2f @mouse;
#X obj 31 91 ofWindow 640 400 LEFT TOP 1 0;
#X obj 31 206 ofSetLineWidth 2;
#X obj 530 29 declare -lib ofelia;
#X connect 0 0 22 0;
#X connect 1 0 2 0;
#X connect 2 0 24 0;
#X connect 3 0 30 0;
#X connect 4 0 27 0;
#X connect 4 1 26 0;
#X connect 4 2 25 0;
#X connect 5 0 32 0;
#X connect 6 0 8 0;
#X connect 7 0 6 0;
#X connect 7 1 28 0;
#X connect 8 0 11 0;
#X connect 8 1 29 0;
#X connect 9 1 21 1;
#X connect 10 1 9 0;
#X connect 12 0 7 0;
#X connect 12 1 4 0;
#X connect 21 0 0 0;
#X connect 22 0 23 0;
#X connect 23 0 1 0;
#X connect 23 1 1 1;
#X connect 24 0 12 0;
#X connect 25 0 3 0;
#X connect 26 0 30 0;
#X connect 27 0 30 0;
#X connect 28 0 6 1;
#X connect 28 1 6 2;
#X connect 29 0 11 2;
#X connect 32 0 21 0;
